<?xml version="1.0" encoding="utf-8"?>
<!-- Generator: Adobe Illustrator 27.4.0, SVG Export Plug-In . SVG Version: 6.00 Build 0)  -->
<svg version="1.1" id="Layer_1" xmlns="http://www.w3.org/2000/svg" xmlns:xlink="http://www.w3.org/1999/xlink" x="0px" y="0px"
	 viewBox="0 0 200 244.9" style="enable-background:new 0 0 200 244.9;" xml:space="preserve">
<style type="text/css">
	.st0{fill:#FF8080;}
	.st1{fill:#1B1C1E;}
	.st2{fill:#8B2403;}
	.st3{fill:none;stroke:#1B1C1E;stroke-width:0.4797;stroke-miterlimit:10;}
	.st4{fill:#EBDAD2;}
	.st5{fill:#A84E39;}
	.st6{fill:#751A01;}
	.st7{fill:#EBDAD2;stroke:#1B1C1E;stroke-width:0.4797;stroke-miterlimit:10;}
	.st8{fill:#FBAF5E;}
	.st9{fill:#1B1C1E;stroke:#1B1C1E;stroke-width:0.4797;stroke-miterlimit:10;}
	.st10{opacity:0.78;clip-path:url(#SVGID_00000102514703122196910980000012682910639192927398_);}
	.st11{fill:#290B01;}
	.st12{opacity:0.78;clip-path:url(#SVGID_00000104687224816481400270000010926354958820927408_);}
	.st13{opacity:0.78;clip-path:url(#SVGID_00000034048838137100332120000007556128589517967260_);}
	.st14{fill:#EFBE9D;}
	.st15{opacity:0.88;clip-path:url(#SVGID_00000147899062818260080030000012278121947962570684_);}
	.st16{fill:#443730;}
	.st17{opacity:0.88;clip-path:url(#SVGID_00000088125537762232558220000005475813290126676377_);}
	.st18{fill:none;stroke:#1B1C1E;stroke-width:0.4448;stroke-miterlimit:10;}
	.st19{opacity:0.88;clip-path:url(#SVGID_00000041991147926753303820000015805931601871940792_);}
	.st20{fill:#E2AF8D;}
	.st21{fill:none;stroke:#1B1C1E;stroke-width:0.4448;stroke-linecap:round;stroke-linejoin:round;stroke-miterlimit:10;}
	.st22{fill:#1B1C1E;stroke:#1B1C1E;stroke-width:0.4448;stroke-miterlimit:10;}
	.st23{fill:#FCEA9F;}
	.st24{fill:#A7BC79;}
	.st25{fill:#637189;}
</style>
<path class="st0" d="M134.5,75.9c-1,1.1-4.3,4.3-5.7,5.5c-1.7,1.4-4,2.2-5.8,0.5c-7.4-7.1-19.9-18-24.7-14.9c-5,3.3,0.4,20.5,3.1,29
	c1.3,4,4.8,14.4,12.9,25.9c6.1,8.7,9.2,13,13.6,13.6c11.1,1.4,21.7-19,25.3-25.9c7.2-13.8,16.7-40.1,8.6-45.6
	C156,60,140.6,69.1,134.5,75.9z"/>
<g id="Illustration_22_">
	<g>
		<path class="st1" d="M120.1,192.4c0,0,4.4,1.2-7.5,1.6c-11.9,0.4-74.7,0.6-81.2,0s-19-0.2-2.4-1.6s33.9-0.6,50.7-1.4
			C96.5,190.2,117.6,191,120.1,192.4z"/>
		<g>
			<g>
				<path class="st1" d="M39.8,95.7c-3,2.1-7.2,4.6-7.2,4.6c-3.4-8.2,0.6-18.5,1.6-18.5C34.2,81.8,39.6,85.7,39.8,95.7z"/>
				<path class="st2" d="M42.7,93.5c-0.3,0.4-1.4,1.2-2.8,2.2c-0.3-10-5.6-13.9-5.6-13.9c1,0,2.2,1.1,4.6,3.9
					C41.2,88.7,42.7,93.5,42.7,93.5z"/>
				<path class="st3" d="M39.8,96.8c0-0.4,0-0.7,0-1.1"/>
			</g>
			<g>
				<path class="st1" d="M58.8,105c0,0-2.7-4.2-4.5-7.3c4.6-8.9,11.1-10,11.1-10C66.3,88.1,65.4,99.1,58.8,105z"/>
				<path class="st2" d="M65.5,87.7c0,0-6.5,1.2-11.1,10c-0.8-1.4-1.5-2.7-1.6-3.2c0,0,3.4-3.7,6.8-5.3C63,87.7,64.6,87.2,65.5,87.7
					z"/>
				<path class="st3" d="M54.4,97.7c-0.1,0.3-0.3,0.6-0.5,1"/>
			</g>
			<path class="st2" d="M37.9,94.1c0,0-4.5,2.3-5.9,7.8c-1.3,5.6-0.2,11.4,0,13.6s0.3,5.1-0.1,9.3c-0.4,4.1,1,13.1,8.6,23.6
				s23.7,23.3,25.6,33.8c1.9,10.5,46.7,2.4,46.7,2.4s2.3-10-2.1-29.6c-2.1-9.4-7.9-16.8-10.5-19.1c-4.7-4.2-12.3-9.5-20.7-11.7
				c-14.6-3.9-15.7-6.4-19.9-11.7c0,0,2.2-4,0.8-10.3c-1.5-6.8-6.4-8.8-7.7-9.2C51,92.6,42.1,91.7,37.9,94.1z"/>
			<path class="st4" d="M60.6,113.6c0,0-4.3,16.4-15.4,17.2c-8.5,0.6-13-11.7-13-11.7c0-1.4-0.1-2.7-0.2-3.7
				c-0.1-0.9-0.3-2.4-0.5-4.2c1.3,2.7,3.6,5.3,6.4,6.5c2.6,1.2,5.9,1.6,9.8,1.3c2.7-0.2,4.8-0.9,6.5-1.7c4-2,5.5-4.8,5.5-4.8
				C60,112.9,60.3,113.3,60.6,113.6z"/>
			<path class="st4" d="M54.2,117.3c-1.7,0.9-3.8,1.5-6.5,1.7c-3.9,0.3-7.2-0.2-9.8-1.3c-1.3-1.2-2.1-2.8-1.7-4.5
				c0.9-3.9,4.6-4.9,4.6-4.9l11.8,0.7C55.9,111.6,56.1,115,54.2,117.3z"/>
			<path class="st2" d="M53.5,155.4c0,0-0.1,1.3-0.5,3.5c-0.1,0.9-0.3,1.9-0.5,3.1c-1.2,6.6-3.8,16.9-8.7,24.4c0,0-3.1-0.1-4.7,2.2
				c-1.6,2.3-0.9,4.7-0.9,4.7s10.6,0,12.5,0c1.6,0,5-9.3,11.9-19.2c0.9-1.2,1.7-2.4,2.7-3.6c8.8-11.1,9.4-21.6,9.4-21.6L53.5,155.4z
				"/>
			<path class="st5" d="M60.3,177.4c-5.5,8.5-8.3,15.8-9.7,15.8c-1.9,0-12.5,0-12.5,0s-0.7-2.4,0.9-4.7c1.6-2.3,4.7-2.2,4.7-2.2
				c2.2-3.4,3.9-7.3,5.3-11.2C49,175.2,57,174.5,60.3,177.4z"/>
			<path class="st2" d="M115.4,177c0,0-2.2,4.2-13.6,4s-35.4-3-45.2,0.4s-8.7,11.8-6.9,11.8c1.9,0,0,0,6.5,0s30.8,0,48.9,0
				s15.4-14.8,11.9-18.8c-3.5-4-4.2-8.2-4.2-8.2s0.7,8.4,0.6,13.5L115.4,177z"/>
			<path class="st6" d="M94.9,183.5c-14.5,2.1-22.2,5.2-34.7,5.6c-12.5,0.3-8.7-4.6-8.7-4.6c1.2-1.2,2.9-2.2,5.2-3
				c9.9-3.4,33.9-0.6,45.2-0.4c0.7,0,1.3,0,2,0l0,0C104.2,181.1,109,181.5,94.9,183.5z"/>
			<path class="st3" d="M41.7,193.3c0,0-0.8-2.1,0.8-3.7"/>
			<path class="st3" d="M46.2,189.9c0,0-0.9,1.4-0.2,3.4"/>
			<path class="st7" d="M44.5,108.1c0,0-1.3-0.1-2.7,0c-1.4,0.1-3.7,1.5-3.2,4.2c0.5,2.6,2.4,3.4,3.6,3.3c1.3-0.2,3.8-2.8,3.8-2.8
				l0-2.3C46.1,110.3,46.1,108.3,44.5,108.1z"/>
			<path class="st7" d="M47.6,108.1c0,0,1.3-0.1,2.7,0s3.7,1.5,3.2,4.2c-0.5,2.6-2.4,3.4-3.6,3.3c-1.3-0.2-3.8-2.8-3.8-2.8l0-2.3
				C46,110.3,46.1,108.3,47.6,108.1z"/>
			<g>
				<path class="st8" d="M42.8,104.8c0,0-1.3,1.5-3.8,1.2c-2.5-0.3-3.2-2.4-3.2-2.4c0.1-0.5,1-2.1,3.3-2.2c0.2,0,0.5,0,0.8,0
					c0.1,0,0.3,0,0.4,0C42.6,102.1,42.8,104.8,42.8,104.8z"/>
				<path class="st9" d="M40.4,103.1c0,1.2-0.4,2.3-0.9,2.3s-0.9-1-0.9-2.3c0-0.7,0.1-1.3,0.3-1.7c0.2,0,0.5,0,0.8,0
					c0.1,0,0.3,0,0.4,0C40.3,101.9,40.4,102.5,40.4,103.1z"/>
			</g>
			<g>
				<path class="st8" d="M49.2,104.9c0,0,1.3,1.5,3.8,1.2c2.5-0.3,3.3-2.4,3.3-2.4c-0.1-0.5-1-2.1-3.2-2.2c-0.2,0-0.5,0-0.8,0
					c-0.1,0-0.3,0-0.4,0C49.4,102.1,49.2,104.9,49.2,104.9z"/>
				<path class="st9" d="M51.6,103.2c0,1.2,0.4,2.3,0.9,2.3c0.5,0,0.9-1,0.9-2.3c0-0.7-0.1-1.3-0.3-1.7c-0.2,0-0.5,0-0.8,0
					c-0.1,0-0.3,0-0.4,0C51.8,102,51.6,102.5,51.6,103.2z"/>
			</g>
			<path class="st9" d="M46.1,110.3c0,0-1.5-0.8-2.3-1.9c-0.8-1.2,1.2-1.4,2.4-1.4c1.2,0,2.4,0.4,1.7,1.5
				C47.3,109.6,46.1,110.3,46.1,110.3z"/>
			<path class="st5" d="M63.7,117.3c0,0-3.8,20.3-10.5,27.6c-8.3,9-14.4,1-14.4,1c-6.1-9.4-7.3-17.4-6.9-21.2c0.2-2.2,0.3-4,0.3-5.5
				c0,0,4.5,12.3,13,11.7c11.2-0.8,15.4-17.2,15.4-17.2C61.7,115,62.6,116.2,63.7,117.3z"/>
			<path class="st6" d="M51.4,92.8c-0.3,0.6-1.5,2.7-3.1,5.7c-1.2,2.3-3.8,2.3-5.1-0.3c-1.1-2.2-2.4-4.4-2.8-5
				C44.1,92.2,48.9,92.5,51.4,92.8z"/>
			<path class="st3" d="M115.4,177c0,0-2.2,4.2-13.6,4s-35.4-3-45.2,0.4"/>
			<path class="st3" d="M62.5,174.1c0.9-1.2,1.7-2.4,2.7-3.6c8.8-11.1,9.4-21.6,9.4-21.6"/>
			<path class="st3" d="M53.5,155.4c0,0-0.1,1.3-0.5,3.5c-0.1,0.9-0.3,1.9-0.5,3.1"/>
			<g>
				<g>
					<defs>
						<path id="SVGID_1_" d="M60.6,113.6c0,0-4.3,16.4-15.4,17.2c-8.5,0.6-13-11.7-13-11.7c0-1.4-0.1-2.7-0.2-3.7
							c-0.1-0.9-0.3-2.4-0.5-4.2c1.3,2.7,3.6,5.3,6.4,6.5c2.6,1.2,5.9,1.6,9.8,1.3c2.7-0.2,4.8-0.9,6.5-1.7c4-2,5.5-4.8,5.5-4.8
							C60,112.9,60.3,113.3,60.6,113.6z"/>
					</defs>
					<clipPath id="SVGID_00000086649676095824551040000003322360799344415156_">
						<use xlink:href="#SVGID_1_"  style="overflow:visible;"/>
					</clipPath>
					<g style="opacity:0.78;clip-path:url(#SVGID_00000086649676095824551040000003322360799344415156_);">
						<g>
							<g>
								<g>
									<path class="st11" d="M57.9,115.6C57.9,115.6,57.9,115.5,57.9,115.6C57.8,115.5,57.9,115.5,57.9,115.6z"/>
									<path class="st11" d="M55.2,117.4L55.2,117.4L55.2,117.4L55.2,117.4z"/>
									<path class="st11" d="M55.2,117.4l0,0.1C55.3,117.5,55.2,117.4,55.2,117.4z"/>
									<path class="st11" d="M57.5,114.7c0,0,0-0.1,0-0.2L57.5,114.7z"/>
									<path class="st11" d="M56.8,114.5L56.8,114.5C56.8,114.4,56.8,114.4,56.8,114.5z"/>
									<path class="st11" d="M60.2,113.8C60.2,113.8,60.2,113.8,60.2,113.8C60.3,113.8,60.2,113.8,60.2,113.8z"/>
									<path class="st11" d="M60.2,113.5C60.2,113.4,60.2,113.4,60.2,113.5L60.2,113.5C60.2,113.4,60.2,113.4,60.2,113.5z"/>
									<path class="st11" d="M60,113.4L60,113.4C60,113.4,60,113.4,60,113.4z"/>
									<path class="st11" d="M59.6,111.2L59.6,111.2C59.5,111.2,59.5,111.2,59.6,111.2z"/>
									<path class="st11" d="M60.3,114C60.3,113.9,60.3,113.9,60.3,114C60.3,113.9,60.3,113.9,60.3,114z"/>
									<path class="st11" d="M57.9,115.7L57.9,115.7C57.9,115.6,57.9,115.7,57.9,115.7z"/>
									<path class="st11" d="M57.6,114.6L57.6,114.6C57.6,114.6,57.6,114.6,57.6,114.6z"/>
									<path class="st11" d="M54.2,118C54.2,118.1,54.2,118.1,54.2,118C54.3,118.1,54.3,118.1,54.2,118z"/>
									<path class="st11" d="M59.5,114.2c-0.3-0.3,0-0.1-0.2-0.4c0,0.1,0,0.2-0.1,0c-0.1-0.2,0.1-0.1-0.1-0.3l0,0.1
										c-0.2-0.1-0.3-0.3-0.3-0.3c0.3,0.4-0.3,0-0.3,0.1v0l-0.2-0.1l0,0l0,0c-0.2-0.1-0.4-0.2-0.4-0.1c0.2,0.2-0.1,0.3,0,0.5
										c0-0.1,0-0.1,0.1-0.1L58,114c-0.1,0-0.2-0.2-0.1,0c0.3,0.3,0.1-0.1,0.2-0.1c0,0.1,0.1,0.2,0.1,0.2c0.1-0.1,0.3,0,0-0.4
										c0.1,0,0.2,0.2,0.2,0.2c-0.1-0.2,0.2,0.1,0.1-0.1c0.3,0.3,0,0.3,0.1,0.5c-0.3-0.1-0.2,0.2-0.3,0.3
										c-0.2-0.2-0.3-0.5-0.5-0.6c-0.2,0,0,0.2,0.1,0.4c-0.1,0-0.4-0.4-0.5-0.3l-0.1-0.2c-0.4-0.2,0,0.2,0,0.2
										c0.1,0,0.2,0.1,0.2,0.1c0.1,0.1,0.1,0.2,0.1,0.2l0,0c0.1,0.2,0.3,0.3,0.1,0.3c-0.1-0.2-0.2-0.1-0.3-0.1v0
										c0,0.1-0.1,0.1-0.1,0.2l0,0c0,0.1,0.2,0.4,0.1,0.4c-0.1-0.1-0.2-0.4-0.3-0.3c-0.1-0.1,0-0.2,0-0.2c-0.1,0-0.3-0.2-0.3-0.3
										c-0.2-0.2,0,0.1-0.1,0.1c0,0,0.1,0.1,0.1,0.2c-0.2-0.2-0.1,0.1,0,0.3l0-0.2c0.2,0.2,0.2,0.4,0.3,0.5
										c-0.3-0.3,0,0.3-0.3,0.1l0.2,0.1c-0.2,0,0,0.5-0.1,0.7c0-0.1-0.3-0.5-0.1-0.5c-0.2,0-0.3-0.3-0.5-0.5
										c-0.2,0,0.2,0.4,0.3,0.5l0-0.1c0.2,0.5-0.4,0.1-0.3,0.5c-0.1-0.1,0-0.1,0-0.1c-0.2-0.1,0,0.1,0,0.2c-0.1,0-0.3,0-0.4-0.3
										c-0.1,0,0.1,0.1,0.1,0.3l0,0l0.1,0.4c-0.1,0-0.3-0.1-0.6-0.3c-0.1,0.2,0.4,0.7,0.3,0.9c-0.2-0.1-0.1-0.2-0.2-0.3l-0.1,0.1
										c-0.2-0.3,0-0.2-0.2-0.6c0.2,0.4,0,0.2,0,0.5l0,0c0.1,0.3-0.1,0.2-0.2,0.3c-0.1-0.2,0-0.2,0-0.3c-0.1,0-0.3,0.2-0.1,0.6
										c-0.1,0-0.3-0.1-0.3-0.3c-0.2,0,0.2,0.5,0,0.5l-0.1-0.2c-0.4-0.2-0.1,0.5-0.5,0.3l0.2,0.3c-0.1-0.1-0.2-0.1-0.3-0.2v-0.1
										c-0.2-0.2,0.1,0.3-0.1,0.1c0,0.1,0.2,0.3,0.3,0.4c0.2-0.4,0.9-0.1,1-0.7c0,0-0.1,0-0.1-0.1c0.1,0,0.1-0.1,0.2,0.1v0
										c0-0.1,0.4,0.2,0.4,0.1c-0.1-0.2,0.2,0,0-0.4l0.2,0.2c-0.1-0.1-0.2-0.3-0.2-0.4c0.1,0,0.2,0.1,0.2,0.2
										c0.3,0,0.6-0.3,0.7-0.5l0,0.2c0.1,0,0-0.4,0.2,0c0-0.2,0.4-0.1,0-0.5c0.4,0.3,0.4,0,0.5-0.2c-0.3-0.3,0-0.2,0-0.4
										c0.2,0.2,0.1,0.4,0.3,0.6c-0.2-0.5,0.7,0,0.1-0.8c0,0,0,0,0.1,0c0,0,0.2,0,0.2,0c-0.1-0.1-0.2-0.1-0.2-0.2
										c0.1,0,0.2,0.2,0.3,0.2c0-0.2,0-0.5-0.2-0.7c0.1,0,0.3,0.1,0.3,0.2c0-0.3,0.2-0.1,0.2-0.4c0,0,0.2,0.3,0,0.3
										c0.4,0.3,0.2-0.3,0.5-0.2l-0.2-0.3c0-0.1,0.3,0.1,0.3,0.2c0.3,0,0.2-0.2,0.3-0.3c0,0,0.1,0,0,0.1l0.1-0.1
										c0,0-0.1-0.2-0.3-0.4C59.6,114.1,59.6,114.2,59.5,114.2z"/>
									<path class="st11" d="M59.4,114L59.4,114L59.4,114C59.4,113.9,59.4,113.9,59.4,114z"/>
									<path class="st11" d="M57.2,114.2c0,0,0.1,0,0.1,0C57.3,114.2,57.2,114.2,57.2,114.2z"/>
									<path class="st11" d="M60.2,112.1c-0.4-0.3,0,0.1-0.2,0.1c0-0.1-0.2-0.3-0.4-0.3c0.4,0.5-0.2,0-0.2,0.2
										c-0.1-0.1-0.1-0.2-0.3-0.4c0,0.2,0,0.3,0.3,0.6c-0.1,0.1-0.3,0.1-0.3,0.2c0-0.2-0.2-0.2-0.4-0.5c0.2,0.4,0.4,0.9,0.7,1.4
										c-0.3-0.2-0.3-0.3-0.6-0.5c-0.3,0,0.2,0.3,0,0.3h0.1c0,0.1,0.3,0.4,0.5,0.6l0.1-0.2c0.2,0.2,0,0.3,0.1,0.3
										c0.2,0.3,0.2,0,0.4,0.2c-0.1-0.2,0-0.2,0-0.3l0.1,0.1c0.2,0,0-0.3,0-0.3c0,0,0,0,0.1,0c-0.1-0.1-0.2-0.3-0.2-0.4v0
										c-0.2-0.3-0.2-0.6-0.6-0.7l0.2-0.1c0.3,0.3,0.7,0.7,0.6,0.8l0.1,0.1c0.2,0,0-0.4-0.3-0.6c-0.6-0.7,0.2-0.3,0-0.7
										c0.2,0.1,0.2,0.3,0.3,0.4c0,0,0,0.1-0.2,0c0,0.3,0.7,0.5,0.4,0.6c-0.2,0-0.2-0.4-0.4-0.2l0.4,0.5c0-0.1,0-0.2,0-0.4
										c0-0.7,0.5-0.8,0.5-0.8c0.4-0.7,0.8-1.3,1.1-2.1c0-0.2,0.1-0.3-0.4-0.7c-0.1,0-0.1,0.1-0.3,0c0.2,0.1,0.3,0.3,0.2,0.4
										c-0.2-0.1,0-0.1-0.1-0.1h0c-0.1-0.1-0.2-0.1-0.1-0.2c-0.4-0.1-0.4,0.2-0.1,0.5c-0.3,0-0.3-0.3-0.4-0.4
										c-0.4,0.2-0.5,0.4-0.7,0.8c0.4,0.2,0.2,0.2,0.4,0.4l-0.1,0c0.1,0,0.3,0.2,0.4,0.2c-0.4,0,0.3,0.6,0.4,0.8l-0.2-0.1
										c0,0.1,0,0.1,0,0.3c-0.5-0.1,0-0.2-0.4-0.5l0,0.1c-0.1-0.1-0.4-0.4-0.5-0.6c0.2,0.4-0.3,0.1-0.2,0.5
										c-0.2-0.2-0.2-0.4-0.2-0.5c0,0,0,0.2-0.2,0.1l0.2,0.2c0,0.1-0.2-0.2-0.4-0.3C59.2,111.4,60.2,111.8,60.2,112.1z"/>
									<path class="st11" d="M58,114.3C58.1,114.3,58.1,114.2,58,114.3C58.1,114.2,58,114.2,58,114.3z"/>
									<path class="st11" d="M58,113.4C58,113.4,58,113.4,58,113.4C57.9,113.4,58,113.4,58,113.4z"/>
									<path class="st11" d="M57.7,113.1c0.1,0.1,0.1,0.1,0.2,0.2C57.9,113.2,57.9,113.2,57.7,113.1z"/>
									<path class="st11" d="M50.2,118.2c0,0.1,0,0.2,0,0.3l0-0.1L50.2,118.2z"/>
									<path class="st11" d="M50.5,118.5l0.1,0.1l-0.1-0.4C50.5,118.2,50.6,118.4,50.5,118.5z"/>
									<path class="st11" d="M50.9,118.6L50.9,118.6C50.9,118.6,50.9,118.6,50.9,118.6z"/>
									<path class="st11" d="M50.9,118.4l-0.1-0.3l0,0.3H50.9c0,0.1,0,0.2,0,0.2L50.9,118.4C50.9,118.4,50.9,118.4,50.9,118.4z"/>
									<path class="st11" d="M51,118.3C51,118.3,50.9,118.3,51,118.3C50.9,118.3,51,118.3,51,118.3z"/>
									<path class="st11" d="M51.5,118.8c-0.1-0.1-0.1-0.3-0.1-0.4c-0.1,0,0,0.4-0.1,0.3c0-0.3-0.1-0.1-0.2-0.3
										C51.1,118.6,51.3,118.8,51.5,118.8L51.5,118.8C51.4,118.6,51.4,118.7,51.5,118.8z"/>
									<path class="st11" d="M51.8,118.1l0,0.3c-0.1-0.1-0.2-0.1-0.3-0.3c0,0,0,0.2,0,0.3c-0.1-0.1-0.2-0.2-0.1,0
										c0.3,0.1,0.2,0.2,0.5,0.2c0,0,0,0,0,0l0.2,0.1C51.9,118.3,52,118.3,51.8,118.1z"/>
									<path class="st11" d="M52.1,118.2c-0.1,0,0,0.3,0.1,0.5l0.1-0.3C52.2,118.4,52.2,118.5,52.1,118.2z"/>
									<path class="st11" d="M52.2,118.2c0.1,0.1,0.3,0.4,0.2,0.1C52.3,118.3,52.2,117.9,52.2,118.2z"/>
									<path class="st11" d="M52.9,118.1l-0.2-0.1c-0.2-0.3,0-0.1,0-0.3c-0.2,0-0.1,0.1,0,0.4c0,0,0,0.2,0,0.3
										C52.7,118,53.1,118.8,52.9,118.1z"/>
									<polygon class="st11" points="52.4,117.9 52.5,118.1 52.5,117.9 									"/>
									<path class="st11" d="M53.6,118.3c0.3,0.3,0-0.3,0.3-0.2c0,0,0,0,0,0.1l0.1-0.1l0,0.1c-0.1-0.2-0.1-0.4-0.2-0.6
										c-0.2-0.2,0.1,0.3-0.1,0.1c0-0.1-0.1-0.3-0.1-0.4c0,0.1,0.1,0.3,0.1,0.5c0,0-0.1-0.1-0.1-0.2c0,0.2,0.2,0.5,0,0.5
										c-0.2-0.2-0.1-0.3-0.2-0.2c0.3,0.3-0.1,0,0,0.3c-0.1,0-0.3-0.2-0.4-0.4c0.1,0.3,0.2,0.6,0.2,0.7v-0.3l0.2,0.3
										C53.4,118.2,53.4,118.2,53.6,118.3L53.6,118.3z"/>
									<path class="st11" d="M53.6,117.2C53.6,117.2,53.6,117.2,53.6,117.2C53.5,117.2,53.5,117.2,53.6,117.2z"/>
									<polygon class="st11" points="52.8,117.7 52.8,117.6 52.7,117.5 									"/>
									<path class="st11" d="M53.5,116.9C53.4,116.9,53.5,117,53.5,116.9L53.5,116.9L53.5,116.9z"/>
									<polygon class="st11" points="53.7,117.1 53.9,117.3 53.8,117.1 									"/>
									<path class="st11" d="M55.8,116c-0.1,0,0,0.1,0.1,0.3C56,116.3,55.7,116.1,55.8,116z"/>
									<path class="st11" d="M56.7,114.8c-0.2-0.1,0,0.2-0.1,0.2C56.7,115.1,56.7,115,56.7,114.8z"/>
									<path class="st11" d="M56.5,113.7c0,0.1,0,0.1,0.1,0.1l0.3,0.4C57.1,114.3,56.6,113.9,56.5,113.7z"/>
									<path class="st11" d="M56.9,113.2l0,0.2l0,0c0.1,0.1,0.1,0.2,0.2,0.4C57.3,113.6,57.2,113.4,56.9,113.2z"/>
									<path class="st11" d="M57.3,113.9L57.3,113.9C57.2,113.8,57.2,113.8,57.3,113.9z"/>
									<path class="st11" d="M57.3,113.8C57.3,113.8,57.3,113.8,57.3,113.8C57.3,113.8,57.3,113.8,57.3,113.8
										C57.3,113.9,57.4,113.9,57.3,113.8z"/>
									<path class="st11" d="M57.2,113.3l0.1-0.2h-0.1C57.4,113.3,57,113,57.2,113.3z"/>
									<path class="st11" d="M58,112.8l0.2,0.2c0.1,0-0.2-0.6,0.1-0.3c-0.2-0.1-0.2-0.3-0.3-0.2C58.3,112.6,58.2,112.8,58,112.8z"
										/>
									<path class="st11" d="M58.6,112.7c0,0.1,0.1,0.1,0.2,0.1C58.9,112.9,58.8,112.7,58.6,112.7C59,113,58.5,112.5,58.6,112.7z"
										/>
									<path class="st11" d="M59,112.3C59,112.3,59,112.4,59,112.3c0.1,0-0.2-0.2-0.3-0.3C58.6,111.8,58.8,112.2,59,112.3z"/>
									<path class="st11" d="M61.3,112.9c-0.2-0.1-0.2,0-0.2,0C61.1,112.9,61.2,112.9,61.3,112.9z"/>
									<polygon class="st11" points="59.6,111.6 59.6,111.6 59.8,111.9 									"/>
									<polygon class="st11" points="59.8,111 59.7,110.7 59.7,110.9 									"/>
									<path class="st11" d="M60,110.9L60,110.9l0-0.1C59.8,110.8,60,110.9,60,110.9z"/>
									<path class="st11" d="M60.1,110.6C60.1,110.6,60.1,110.6,60.1,110.6l0,0.2L60.1,110.6z"/>
									<path class="st11" d="M62.4,109.9c0.2,0.1,0.1,0,0.2,0C62.6,109.8,62.2,109.7,62.4,109.9z"/>
								</g>
							</g>
						</g>
					</g>
				</g>
			</g>
			<g>
				<g>
					<defs>
						<path id="SVGID_00000155845843338182966970000012879582838932898690_" d="M117,174.5c-3.5-4-4.2-8.2-4.2-8.2s0,0,0,0v0
							c0.1,0.6,0.1,1.2,0.2,1.8c0.5,4.5,0.5,8,0.4,10.7c0.5-0.3,0.9-0.5,1.1-0.8c0.2-0.2,0.4-0.3,0.5-0.5l-0.5,0.7l-1.2,1.5
							c-0.2,3.2-0.6,4.8-0.6,4.8s-44.8,8-46.7-2.4c-0.1-0.7-0.3-1.4-0.6-2.2c-3.5,0.2-6.6,0.7-8.9,1.5c-9.9,3.4-8.7,11.8-6.9,11.8
							c1.9,0,0,0,6.5,0h48.9C123.2,193.3,120.6,178.5,117,174.5z M115.1,177.6l0.4-0.5C115.4,177.1,115.3,177.3,115.1,177.6z"/>
					</defs>
					<clipPath id="SVGID_00000119827004160665919480000018294937520440146831_">
						<use xlink:href="#SVGID_00000155845843338182966970000012879582838932898690_"  style="overflow:visible;"/>
					</clipPath>
					<g style="opacity:0.78;clip-path:url(#SVGID_00000119827004160665919480000018294937520440146831_);">
						<g>
							<g>
								<g>
									<path class="st11" d="M114.2,173.4C114.1,173.4,114.1,173.3,114.2,173.4C114.1,173.4,114.1,173.4,114.2,173.4z"/>
									<path class="st11" d="M113.8,176.5C113.8,176.5,113.8,176.5,113.8,176.5L113.8,176.5L113.8,176.5z"/>
									<path class="st11" d="M113.9,176.5l0.1,0C114,176.5,113.9,176.5,113.9,176.5z"/>
									<path class="st11" d="M113.2,173.1c0,0-0.1,0-0.2-0.1L113.2,173.1z"/>
									<path class="st11" d="M112.6,173.4C112.6,173.4,112.6,173.4,112.6,173.4C112.6,173.4,112.6,173.4,112.6,173.4z"/>
									<path class="st11" d="M114.6,170.7L114.6,170.7C114.6,170.7,114.6,170.7,114.6,170.7z"/>
									<path class="st11" d="M114.4,170.4L114.4,170.4L114.4,170.4C114.3,170.4,114.3,170.4,114.4,170.4z"/>
									<path class="st11" d="M114.2,170.5L114.2,170.5C114.2,170.5,114.2,170.5,114.2,170.5z"/>
									<path class="st11" d="M112.5,169h-0.1C112.4,169,112.5,169,112.5,169z"/>
									<path class="st11" d="M114.8,170.7c0,0-0.1,0-0.1,0C114.7,170.7,114.7,170.7,114.8,170.7z"/>
									<path class="st11" d="M114.2,173.4C114.2,173.4,114.2,173.4,114.2,173.4C114.2,173.4,114.2,173.4,114.2,173.4z"/>
									<path class="st11" d="M113.2,172.9L113.2,172.9C113.2,173,113.2,172.9,113.2,172.9z"/>
									<path class="st11" d="M113.9,177.7C113.9,177.7,113.9,177.7,113.9,177.7C114,177.7,114,177.7,113.9,177.7z"/>
									<path class="st11" d="M114.3,171.4c-0.4,0,0-0.1-0.4-0.1c0.1,0,0.1,0.1,0,0.1c-0.2,0,0-0.1-0.3-0.1l0.1,0.1
										c-0.2,0-0.5,0-0.4,0c0.5,0.1-0.2,0.2-0.1,0.3l0,0l-0.2,0.1c0,0,0,0,0,0c0,0,0,0,0.1,0c-0.2,0-0.4,0.1-0.4,0.2
										c0.3,0,0.1,0.3,0.3,0.4c0,0-0.1-0.1,0-0.1h0.3c0,0.1-0.3,0-0.1,0.1c0.5,0,0-0.1,0-0.2c0.1,0,0.2,0,0.2,0.1
										c0-0.1,0.2-0.3-0.3-0.4c0.1,0,0.3,0,0.3,0c-0.3-0.1,0.3,0,0-0.1c0.4,0,0.2,0.2,0.5,0.3c-0.3,0.1,0,0.3,0,0.4
										c-0.3,0-0.6-0.1-0.8,0c-0.2,0.1,0.1,0.1,0.3,0.2c-0.1,0.1-0.5,0-0.5,0.1l-0.2-0.1c-0.4,0.1,0.2,0.1,0.1,0.1
										c0.1,0,0.2,0,0.2-0.1c0.1,0,0.2,0,0.2,0.1l0,0c0.2,0,0.4,0,0.3,0.1c-0.2,0-0.2,0.1-0.3,0.1l0,0c0.1,0.1,0,0.1,0.1,0.2h0
										c0.1,0,0.4,0.1,0.4,0.1c-0.1,0-0.5-0.1-0.4,0c-0.2,0-0.2-0.1-0.1-0.2c-0.1,0.1-0.4,0.1-0.4,0c-0.2,0,0.1,0.1,0,0.1
										c0.1,0,0.1,0,0.2,0c-0.3,0,0,0.2,0.2,0.2l-0.2-0.1c0.3,0,0.4,0.1,0.6,0.1c-0.4,0,0.2,0.2-0.1,0.3l0.2,0
										c-0.1,0.2,0.3,0.4,0.5,0.6c-0.1,0-0.6-0.1-0.4-0.2c-0.1,0.2-0.5,0-0.7,0.1c-0.2,0.1,0.4,0.1,0.6,0.1l-0.1-0.1
										c0.5,0.1-0.1,0.4,0.2,0.6c-0.1,0-0.1,0-0.1,0c-0.3,0.1,0,0.1,0.1,0.1c0,0.1-0.2,0.2-0.5,0.1c-0.1,0.1,0.2,0,0.3,0h-0.1
										l0.4,0.1c-0.1,0.1-0.3,0.2-0.6,0.2c0,0.2,0.8,0.1,0.9,0.2c-0.2,0.1-0.2,0-0.4,0l0,0.1c-0.4,0-0.2-0.1-0.6-0.1
										c0.4,0.1,0.1,0.1,0.4,0.3h0c0.3,0,0.1,0.2,0.1,0.3c-0.2,0-0.2-0.1-0.3-0.2c-0.1,0.1,0,0.3,0.4,0.4c0,0-0.2,0.2-0.4,0.1
										c0,0.2,0.6,0.1,0.4,0.2h-0.3c-0.4,0.2,0.4,0.4,0,0.5h0.4c-0.1,0-0.2,0.1-0.4,0.1l-0.1-0.1c-0.3,0.1,0.3,0.1,0.1,0.2
										c0.1,0,0.4-0.1,0.5-0.1c-0.2-0.4,0.3-0.8,0-1.2c0,0-0.1,0-0.1,0c0.1,0,0-0.1,0.2-0.1h0c-0.1-0.1,0.4-0.2,0.4-0.2
										c-0.2,0,0.1-0.2-0.3-0.1l0.3,0c-0.1,0-0.4,0-0.4,0c0,0,0.2,0,0.3,0c0.2-0.2,0.1-0.6,0-0.9l0.2,0.1c0.1,0-0.3-0.2,0.1-0.2
										c-0.2-0.1,0.1-0.3-0.4-0.4c0.5-0.1,0.2-0.3,0.1-0.5c-0.5,0-0.1-0.1-0.3-0.2c0.3,0,0.4,0.1,0.6,0.1
										c-0.5-0.2,0.4-0.5-0.5-0.6c0,0,0.1,0,0.1,0c0,0,0.1-0.1,0.2-0.1c-0.1,0-0.2,0-0.3,0c0,0,0.3,0,0.4,0
										c-0.2-0.1-0.3-0.3-0.6-0.4c0.1,0,0.3-0.1,0.4,0c-0.3-0.2,0-0.2-0.1-0.4c0,0.1,0.4,0,0.2,0.1c0.5-0.1-0.1-0.3,0.2-0.5
										l-0.3-0.1c0-0.1,0.2-0.1,0.4,0c0.2-0.2,0-0.3,0-0.4c0,0,0.1,0,0.1,0v-0.2c-0.1,0-0.2-0.1-0.5-0.1
										C114.3,171.3,114.4,171.3,114.3,171.4z"/>
									<path class="st11" d="M114.1,171.2L114.1,171.2L114.1,171.2C114.1,171.2,114.1,171.2,114.1,171.2z"/>
									<path class="st11" d="M112.6,173c0.1,0,0.1,0,0.1,0C112.7,173,112.7,173,112.6,173z"/>
									<path class="st11" d="M113.6,169.4c-0.5,0,0.1,0.1,0,0.2c-0.1-0.1-0.4,0-0.5,0c0.6,0.1-0.1,0.1,0,0.3
										c-0.2,0-0.2-0.1-0.5-0.1c0.1,0.1,0.2,0.3,0.6,0.3c0,0.2-0.1,0.3-0.1,0.4c-0.1-0.1-0.4,0-0.7-0.1c0.4,0.1,0.9,0.4,1.4,0.6
										c-0.4,0-0.4,0-0.8,0c-0.3,0.2,0.4,0,0.2,0.2l0.1-0.1c0.1,0.1,0.5,0.1,0.8,0.1l0-0.2c0.3,0,0.2,0.1,0.3,0.2
										c0.3,0.1,0.2-0.1,0.5-0.1c-0.2,0-0.1-0.1-0.2-0.2h0.1c0.1-0.1-0.2-0.2-0.2-0.3c0,0,0.1,0,0.1,0c-0.1,0-0.4-0.1-0.4-0.1v0
										c-0.3-0.1-0.6-0.3-1-0.2l0.1-0.2c0.4,0,1,0.1,1,0.2h0.1c0.2-0.1-0.3-0.3-0.6-0.2C113,169.9,113.9,169.7,113.6,169.4
										c0.1,0.1,0.2,0.2,0.4,0.2c0,0,0,0.1-0.2,0.1c0.1,0.2,0.8,0,0.7,0.2c-0.1,0.1-0.4-0.1-0.4,0l0.7,0.1c0-0.1-0.1-0.2-0.2-0.3
										c-0.4-0.5,0-0.9,0-0.9l-0.1-2.2c-0.1-0.2,0-0.3-0.7-0.4c-0.1,0-0.1,0.2-0.3,0.1c0.2,0,0.4,0.1,0.4,0.2
										c-0.2,0-0.1-0.1-0.2-0.1l0,0c-0.1,0-0.2,0-0.2-0.1c-0.4,0.1-0.3,0.4,0.1,0.5c-0.2,0.1-0.4-0.1-0.6-0.1
										c-0.2,0.4-0.2,0.6-0.2,1.1c0.4,0,0.3,0,0.6,0.1l-0.1,0c0.1,0,0.4,0,0.5,0c-0.3,0.2,0.6,0.3,0.8,0.4h-0.2
										c0,0.1,0,0.1,0.1,0.3c-0.4,0.2,0-0.2-0.6-0.1l0.1,0c-0.2,0-0.6-0.1-0.8-0.1c0.4,0.2-0.1,0.3,0.1,0.5
										c-0.2,0-0.4-0.2-0.5-0.3c0,0,0.1,0.2-0.1,0.2l0.3,0c0,0.1-0.3,0-0.5,0C112.4,169.4,113.4,169.1,113.6,169.4z"/>
									<path class="st11" d="M113.3,172.4C113.3,172.4,113.3,172.4,113.3,172.4C113.3,172.3,113.3,172.4,113.3,172.4z"/>
									<path class="st11" d="M112.7,171.8C112.7,171.8,112.6,171.8,112.7,171.8C112.6,171.8,112.7,171.8,112.7,171.8z"/>
									<path class="st11" d="M112.2,171.7c0.1,0,0.1,0,0.3,0C112.5,171.8,112.5,171.7,112.2,171.7z"/>
									<path class="st11" d="M112.3,181.4c0.1,0,0.2,0.1,0.3,0.1l-0.1-0.1H112.3z"/>
									<path class="st11" d="M112.7,181.1l0.1-0.1l-0.4,0C112.3,181.1,112.6,181,112.7,181.1z"/>
									<path class="st11" d="M112.9,180.8L112.9,180.8C113,180.8,112.9,180.8,112.9,180.8z"/>
									<path class="st11" d="M112.7,180.8l-0.3,0L112.7,180.8L112.7,180.8c0.1,0,0.1,0,0.2,0H112.7
										C112.7,180.8,112.7,180.8,112.7,180.8z"/>
									<path class="st11" d="M112.7,180.7C112.6,180.7,112.6,180.7,112.7,180.7C112.6,180.7,112.7,180.7,112.7,180.7z"/>
									<path class="st11" d="M113.3,180.4c-0.1,0-0.3,0-0.4,0c-0.1,0.1,0.3,0.1,0.2,0.2c-0.2-0.1-0.2,0-0.4,0.1
										C113,180.6,113.1,180.5,113.3,180.4l-0.2,0C113,180.4,113.2,180.4,113.3,180.4z"/>
									<path class="st11" d="M112.8,179.8l0.3,0.1c-0.1,0-0.1,0.1-0.4,0.1c0,0,0.2,0,0.2,0.1c-0.1,0-0.3,0,0,0.1
										c0.2-0.2,0.3-0.1,0.4-0.3c0,0,0,0,0,0l0.1-0.1C113,179.8,113,179.7,112.8,179.8z"/>
									<path class="st11" d="M113,179.6c0,0.1,0.3,0.1,0.5,0.1l-0.2-0.2C113.2,179.6,113.3,179.7,113,179.6z"/>
									<path class="st11" d="M113,179.5c0.1,0,0.5-0.1,0.2-0.2C113.2,179.4,112.8,179.4,113,179.5z"/>
									<path class="st11" d="M113.3,178.8l-0.2,0.2c-0.4,0-0.1-0.1-0.3-0.1c-0.1,0.1,0,0.1,0.3,0.2c0,0,0.2,0.1,0.3,0.2
										C113,179,114,179,113.3,178.8z"/>
									<polygon class="st11" points="112.9,179.2 113,179.2 112.9,179.1 									"/>
									<path class="st11" d="M113.7,178.3c0.5-0.1-0.2-0.2,0-0.3c0,0,0,0,0.1,0l0-0.1h0.1c-0.3,0-0.4-0.1-0.6-0.1
										c-0.3,0.1,0.3,0,0,0.1c-0.1,0-0.3,0-0.4,0c0.1,0,0.3,0.1,0.5,0.1c0,0.1-0.1,0-0.2,0c0.1,0.1,0.6,0.1,0.5,0.2
										c-0.2,0.1-0.4,0-0.3,0.1c0.4,0,0,0.1,0.2,0.2c-0.1,0.1-0.3,0.2-0.5,0.1c0.3,0,0.6,0.1,0.7,0.1l-0.3-0.2l0.4,0
										C113.6,178.5,113.6,178.4,113.7,178.3L113.7,178.3z"/>
									<path class="st11" d="M112.9,177.8C112.8,177.8,112.8,177.8,112.9,177.8C112.8,177.8,112.8,177.8,112.9,177.8z"/>
									<polygon class="st11" points="112.9,178.7 112.8,178.6 112.6,178.7 									"/>
									<path class="st11" d="M112.6,177.7c0,0,0.1,0,0.1,0H112.6L112.6,177.7z"/>
									<polygon class="st11" points="112.8,177.6 113,177.6 112.9,177.5 									"/>
									<path class="st11" d="M113,175.3c-0.1,0.1,0.1,0,0.3,0.1C113.4,175.2,113.1,175.4,113,175.3z"/>
									<path class="st11" d="M112.7,173.8c-0.2,0.1,0.1,0.1,0.1,0.2C113,174,112.9,173.8,112.7,173.8z"/>
									<path class="st11" d="M111.8,173.1c0.1,0,0.1,0,0.2,0l0.5,0.1C112.6,173.1,112,173.1,111.8,173.1z"/>
									<path class="st11" d="M111.8,172.4l0.2,0.1v0c0.2,0,0.3,0,0.4,0.1C112.3,172.5,112.1,172.4,111.8,172.4z"/>
									<path class="st11" d="M112.5,172.7C112.5,172.7,112.5,172.6,112.5,172.7C112.4,172.6,112.3,172.7,112.5,172.7z"/>
									<path class="st11" d="M112.5,172.6L112.5,172.6C112.4,172.6,112.4,172.6,112.5,172.6C112.5,172.6,112.5,172.6,112.5,172.6z
										"/>
									<path class="st11" d="M112,172.3l0-0.2l-0.1,0.1C112.1,172.2,111.7,172.3,112,172.3z"/>
									<path class="st11" d="M112.3,171.3h0.3c0-0.1-0.6-0.3-0.1-0.4c-0.2,0-0.3-0.1-0.4,0C112.3,171,112.3,171.2,112.3,171.3z"/>
									<path class="st11" d="M112.7,170.8c0.1,0,0.1,0,0.2,0C113,170.8,112.9,170.7,112.7,170.8
										C113.1,170.8,112.5,170.8,112.7,170.8z"/>
									<path class="st11" d="M112.7,170.2C112.7,170.3,112.8,170.3,112.7,170.2c0.1,0-0.2,0-0.4-0.1
										C112.1,170.2,112.6,170.3,112.7,170.2z"/>
									<path class="st11" d="M114.9,169.4c-0.2,0-0.2,0.1-0.1,0.1C114.7,169.5,114.8,169.4,114.9,169.4z"/>
									<polygon class="st11" points="112.8,169.3 112.8,169.4 113.1,169.4 									"/>
									<polygon class="st11" points="112.6,168.6 112.4,168.5 112.4,168.7 									"/>
									<path class="st11" d="M112.7,168.5L112.7,168.5L112.7,168.5C112.5,168.5,112.7,168.5,112.7,168.5z"/>
									<path class="st11" d="M112.7,168.2C112.7,168.2,112.7,168.2,112.7,168.2l0.1,0.1L112.7,168.2z"/>
									<path class="st11" d="M114.3,166.4c0.2,0,0.1,0,0.1-0.1C114.4,166.3,114.1,166.4,114.3,166.4z"/>
								</g>
							</g>
						</g>
					</g>
				</g>
			</g>
			<g>
				<g>
					<defs>
						<path id="SVGID_00000026146864641421033210000005234675378193389211_" d="M82.6,180c-5.9-0.3-11.9-0.4-17.1-0.1
							c-0.7-1.9-1.7-3.9-3-5.9c0.9-1.2,1.7-2.4,2.7-3.6c6.5-8.2,8.5-16.1,9.1-19.6C77.5,155.8,85,169,82.6,180z"/>
					</defs>
					<clipPath id="SVGID_00000178193148883101375390000016439945042735303577_">
						<use xlink:href="#SVGID_00000026146864641421033210000005234675378193389211_"  style="overflow:visible;"/>
					</clipPath>
					<g style="opacity:0.78;clip-path:url(#SVGID_00000178193148883101375390000016439945042735303577_);">
						<g>
							<g>
								<g>
									<path class="st11" d="M66.1,167.8c0,0,0.1,0.1,0.2,0.2C66.3,168,66.2,167.9,66.1,167.8z"/>
									<path class="st11" d="M68.7,164.1C68.7,164.1,68.7,164.1,68.7,164.1L68.7,164.1L68.7,164.1z"/>
									<path class="st11" d="M68.6,164l-0.2-0.1C68.4,164,68.5,164,68.6,164z"/>
									<path class="st11" d="M67.6,169.2c0,0.1,0.1,0.1,0.2,0.3L67.6,169.2z"/>
									<path class="st11" d="M69,169.4c0,0,0.1,0,0.1,0C69.1,169.5,69,169.4,69,169.4z"/>
									<path class="st11" d="M63.3,170.9C63.2,170.8,63.2,170.8,63.3,170.9C63.2,170.8,63.2,170.8,63.3,170.9z"/>
									<path class="st11" d="M63.5,171.4C63.4,171.4,63.4,171.4,63.5,171.4L63.5,171.4C63.5,171.5,63.5,171.4,63.5,171.4z"/>
									<path class="st11" d="M63.9,171.5L63.9,171.5C63.9,171.6,63.9,171.5,63.9,171.5z"/>
									<path class="st11" d="M65.5,175.3l0.2,0.2C65.7,175.4,65.6,175.4,65.5,175.3z"/>
									<path class="st11" d="M63,170.6c0,0,0.1,0.1,0.2,0.2C63.1,170.7,63.1,170.7,63,170.6z"/>
									<path class="st11" d="M66,167.7C66,167.8,66.1,167.8,66,167.7C66,167.8,66,167.8,66,167.7z"/>
									<path class="st11" d="M67.4,169.5L67.4,169.5C67.4,169.4,67.4,169.4,67.4,169.5z"/>
									<path class="st11" d="M69.2,162.5c0,0,0-0.1,0-0.1C69.1,162.4,69.1,162.4,69.2,162.5z"/>
									<path class="st11" d="M64.5,170.3c0.8,0.5,0,0.1,0.7,0.6c-0.1-0.2-0.2-0.3,0.2-0.1c0.4,0.3-0.1,0.1,0.5,0.6l-0.2-0.3
										c0.4,0.1,0.8,0.6,0.8,0.5c-0.8-0.7,0.5-0.1,0.5-0.3l0,0.1l0.5,0.1c0,0,0,0,0,0c0,0-0.1,0-0.1-0.1c0.5,0.2,0.9,0.3,0.9,0.1
										c-0.5-0.4,0.1-0.5-0.3-0.9c0.1,0.1,0,0.2-0.1,0.2l-0.6-0.4c0.1-0.1,0.6,0.3,0.3,0c-0.8-0.5-0.1,0.2-0.2,0.2
										c-0.2-0.1-0.3-0.3-0.3-0.4c-0.1,0.1-0.5,0.1,0.2,0.8c-0.2,0-0.5-0.3-0.6-0.4c0.4,0.4-0.5-0.2-0.1,0.2
										c-0.7-0.5-0.2-0.5-0.6-0.9c0.7,0.2,0.3-0.3,0.2-0.6c0.6,0.3,1,0.8,1.3,0.9c0.5,0-0.2-0.4-0.4-0.7c0.3,0,1,0.6,1.1,0.4
										l0.3,0.3c0.9,0.3-0.2-0.3,0-0.3c-0.2-0.1-0.4-0.2-0.5-0.1c-0.3-0.1-0.4-0.3-0.4-0.4h0c-0.4-0.3-0.8-0.5-0.5-0.5
										c0.4,0.4,0.4,0.1,0.7,0.2l0.1,0.1c-0.1-0.2,0-0.2,0-0.4l0.1,0.1c-0.1-0.2-0.7-0.6-0.5-0.6c0.2,0.1,0.8,0.6,0.8,0.5
										c0.3,0.2,0.3,0.4,0.1,0.4c0.2,0,0.8,0.2,0.8,0.4c0.5,0.2-0.1-0.2,0.1-0.2c-0.1,0-0.3-0.2-0.4-0.2c0.6,0.3,0.2-0.2-0.2-0.5
										l0.3,0.3c-0.5-0.3-0.7-0.6-1.1-0.7c0.8,0.4-0.2-0.5,0.5-0.2l-0.4-0.2c0.4-0.1-0.4-0.8-0.5-1.2c0.2,0.2,1.1,0.7,0.7,0.7
										c0.3-0.1,0.9,0.4,1.4,0.5c0.4,0-0.8-0.5-1-0.7l0.1,0.2c-0.9-0.7,0.5-0.4,0-1c0.3,0.1,0.1,0.1,0.2,0.2
										c0.6,0.1,0-0.2-0.2-0.3c0.1-0.1,0.5-0.1,1.1,0.3c0.2,0-0.4-0.2-0.6-0.3l0.1,0l-0.7-0.5c0.3,0,0.7,0,1.3,0.2
										c0-0.3-1.4-0.8-1.6-1.1c0.4,0,0.5,0.2,0.7,0.4v-0.2c0.7,0.4,0.3,0.4,1.1,0.8c-0.8-0.6-0.1-0.3-0.6-0.8h-0.1
										c-0.5-0.3,0-0.4-0.1-0.5c0.3,0.2,0.3,0.3,0.4,0.5c0.3,0,0.2-0.5-0.5-0.9c0.1,0,0.5,0,0.8,0.2c0.2-0.2-1.1-0.6-0.7-0.7
										l0.6,0.2c1,0-0.5-0.8,0.3-0.8l-0.7-0.3c0.3,0,0.5,0,0.8,0.1l0.2,0.2c0.6,0.1-0.5-0.3,0-0.3c-0.2-0.1-0.8-0.1-1-0.2
										c0.2,0.7-1,0.8-0.5,1.6c0.1,0,0.2,0,0.3,0.1c-0.2,0,0,0.2-0.4,0l0,0c0.1,0.2-0.8,0-0.9,0c0.4,0.3-0.3,0.2,0.5,0.5l-0.6-0.1
										c0.3,0.1,0.7,0.3,0.8,0.5c-0.1,0-0.4-0.1-0.6-0.2c-0.5,0.2-0.6,0.7-0.5,1.2l-0.3-0.3c-0.2,0,0.5,0.6-0.4,0.1
										c0.3,0.4-0.5,0.3,0.5,0.9c-1-0.4-0.6,0.2-0.6,0.5c0.9,0.4,0.1,0.3,0.5,0.6c-0.7-0.3-0.6-0.6-1-0.8c0.9,0.8-1.1,0.2,0.5,1.3
										c-0.1,0-0.1,0-0.2-0.1c0,0-0.3,0-0.4,0c0.3,0.2,0.5,0.2,0.5,0.3c-0.1,0-0.5-0.2-0.8-0.3c0.3,0.4,0.3,0.7,0.9,1.2
										c-0.2,0-0.6-0.2-0.7-0.3c0.3,0.6-0.2,0.2-0.1,0.7c0-0.1-0.7-0.5-0.3-0.4c-1-0.5-0.1,0.5-0.7,0.4l0.5,0.4
										c0,0.2-0.5-0.1-0.7-0.4c-0.5,0-0.2,0.3-0.3,0.5c-0.1,0-0.2-0.1-0.1-0.1l-0.2,0.2c0.1,0.1,0.3,0.4,0.7,0.6
										C64.3,170.4,64.1,170.2,64.5,170.3z"/>
									<path class="st11" d="M64.6,170.7L64.6,170.7L64.6,170.7C64.6,170.7,64.6,170.7,64.6,170.7z"/>
									<path class="st11" d="M68.6,170c-0.1,0-0.2-0.1-0.3-0.1C68.4,169.9,68.5,170,68.6,170z"/>
									<path class="st11" d="M64.1,173.6c0.9,0.6,0-0.2,0.3-0.2c0,0.2,0.6,0.5,0.8,0.7c-1-0.9,0.3,0,0.3-0.4
										c0.4,0.2,0.3,0.4,0.7,0.7c-0.2-0.3-0.2-0.6-0.8-1.1c0.1-0.2,0.5-0.2,0.5-0.4c0.1,0.3,0.6,0.5,1.1,1c-0.6-0.7-1.2-1.6-2-2.4
										c0.7,0.4,0.8,0.5,1.4,0.9c0.6,0-0.6-0.5-0.2-0.6l-0.2,0c-0.1-0.2-0.8-0.7-1.2-1.1l-0.1,0.3c-0.5-0.3-0.3-0.4-0.4-0.6
										c-0.5-0.5-0.5-0.1-1-0.4c0.3,0.3,0.1,0.3,0.3,0.5l-0.2-0.1c-0.3,0,0.2,0.4,0.1,0.6c-0.1,0-0.1-0.1-0.2-0.1
										c0.2,0.2,0.6,0.5,0.6,0.7v-0.1c0.5,0.5,0.7,1.1,1.5,1.3l-0.4,0.1c-0.6-0.5-1.6-1.2-1.6-1.5l-0.3-0.2
										c-0.4-0.1,0.3,0.7,0.9,1c1.5,1.2-0.2,0.5,0.2,1.2c-0.4-0.3-0.5-0.5-0.8-0.8c0-0.1,0-0.1,0.4,0.1c0-0.4-1.4-0.9-1-1.1
										c0.3,0,0.6,0.7,0.8,0.5l-1.1-1c0,0.1,0,0.4,0.1,0.6c0.3,1.2-0.6,1.1-0.6,1.1c-0.5,1-1.1,1.9-1.6,2.8c0,0.4-0.2,0.4,0.9,1.5
										c0.3,0.1,0.3-0.1,0.6,0.2c-0.4-0.4-0.5-0.7-0.4-0.8c0.4,0.3,0.1,0.3,0.2,0.3h0c0.2,0.2,0.3,0.3,0.3,0.4
										c0.7,0.3,0.9,0,0.2-0.8c0.5,0.2,0.6,0.6,0.8,0.9c0.7-0.2,0.9-0.6,1.3-1c-0.7-0.6-0.4-0.4-0.9-0.9l0.3,0.2
										c-0.1-0.1-0.6-0.5-0.8-0.6c0.8,0.2-0.7-1.1-0.9-1.5l0.4,0.3c0-0.2,0-0.2,0-0.5c0.9,0.3,0,0.3,1,1l-0.1-0.2
										c0.3,0.3,1,0.9,1.2,1.1c-0.4-0.7,0.5-0.1,0.2-0.8c0.4,0.3,0.6,0.8,0.6,1c0.1,0-0.1-0.4,0.3-0.1l-0.5-0.4
										c0-0.2,0.5,0.4,0.9,0.6C66.1,175.1,64.2,174.2,64.1,173.6z"/>
									<path class="st11" d="M66.9,170c-0.1,0-0.1,0,0,0.1C66.9,170.1,66.9,170.1,66.9,170z"/>
									<path class="st11" d="M67.5,171.5c0.1,0,0.1,0.1,0.2,0.1C67.7,171.6,67.6,171.5,67.5,171.5z"/>
									<path class="st11" d="M68.3,172.1c-0.3-0.1-0.2-0.2-0.5-0.4C67.9,171.8,67.8,172,68.3,172.1z"/>
									<path class="st11" d="M73.9,157.6c-0.2,0-0.4-0.3-0.5-0.2c0.1,0.1,0.1,0.2,0.2,0.3L73.9,157.6z"/>
									<path class="st11" d="M73.1,158l-0.3,0.1l0.9,0.2C73.7,158.2,73.1,158.2,73.1,158z"/>
									<path class="st11" d="M72.5,158.4l-0.2-0.1C72.4,158.4,72.5,158.4,72.5,158.4z"/>
									<path class="st11" d="M72.9,158.5l0.6,0.2l-0.4-0.3L72.9,158.5c-0.2-0.1-0.3,0-0.4,0L72.9,158.5
										C72.9,158.6,72.8,158.5,72.9,158.5z"/>
									<path class="st11" d="M72.9,158.7c0,0,0.1,0,0.2,0C73,158.7,72.9,158.7,72.9,158.7z"/>
									<path class="st11" d="M71.6,158.9c0.2,0,0.6,0.1,0.9,0.2c0.3-0.1-0.7-0.3-0.3-0.4c0.5,0.3,0.4,0,0.8,0
										c-0.6,0-1.1,0-1.2,0.1l0.4,0.1C72,159,71.8,158.9,71.6,158.9z"/>
									<path class="st11" d="M72.4,160.1l-0.6-0.3c0.3,0,0.3-0.2,1,0c0-0.1-0.3-0.2-0.5-0.3c0.3,0,0.6,0,0.1-0.1
										c-0.5,0.2-0.6,0.1-0.9,0.3c-0.1,0-0.1,0,0-0.1l-0.4,0.1C71.9,159.9,71.9,160.1,72.4,160.1z"/>
									<path class="st11" d="M71.9,160.2c0-0.1-0.5-0.4-1-0.4l0.4,0.4C71.3,160.2,71.3,160,71.9,160.2z"/>
									<path class="st11" d="M71.8,160.4c-0.3,0-1-0.1-0.4,0.1C71.3,160.4,72.2,160.7,71.8,160.4z"/>
									<path class="st11" d="M70.9,161.3l0.5-0.1c0.8,0.2,0.2,0.2,0.5,0.4c0.2-0.2,0-0.2-0.5-0.5c0,0-0.3-0.3-0.5-0.4
										C71.5,161.1,69.6,160.6,70.9,161.3z"/>
									<polygon class="st11" points="71.9,161 71.6,160.8 71.8,161 									"/>
									<path class="st11" d="M69.9,161.6c-1-0.1,0.4,0.5,0,0.5c0,0-0.1,0-0.2-0.1l0,0.2l-0.2,0c0.5,0.2,0.7,0.4,1.1,0.7
										c0.6,0-0.6-0.3,0-0.2c0.2,0.1,0.6,0.3,0.8,0.4c-0.2-0.2-0.5-0.3-0.9-0.5c0-0.1,0.3,0,0.5,0.1c-0.3-0.2-1.1-0.5-0.8-0.6
										c0.5,0,0.7,0.3,0.6,0c-0.9-0.2,0.2-0.1-0.3-0.4c0.2-0.1,0.8,0,1.1,0.1c-0.7-0.2-1.2-0.5-1.4-0.7l0.5,0.4l-0.8-0.2
										C70.2,161.5,70.1,161.6,69.9,161.6L69.9,161.6z"/>
									<path class="st11" d="M71.4,163c0,0,0.1,0,0.1,0.1C71.5,163.1,71.5,163,71.4,163z"/>
									<polygon class="st11" points="71.8,161.7 71.9,161.8 72.2,161.9 									"/>
									<path class="st11" d="M71.9,163.3c0,0-0.2-0.1-0.2-0.1L71.9,163.3L71.9,163.3z"/>
									<polygon class="st11" points="71.3,163.3 70.8,163.2 71.2,163.4 									"/>
									<path class="st11" d="M69.4,166.4c0.3,0-0.2-0.2-0.6-0.4C68.7,166.1,69.3,166.2,69.4,166.4z"/>
									<path class="st11" d="M69,168.8c0.4,0,0-0.3,0-0.4C68.7,168.4,68.8,168.5,69,168.8z"/>
									<path class="st11" d="M70.2,170.6c-0.1-0.1-0.2-0.2-0.3-0.2l-0.8-0.6C68.7,169.8,69.8,170.4,70.2,170.6z"/>
									<path class="st11" d="M69.7,171.7l-0.2-0.4l-0.1,0c-0.3-0.2-0.5-0.4-0.7-0.6C68.8,171,69.1,171.3,69.7,171.7z"/>
									<path class="st11" d="M68.6,170.6C68.6,170.6,68.6,170.6,68.6,170.6C68.7,170.7,68.9,170.8,68.6,170.6z"/>
									<path class="st11" d="M68.6,170.7C68.6,170.8,68.6,170.8,68.6,170.7C68.6,170.8,68.6,170.7,68.6,170.7
										C68.5,170.6,68.4,170.6,68.6,170.7z"/>
									<path class="st11" d="M69.2,171.6l-0.1,0.3h0.2C68.8,171.5,69.7,172,69.2,171.6z"/>
									<path class="st11" d="M67.9,172.7l-0.5-0.3c-0.2,0.1,0.7,1.1-0.1,0.6c0.4,0.1,0.5,0.5,0.8,0.4
										C67.5,173,67.7,172.7,67.9,172.7z"/>
									<path class="st11" d="M66.7,172.8c-0.1-0.1-0.2-0.1-0.4-0.2C66.1,172.5,66.3,172.8,66.7,172.8
										C65.9,172.4,67,173.1,66.7,172.8z"/>
									<path class="st11" d="M66.2,173.6c0,0,0-0.1-0.1-0.2c0,0.1,0.5,0.5,0.8,0.8C67.2,174.3,66.6,173.7,66.2,173.6z"/>
									<path class="st11" d="M61.8,172c0.4,0.3,0.4,0.1,0.3,0C62.2,172.1,62,172.1,61.8,172z"/>
									<polygon class="st11" points="65.3,174.6 65.4,174.6 64.8,174.1 									"/>
									<polygon class="st11" points="65,175.7 65.3,176.1 65.4,175.9 									"/>
									<path class="st11" d="M64.8,175.8l-0.1,0.1l0.2,0.1C65.1,176.1,64.7,175.8,64.8,175.8z"/>
									<path class="st11" d="M64.6,176.3c0,0,0,0,0.1,0l-0.2-0.3L64.6,176.3z"/>
									<path class="st11" d="M60.3,176.3c-0.4-0.4-0.2,0-0.3-0.1C60,176.3,60.6,176.7,60.3,176.3z"/>
								</g>
							</g>
						</g>
					</g>
				</g>
			</g>
		</g>
	</g>
</g>
<g id="Illustration_23_">
	<g>
		<path class="st14" d="M150.1,168.8c0,0-4.1,16.8-4.6,19.5c0,0,0.1,12,1.2,17.3c0,0,5.6-0.4,5,4c0,0-7.6,0-7.9,0
			c-0.3,0-3.5-5.8-4.4-31.8"/>
		<g>
			<g>
				<defs>
					<path id="SVGID_00000004527420756822604050000015394556406437952910_" d="M146.6,205.7c-1.2-5.3-1.2-17.3-1.2-17.3
						c0.6-2.7,4.6-19.5,4.6-19.5l-10.7,9.1c0.9,26.1,4.2,31.8,4.4,31.8c0.3,0,7.9,0,7.9,0C152.3,205.2,146.6,205.7,146.6,205.7z"/>
				</defs>
				<clipPath id="SVGID_00000183232128631335952130000018208530600940460436_">
					<use xlink:href="#SVGID_00000004527420756822604050000015394556406437952910_"  style="overflow:visible;"/>
				</clipPath>
				<g style="opacity:0.88;clip-path:url(#SVGID_00000183232128631335952130000018208530600940460436_);">
					<g>
						<g>
							<g>
								<path class="st16" d="M145.8,174.7C145.8,174.7,145.8,174.8,145.8,174.7C145.8,174.8,145.8,174.8,145.8,174.7z"/>
								<path class="st16" d="M148,173L148,173L148,173L148,173z"/>
								<path class="st16" d="M148,173L148,173C147.9,172.9,147.9,172.9,148,173z"/>
								<path class="st16" d="M146.1,175.6c0,0,0,0.1,0,0.2L146.1,175.6z"/>
								<path class="st16" d="M146.7,175.8L146.7,175.8C146.7,175.8,146.7,175.8,146.7,175.8z"/>
								<path class="st16" d="M143.5,175.8L143.5,175.8C143.5,175.8,143.5,175.8,143.5,175.8z"/>
								<path class="st16" d="M143.5,176.1C143.4,176.1,143.4,176.1,143.5,176.1L143.5,176.1C143.5,176.2,143.5,176.1,143.5,176.1z"
									/>
								<path class="st16" d="M143.6,176.2L143.6,176.2L143.6,176.2z"/>
								<path class="st16" d="M143.2,178.3l0,0.1C143.3,178.3,143.2,178.3,143.2,178.3z"/>
								<path class="st16" d="M143.5,175.6c0,0,0,0.1,0,0.1C143.5,175.7,143.5,175.7,143.5,175.6z"/>
								<path class="st16" d="M145.7,174.6C145.7,174.7,145.8,174.7,145.7,174.6C145.8,174.7,145.8,174.6,145.7,174.6z"/>
								<path class="st16" d="M146,175.6L146,175.6L146,175.6z"/>
								<path class="st16" d="M148.6,172.1C148.6,172.1,148.6,172.1,148.6,172.1C148.6,172.1,148.6,172.1,148.6,172.1z"/>
								<path class="st16" d="M144.3,175.7c0.3,0.3-0.1,0.1,0.1,0.4c0-0.1,0-0.2,0.1,0c0.1,0.2-0.1,0,0,0.4v-0.1
									c0.1,0.1,0.2,0.4,0.3,0.3c-0.2-0.4,0.3,0,0.3-0.1v0l0.2,0.1l0,0c0,0,0,0,0-0.1c0.2,0.2,0.4,0.3,0.4,0.1
									c-0.1-0.2,0.2-0.3,0.1-0.5c0,0.1,0,0.1-0.1,0.1l-0.2-0.3c0.1,0,0.2,0.2,0.1,0c-0.3-0.4-0.1,0.1-0.2,0.1c0-0.1,0-0.2,0-0.2
									c-0.1,0-0.3,0-0.1,0.4c-0.1,0-0.2-0.2-0.2-0.3c0.1,0.3-0.2-0.2-0.1,0.1c-0.2-0.4,0-0.3,0-0.5c0.3,0.2,0.2-0.1,0.3-0.3
									c0.2,0.2,0.3,0.5,0.4,0.6c0.2,0.1,0-0.2,0-0.4c0.1,0,0.3,0.4,0.4,0.3l0,0.2c0.3,0.3,0-0.2,0.1-0.1c-0.1-0.1-0.1-0.2-0.2-0.1
									c-0.1-0.1-0.1-0.2-0.1-0.2l0,0c-0.1-0.2-0.2-0.4-0.1-0.4c0.1,0.2,0.2,0.1,0.3,0.2v0c0-0.1,0.1-0.1,0.1-0.2l0,0
									c0-0.1-0.2-0.4-0.1-0.4c0.1,0.1,0.2,0.4,0.3,0.3c0.1,0.1,0,0.2,0,0.2c0.1,0,0.3,0.2,0.3,0.3c0.2,0.2,0-0.1,0.1-0.1
									c0,0-0.1-0.1-0.1-0.2c0.2,0.3,0.2-0.1,0-0.3l0,0.2c-0.2-0.2-0.2-0.4-0.3-0.5c0.3,0.3,0-0.3,0.3-0.1l-0.2-0.1
									c0.2,0,0-0.5,0.1-0.7c0,0.1,0.3,0.5,0.1,0.4c0.2,0,0.3,0.3,0.5,0.4c0.2,0-0.2-0.4-0.3-0.5v0.1c-0.3-0.4,0.4-0.1,0.3-0.5
									c0.1,0.1,0,0.1,0,0.1c0.2,0.1,0-0.1,0-0.2c0.1,0,0.3,0,0.4,0.3c0.1,0-0.1-0.1-0.2-0.2l0,0l-0.2-0.3c0.1,0,0.3,0.1,0.6,0.3
									c0.1-0.2-0.5-0.6-0.4-0.8c0.2,0,0.2,0.2,0.3,0.3l0-0.1c0.2,0.3,0,0.2,0.3,0.5c-0.2-0.4,0-0.2-0.1-0.5h0
									c-0.2-0.2,0.1-0.2,0.1-0.3c0.1,0.1,0,0.2,0,0.3c0.2,0,0.2-0.2,0-0.5c0.1,0,0.3,0,0.3,0.2c0.2-0.1-0.4-0.4-0.2-0.4l0.2,0.2
									c0.4,0.1,0-0.5,0.4-0.4l-0.3-0.2c0.1,0.1,0.2,0,0.4,0.1l0,0.1c0.3,0.1-0.2-0.2,0-0.2c-0.1,0-0.3-0.2-0.4-0.2
									c-0.1,0.4-0.7,0.4-0.7,0.8c0,0,0.1,0,0.1,0.1c-0.1,0-0.1,0.1-0.2,0v0c0,0.1-0.4-0.1-0.4-0.1c0.1,0.2-0.2,0.1,0.1,0.3
									l-0.2-0.1c0.1,0.1,0.2,0.3,0.3,0.3c-0.1,0-0.2-0.1-0.2-0.2c-0.3,0-0.4,0.3-0.5,0.5l-0.1-0.2c-0.1,0,0.1,0.4-0.2,0
									c0,0.2-0.3,0.1,0,0.5c-0.4-0.3-0.4,0-0.4,0.2c0.3,0.3,0,0.2,0,0.4c-0.2-0.2-0.1-0.4-0.3-0.5c0.2,0.5-0.6,0-0.1,0.7
									c0,0,0,0-0.1-0.1c0,0-0.1-0.1-0.2-0.1c0.1,0.1,0.2,0.1,0.1,0.2c-0.1,0-0.2-0.2-0.3-0.3c0,0.2-0.1,0.4,0.1,0.7
									c-0.1,0-0.2-0.2-0.2-0.3c0,0.3-0.2,0-0.2,0.3c0,0-0.2-0.3,0-0.3c-0.4-0.4-0.2,0.2-0.4,0.1l0.1,0.3c0,0.1-0.2-0.1-0.2-0.3
									c-0.2,0-0.2,0.1-0.3,0.2c0,0,0-0.1,0-0.1l-0.1,0.1c0,0.1,0,0.2,0.2,0.4C144.2,175.7,144.1,175.6,144.3,175.7z"/>
								<path class="st16" d="M144.2,175.9L144.2,175.9L144.2,175.9L144.2,175.9z"/>
								<path class="st16" d="M146.4,176.1c0,0-0.1-0.1-0.1-0.1C146.3,176,146.3,176,146.4,176.1z"/>
								<path class="st16" d="M143,177.2c0.2,0.4,0-0.1,0.2,0c0,0.1,0.1,0.3,0.2,0.4c-0.2-0.6,0.2,0,0.3-0.1c0.1,0.2,0,0.2,0.1,0.4
									c0-0.2,0.1-0.3,0-0.6c0.1-0.1,0.3,0,0.4-0.1c0,0.2,0.1,0.3,0.2,0.6c-0.1-0.4-0.1-0.9-0.2-1.5c0.2,0.3,0.2,0.4,0.4,0.6
									c0.3,0.1-0.1-0.3,0.1-0.3h-0.1c0-0.1-0.2-0.4-0.3-0.7l-0.1,0.2c-0.1-0.2,0-0.3,0-0.3c-0.1-0.3-0.2-0.1-0.3-0.4
									c0.1,0.2,0,0.2,0,0.3l-0.1-0.1c-0.1-0.1,0,0.3-0.1,0.3c0,0,0,0,0-0.1c0,0.1,0.1,0.3,0.1,0.4l0,0c0.1,0.3,0,0.6,0.3,0.8h-0.2
									c-0.1-0.3-0.4-0.8-0.3-0.9l0-0.1c-0.2-0.1-0.1,0.4,0.1,0.6c0.4,0.8-0.3,0.2-0.2,0.6c-0.1-0.2-0.1-0.3-0.1-0.5
									c0,0,0-0.1,0.1,0.1c0.1-0.2-0.4-0.6-0.2-0.7c0.1,0,0.1,0.4,0.2,0.4l-0.2-0.6c-0.1,0-0.1,0.2-0.1,0.3
									c-0.1,0.3-0.3,0.4-0.4,0.4c-0.1,0-0.3,0-0.3,0c-0.5,0.4-1.1,0.7-1.7,0.9c-0.2,0.1-0.2,0.1-0.1,0.8c0.1,0.1,0.2,0,0.2,0.3
									c0-0.2,0-0.4,0.1-0.4c0.1,0.2,0,0.1,0,0.2h0c0,0.1,0,0.2,0,0.2c0.2,0.3,0.4,0.1,0.4-0.3c0.2,0.2,0,0.4,0,0.6
									c0.4,0,0.7-0.1,1-0.2c-0.2-0.4-0.1-0.3-0.1-0.5l0.1,0.1c0,0-0.1-0.4-0.2-0.4c0.3,0.2,0-0.6,0-0.8l0.1,0.2
									c0.1-0.1,0.1-0.1,0.2-0.3c0.4,0.3-0.1,0.1,0.1,0.6v-0.1c0,0.2,0.2,0.5,0.2,0.7c0-0.4,0.3,0,0.4-0.3c0.1,0.2,0,0.5,0,0.5
									c0.1,0,0.1-0.2,0.2,0l-0.1-0.3c0.1-0.1,0.1,0.3,0.2,0.4C143.6,178.2,142.9,177.5,143,177.2z"/>
								<path class="st16" d="M145.5,175.9C145.5,175.9,145.5,176,145.5,175.9C145.5,176,145.5,176,145.5,175.9z"/>
								<path class="st16" d="M145.4,176.7C145.4,176.8,145.4,176.8,145.4,176.7C145.4,176.8,145.4,176.8,145.4,176.7z"/>
								<path class="st16" d="M145.6,177.1c-0.1-0.1,0-0.1-0.1-0.3C145.5,176.9,145.4,176.9,145.6,177.1z"/>
								<path class="st16" d="M151.9,170.1c0,0-0.1-0.2-0.2-0.2l0,0.1L151.9,170.1z"/>
								<path class="st16" d="M151.5,170.2l-0.2,0l0.3,0.3C151.7,170.3,151.4,170.3,151.5,170.2z"/>
								<path class="st16" d="M151.2,170.3L151.2,170.3C151.1,170.3,151.1,170.3,151.2,170.3z"/>
								<path class="st16" d="M151.3,170.4l0.2,0.2l-0.1-0.2L151.3,170.4c0-0.1-0.1-0.1-0.1-0.1L151.3,170.4
									C151.3,170.4,151.3,170.4,151.3,170.4z"/>
								<path class="st16" d="M151.3,170.5C151.3,170.5,151.3,170.6,151.3,170.5C151.3,170.5,151.3,170.5,151.3,170.5z"/>
								<path class="st16" d="M150.6,170.4c0.1,0,0.2,0.2,0.3,0.3c0.1,0-0.2-0.3,0-0.3c0.1,0.3,0.2,0,0.4,0.1
									C151,170.4,150.8,170.3,150.6,170.4l0.2,0C150.8,170.5,150.7,170.4,150.6,170.4z"/>
								<path class="st16" d="M150.7,171.1l-0.2-0.2c0.1,0,0.2,0,0.4,0.1c0,0-0.1-0.1-0.1-0.2c0.1,0,0.3,0.1,0.1,0
									c-0.3,0.1-0.3,0-0.4,0.1c0,0,0,0,0,0h-0.2C150.6,171,150.5,171.1,150.7,171.1z"/>
								<path class="st16" d="M150.4,171.2c0-0.1-0.1-0.3-0.3-0.4l0.1,0.3C150.2,171.1,150.2,171,150.4,171.2z"/>
								<path class="st16" d="M150.4,171.3c-0.1,0-0.4-0.2-0.2,0C150.2,171.2,150.5,171.5,150.4,171.3z"/>
								<path class="st16" d="M149.8,171.7l0.3,0c0.3,0.2,0,0.1,0.1,0.3c0.1-0.1,0-0.1-0.1-0.4c0,0-0.1-0.2-0.1-0.3
									C150,171.6,149.3,171.1,149.8,171.7z"/>
								<polygon class="st16" points="150.3,171.6 150.2,171.5 150.2,171.6 								"/>
								<path class="st16" d="M149.2,171.8c-0.4-0.2,0,0.3-0.2,0.3c0,0,0,0-0.1-0.1l0,0.1l-0.1,0c0.2,0.2,0.2,0.3,0.4,0.5
									c0.3,0.1-0.2-0.3,0.1-0.1c0.1,0.1,0.2,0.2,0.3,0.3c0-0.1-0.2-0.2-0.3-0.4c0-0.1,0.1,0,0.2,0.1c-0.1-0.2-0.4-0.4-0.2-0.4
									c0.2,0.1,0.3,0.3,0.3,0.1c-0.4-0.2,0.1,0,0-0.3c0.1,0,0.4,0.1,0.5,0.2c-0.3-0.2-0.4-0.4-0.4-0.5l0.1,0.3l-0.3-0.2
									C149.4,171.7,149.3,171.7,149.2,171.8L149.2,171.8z"/>
								<path class="st16" d="M149.5,172.7C149.5,172.7,149.6,172.7,149.5,172.7C149.6,172.7,149.6,172.7,149.5,172.7z"/>
								<polygon class="st16" points="150,172 150.1,172.1 150.2,172.1 								"/>
								<path class="st16" d="M149.7,172.9C149.7,172.9,149.6,172.8,149.7,172.9L149.7,172.9L149.7,172.9z"/>
								<polygon class="st16" points="149.4,172.8 149.2,172.7 149.4,172.8 								"/>
								<path class="st16" d="M147.8,174.3c0.1,0,0-0.1-0.2-0.3C147.4,174.1,147.8,174.2,147.8,174.3z"/>
								<path class="st16" d="M146.9,175.5c0.2,0.1,0.1-0.2,0.1-0.2C146.9,175.2,146.9,175.4,146.9,175.5z"/>
								<path class="st16" d="M147,176.6c0-0.1,0-0.1-0.1-0.1l-0.2-0.4C146.5,176,146.8,176.4,147,176.6z"/>
								<path class="st16" d="M146.4,177.1v-0.2l0,0c-0.1-0.2-0.1-0.3-0.2-0.4C146.2,176.6,146.2,176.8,146.4,177.1z"/>
								<path class="st16" d="M146.2,176.4L146.2,176.4C146.2,176.4,146.3,176.5,146.2,176.4z"/>
								<path class="st16" d="M146.2,176.4L146.2,176.4C146.2,176.4,146.2,176.4,146.2,176.4C146.2,176.4,146.2,176.4,146.2,176.4z"
									/>
								<path class="st16" d="M146.2,176.9l-0.1,0.2l0.1,0C146.1,176.9,146.4,177.2,146.2,176.9z"/>
								<path class="st16" d="M145.2,177.3l-0.2-0.2c-0.1,0,0,0.6-0.3,0.3c0.1,0.1,0.1,0.3,0.2,0.3
									C145,177.4,145.1,177.3,145.2,177.3z"/>
								<path class="st16" d="M144.6,177.2c0-0.1-0.1-0.1-0.1-0.2C144.4,177,144.4,177.2,144.6,177.2
									C144.4,176.9,144.7,177.4,144.6,177.2z"/>
								<path class="st16" d="M144.1,177.5C144.2,177.5,144.2,177.4,144.1,177.5c-0.1,0,0,0.2,0.1,0.4
									C144.4,178,144.2,177.6,144.1,177.5z"/>
								<path class="st16" d="M142.5,176.1c0.1,0.2,0.2,0.1,0.1,0C142.6,176.2,142.5,176.2,142.5,176.1z"/>
								<polygon class="st16" points="143.3,177.9 143.3,177.9 143.2,177.6 								"/>
								<polygon class="st16" points="142.8,178.4 142.9,178.6 142.9,178.5 								"/>
								<path class="st16" d="M142.7,178.4L142.7,178.4v0.1C142.7,178.5,142.6,178.4,142.7,178.4z"/>
								<path class="st16" d="M142.4,178.5C142.4,178.5,142.5,178.5,142.4,178.5l0.1-0.1L142.4,178.5z"/>
								<path class="st16" d="M140.3,177.7c0-0.2-0.1-0.1-0.1-0.1C140.2,177.6,140.4,177.9,140.3,177.7z"/>
							</g>
						</g>
					</g>
				</g>
			</g>
		</g>
		<path class="st1" d="M86.8,209.6c0,0-3.8,1.2,6.5,1.5s64.8,0.5,70.4,0c5.6-0.5,16.5-0.2,2-1.5c-14.5-1.3-29.4-0.5-43.9-1.3
			C107.2,207.5,88.9,208.3,86.8,209.6z"/>
		<path class="st14" d="M103,209.8c0,0,27.6,0,28.8,0c1.2,0,0.6-4-2.4-4.4c-3.1-0.4-10.5-0.4-10.5-0.4l-2.4-7.9
			C116.4,197.1,101.4,204.6,103,209.8z"/>
		<g>
			<g>
				<defs>
					<path id="SVGID_00000017517331472674087720000016671776777821354902_" d="M103,209.8c0,0,27.6,0,28.8,0c1.2,0,0.6-4-2.4-4.4
						c-3.1-0.4-10.5-0.4-10.5-0.4l-2.4-7.9C116.4,197.1,101.4,204.6,103,209.8z"/>
				</defs>
				<clipPath id="SVGID_00000175292604593369638290000018285761893868305319_">
					<use xlink:href="#SVGID_00000017517331472674087720000016671776777821354902_"  style="overflow:visible;"/>
				</clipPath>
				<g style="opacity:0.88;clip-path:url(#SVGID_00000175292604593369638290000018285761893868305319_);">
					<g>
						<g>
							<g>
								<path class="st16" d="M112.3,207.1c0,0,0,0.1,0,0.2C112.3,207.3,112.3,207.3,112.3,207.1z"/>
								<path class="st16" d="M115.6,205.5L115.6,205.5L115.6,205.5L115.6,205.5z"/>
								<path class="st16" d="M115.6,205.4l-0.1-0.2C115.5,205.4,115.5,205.4,115.6,205.4z"/>
								<path class="st16" d="M112.6,208.5c0,0,0,0.1,0,0.3L112.6,208.5z"/>
								<path class="st16" d="M113.4,209C113.4,209,113.4,209,113.4,209C113.4,209,113.4,209,113.4,209z"/>
								<path class="st16" d="M109.1,208.2C109.1,208.1,109.1,208.1,109.1,208.2C109.1,208.1,109.1,208.1,109.1,208.2z"/>
								<path class="st16" d="M109,208.6C108.9,208.6,108.9,208.6,109,208.6L109,208.6C109,208.6,109,208.6,109,208.6z"/>
								<path class="st16" d="M109.2,208.7L109.2,208.7C109.1,208.8,109.1,208.8,109.2,208.7z"/>
								<path class="st16" d="M108.4,211.5l0,0.2C108.4,211.7,108.4,211.6,108.4,211.5z"/>
								<path class="st16" d="M109,207.9c0,0,0,0.1,0,0.2C109.1,208,109.1,208,109,207.9z"/>
								<path class="st16" d="M112.3,207C112.3,207.1,112.3,207.1,112.3,207C112.3,207.1,112.3,207.1,112.3,207z"/>
								<path class="st16" d="M112.4,208.6L112.4,208.6C112.4,208.5,112.4,208.5,112.4,208.6z"/>
								<path class="st16" d="M116.7,204.6c0,0,0-0.1,0-0.1C116.6,204.5,116.6,204.5,116.7,204.6z"/>
								<path class="st16" d="M110.1,208.2c0.3,0.5-0.1,0.1,0.1,0.6c0-0.1,0-0.3,0.2,0c0.1,0.3-0.1,0,0,0.5V209
									c0.2,0.2,0.3,0.6,0.3,0.5c-0.2-0.7,0.4,0.1,0.4,0v0.1l0.3,0.2c0,0,0,0,0,0c0,0,0-0.1,0-0.1c0.2,0.3,0.4,0.4,0.5,0.3
									c-0.1-0.4,0.3-0.3,0.2-0.6c0,0.1,0,0.1-0.1,0.1l-0.2-0.4c0.1,0,0.2,0.4,0.2,0.1c-0.3-0.5-0.1,0.1-0.3,0c0-0.1,0-0.3,0-0.4
									c-0.2,0-0.4-0.1-0.2,0.5c-0.1-0.1-0.2-0.4-0.2-0.4c0,0.4-0.2-0.3-0.2,0c-0.2-0.5,0.1-0.4,0-0.7c0.4,0.4,0.3-0.1,0.4-0.3
									c0.2,0.4,0.3,0.8,0.4,0.9c0.3,0.2,0-0.3,0-0.5c0.2,0.1,0.4,0.6,0.5,0.6l0,0.3c0.4,0.5,0-0.3,0.1-0.2
									c-0.1-0.1-0.2-0.3-0.3-0.2c-0.1-0.2-0.1-0.3-0.1-0.4h0c-0.1-0.3-0.2-0.6,0-0.5c0.1,0.4,0.2,0.2,0.3,0.3v0.1
									c0-0.1,0.1-0.1,0.1-0.2l0,0.1c0-0.2-0.2-0.6-0.1-0.5c0.1,0.2,0.2,0.6,0.3,0.5c0.1,0.2,0,0.3-0.1,0.3c0.1,0,0.4,0.4,0.3,0.5
									c0.2,0.3,0-0.2,0.2-0.1c0-0.1-0.1-0.2-0.2-0.3c0.2,0.4,0.2-0.1,0.1-0.4l0,0.3c-0.2-0.3-0.2-0.6-0.3-0.8
									c0.4,0.5,0.1-0.4,0.4,0l-0.2-0.2c0.3,0,0.1-0.7,0.3-0.9c0,0.2,0.4,0.8,0.1,0.6c0.3,0,0.4,0.5,0.6,0.8
									c0.3,0.1-0.2-0.6-0.3-0.8l0,0.2c-0.3-0.7,0.5-0.1,0.4-0.6c0.1,0.1,0,0.1,0,0.2c0.3,0.3,0-0.1,0-0.3c0.1,0,0.4,0,0.5,0.5
									c0.2,0-0.2-0.2-0.2-0.4l0.1,0.1l-0.2-0.5c0.2,0.1,0.4,0.2,0.7,0.5c0.2-0.2-0.5-0.9-0.5-1.2c0.2,0.1,0.2,0.3,0.3,0.4l0.1-0.1
									c0.3,0.4,0,0.3,0.4,0.8c-0.2-0.6,0-0.2,0-0.7l0,0c-0.2-0.4,0.1-0.3,0.2-0.4c0.1,0.2,0,0.3,0,0.4c0.2,0.1,0.4-0.3,0.1-0.8
									c0.1,0,0.4,0.1,0.4,0.4c0.3-0.1-0.4-0.7-0.1-0.7l0.3,0.3c0.5,0.3,0-0.7,0.5-0.4l-0.3-0.4c0.2,0.1,0.3,0.1,0.4,0.3l0,0.2
									c0.4,0.3-0.2-0.4,0.1-0.2c-0.1-0.1-0.4-0.3-0.5-0.4c-0.2,0.5-1,0.2-1,0.9c0,0,0.1,0.1,0.2,0.2c-0.1-0.1-0.1,0.1-0.3-0.1v0
									c0,0.2-0.5-0.3-0.5-0.2c0.2,0.3-0.3,0,0.1,0.5l-0.3-0.3c0.1,0.2,0.3,0.4,0.3,0.5c-0.1,0-0.2-0.2-0.3-0.4
									c-0.4,0-0.7,0.3-0.8,0.6L114,206c-0.1-0.1,0,0.6-0.3,0c0,0.3-0.4,0-0.1,0.7c-0.4-0.5-0.5-0.1-0.6,0.1c0.4,0.5-0.1,0.2,0,0.5
									c-0.3-0.4-0.1-0.5-0.3-0.8c0.2,0.8-0.8-0.1-0.3,1c0,0-0.1-0.1-0.1-0.1c0,0-0.2-0.1-0.3-0.2c0.1,0.2,0.2,0.2,0.2,0.4
									c-0.1,0-0.2-0.3-0.3-0.4c0,0.3-0.2,0.5,0,1c-0.1-0.1-0.3-0.3-0.3-0.4c0,0.4-0.3,0-0.4,0.4c0.1,0-0.2-0.5,0-0.4
									c-0.4-0.6-0.3,0.3-0.6,0l0.1,0.4c-0.1,0.1-0.3-0.3-0.3-0.4c-0.3-0.2-0.3,0.1-0.4,0.2c0,0,0-0.1,0-0.1l-0.2,0.1
									c0,0.1,0,0.4,0.2,0.6C109.9,208.2,109.9,208.1,110.1,208.2z"/>
								<path class="st16" d="M110,208.5L110,208.5L110,208.5L110,208.5z"/>
								<path class="st16" d="M112.8,209.2c-0.1-0.1-0.1-0.1-0.1-0.1C112.7,209.2,112.8,209.2,112.8,209.2z"/>
								<path class="st16" d="M108.3,210.1c0.3,0.6,0.1-0.2,0.3,0c0,0.1,0.1,0.5,0.2,0.7c-0.2-0.9,0.2,0.1,0.4-0.1
									c0.1,0.3,0,0.4,0.1,0.7c0-0.3,0.2-0.4,0-0.9c0.2-0.1,0.4,0,0.5-0.1c0,0.3,0.2,0.4,0.2,0.9c-0.1-0.6,0-1.4-0.1-2.1
									c0.3,0.5,0.3,0.5,0.4,1c0.4,0.2-0.1-0.5,0.1-0.4l-0.1,0c0-0.2-0.2-0.7-0.3-1l-0.2,0.2c-0.1-0.4,0-0.4,0-0.5
									c-0.1-0.4-0.3-0.2-0.4-0.6c0.1,0.3,0,0.2,0,0.4l-0.1-0.2c-0.2-0.1,0,0.4-0.2,0.4c0,0,0-0.1,0-0.1c0,0.2,0.1,0.5,0.1,0.6l0,0
									c0.1,0.5,0,0.8,0.4,1.3l-0.3,0c-0.2-0.5-0.4-1.2-0.3-1.4l-0.1-0.2c-0.2-0.2-0.1,0.5,0.1,0.9c0.4,1.2-0.4,0.2-0.4,0.8
									c-0.1-0.3-0.1-0.5-0.1-0.7c0,0,0.1-0.1,0.2,0.2c0.2-0.3-0.4-1-0.1-1c0.2,0.1,0,0.6,0.3,0.5l-0.2-0.9
									c-0.1,0.1-0.2,0.3-0.2,0.4c-0.2,0.4-0.4,0.5-0.6,0.5c-0.2,0-0.3-0.1-0.3-0.1c-0.8,0.4-1.6,0.8-2.4,1.1
									c-0.2,0.2-0.3,0.2-0.2,1.1c0.1,0.2,0.3,0,0.3,0.4c0-0.4,0-0.6,0.1-0.6c0.1,0.3-0.1,0.2,0,0.3h0c0,0.2,0,0.3,0,0.3
									c0.3,0.4,0.6,0.3,0.5-0.4c0.2,0.3,0,0.5,0,0.8c0.5,0.1,0.8,0,1.3-0.2c-0.2-0.6-0.1-0.4-0.1-0.8l0.1,0.2
									c0-0.1-0.1-0.5-0.3-0.6c0.4,0.4,0-0.8,0.1-1.2l0.1,0.3c0.1-0.1,0.2-0.1,0.2-0.3c0.4,0.5-0.2,0.2,0.1,0.8l0-0.1
									c0,0.3,0.2,0.8,0.2,1c0-0.5,0.4,0.1,0.5-0.4c0.1,0.4,0,0.7-0.1,0.8c0.1,0,0.2-0.3,0.3,0l-0.1-0.4c0.1-0.1,0.1,0.4,0.3,0.6
									C108.9,211.6,108.1,210.4,108.3,210.1z"/>
								<path class="st16" d="M111.8,208.8C111.8,208.8,111.7,208.8,111.8,208.8C111.7,208.9,111.8,208.8,111.8,208.8z"/>
								<path class="st16" d="M111.5,209.8c0,0,0,0.1,0,0.1C111.5,210,111.5,209.9,111.5,209.8z"/>
								<path class="st16" d="M111.7,210.4c-0.1-0.2,0-0.2-0.1-0.4C111.5,210.2,111.5,210.2,111.7,210.4z"/>
								<path class="st16" d="M121.5,202.8c-0.1-0.1-0.1-0.3-0.2-0.3v0.2L121.5,202.8z"/>
								<path class="st16" d="M120.9,202.8h-0.2l0.4,0.4C121.2,203.1,120.8,202.9,120.9,202.8z"/>
								<path class="st16" d="M120.4,202.9l-0.1-0.1C120.4,202.8,120.4,202.8,120.4,202.9z"/>
								<path class="st16" d="M120.6,203l0.3,0.3l-0.1-0.4L120.6,203c-0.1-0.1-0.1-0.1-0.2-0.2L120.6,203
									C120.6,203.1,120.5,203,120.6,203z"/>
								<path class="st16" d="M120.5,203.1C120.5,203.2,120.6,203.2,120.5,203.1C120.6,203.2,120.5,203.2,120.5,203.1z"/>
								<path class="st16" d="M119.6,202.9c0.1,0.1,0.3,0.3,0.4,0.4c0.2,0-0.3-0.4,0-0.4c0.1,0.4,0.2,0.1,0.4,0.2
									c-0.3-0.2-0.6-0.4-0.8-0.4l0.2,0.2C119.9,203.1,119.8,202.9,119.6,202.9z"/>
								<path class="st16" d="M119.6,203.9l-0.2-0.4c0.1,0.1,0.3,0,0.6,0.3c0-0.1-0.1-0.2-0.2-0.4c0.2,0.1,0.3,0.2,0.1,0
									c-0.4,0-0.4-0.1-0.7,0c0,0,0-0.1,0-0.1l-0.3,0C119.4,203.6,119.3,203.8,119.6,203.9z"/>
								<path class="st16" d="M119.2,203.8c0.1-0.1-0.2-0.4-0.4-0.6l0,0.4C119,203.6,119,203.5,119.2,203.8z"/>
								<path class="st16" d="M119.1,203.9c-0.2-0.1-0.6-0.4-0.3,0C118.8,203.8,119.2,204.2,119.1,203.9z"/>
								<path class="st16" d="M118.2,204.3l0.4,0c0.4,0.4,0,0.2,0.1,0.4c0.2,0,0-0.1,0-0.5c0,0,0-0.3-0.1-0.4
									C118.6,204.3,117.7,203.4,118.2,204.3z"/>
								<polygon class="st16" points="118.9,204.3 118.8,204.2 118.8,204.4 								"/>
								<path class="st16" d="M117.4,204.2c-0.5-0.4,0,0.4-0.3,0.4c0,0,0-0.1-0.1-0.1l0,0.1l-0.1-0.1c0.3,0.3,0.2,0.5,0.4,0.8
									c0.4,0.2-0.3-0.4,0.1-0.1c0.1,0.1,0.2,0.4,0.3,0.5c0-0.2-0.2-0.4-0.3-0.6c0-0.1,0.2,0.1,0.3,0.2c0-0.2-0.4-0.7-0.2-0.7
									c0.3,0.2,0.3,0.4,0.4,0.2c-0.4-0.4,0.2,0,0-0.4c0.2,0,0.5,0.2,0.6,0.4c-0.3-0.4-0.5-0.7-0.5-0.9l0.1,0.4l-0.4-0.4
									C117.6,204.2,117.6,204.2,117.4,204.2L117.4,204.2z"/>
								<path class="st16" d="M117.7,205.5C117.7,205.6,117.8,205.6,117.7,205.5C117.8,205.6,117.8,205.6,117.7,205.5z"/>
								<polygon class="st16" points="118.5,204.8 118.6,205 118.7,205 								"/>
								<path class="st16" d="M117.9,205.9c0,0-0.1-0.1-0.1-0.1L117.9,205.9L117.9,205.9z"/>
								<polygon class="st16" points="117.6,205.7 117.3,205.5 117.5,205.8 								"/>
								<path class="st16" d="M115,207.2c0.2,0.1,0-0.2-0.2-0.4C114.7,206.8,115,207.1,115,207.2z"/>
								<path class="st16" d="M113.6,208.6c0.2,0.1,0.1-0.2,0.2-0.3C113.7,208.2,113.6,208.4,113.6,208.6z"/>
								<path class="st16" d="M113.5,210.1c0-0.1,0-0.2-0.1-0.2l-0.2-0.6C113,209.2,113.4,209.9,113.5,210.1z"/>
								<path class="st16" d="M112.8,210.6v-0.3h-0.1c-0.1-0.3-0.1-0.4-0.2-0.6C112.5,209.9,112.5,210.2,112.8,210.6z"/>
								<path class="st16" d="M112.6,209.6C112.6,209.6,112.6,209.7,112.6,209.6C112.6,209.7,112.7,209.8,112.6,209.6z"/>
								<path class="st16" d="M112.5,209.7C112.5,209.8,112.5,209.8,112.5,209.7C112.5,209.8,112.5,209.7,112.5,209.7
									C112.5,209.6,112.5,209.6,112.5,209.7z"/>
								<path class="st16" d="M112.5,210.4l-0.2,0.2l0.1,0.1C112.3,210.3,112.7,210.8,112.5,210.4z"/>
								<path class="st16" d="M111.1,210.7l-0.2-0.4c-0.2,0,0,0.8-0.4,0.3c0.2,0.2,0,0.5,0.3,0.5C110.8,210.8,111,210.6,111.1,210.7
									z"/>
								<path class="st16" d="M110.3,210.4c0-0.1-0.1-0.2-0.2-0.3c-0.1,0,0,0.2,0,0.3C110.1,209.9,110.4,210.7,110.3,210.4z"/>
								<path class="st16" d="M109.7,210.7c0,0,0.1-0.1,0-0.2c-0.1,0.1,0.1,0.5,0.1,0.8C110,211.5,109.9,210.9,109.7,210.7z"/>
								<path class="st16" d="M107.6,208.4c0.1,0.3,0.2,0.2,0.2,0.1C107.8,208.6,107.7,208.5,107.6,208.4z"/>
								<polygon class="st16" points="108.6,211 108.7,211.1 108.5,210.6 								"/>
								<polygon class="st16" points="107.9,211.6 107.9,212 108,211.8 								"/>
								<path class="st16" d="M107.7,211.6l-0.1,0.1l0.1,0.1C107.8,211.8,107.7,211.6,107.7,211.6z"/>
								<path class="st16" d="M107.3,211.8C107.3,211.8,107.4,211.8,107.3,211.8l0.1-0.2L107.3,211.8z"/>
								<path class="st16" d="M104.6,210.3c0-0.4-0.1-0.1-0.1-0.2C104.5,210.2,104.6,210.7,104.6,210.3z"/>
							</g>
						</g>
					</g>
				</g>
			</g>
		</g>
		<path class="st18" d="M130.3,209.8c0,0,0.7-1.6-0.3-2.3"/>
		<path class="st18" d="M128,209.8c0,0,0.4-1.4-0.3-2"/>
		<path class="st14" d="M146.6,143.6c0,0-5,4.4-8,5.5c-3.1,1.1-14,1.1-18.4,1.1s-13.3-1.4-18,9.1c-4.7,10.5-12.2,28.1-12,39.4
			c0.3,11.3,12.1,13.7,22.7,8.5c10.3-4.9,12.1-13.7,12.9-16.9c0,0,25.8-19.8,30.8-24.7s4.2-10.1,2.8-14.9c-1.3-4.8-1.4-6.7-0.9-9.4
			c0.5-2.7-10.8-1.4-10.8-1.4L146.6,143.6z"/>
		<g>
			<g>
				<defs>
					<path id="SVGID_00000015346930923306339830000007019989360773050502_" d="M158.4,141.2c0.5-2.7-10.8-1.4-10.8-1.4l-1.2,3.9
						c0,0-0.3,0.3-0.8,0.7c3.9,2.8,8.7,5.1,13.6,5.8C158.1,145.6,158,143.8,158.4,141.2z"/>
				</defs>
				<clipPath id="SVGID_00000008122175237661180610000000776557506126771880_">
					<use xlink:href="#SVGID_00000015346930923306339830000007019989360773050502_"  style="overflow:visible;"/>
				</clipPath>
				<g style="opacity:0.88;clip-path:url(#SVGID_00000008122175237661180610000000776557506126771880_);">
					<g>
						<g>
							<g>
								<path class="st16" d="M154.8,143.8C154.8,143.8,154.9,143.8,154.8,143.8C154.9,143.8,154.8,143.8,154.8,143.8z"/>
								<path class="st16" d="M152.6,144.9L152.6,144.9L152.6,144.9L152.6,144.9z"/>
								<path class="st16" d="M152.6,144.9L152.6,144.9C152.6,144.9,152.6,144.9,152.6,144.9z"/>
								<path class="st16" d="M155.4,144.1c0,0,0.1,0,0.1,0L155.4,144.1z"/>
								<path class="st16" d="M155.4,144.6L155.4,144.6C155.4,144.6,155.4,144.6,155.4,144.6z"/>
								<path class="st16" d="M156.6,141.8L156.6,141.8C156.6,141.8,156.6,141.8,156.6,141.8z"/>
								<path class="st16" d="M156.9,141.8L156.9,141.8L156.9,141.8L156.9,141.8z"/>
								<path class="st16" d="M156.9,142L156.9,142L156.9,142z"/>
								<path class="st16" d="M158.3,142.8L158.3,142.8C158.3,142.9,158.3,142.9,158.3,142.8z"/>
								<path class="st16" d="M156.5,141.7C156.5,141.7,156.5,141.8,156.5,141.7C156.5,141.7,156.5,141.8,156.5,141.7z"/>
								<path class="st16" d="M154.8,143.8L154.8,143.8L154.8,143.8z"/>
								<path class="st16" d="M155.5,144L155.5,144L155.5,144z"/>
								<path class="st16" d="M151.6,144.9C151.5,144.9,151.5,144.9,151.6,144.9C151.6,144.9,151.6,144.9,151.6,144.9z"/>
								<path class="st16" d="M156,142.6c0.2,0.2,0.1-0.1,0.3,0.1c-0.1,0-0.1,0,0,0.1c0.1,0.1,0-0.1,0.3,0h-0.1
									c0,0.1,0.2,0.2,0.2,0.2c-0.3-0.2,0,0.3-0.1,0.3h0l0,0.2l0,0c0,0,0,0,0,0c0.1,0.1,0.1,0.3,0,0.3c-0.2-0.1-0.3,0.2-0.4,0.1
									c0,0,0.1,0,0.1-0.1l-0.2-0.1c0,0.1,0.1,0.1,0,0.1c-0.2-0.2,0.1-0.1,0.1-0.2c0,0-0.1,0-0.2,0c0.1-0.1,0.1-0.3,0.4-0.1
									c0-0.1-0.1-0.1-0.2-0.1c0.2,0-0.1-0.2,0.1-0.1c-0.2-0.2-0.2,0-0.4,0c0.1,0.2-0.2,0.2-0.3,0.3c0.1,0.1,0.3,0.2,0.4,0.3
									c0,0.2-0.2,0-0.3,0c0,0.1,0.2,0.3,0.1,0.4l0.1,0c0.1,0.3-0.1,0-0.1,0c0-0.1-0.1-0.1,0-0.2c0-0.1-0.1-0.1-0.2-0.1l0,0
									c-0.1-0.1-0.2-0.2-0.2-0.1c0.1,0.1,0,0.1,0,0.2h0c-0.1,0-0.1,0-0.2,0l0,0c-0.1,0-0.2-0.2-0.3-0.1c0,0,0.3,0.2,0.2,0.2
									c0.1,0.1,0.2,0,0.2,0c0,0.1,0,0.3,0.1,0.2c0.1,0.1-0.1,0-0.1,0.1c0,0-0.1-0.1-0.1-0.1c0.1,0.2-0.1,0.1-0.2,0l0.1,0
									c-0.1-0.1-0.3-0.2-0.3-0.3c0.1,0.3-0.3,0-0.2,0.2l0-0.1c-0.1,0.2-0.4,0-0.6,0c0.1,0,0.2,0.3,0.3,0.2
									c-0.1,0.1,0.1,0.3,0.1,0.4c0,0.2-0.2-0.2-0.3-0.3h0.1c-0.3-0.3-0.3,0.2-0.5,0.1c0,0.1,0,0,0.1,0c0,0.2-0.1,0-0.1,0
									c0,0-0.1,0.2,0,0.4c-0.1,0.1,0-0.1-0.1-0.2v0l-0.2-0.2c0,0.1-0.1,0.2-0.1,0.4c-0.2,0-0.2-0.4-0.4-0.5c0,0.1,0,0.2,0.1,0.2
									H153c0.1,0.2,0.2,0.1,0.2,0.4c-0.2-0.3-0.2,0-0.3-0.2v0c-0.1-0.2-0.2,0-0.3,0c0,0.1,0.1,0.1,0.2,0.1c0,0.1-0.3,0-0.4-0.2
									c0,0-0.1,0.2,0,0.3c-0.2,0-0.1-0.4-0.3-0.3v0.2c-0.2,0.3-0.3-0.2-0.5,0v-0.2c0,0.1-0.1,0.1-0.1,0.2l0.1,0.1
									c-0.1,0.2-0.1-0.2-0.2,0c0-0.1,0.1-0.2,0.1-0.3c0.3,0.1,0.6-0.2,1,0c0,0,0,0,0,0.1c0,0,0.1,0,0.1-0.1l0,0
									c0.1,0,0.1-0.3,0.2-0.3c0,0.1,0.1-0.1,0.2,0.2v-0.2c0,0.1,0,0.2,0.1,0.3c0,0,0-0.1,0-0.2c0.2-0.1,0.4-0.2,0.7-0.2l-0.1-0.1
									c0-0.1,0.3,0.1,0.1-0.1c0.1,0.1,0.2-0.2,0.4,0.1c-0.1-0.3,0.1-0.3,0.3-0.3c0.1,0.3,0.1,0,0.3,0.1c-0.1-0.2-0.2-0.1-0.3-0.3
									c0.3,0.2,0.2-0.4,0.6,0c0,0,0,0,0,0c0,0,0-0.1,0-0.2c0.1,0.1,0,0.1,0.1,0.1c0,0-0.1-0.2-0.1-0.2c0.2,0,0.4,0,0.5,0.1
									c0-0.1-0.1-0.2-0.1-0.2c0.3,0,0.1-0.1,0.3-0.2c0,0-0.2-0.1-0.2,0c-0.2-0.3,0.2-0.1,0.2-0.4l0.2,0.1c0.1,0,0-0.2-0.2-0.2
									c0-0.2,0.1-0.2,0.2-0.3l0,0l0.1-0.1C155.8,142.4,156,142.4,156,142.6C156.1,142.5,156,142.5,156,142.6z"/>
								<polygon class="st16" points="156.2,142.5 156.2,142.6 156.2,142.6 								"/>
								<path class="st16" d="M155.7,144.4C155.7,144.3,155.7,144.3,155.7,144.4C155.7,144.3,155.7,144.3,155.7,144.4z"/>
								<path class="st16" d="M158,142.1c0,0.3-0.1,0-0.2,0c0.1,0,0.1,0.2,0.1,0.3c-0.1-0.4-0.1,0.1-0.3,0c0,0.1,0.1,0.1,0.1,0.3
									c-0.1-0.1-0.2-0.1-0.3-0.4c-0.1,0-0.2,0.1-0.3,0.1c0.1,0,0.1,0.2,0.2,0.4c-0.2-0.2-0.5-0.5-0.8-0.6c0.1,0.2,0.2,0.2,0.3,0.4
									c0,0.2-0.1,0-0.2,0c0,0,0,0,0,0v-0.1l0,0l0,0c-0.1,0-0.3-0.1-0.4-0.2l0.1,0c0,0,0.1,0,0.1-0.1c-0.1-0.1-0.2,0-0.2,0
									c0,0,0,0-0.1,0c-0.1,0-0.1-0.1-0.1-0.2l0,0v0c0,0,0,0,0,0c0.2,0,0.2-0.1,0.4-0.1l0-0.2c0.1-0.2,0.3,0,0.4-0.1c0,0,0,0,0,0
									c0.1,0.1,0.2,0.2,0.3,0.2h0c0.2,0.2,0.4,0.2,0.4,0.5c0,0,0.1-0.1,0.2-0.1c-0.1-0.2-0.2-0.6-0.4-0.6l0-0.1
									c0.1-0.2,0.4,0.1,0.4,0.3c0.1,0.3,0.2,0.3,0.3,0.2c0.1,0,0.2-0.1,0.3,0c0-0.2-0.1-0.2-0.2-0.3c0,0-0.1,0-0.1,0.1
									c-0.2,0,0-0.5-0.3-0.4c-0.1,0.1,0.2,0.2,0,0.3c-0.1-0.1-0.2-0.3-0.3-0.4c0.1,0,0.3,0,0.4,0c0.3,0.1,0.5,0.1,0.7,0
									c0.1,0,0.2-0.1,0.2-0.1c0.7,0,1.4,0.1,2.1,0.3c0.2,0.1,0.3,0.1,0.3,0.5c0,0.1-0.2,0-0.1,0.2c0-0.2-0.1-0.3-0.2-0.3
									c0,0.2,0.1,0.1,0,0.1l0,0c0,0.1,0,0.1,0,0.1c-0.1,0.2-0.4,0.1-0.4-0.2c-0.1,0.1,0,0.3,0.1,0.4c-0.4,0.1-0.6,0-0.9,0
									c0-0.3,0-0.2,0-0.4l0,0.1c0,0,0-0.3,0-0.3c-0.2,0.2-0.2-0.4-0.4-0.5v0.1c-0.1,0-0.1,0-0.3-0.1c-0.2,0.3,0.2,0,0.1,0.4l0,0
									c0,0.1,0.1,0.4,0.1,0.5c-0.2-0.2-0.2,0.1-0.4-0.1c0,0.2,0.2,0.3,0.2,0.3c0,0-0.2-0.1-0.2,0v-0.2c-0.1,0,0,0.2,0,0.3
									C158.1,142.9,158.3,142.3,158,142.1z"/>
								<path class="st16" d="M155.8,143.7C155.8,143.7,155.9,143.7,155.8,143.7C155.9,143.7,155.8,143.7,155.8,143.7z"/>
								<path class="st16" d="M156.5,143.6C156.5,143.6,156.5,143.6,156.5,143.6C156.5,143.6,156.5,143.6,156.5,143.6z"/>
								<path class="st16" d="M156.7,143.7c0-0.1-0.1,0-0.2-0.1C156.6,143.6,156.7,143.5,156.7,143.7z"/>
								<path class="st16" d="M148.1,145.1c0,0,0-0.1,0-0.2V145.1L148.1,145.1z"/>
								<path class="st16" d="M148.4,144.9l0.1,0l0,0.3C148.4,145.2,148.5,145,148.4,144.9z"/>
								<path class="st16" d="M148.7,144.9L148.7,144.9C148.7,144.9,148.7,144.9,148.7,144.9z"/>
								<path class="st16" d="M148.7,145l0,0.2l-0.1-0.2L148.7,145C148.6,145,148.7,145,148.7,145L148.7,145
									C148.7,145.1,148.7,145,148.7,145z"/>
								<path class="st16" d="M148.8,145.1C148.8,145.1,148.8,145.1,148.8,145.1C148.8,145.1,148.8,145.1,148.8,145.1z"/>
								<path class="st16" d="M149.2,144.8c0,0,0,0.2,0,0.3c-0.1,0,0-0.3-0.1-0.2c0.1,0.2-0.1,0.1-0.2,0.2
									C148.9,144.9,149,144.8,149.2,144.8l-0.1,0.1C149.1,144.9,149.1,144.9,149.2,144.8z"/>
								<path class="st16" d="M149.6,145.3v-0.2c0,0.1-0.2,0-0.2,0.2c0,0,0-0.1,0-0.2c0,0.1-0.1,0.1-0.1,0c0.2,0,0.2-0.1,0.4-0.1
									c0,0,0,0,0,0l0.1,0C149.6,145.1,149.7,145.2,149.6,145.3z"/>
								<path class="st16" d="M149.8,145.2c-0.1,0-0.1-0.2,0-0.3l0.1,0.2C149.9,145.1,149.8,145,149.8,145.2z"/>
								<path class="st16" d="M149.9,145.3c0-0.1,0.2-0.3,0.2-0.1C150,145.1,150,145.4,149.9,145.3z"/>
								<path class="st16" d="M150.6,145.2l-0.2,0.1c-0.1,0.2,0,0.1,0.1,0.2c-0.2,0-0.1,0-0.2-0.2c0,0-0.1-0.1-0.1-0.2
									C150.4,145.3,150.5,144.7,150.6,145.2z"/>
								<polygon class="st16" points="150.2,145.4 150.2,145.3 150.2,145.4 								"/>
								<path class="st16" d="M151,145c0.1-0.3,0.2,0.2,0.3,0.1c0,0,0,0,0-0.1l0.1,0v0c0,0.2,0.1,0.3,0.1,0.4c-0.1,0.2,0-0.2-0.1,0
									c0,0.1,0,0.2,0,0.3c0-0.1,0-0.2-0.1-0.3c0,0,0,0.1,0,0.1c0-0.1,0-0.4-0.1-0.3c-0.1,0.1,0,0.3-0.1,0.2c0.1-0.3-0.1,0-0.1-0.2
									c-0.1,0-0.2,0.2-0.2,0.3c0-0.2,0-0.4,0-0.5c0,0.1,0.1,0.1,0.1,0.2L151,145C150.9,145.1,151,145,151,145L151,145z"/>
								<path class="st16" d="M151.4,145.6C151.4,145.6,151.4,145.7,151.4,145.6C151.4,145.7,151.4,145.7,151.4,145.6z"/>
								<polygon class="st16" points="150.6,145.5 150.6,145.6 150.6,145.7 								"/>
								<path class="st16" d="M151.5,145.8C151.4,145.8,151.4,145.7,151.5,145.8L151.5,145.8L151.5,145.8z"/>
								<polygon class="st16" points="151.6,145.7 151.6,145.5 151.7,145.7 								"/>
								<path class="st16" d="M153.7,145.2c0,0.1-0.1,0-0.1-0.2C153.7,144.9,153.6,145.2,153.7,145.2z"/>
								<path class="st16" d="M155,144.8c0,0.1-0.2,0-0.2,0.1C154.9,144.7,155,144.7,155,144.8z"/>
								<path class="st16" d="M155.9,144.9C155.9,144.8,155.8,144.8,155.9,144.9l-0.4-0.3C155.6,144.4,155.8,144.8,155.9,144.9z"/>
								<path class="st16" d="M156.5,144.4h-0.2l0,0c-0.1-0.1-0.2-0.1-0.3-0.1C156.2,144.2,156.3,144.2,156.5,144.4z"/>
								<path class="st16" d="M156,144.2C156,144.2,156,144.2,156,144.2C156.1,144.2,156.1,144.3,156,144.2z"/>
								<path class="st16" d="M156.1,144.2C156.1,144.2,156.1,144.2,156.1,144.2C156.1,144.2,156.1,144.2,156.1,144.2
									C156,144.2,156,144.2,156.1,144.2z"/>
								<path class="st16" d="M156.5,144.2l0.2-0.1v0.1C156.5,144.1,156.6,144.4,156.5,144.2z"/>
								<path class="st16" d="M157,143.3l-0.1-0.1c0,0,0.1,0,0.2,0c0.1,0,0.1,0,0-0.1c0.1,0.1,0.1,0.1,0.2,0.2c0,0-0.1-0.1-0.1-0.1
									C157,143.3,157,143.3,157,143.3z"/>
								<path class="st16" d="M157,142.9c0,0,0-0.1-0.1-0.1C157,142.8,157,142.9,157,142.9C156.9,142.7,157.1,143,157,142.9z"/>
								<path class="st16" d="M157.4,142.8C157.4,142.8,157.3,142.8,157.4,142.8c0,0,0.1,0.2,0.1,0.3
									C157.5,143.2,157.4,142.9,157.4,142.8z"/>
								<path class="st16" d="M158,141.3c0,0.2-0.1,0.1-0.1,0.1C157.9,141.4,157.9,141.3,158,141.3z"/>
								<polygon class="st16" points="158.1,142.6 158.1,142.7 158,142.4 								"/>
								<polygon class="st16" points="158.7,142.8 158.7,142.9 158.7,142.9 								"/>
								<path class="st16" d="M158.8,142.7L158.8,142.7L158.8,142.7C158.8,142.8,158.8,142.7,158.8,142.7z"/>
								<path class="st16" d="M159.1,142.8C159.1,142.7,159.1,142.8,159.1,142.8l-0.1-0.1L159.1,142.8z"/>
								<path class="st16" d="M160.8,141.9c0-0.2,0.1,0,0.1-0.1C160.9,141.8,160.8,142.1,160.8,141.9z"/>
							</g>
						</g>
					</g>
				</g>
			</g>
		</g>
		<path class="st18" d="M125.7,190.2c0,0,1.6-8.9-3.7-14.9c-5.3-6-14.1-1.7-14.5,0.5c-0.4,2.2,2.8-1.9,7.9-1.1
			c5.2,0.8,7.2,6.9,6.5,13.3c-0.6,6.4-6.1,13.6-13.2,15.7c-7.2,2.1-10-1.5-10-1.5"/>
		<path class="st18" d="M150,209.8c0,0,0.4-1.3-0.4-2.1"/>
		<g>
			<path class="st14" d="M140.8,168.8c0,0,0.4,1.7,1,4.4c0.8,3.8,2.1,9.6,3.4,15.2c2,8.6,3.9,16.9,4,17c0.4,0.2,2.6,0,3.9,1.2
				c1.3,1.3,0.7,3.1,0.7,3.1s-6.1,0-6.4,0c-0.2,0-9.7-19.3-13-26.3c-0.6-1.3-1.1-2.2-1.2-2.4"/>
			<path class="st18" d="M152.2,209.8c0,0,0.4-1.4-0.4-2.1"/>
			<path class="st18" d="M150.3,209.8c0,0,0.1-1.4-0.8-1.8"/>
		</g>
		<path class="st14" d="M147.8,123.6c0,0,0.4-2.2,0.2-3c-0.2-0.8-4.8-4.7-8-9.2c-3.2-4.4-4.6-6.9-5.7-6.4c-1.1,0.4-1.7,9.8,0,15.8
			c1.7,6,2.8,7.2,4.4,7.5c1.6,0.4,2.6,0.8,2.6,0.8S147.2,126,147.8,123.6z"/>
		<path class="st20" d="M144.2,127.4c-1.4,1-2.8,1.6-2.8,1.6s-1.1-0.4-2.6-0.8c-1.6-0.4-2.6-1.4-4.4-7.5c-1.2-4-1.3-9.6-0.9-12.9
			c0,0,0,0,0,0c0-0.2,0-0.4,0.1-0.6c0.2-0.6,0.8-1.1,2.9,1.6c3.1,4,7.8,12.6,8,13.4C144.6,123,144.3,126,144.2,127.4z"/>
		<path class="st14" d="M159.9,125.7c0,0,0.2-2.1,0.2-3.1s0.3-1.9,3.1-4.4c2.8-2.4,7.2-7.2,9.3-9.3c2.1-2,3.6-3.2,4.6-2.2
			c1,1-0.7,18.9-1.9,21.1c-1.2,2.1-2.5,2.8-5.7,3.3c-3.2,0.5-5.2,0.4-5.5,0.5C163.8,131.7,159.1,128.6,159.9,125.7z"/>
		<path class="st20" d="M177.3,112c-0.3,5.8-1.3,14.4-2.1,15.7c-1.2,2.1-2.5,2.8-5.7,3.3c-3.2,0.5-5.2,0.4-5.5,0.5
			c-0.1,0-0.9-0.4-1.8-1.2c0.2-2.9,0.7-7,1.2-8.1c0.8-1.9,11.3-13.7,12.6-13.7C177.4,108.7,177.3,112,177.3,112z"/>
		<path class="st14" d="M143.4,137.9c0,0-2.7-2.1-3.2-3.7c-0.4-1.6-0.1-6,3.9-9.2s8.6-2.9,10.8-2.4s7.4,2.3,9.6,8.3
			c2.1,6-0.5,8.7-3,9.9c-2.5,1.2-5,1-5,1s-1.4,2-2.4,2.4c-1,0.4-3,0.7-4.8,0.4s-4.1-1.8-4.8-2.8
			C143.8,140.8,143.6,138.1,143.4,137.9z"/>
		<path class="st21" d="M145.8,143.2c0,0,0.7,0.4,1.5-0.4c0.8-0.8,2-1.5,2.4-1.6l0.1-0.8"/>
		<path class="st21" d="M149.7,141.2c0,0,0.1,0.2,1,1c1,0.9,1.6,2.6,3.4,2.1"/>
		<path class="st22" d="M149.9,140.5c0,0-0.4,0.1-0.7-0.6c-0.3-0.7-1.1-1.2-1.4-1.5c-0.3-0.3-0.1-1.1,0.8-0.7c1,0.4,1.9,0.4,2.7,0.4
			c1.3,0,1.4,0.2,1.5,0.5c0,0.4-0.6,0.7-1.3,0.8C150.8,139.6,150.6,140.6,149.9,140.5z"/>
		<path class="st23" d="M147.8,135.1c0,0,0.4-2.4-0.9-3.8c-1.2-1.5-3.4-1.2-3.4-1.2s-1,2.5,0.8,4.2
			C145.6,135.5,147.8,135.1,147.8,135.1z"/>
		<path class="st23" d="M154.7,135.5c0,0,0.7-3.3,2.8-3.7c2.1-0.4,3.3,0.8,3.3,0.8s-0.3,3.2-2.6,3.6
			C155.9,136.6,154.7,135.5,154.7,135.5z"/>
		
			<ellipse transform="matrix(0.1674 -0.9859 0.9859 0.1674 -9.6348 253.8746)" class="st1" cx="145.5" cy="132.6" rx="1.6" ry="0.7"/>
		<ellipse transform="matrix(0.1674 -0.9859 0.9859 0.1674 -1.1002 266.6755)" class="st1" cx="157.3" cy="134" rx="1.6" ry="0.7"/>
		<path class="st18" d="M134.5,183.5c-0.6-1.3-1.1-2.2-1.2-2.4"/>
		<path class="st18" d="M140.8,168.8c0,0,0.4,1.7,1,4.4c0.8,3.8,2.1,9.6,3.4,15.2"/>
	</g>
</g>
<path class="st24" d="M136,40.6c-0.3,0.3-1.1,1.1-1.5,1.4c-0.4,0.4-1,0.6-1.5,0.1c-1.9-1.8-5.2-4.7-6.4-3.9
	c-1.3,0.8,0.1,5.3,0.8,7.5c0.3,1,1.2,3.7,3.4,6.7c1.6,2.2,2.4,3.4,3.5,3.5c2.9,0.4,5.6-4.9,6.6-6.7c1.9-3.6,4.3-10.4,2.2-11.8
	C141.6,36.5,137.6,38.9,136,40.6z"/>
<path class="st25" d="M71.1,59.6c-0.3,0.3-1.1,1.1-1.5,1.4c-0.4,0.4-1,0.6-1.5,0.1c-1.9-1.8-5.2-4.7-6.4-3.9
	c-1.3,0.8,0.1,5.3,0.8,7.5c0.3,1,1.2,3.7,3.4,6.7c1.6,2.2,2.4,3.4,3.5,3.5c2.9,0.4,5.6-4.9,6.6-6.7c1.9-3.6,4.3-10.4,2.2-11.8
	C76.7,55.4,72.7,57.8,71.1,59.6z"/>
</svg>
