<?xml version="1.0" encoding="utf-8"?>
<!-- Generator: Adobe Illustrator 27.4.0, SVG Export Plug-In . SVG Version: 6.00 Build 0)  -->
<svg version="1.1" id="Layer_1" xmlns="http://www.w3.org/2000/svg" xmlns:xlink="http://www.w3.org/1999/xlink" x="0px" y="0px"
	 viewBox="0 0 200 244.9" style="enable-background:new 0 0 200 244.9;" xml:space="preserve">
<style type="text/css">
	.st0{fill:#1B1C1E;}
	.st1{fill:#FBAF5E;}
	.st2{opacity:0.62;clip-path:url(#SVGID_00000168116063952619159300000001431372664773383845_);}
	.st3{fill:#3E240C;}
	.st4{fill:none;stroke:#1B1C1E;stroke-width:0.9396;stroke-linecap:round;stroke-linejoin:round;stroke-miterlimit:10;}
	.st5{fill:#FFF0DD;}
	.st6{fill:#D1493B;}
	.st7{fill:#FFAE1F;}
	.st8{fill:#BC763C;}
	.st9{opacity:0.62;clip-path:url(#SVGID_00000165937703688100599110000014353587510255440016_);}
	.st10{opacity:0.62;clip-path:url(#SVGID_00000171715087677894967060000002074279918614089879_);}
	.st11{fill:#FF8080;}
	.st12{fill:#A7BC79;}
	.st13{fill:#637189;}
</style>
<g id="Illustration_1_">
	<g>
		<path class="st0" d="M153.7,215.6c0,0,4.5,1.6-7.9,2.1c-12.4,0.5-78.3,0.7-85,0c-6.8-0.7-20-0.3-2.5-2.1
			c17.5-1.8,35.5-0.7,53.1-1.8C129,212.7,151.1,213.8,153.7,215.6z"/>
		<g>
			<path class="st1" d="M68.1,163.4c0,0-5.5-1.4-5.8-7.5c0,0-5.8,3.1-6,11c-0.2,8,6,11.4,6,11.4S70.6,173,68.1,163.4z"/>
			<g>
				<g>
					<defs>
						<path id="SVGID_1_" d="M68.1,163.4c0,0-5.5-1.4-5.8-7.5c0,0-5.8,3.1-6,11c-0.2,8,6,11.4,6,11.4S70.6,173,68.1,163.4z"/>
					</defs>
					<clipPath id="SVGID_00000105424402878228145430000010813526038448984753_">
						<use xlink:href="#SVGID_1_"  style="overflow:visible;"/>
					</clipPath>
					<g style="opacity:0.62;clip-path:url(#SVGID_00000105424402878228145430000010813526038448984753_);">
						<g>
							<g>
								<g>
									<g>
										<path class="st3" d="M63.5,171.6c-0.1,0-0.1,0-0.2,0C63.2,171.5,63.2,171.5,63.5,171.6z"/>
										<path class="st3" d="M64.3,168.5L64.3,168.5L64.3,168.5L64.3,168.5z"/>
										<path class="st3" d="M64.3,168.5l0.2,0.1C64.4,168.6,64.4,168.6,64.3,168.5z"/>
										<path class="st3" d="M61.5,171.3c-0.1,0-0.1,0-0.4,0H61.5z"/>
										<path class="st3" d="M60.6,170.6c-0.1,0-0.1-0.1-0.1-0.1C60.5,170.6,60.5,170.6,60.6,170.6z"/>
										<path class="st3" d="M63.6,174.4C63.7,174.4,63.7,174.4,63.6,174.4C63.7,174.4,63.7,174.4,63.6,174.4z"/>
										<path class="st3" d="M63.2,174.5L63.2,174.5L63.2,174.5C63,174.5,63.1,174.5,63.2,174.5z"/>
										<path class="st3" d="M62.8,174.4L62.8,174.4L62.8,174.4z"/>
										<path class="st3" d="M59.5,176.1h-0.3C59.4,176.1,59.4,176.1,59.5,176.1z"/>
										<path class="st3" d="M64,174.3c-0.1,0-0.1,0-0.2,0C63.8,174.3,63.8,174.3,64,174.3z"/>
										<path class="st3" d="M63.5,171.6c-0.1,0-0.1,0-0.1,0C63.5,171.6,63.5,171.6,63.5,171.6z"/>
										<path class="st3" d="M61.5,171.5L61.5,171.5L61.5,171.5z"/>
										<path class="st3" d="M65.1,167.6c0.1,0,0.1,0,0.1,0C65.3,167.7,65.2,167.7,65.1,167.6z"/>
										<path class="st3" d="M63.1,173.5c-0.8-0.1-0.1,0.1-0.9,0c0.2-0.1,0.3-0.1-0.1-0.1c-0.4,0,0,0.1-0.7,0.1l0.3-0.1
											c-0.4-0.1-0.9-0.1-0.8-0.1c1,0.1-0.3-0.4-0.1-0.4h-0.1l-0.4-0.2c0,0,0,0-0.1,0c0.1,0,0.1,0,0.1,0
											c-0.4-0.1-0.7-0.3-0.6-0.4c0.5,0.1,0.3-0.4,0.7-0.3c-0.1,0-0.1,0.1-0.1,0.1l0.7,0.1c0-0.1-0.6-0.1-0.1-0.1
											c0.9,0.2,0,0.1,0.1,0.2c0.2,0,0.4,0,0.5,0c0,0.1,0.3,0.4-0.7,0.3c0.1,0.1,0.5,0.1,0.7,0.1c-0.5,0,0.4,0.1,0,0.1
											c0.8,0.1,0.4-0.1,1-0.1c-0.6-0.3,0-0.3,0.2-0.4c-0.6-0.1-1.1-0.1-1.5-0.3c-0.4-0.2,0.4-0.1,0.7-0.1c-0.1-0.1-1-0.3-1-0.4
											h-0.4c-0.8-0.4,0.4,0,0.2-0.1c0.2,0.1,0.4,0.1,0.4,0.2c0.3,0.1,0.4,0.1,0.5,0l0,0c0.4,0.1,0.8,0.2,0.7,0
											c-0.5-0.1-0.4-0.2-0.6-0.3h-0.1c0.2,0,0.1-0.1,0.2-0.1h-0.1c0.2,0,0.8,0.1,0.7,0.1c-0.2-0.1-1-0.2-0.8-0.2
											c-0.4-0.1-0.4,0-0.4,0.1c-0.1-0.1-0.7-0.4-0.7-0.3c-0.4-0.1,0.2-0.1,0.1-0.1c0.1,0.1,0.3,0.1,0.4,0.1
											c-0.6-0.2,0-0.2,0.4-0.1h-0.4c0.5,0.1,0.9,0.1,1.1,0.3c-0.7-0.3,0.4-0.1-0.1-0.4l0.4,0.2c-0.1-0.3,0.8-0.1,1-0.2
											c-0.3-0.1-1.1-0.4-0.9-0.1c-0.1-0.2-0.8-0.4-1.2-0.7c-0.2-0.3,0.8,0.2,1.1,0.3l-0.2,0.1c1,0.3,0-0.4,0.7-0.4
											c-0.2-0.1-0.1,0-0.3-0.1c-0.4-0.3,0.1-0.1,0.4,0c-0.1-0.1-0.2-0.4-0.8-0.6c-0.1-0.1,0.4,0.2,0.6,0.2l-0.1-0.1l0.7,0.2
											c-0.1-0.1-0.4-0.4-1-0.8c0.2-0.1,1.3,0.7,1.6,0.7c-0.2-0.2-0.4-0.2-0.7-0.4l0.1-0.1c-0.7-0.3-0.4-0.1-1.2-0.4
											c0.8,0.3,0.3,0,0.9,0.1l0.1,0.1c0.5,0.2,0.3-0.1,0.4-0.1c-0.3-0.1-0.4-0.1-0.6-0.1c-0.2-0.2,0.2-0.4,0.9,0
											c-0.1-0.1-0.2-0.4-0.6-0.5c0-0.2,1,0.5,0.9,0.3l-0.4-0.4c-0.5-0.7,0.9,0.1,0.4-0.5l0.6,0.4c-0.2-0.2-0.3-0.4-0.4-0.6
											l-0.2-0.1c-0.4-0.4,0.5,0.3,0.2-0.1c0.1,0.1,0.5,0.5,0.7,0.7c-0.6,0.1,0,1-0.8,0.9c-0.1-0.1-0.1-0.1-0.2-0.2
											c0.1,0.1-0.1,0.1,0.2,0.3h0.1c-0.2,0,0.5,0.5,0.4,0.6c-0.4-0.2,0.1,0.3-0.6-0.2l0.4,0.3c-0.3-0.1-0.6-0.4-0.7-0.4
											c0,0.1,0.3,0.3,0.5,0.3c0.1,0.4-0.1,0.6-0.4,0.7l0.4,0.1c0.1,0.1-0.7-0.1,0.2,0.3c-0.4-0.1,0.1,0.4-0.8,0
											c0.9,0.5,0.3,0.4,0.1,0.6c-0.8-0.4-0.3,0.1-0.7-0.1c0.7,0.2,0.7,0.1,1.1,0.3c-1-0.2,0.6,0.7-1.1,0.2
											c0.1,0.1,0.1,0.1,0.2,0.1c0,0,0.3,0.1,0.3,0.2c-0.3-0.1-0.4-0.2-0.5-0.1c0.1,0.1,0.5,0.2,0.7,0.3c-0.4,0-0.7,0.1-1.3,0
											c0.1,0.1,0.5,0.2,0.7,0.2c-0.6,0.1,0.1,0.2-0.3,0.4c0.1-0.1,0.7,0.1,0.4-0.1c1,0.3-0.2,0.3,0.2,0.5l-0.7-0.1
											c-0.1,0.1,0.4,0.2,0.7,0.1c0.4,0.2,0,0.2-0.1,0.4c0.1,0,0.2,0,0.1,0v0.1c-0.1,0-0.5,0-0.9,0
											C63.1,173.7,63.3,173.7,63.1,173.5z"/>
										<path class="st3" d="M62.7,173.6L62.7,173.6L62.7,173.6L62.7,173.6z"/>
										<path class="st3" d="M60.4,171.2c0.1,0.1,0.2,0.1,0.2,0.1C60.6,171.2,60.5,171.2,60.4,171.2z"/>
										<path class="st3" d="M61.5,175.6c-1,0,0.1-0.1-0.1-0.2c-0.1,0.1-0.7,0.1-1,0.1c1.3-0.1-0.2-0.1,0-0.4
											c-0.4,0-0.4,0.1-0.9,0.1c0.3-0.1,0.5-0.3,1.2-0.4c0-0.2-0.2-0.4-0.1-0.4c-0.3,0.1-0.7,0-1.3,0.1c0.8-0.1,1.8-0.4,2.8-0.5
											c-0.7-0.1-0.8-0.1-1.6-0.1c-0.4-0.3,0.7,0,0.5-0.2l0.1,0.1c0.2-0.1,1,0,1.5,0l-0.1,0.2c0.5,0.1,0.4-0.1,0.6-0.1
											c0.7,0,0.4,0.1,1,0.2c-0.4,0-0.3,0.1-0.5,0.1H64c0.3,0.1-0.4,0.1-0.4,0.2c0.1,0,0.1,0,0.2,0c-0.3,0-0.7,0-0.8,0.1v-0.1
											c-0.7,0.1-1.1,0.2-1.9,0.1l0.2,0.3c0.7,0,1.9,0,2-0.1h0.3c0.4,0.1-0.6,0.2-1.2,0.1c-1.8,0.1-0.1,0.4-0.8,0.6
											c0.5,0,0.7-0.1,1-0.1c0.1-0.1,0.1-0.1-0.4-0.1c0.3-0.2,1.6,0.1,1.4-0.2c-0.2-0.1-0.8,0.1-0.8-0.1l1.3-0.1
											c-0.1,0.1-0.3,0.1-0.4,0.3c-0.4,0.2-0.4,0.4-0.4,0.6c0.1,0.1,0.3,0.2,0.3,0.2c-0.1,0.7-0.1,1.4-0.1,2.2
											c-0.1,0.3-0.1,0.3-1.3,0.8c-0.3,0.1-0.2-0.1-0.7,0.1c0.4-0.1,0.7-0.4,0.6-0.4c-0.4,0.1-0.2,0.1-0.3,0.1h-0.1
											c-0.2,0.1-0.4,0.1-0.4,0.2c-0.7,0.1-0.7-0.3,0.2-0.7c-0.5,0-0.7,0.3-1,0.4c-0.4-0.4-0.4-0.7-0.6-1.2
											c0.8-0.1,0.5-0.1,1.1-0.3h-0.3c0.1,0,0.7-0.1,0.9-0.1c-0.7-0.1,1.1-0.4,1.5-0.7l-0.4,0.1c0.1-0.1,0.1-0.1,0.3-0.3
											c-0.9-0.1-0.1,0.2-1.2,0.2l0.1-0.1c-0.4,0.1-1.2,0.2-1.5,0.3c0.7-0.3-0.3-0.3,0.2-0.6c-0.5,0.1-0.9,0.3-0.9,0.4
											c-0.1-0.1,0.3-0.3-0.1-0.2l0.6-0.1c0.1-0.1-0.6,0.1-1,0C59.2,175.6,61.2,175.9,61.5,175.6z"/>
										<path class="st3" d="M61.5,172.1C61.5,172.2,61.5,172.2,61.5,172.1C61.4,172.2,61.4,172.1,61.5,172.1z"/>
										<path class="st3" d="M60.2,172.6c-0.1,0-0.1,0-0.2,0C60,172.6,60,172.6,60.2,172.6z"/>
										<path class="st3" d="M59.3,172.5c0.3,0.1,0.3,0,0.7,0.1C59.7,172.6,59.7,172.7,59.3,172.5z"/>
										<path class="st3" d="M66,162.4c0.1,0.1,0.3,0.2,0.4,0.4l-0.2-0.1L66,162.4z"/>
										<path class="st3" d="M66.2,163.1l0.1,0.3l-0.6-0.6C65.8,162.7,66.1,163.2,66.2,163.1z"/>
										<path class="st3" d="M66.2,163.7l0.1,0.1C66.3,163.8,66.2,163.7,66.2,163.7z"/>
										<path class="st3" d="M66,163.4l-0.4-0.4l0.4,0.2V163.4c0.1,0.1,0.1,0.2,0.2,0.3L66,163.4C65.9,163.4,66,163.5,66,163.4z"
											/>
										<path class="st3" d="M65.8,163.5c0-0.1-0.1-0.1-0.1-0.1C65.8,163.4,65.8,163.5,65.8,163.5z"/>
										<path class="st3" d="M66.3,164.6c-0.1-0.2-0.4-0.4-0.6-0.6c-0.1-0.3,0.5,0.4,0.4,0.1c-0.4-0.2-0.1-0.3-0.4-0.6
											C66.1,163.9,66.4,164.3,66.3,164.6l-0.2-0.4C66.1,164.3,66.2,164.4,66.3,164.6z"/>
										<path class="st3" d="M65.2,164.3l0.4,0.4c-0.1-0.2-0.1-0.3-0.4-0.7c0.1,0,0.3,0.2,0.4,0.3c-0.1-0.2-0.3-0.4,0-0.1
											c0.1,0.4,0.2,0.5,0.1,0.8c0.1,0.1,0.1,0.1,0.1,0l0.1,0.3C65.5,164.7,65.3,164.7,65.2,164.3z"/>
										<path class="st3" d="M65.3,164.8c0.1-0.1,0.5,0.3,0.7,0.6l-0.4-0.1C65.6,165.2,65.7,165.2,65.3,164.8z"/>
										<path class="st3" d="M65.2,164.9c0.1,0.2,0.6,0.7,0.1,0.4C65.5,165.3,64.8,164.7,65.2,164.9z"/>
										<path class="st3" d="M65,165.9l-0.1-0.4c-0.5-0.6-0.2-0.1-0.5-0.3c0-0.2,0.1,0,0.6,0.2c0-0.1,0.4,0.1,0.5,0.2
											C64.9,165.4,66.1,166.7,65,165.9z"/>
										<polygon class="st3" points="64.8,165 65,165.3 64.8,165.1 										"/>
										<path class="st3" d="M65.3,166.8c0.6,0.7-0.5-0.1-0.4,0.2c0.1,0,0.1,0.1,0.2,0.1H65l0.1,0.1c-0.4-0.4-0.7-0.4-1-0.6
											c-0.4-0.4,0.5,0.4,0.1-0.1c-0.2-0.1-0.5-0.4-0.7-0.4c0.2,0.1,0.5,0.3,0.7,0.4c0.1,0-0.1-0.2-0.3-0.4
											c0.3,0.1,0.9,0.7,0.8,0.4c-0.3-0.4-0.6-0.4-0.4-0.4c0.6,0.6,0-0.2,0.4,0.1c-0.1-0.2-0.4-0.6-0.6-0.8
											c0.5,0.4,1,0.7,1.2,0.8l-0.5-0.2l0.5,0.6C65.3,166.5,65.3,166.7,65.3,166.8L65.3,166.8z"/>
										<path class="st3" d="M63.6,166.2c-0.1,0-0.1-0.1-0.1-0.1C63.5,166.1,63.5,166.1,63.6,166.2z"/>
										<polygon class="st3" points="64.3,165.4 64.1,165.3 64,165.1 										"/>
										<path class="st3" d="M63.1,165.9c0-0.1,0.2,0.1,0.2,0.1L63.1,165.9L63.1,165.9z"/>
										<polygon class="st3" points="63.5,166.3 63.8,166.6 63.5,166.5 										"/>
										<path class="st3" d="M62.3,168.8c-0.2-0.2,0.3,0.1,0.6,0.2C62.9,169.3,62.4,168.8,62.3,168.8z"/>
										<path class="st3" d="M60.9,170.3c-0.3-0.2,0.2-0.1,0.2-0.2C61.4,170.2,61.2,170.3,60.9,170.3z"/>
										<path class="st3" d="M58.9,170.5c0.1,0,0.3,0,0.3,0.1l1,0.1C60.5,171,59.3,170.6,58.9,170.5z"/>
										<path class="st3" d="M58.5,171.5l0.4-0.1v0.1c0.4,0.1,0.6,0.1,0.9,0.1C59.6,171.6,59.2,171.6,58.5,171.5z"/>
										<path class="st3" d="M60,171.5C60,171.5,60,171.5,60,171.5C59.8,171.5,59.7,171.4,60,171.5z"/>
										<path class="st3" d="M60,171.5C59.9,171.5,59.9,171.5,60,171.5C59.9,171.5,59.9,171.5,60,171.5
											C60,171.5,60.1,171.5,60,171.5z"/>
										<path class="st3" d="M59,171.7l-0.1,0.2l-0.1-0.1C59.2,171.8,58.3,171.5,59,171.7z"/>
										<path class="st3" d="M59.2,173.1l0.6,0.1c0.1,0.1-1.1,0.2-0.2,0.4c-0.4-0.1-0.7,0.1-0.8-0.1
											C59.3,173.5,59.4,173.2,59.2,173.1z"/>
										<path class="st3" d="M60,173.8c0.1,0,0.3,0,0.4,0.1c0.1,0.1-0.2,0.1-0.4,0.1C60.8,174,59.5,173.8,60,173.8z"/>
										<path class="st3" d="M59.9,174.6c0-0.1,0.1-0.1,0.2,0c-0.1,0.1-0.7,0.1-1,0.1C58.7,174.5,59.6,174.4,59.9,174.6z"/>
										<path class="st3" d="M64.1,175.5c-0.5,0-0.4-0.1-0.2-0.1C63.8,175.4,63.9,175.5,64.1,175.5z"/>
										<polygon class="st3" points="60,175.7 60,175.6 60.7,175.6 										"/>
										<polygon class="st3" points="59.7,176.5 59.2,176.7 59.3,176.5 										"/>
										<path class="st3" d="M59.9,176.7v0.1h-0.2C59.5,176.7,59.9,176.7,59.9,176.7z"/>
										<path class="st3" d="M59.8,177.1c0.1,0-0.1,0-0.1,0L60,177L59.8,177.1z"/>
										<path class="st3" d="M63.2,178.4c0.4-0.1,0.2,0,0.3-0.1C63.5,178.4,62.8,178.5,63.2,178.4z"/>
									</g>
								</g>
							</g>
						</g>
					</g>
				</g>
			</g>
			<path class="st1" d="M148.7,134c0,0,1.2,32.1-1.6,68.2c0,0,4.6,5.7,1.9,13.4c0,0-16.6,0-18.8,0c0,0-4.5-8.4-5.2-20h-14.8
				c0,0-5.5,7.9-9.4,14.5c-1.2,2-1.8,4.7-2.7,5.4c0,0-32,0-32.5,0c-0.5,0-6-18.6-4.8-34.8c0.1-0.8,0.1-1.6,0.2-2.5
				c0.4-3.4,1.3-6.3,2.3-8.8c1-2.4,2.2-4.5,3.7-6.4c3.4-4.6,7.9-8.1,12.4-12.4c6.6-6.4,11.8-19.5,11.8-19.5s-2.1-4.3,20.4-5.4
				C134.1,124.9,147.5,128.1,148.7,134z"/>
			<line class="st4" x1="110.3" y1="195.6" x2="112.4" y2="192.3"/>
			<path class="st5" d="M96.2,164.7c4.4,9,9.2,10,9.2,10c5.6,6.7,8.2,6.9,8.2,6.9c3,4,8.7,7.9,8.7,7.9c4.3-1.6,8.5-8.3,8.5-8.3
				c3.7-0.7,7-8.2,7-8.2c7.2-4.1,10.3-14.8,11.3-19.4c0.1-11.9-0.2-19.5-0.2-19.5c-1.2-5.8-14.6-9.1-37-8.1s-20.4,5.4-20.4,5.4
				s-0.8,2-2.2,4.8C84.3,155.4,96.2,164.7,96.2,164.7z"/>
			<path class="st6" d="M91.3,131.2c-1.3,3.3-0.6,7,1.9,9.5c6,6.3,18.2,16.4,32.3,14.4c7.4-1,12.8-4,16.6-6.9
				c4.4-3.4,6.8-8.7,6.6-14.3l0,0c-1.2-5.8-14.6-9.1-37-8.1C89.3,126.9,91.3,131.2,91.3,131.2L91.3,131.2z"/>
			<path class="st7" d="M118.3,152.5c0-3.6,2.9-6.4,6.4-6.4c3.5,0,6.4,2.9,6.4,6.4c0,1.6-0.6,3.1-1.6,4.2c-1.2,1.3-2.9,2.2-4.8,2.2
				C121.2,158.9,118.3,156.1,118.3,152.5z"/>
			<path class="st4" d="M129.5,156.8c-1.2,1.3-2.9,2.2-4.8,2.2c-3.6,0-6.4-2.9-6.4-6.4"/>
			<path class="st1" d="M109.4,90c0,0-7.4-13.1-10.1-22.7c-0.5-1.8-2.7-2.4-4.1-1.1c-5.4,5-14.4,17.8-2,40.9
				C93.1,107,110.2,100.6,109.4,90z"/>
			<path class="st8" d="M93.6,102.4c1.1-2.4,2.5-4.8,4.5-6.8c2.2-2.2,2.8-5.7,1.6-8.6c-2.1-4.9-3.9-10.8-4.7-13.6
				c-0.2-0.7-1.2-0.9-1.6-0.2C84.8,85.5,93.6,102.4,93.6,102.4z"/>
			<path class="st8" d="M93.6,102.4c0.7,1.6,13-3.4,9-9.5c-0.1-0.1-0.2-0.4-0.4-0.5C98,94.8,95.4,98.6,93.6,102.4z"/>
			<path class="st5" d="M86.3,124.4c4.8,8.9,13.5,15.4,21.4,20c10.6,6,23.8,5,33.2-2.8c12.6-10.4,15.9-20.9,14.7-21.7
				c-0.5-0.4-1.4-2.1-2.4-4.2c0,0-3.7-0.4-10.4,3.3c-6.6,3.7-11.6,0.8-12.8-11.4c-1.4-14.5-3.9-18.4-3.9-18.4
				c-2.3-0.2-5.1-0.4-8.1-0.2c0,0,5.1,20.6-0.7,29.5c-4.1,6.3-12.7,2.1-18-0.7c-5.2-2.8-9.4-3-9.4-3c-0.1,0.4-0.2,0.9-0.3,1.2
				C88.5,119.9,86.3,124.4,86.3,124.4z"/>
			<path class="st1" d="M130,89.8c-1-0.3-2.3-0.4-3.9-0.7c0,0,2.5,4,3.9,18.4c1.2,12.2,6.1,15.1,12.8,11.4
				c6.6-3.7,10.4-3.3,10.4-3.3c-1.9-4.4-4.2-10.6-4.2-10.6c9.7-21.5-0.5-34-6.6-39.1c-1.6-1.3-4-0.4-4.2,1.6
				C136.4,79.4,130,89.8,130,89.8z"/>
			<path class="st1" d="M90.1,114.7c0,0,4.2,0.2,9.4,3c5.2,2.8,13.8,7,18,0.7c5.8-8.9,0.7-29.5,0.7-29.5c-4.4,0.1-9,0.7-12.7,2.1
				c-0.8,0.3-1.6,0.6-2.3,1c-0.2,0.1-0.5,0.2-0.7,0.4c-4.2,2.4-6.9,6.1-8.6,10c-0.5,1-0.9,2.1-1.3,3.1
				C91.1,109.2,90.5,112.6,90.1,114.7z"/>
			<path class="st0" d="M123.1,125.5c1.6,1.3,4,1.3,5.5-0.1c1.4-1.3,3-3.1,3-5.2c0-2.4-11-2.5-11.3,0
				C120,122.3,121.5,124.2,123.1,125.5z"/>
			<path class="st0" d="M134.7,114.6c0,1.2,0.9,2.5,2.2,2.5c1.4-0.1,2-1.4,2-2.5c0-1.2-1-2.1-2.2-2.1
				C135.5,112.4,134.7,113.4,134.7,114.6z"/>
			<path class="st0" d="M111.8,115.3c0,1.2,1,2.4,2.1,2.3c1.2,0,2.2-1.3,2.1-2.5c0-1.2-1-2.1-2.2-2.1
				C112.7,113.1,111.8,114.1,111.8,115.3z"/>
			<path class="st8" d="M141.4,95.2c2.8,2.3,4.8,5.1,6.1,7.2c8.9-16.5-3.9-35.3-4.3-28c-0.2,3.8-2.1,8.7-3.7,12.5
				C138.2,89.8,139,93.2,141.4,95.2z"/>
			<g>
				<g>
					<defs>
						<path id="SVGID_00000109720080603073279400000004355817771577724841_" d="M125,195.6c0.2,4,1,7.5,1.7,10.6
							c8.3-5.4,10.3-15.1,10.7-17.4C132.5,196.3,125,195.6,125,195.6z"/>
					</defs>
					<clipPath id="SVGID_00000056408720707718494590000012989695760620016524_">
						<use xlink:href="#SVGID_00000109720080603073279400000004355817771577724841_"  style="overflow:visible;"/>
					</clipPath>
					<g style="opacity:0.62;clip-path:url(#SVGID_00000056408720707718494590000012989695760620016524_);">
						<g>
							<g>
								<g>
									<g>
										<path class="st3" d="M129.5,194.5c0,0.1,0.1,0.1,0.1,0.2C129.6,194.7,129.5,194.6,129.5,194.5z"/>
										<path class="st3" d="M132.3,193.1L132.3,193.1L132.3,193.1L132.3,193.1z"/>
										<path class="st3" d="M132.3,193.1l-0.1-0.2C132.2,193,132.3,193.1,132.3,193.1z"/>
										<path class="st3" d="M130.1,196.4c0,0.1,0,0.1,0.1,0.4L130.1,196.4z"/>
										<path class="st3" d="M130.9,197.2c0,0.1,0.1,0.1,0.1,0.1C131,197.2,131,197.2,130.9,197.2z"/>
										<path class="st3" d="M126.8,194.8C126.8,194.7,126.8,194.7,126.8,194.8C126.7,194.7,126.8,194.7,126.8,194.8z"/>
										<path class="st3" d="M126.6,195.3C126.6,195.2,126.6,195.3,126.6,195.3L126.6,195.3C126.6,195.5,126.6,195.3,126.6,195.3z
											"/>
										<path class="st3" d="M126.8,195.6L126.8,195.6C126.8,195.7,126.8,195.7,126.8,195.6z"/>
										<path class="st3" d="M125.8,199.2v0.3C125.8,199.3,125.8,199.3,125.8,199.2z"/>
										<path class="st3" d="M126.7,194.4c0,0.1,0,0.1,0,0.2C126.7,194.6,126.8,194.6,126.7,194.4z"/>
										<path class="st3" d="M129.4,194.4c0,0.1,0.1,0.1,0.1,0.1C129.4,194.5,129.4,194.4,129.4,194.4z"/>
										<path class="st3" d="M129.9,196.4L129.9,196.4C129.9,196.4,129.9,196.4,129.9,196.4z"/>
										<path class="st3" d="M133.1,192.2c0-0.1,0-0.1,0-0.1C133,192,133,192.1,133.1,192.2z"/>
										<path class="st3" d="M127.6,195.2c0.3,0.8-0.1,0.1,0.1,0.8c0-0.2,0-0.3,0.1,0.1c0.1,0.4-0.1,0,0.1,0.7v-0.3
											c0.1,0.3,0.2,0.9,0.3,0.8c-0.2-1,0.4,0.3,0.4,0.1v0.1l0.3,0.4c0,0,0,0,0,0.1c0-0.1,0-0.1-0.1-0.1c0.2,0.4,0.4,0.7,0.5,0.5
											c-0.1-0.5,0.3-0.3,0.2-0.8c0,0.1,0,0.1-0.1,0.1l-0.2-0.6c0.1,0,0.2,0.6,0.2,0.1c-0.4-0.8-0.1,0.1-0.3,0
											c-0.1-0.2-0.1-0.4-0.1-0.5c-0.1,0-0.4-0.2-0.2,0.7c-0.1-0.1-0.2-0.5-0.2-0.6c0.1,0.5-0.2-0.4-0.1,0c-0.2-0.8,0.1-0.5,0-1
											c0.4,0.6,0.3-0.1,0.4-0.2c0.2,0.6,0.4,1.1,0.5,1.4c0.3,0.3,0-0.4-0.1-0.7c0.2,0.1,0.4,0.9,0.6,0.9l0.1,0.4
											c0.4,0.7-0.1-0.4,0.1-0.2c-0.1-0.2-0.2-0.4-0.3-0.3c-0.1-0.3-0.1-0.4-0.1-0.4l0,0c-0.1-0.4-0.3-0.8-0.1-0.7
											c0.1,0.5,0.2,0.3,0.4,0.5v0.1c0-0.2,0.1-0.1,0.1-0.3l0.1,0.1c-0.1-0.2-0.3-0.8-0.1-0.7c0.1,0.2,0.4,0.9,0.4,0.7
											c0.1,0.4,0.1,0.4-0.1,0.4c0.1,0.1,0.5,0.6,0.4,0.7c0.2,0.4,0-0.2,0.1-0.1c-0.1-0.1-0.1-0.3-0.2-0.4c0.3,0.6,0.2-0.1,0-0.4
											l0.1,0.4c-0.3-0.4-0.3-0.8-0.5-1c0.4,0.7,0.1-0.5,0.4,0.1l-0.2-0.4c0.3,0.1,0-0.8,0-1.1c0.1,0.2,0.6,1,0.3,0.8
											c0.3,0,0.5,0.7,0.8,1c0.3,0.1-0.4-0.7-0.5-1v0.2c-0.4-1,0.4-0.1,0.3-0.7c0.1,0.2,0.1,0.1,0.1,0.2c0.4,0.4,0-0.1-0.1-0.4
											c0.1,0,0.4,0.1,0.7,0.7c0.2,0.1-0.2-0.3-0.3-0.5l0.1,0.1l-0.4-0.7c0.2,0.1,0.5,0.3,1,0.7c0.1-0.2-0.9-1.2-1-1.5
											c0.3,0.2,0.3,0.4,0.4,0.6l0.1-0.1c0.4,0.6,0.1,0.4,0.7,1c-0.4-0.7,0-0.3-0.3-0.9l-0.1-0.1c-0.4-0.5,0.1-0.3,0.1-0.4
											c0.2,0.3,0.1,0.4,0.2,0.5c0.3,0.1,0.3-0.2-0.1-0.9c0.1,0.1,0.4,0.1,0.6,0.4c0.2-0.1-0.7-0.8-0.4-0.8l0.4,0.4
											c0.7,0.4-0.3-0.8,0.4-0.4l-0.5-0.5c0.2,0.1,0.4,0.2,0.7,0.4l0.1,0.2c0.5,0.3-0.4-0.4,0-0.2c-0.1-0.1-0.6-0.4-0.7-0.5
											c0,0.6-1,0.1-0.7,1c0.1,0.1,0.1,0.1,0.2,0.2c-0.1-0.1-0.1,0.1-0.4-0.2v-0.1c0,0.2-0.7-0.4-0.7-0.4c0.3,0.4-0.3,0,0.3,0.6
											l-0.4-0.4c0.1,0.2,0.4,0.5,0.5,0.7c-0.1,0-0.3-0.2-0.4-0.4c-0.4-0.1-0.6,0.2-0.7,0.6l-0.1-0.4c-0.1-0.1,0.2,0.7-0.3-0.1
											c0.1,0.4-0.4-0.1,0.1,0.8c-0.7-0.8-0.5-0.1-0.6,0.1c0.5,0.7,0,0.3,0.1,0.7c-0.4-0.6-0.2-0.7-0.4-1c0.4,1-0.8-0.4,0,1.1
											c-0.1-0.1-0.1-0.1-0.1-0.1c0,0-0.2-0.2-0.3-0.3c0.1,0.3,0.2,0.4,0.2,0.5c-0.1,0-0.3-0.4-0.4-0.7c0.1,0.4-0.1,0.7,0.2,1.3
											c-0.1-0.1-0.3-0.5-0.4-0.7c0,0.6-0.2,0-0.3,0.4c0.1-0.1-0.2-0.7-0.1-0.4c-0.4-0.9-0.2,0.3-0.6-0.1l0.1,0.6
											c-0.1,0.1-0.3-0.4-0.3-0.7c-0.3-0.3-0.2,0.1-0.4,0.1c0-0.1-0.1-0.2,0-0.1h-0.1c0,0.1,0.1,0.5,0.2,0.9
											C127.5,195.2,127.4,194.9,127.6,195.2z"/>
										<path class="st3" d="M127.6,195.5L127.6,195.5L127.6,195.5C127.6,195.6,127.6,195.6,127.6,195.5z"/>
										<path class="st3" d="M130.4,197.4c-0.1-0.1-0.1-0.2-0.1-0.2C130.3,197.3,130.4,197.4,130.4,197.4z"/>
										<path class="st3" d="M125.9,197.1c0.1,1,0.1-0.1,0.2,0.1c-0.1,0.1,0.1,0.7,0.1,1c-0.1-1.3,0.1,0.2,0.4-0.1
											c0.1,0.4,0,0.5,0.1,1c0.1-0.3,0.2-0.5,0.1-1.3c0.2-0.1,0.4,0.1,0.5,0c-0.1,0.3,0.1,0.7,0.1,1.3c0-0.8,0.1-1.9,0-2.9
											c0.2,0.7,0.2,0.8,0.4,1.5c0.4,0.4-0.1-0.7,0.1-0.6l-0.1-0.1c0-0.2-0.1-1-0.3-1.5l-0.2,0.1c-0.1-0.5,0-0.4,0-0.6
											c-0.1-0.6-0.2-0.4-0.4-0.9c0.1,0.4,0,0.3,0,0.5l-0.1-0.3c-0.1-0.3-0.1,0.4-0.1,0.4c0-0.1-0.1-0.1-0.1-0.1
											c0.1,0.3,0.1,0.7,0.1,0.8v-0.1c0.1,0.7-0.1,1.1,0.2,1.9l-0.3-0.1c-0.1-0.7-0.3-1.9-0.2-2l-0.1-0.3
											c-0.1-0.4-0.1,0.6,0.1,1.3c0.2,1.8-0.4,0.1-0.4,0.9c-0.1-0.4,0-0.7,0-1c0.1-0.1,0.1-0.1,0.1,0.3c0.1-0.3-0.3-1.5-0.1-1.4
											c0.1,0.2,0,0.8,0.2,0.8l-0.1-1.3c-0.1,0.1-0.1,0.3-0.2,0.4c-0.1,0.4-0.4,0.5-0.5,0.4c-0.1-0.1-0.2-0.2-0.2-0.2
											c-0.7,0.2-1.4,0.4-2.1,0.4c-0.2,0.1-0.3,0.1-0.6,1.4c0,0.3,0.1,0.1,0.1,0.6c0.1-0.5,0.2-0.7,0.4-0.7
											c0,0.5-0.1,0.2-0.1,0.4l0,0c-0.1,0.2-0.1,0.4-0.1,0.4c0.1,0.7,0.4,0.6,0.6-0.3c0.1,0.5-0.1,0.7-0.2,1.1
											c0.4,0.4,0.8,0.4,1.3,0.4c0-0.9,0.1-0.5,0.1-1.1l0.1,0.3c0-0.1,0-0.7-0.1-0.9c0.3,0.7,0.2-1.2,0.4-1.6v0.4
											c0.1-0.1,0.1-0.1,0.2-0.4c0.3,0.8-0.1,0.1,0,1.3l0.1-0.1c0,0.4,0,1.2-0.1,1.5c0.1-0.7,0.4,0.3,0.6-0.3
											c0,0.5-0.1,0.9-0.2,1c0.1,0.1,0.2-0.3,0.3,0.1l-0.1-0.6c0.1-0.1,0.1,0.6,0.1,1C126.2,199.4,125.6,197.5,125.9,197.1z"/>
										<path class="st3" d="M129.3,196.6C129.2,196.6,129.2,196.6,129.3,196.6C129.2,196.7,129.3,196.6,129.3,196.6z"/>
										<path class="st3" d="M129.1,197.9c0,0.1,0.1,0.1,0.1,0.2C129.1,198.1,129.1,198,129.1,197.9z"/>
										<path class="st3" d="M129.3,198.7c-0.1-0.2-0.1-0.3-0.1-0.6C129.1,198.4,129,198.4,129.3,198.7z"/>
										<path class="st3" d="M138.1,190.4c-0.1-0.1-0.3-0.3-0.4-0.3l0.1,0.2L138.1,190.4z"/>
										<path class="st3" d="M137.3,190.3H137l0.7,0.4C137.9,190.6,137.3,190.5,137.3,190.3z"/>
										<path class="st3" d="M136.7,190.4l-0.1-0.1C136.7,190.3,136.7,190.4,136.7,190.4z"/>
										<path class="st3" d="M137,190.6l0.5,0.4l-0.3-0.4H137c-0.1-0.1-0.2-0.1-0.3-0.1l0.4,0.3C137,190.6,137,190.5,137,190.6z"
											/>
										<path class="st3" d="M137,190.8c0.1,0,0.1,0.1,0.1,0.1C137.1,190.8,137,190.8,137,190.8z"/>
										<path class="st3" d="M135.8,190.5c0.2,0.1,0.4,0.3,0.7,0.4c0.3,0-0.5-0.4-0.2-0.4c0.3,0.4,0.4,0.1,0.7,0.2
											c-0.5-0.2-0.9-0.4-1.1-0.4l0.3,0.2C136.2,190.6,136,190.5,135.8,190.5z"/>
										<path class="st3" d="M136.3,191.5l-0.4-0.4c0.2,0.1,0.3,0,0.8,0.3c-0.1-0.1-0.2-0.2-0.4-0.4c0.3,0.1,0.5,0.2,0.1-0.1
											c-0.4,0-0.5-0.1-0.8,0c-0.1-0.1-0.1-0.1-0.1-0.1l-0.4-0.1C135.9,191.2,135.8,191.4,136.3,191.5z"/>
										<path class="st3" d="M135.8,191.5c0.1-0.1-0.4-0.4-0.7-0.6l0.2,0.4C135.4,191.3,135.4,191.1,135.8,191.5z"/>
										<path class="st3" d="M135.7,191.6c-0.3-0.1-0.9-0.4-0.4-0.1C135.3,191.4,136,192,135.7,191.6z"/>
										<path class="st3" d="M134.8,192l0.4,0.1c0.7,0.4,0.1,0.2,0.4,0.5c0.2-0.1,0-0.1-0.3-0.5c0.1,0-0.2-0.3-0.4-0.4
											C135.3,192,133.8,191,134.8,192z"/>
										<polygon class="st3" points="135.7,192 135.5,191.9 135.5,192.1 										"/>
										<path class="st3" d="M133.8,191.9c-0.7-0.4,0.2,0.5-0.1,0.4c0-0.1-0.1-0.1-0.1-0.1v0.1l-0.1-0.1c0.4,0.4,0.5,0.6,0.7,0.9
											c0.5,0.3-0.4-0.4,0.1-0.1c0.1,0.1,0.4,0.4,0.6,0.6c-0.1-0.2-0.4-0.4-0.6-0.7c0-0.1,0.2,0.1,0.4,0.2
											c-0.1-0.3-0.8-0.7-0.5-0.7c0.4,0.2,0.5,0.5,0.5,0.2c-0.7-0.4,0.2-0.1-0.2-0.4c0.2,0,0.7,0.3,0.9,0.4c-0.5-0.4-0.9-0.8-1-1
											l0.3,0.5l-0.7-0.4C134.1,191.9,134,191.9,133.8,191.9L133.8,191.9z"/>
										<path class="st3" d="M134.8,193.4c0,0.1,0.1,0.1,0.1,0.1C134.9,193.5,134.9,193.4,134.8,193.4z"/>
										<polygon class="st3" points="135.4,192.6 135.5,192.7 135.7,192.9 										"/>
										<path class="st3" d="M135.2,193.8c0,0-0.1-0.1-0.2-0.1l0.2,0.3V193.8z"/>
										<polygon class="st3" points="134.7,193.6 134.3,193.4 134.5,193.6 										"/>
										<path class="st3" d="M132.3,195.2c0.2,0.1-0.1-0.2-0.3-0.6C131.8,194.6,132.3,195,132.3,195.2z"/>
										<path class="st3" d="M131.2,196.8c0.3,0.2,0.1-0.2,0.1-0.3C131.1,196.3,131.1,196.5,131.2,196.8z"/>
										<path class="st3" d="M131.4,198.7c-0.1-0.1-0.1-0.3-0.1-0.3l-0.4-0.9C130.6,197.3,131.1,198.4,131.4,198.7z"/>
										<path class="st3" d="M130.5,199.3V199h-0.1c-0.1-0.4-0.1-0.5-0.2-0.8C130.2,198.3,130.2,198.7,130.5,199.3z"/>
										<path class="st3" d="M130.2,197.8C130.2,197.8,130.2,197.9,130.2,197.8C130.3,198,130.3,198.1,130.2,197.8z"/>
										<path class="st3" d="M130.1,198C130.1,198.1,130.1,198.1,130.1,198C130.2,198,130.2,198,130.1,198
											C130.2,197.8,130.1,197.8,130.1,198z"/>
										<path class="st3" d="M130.2,198.9l-0.2,0.2l0.1,0.1C130,198.7,130.4,199.5,130.2,198.9z"/>
										<path class="st3" d="M128.7,198.9l-0.2-0.5c-0.1-0.1-0.1,1.2-0.4,0.3c0.1,0.3,0,0.7,0.3,0.7
											C128.3,199,128.5,198.8,128.7,198.9z"/>
										<path class="st3" d="M127.9,198.3c0-0.1-0.1-0.3-0.1-0.4c-0.1-0.1-0.1,0.2,0,0.4C127.6,197.5,127.9,198.7,127.9,198.3z"/>
										<path class="st3" d="M127.1,198.5c0.1,0,0.1-0.1,0-0.2c-0.1,0.1,0.1,0.7,0.1,1.1C127.4,199.7,127.3,198.8,127.1,198.5z"/>
										<path class="st3" d="M125.5,194.5c0.1,0.4,0.1,0.4,0.1,0.2C125.6,194.9,125.6,194.7,125.5,194.5z"/>
										<polygon class="st3" points="126,198.6 126.1,198.7 126,197.9 										"/>
										<polygon class="st3" points="125.3,199 125.2,199.6 125.3,199.4 										"/>
										<path class="st3" d="M125,199l-0.1,0.1l0.1,0.2C125,199.3,125,199,125,199z"/>
										<path class="st3" d="M124.7,199c0-0.1,0,0,0.1,0.1l0.1-0.3L124.7,199z"/>
										<path class="st3" d="M122.8,195.9c0.1-0.5,0-0.2,0-0.3C122.8,195.7,122.7,196.4,122.8,195.9z"/>
									</g>
								</g>
							</g>
						</g>
					</g>
				</g>
			</g>
			<g>
				<path class="st4" d="M143.9,215.6c0,0,1.1-6-1.6-8.6"/>
				<path class="st4" d="M137.4,215.6c0,0,1-2.9-1.3-7.8"/>
				<path class="st4" d="M125,195.6c0,0,9.1,0.8,13.9-9.6"/>
				<path class="st4" d="M81,215.6c0,0-1.6-3.8-0.9-10.1c0.7-6.3,6.3-31.5,5.7-32.7"/>
				<path class="st4" d="M137.7,172.9c0,0,1.5-3.7,1.9-6.8"/>
				<path class="st4" d="M130.6,181.1c0,0,1.2-2.1,1.7-4.5"/>
				<path class="st4" d="M113.5,181.5c0,0-2.5-3.1-3-5"/>
				<path class="st4" d="M105.4,174.7c0,0-4.3-5.4-5-11.3"/>
				<path class="st4" d="M96.2,164.7c0,0-1.9-3.5-2.2-7"/>
				<path class="st4" d="M92.4,215.6c0,0,1.8-2.5,1.4-7.2"/>
				<path class="st4" d="M87,215.6c0,0,0.7-4,0-7.2"/>
				<path class="st4" d="M77.2,215.6c0,0,1.7-3.7-0.3-7.8"/>
				<path class="st4" d="M71.5,215.6c0,0,0.7-4.4-1.9-7.2"/>
				<path class="st4" d="M125.6,130.2c0,0-7.4,3.7-11.3-0.1c-1.3-1.2-1.5-4.4,1-6.6"/>
				<path class="st4" d="M125.9,126.5c0,0,0.2,1.2-0.3,3.7c-0.1,0.7,7.6,3.4,10.6-0.1c1-1.2,1.5-3.6-0.7-6.3"/>
				<path class="st4" d="M128.6,131.6c0,0-1,0.6-3.1,0.7c-2.2,0.1-3.1-0.7-3.1-0.7"/>
				<path class="st4" d="M81.8,195.6c0,0-3.1-0.1-4.9-3.3"/>
				<path class="st4" d="M61.2,178.3c0.4-3.4,1.3-6.3,2.3-8.8c1-2.4,2.2-4.5,3.7-6.4"/>
			</g>
		</g>
		<g>
			<g>
				<defs>
					<path id="SVGID_00000155831251106968035930000012415597511650607284_" d="M81.8,195.6c0,0-1.6,0-3.4-1.4s-2.5-3.7-2.5-3.7
						s-2.7,7-1.3,10.4c1.3,3.4,5.5,4.5,5.5,4.5L81.8,195.6z"/>
				</defs>
				<clipPath id="SVGID_00000068651433065861827720000008033670872374046111_">
					<use xlink:href="#SVGID_00000155831251106968035930000012415597511650607284_"  style="overflow:visible;"/>
				</clipPath>
				<g style="opacity:0.62;clip-path:url(#SVGID_00000068651433065861827720000008033670872374046111_);">
					<g>
						<g>
							<g>
								<g>
									<path class="st3" d="M80.5,195.2c-0.1,0.1-0.1,0.1-0.1,0.2C80.4,195.5,80.4,195.4,80.5,195.2z"/>
									<path class="st3" d="M78.1,193.1L78.1,193.1L78.1,193.1L78.1,193.1z"/>
									<path class="st3" d="M78.2,193.1l0.2-0.1C78.4,193,78.3,193,78.2,193.1z"/>
									<path class="st3" d="M79.4,196.8c0,0.1-0.1,0.1-0.1,0.3L79.4,196.8z"/>
									<path class="st3" d="M78.3,197.4c-0.1,0-0.1,0.1-0.1,0.1C78.2,197.4,78.3,197.4,78.3,197.4z"/>
									<path class="st3" d="M83.1,196.4C83.1,196.4,83.1,196.3,83.1,196.4C83.1,196.3,83.1,196.3,83.1,196.4z"/>
									<path class="st3" d="M83,196.8C83,196.8,83.1,196.8,83,196.8L83,196.8C83,197,83,196.9,83,196.8z"/>
									<path class="st3" d="M82.8,197.1L82.8,197.1C82.8,197.2,82.8,197.1,82.8,197.1z"/>
									<path class="st3" d="M82.7,200.8l-0.1,0.3C82.6,201,82.6,200.9,82.7,200.8z"/>
									<path class="st3" d="M83.2,196c0,0.1-0.1,0.1-0.1,0.2C83.1,196.1,83.1,196.1,83.2,196z"/>
									<path class="st3" d="M80.6,195.2C80.5,195.2,80.5,195.2,80.6,195.2C80.5,195.2,80.6,195.2,80.6,195.2z"/>
									<path class="st3" d="M79.6,197L79.6,197L79.6,197z"/>
									<path class="st3" d="M77.7,192c0-0.1,0-0.1,0.1-0.1C77.9,191.9,77.8,191.9,77.7,192z"/>
									<path class="st3" d="M82.1,196.4c-0.5,0.7,0.1,0.1-0.4,0.7c0.1-0.1,0.1-0.3-0.1,0c-0.2,0.4,0.1,0-0.2,0.6l0.1-0.3
										c-0.2,0.2-0.5,0.7-0.5,0.7c0.5-0.8-0.4,0.1-0.4-0.1v0.1l-0.4,0.3c0,0,0,0,0,0.1c0-0.1,0.1-0.1,0.1-0.1
										c-0.4,0.4-0.7,0.5-0.7,0.4c0.3-0.4-0.2-0.4,0.1-0.8c-0.1,0.1,0,0.1,0.1,0.1l0.4-0.5c-0.1-0.1-0.4,0.4-0.2,0.1
										c0.6-0.7,0.1,0.1,0.2,0.1c0.1-0.1,0.2-0.4,0.2-0.4c0.1,0.1,0.4-0.1,0,0.7c0.1-0.1,0.4-0.4,0.4-0.5
										c-0.2,0.5,0.4-0.4,0.1,0.1c0.4-0.7,0.1-0.5,0.3-0.9c-0.5,0.4-0.3-0.1-0.3-0.4c-0.4,0.4-0.7,0.9-1,1.2
										c-0.4,0.2,0.1-0.4,0.2-0.7c-0.2,0.1-0.7,0.7-0.9,0.7l-0.1,0.4c-0.7,0.6,0.1-0.3,0-0.2c0.1-0.1,0.3-0.3,0.4-0.2
										c0.2-0.2,0.2-0.4,0.2-0.4l0,0c0.2-0.3,0.6-0.7,0.4-0.6c-0.3,0.4-0.3,0.2-0.5,0.4l-0.1,0.1c0.1-0.1-0.1-0.2,0-0.3l-0.1,0.1
										c0.1-0.2,0.5-0.7,0.4-0.6c-0.1,0.1-0.6,0.7-0.6,0.6c-0.3,0.3-0.2,0.4-0.1,0.4c-0.1,0-0.7,0.4-0.6,0.5
										c-0.4,0.3,0.1-0.2-0.1-0.1c0.1-0.1,0.2-0.2,0.3-0.3c-0.4,0.4-0.2-0.1,0.1-0.4l-0.1,0.4c0.4-0.4,0.5-0.7,0.8-0.9
										c-0.7,0.5,0.1-0.4-0.4-0.1l0.4-0.2c-0.4,0,0.3-0.7,0.3-1c-0.1,0.2-0.9,0.8-0.5,0.7c-0.3-0.1-0.7,0.5-1.1,0.7
										c-0.4,0.1,0.6-0.6,0.8-0.8l-0.1,0.2c0.7-0.7-0.4-0.2-0.1-0.7c-0.2,0.1-0.1,0.1-0.1,0.2c-0.5,0.2,0-0.1,0.1-0.3
										c-0.1,0-0.4,0-0.9,0.4c-0.2,0,0.4-0.2,0.4-0.4l-0.1,0.1l0.5-0.5c-0.2,0.1-0.6,0.1-1.1,0.4c0-0.3,1.2-0.9,1.3-1.2
										c-0.4,0.1-0.4,0.3-0.6,0.4v-0.1c-0.6,0.4-0.2,0.4-1,0.8c0.7-0.6,0.1-0.3,0.5-0.7h0.1c0.4-0.4,0-0.3,0.1-0.4
										c-0.3,0.2-0.3,0.3-0.4,0.4c-0.3,0.1-0.2-0.4,0.4-0.8c-0.1,0-0.4,0-0.7,0.3c-0.2-0.1,1-0.6,0.7-0.7l-0.5,0.3
										c-0.8,0.1,0.5-0.7-0.3-0.5l0.7-0.3c-0.3,0.1-0.4,0.1-0.7,0.1l-0.1,0.2c-0.6,0.1,0.4-0.3,0.1-0.2c0.2-0.1,0.7-0.2,0.9-0.3
										c-0.2,0.5,0.9,0.4,0.4,1.1c-0.1,0-0.1,0.1-0.3,0.1c0.1-0.1,0.1,0.1,0.4-0.1l0.1-0.1c-0.1,0.1,0.7-0.2,0.7-0.1
										c-0.4,0.3,0.3,0.1-0.4,0.4l0.4-0.2c-0.2,0.1-0.6,0.4-0.7,0.5c0.1,0,0.4-0.1,0.5-0.3c0.4,0.1,0.5,0.4,0.4,0.7l0.3-0.3
										c0.2-0.1-0.4,0.6,0.4-0.1c-0.2,0.4,0.4,0.1-0.4,0.7c0.8-0.6,0.5,0,0.5,0.2c-0.7,0.6-0.1,0.3-0.4,0.6
										c0.5-0.4,0.4-0.6,0.7-0.9c-0.7,0.8,0.9-0.1-0.3,1.1c0.1,0,0.1-0.1,0.1-0.1c0,0,0.3-0.1,0.4-0.1c-0.2,0.2-0.4,0.3-0.4,0.4
										c0.1,0,0.4-0.4,0.6-0.5c-0.2,0.4-0.1,0.7-0.6,1.2c0.1-0.1,0.4-0.4,0.5-0.5c-0.2,0.5,0.2,0.1,0.1,0.4
										c-0.1-0.1,0.4-0.6,0.1-0.4c0.7-0.7,0.1,0.4,0.6,0.1l-0.4,0.5c0,0.1,0.4-0.3,0.4-0.5c0.4-0.2,0.2,0.1,0.3,0.2
										c0.1-0.1,0.1-0.1,0.1-0.1l0.1,0.1c-0.1,0.1-0.2,0.4-0.4,0.7C82.2,196.5,82.3,196.3,82.1,196.4z"/>
									<path class="st3" d="M82,196.8L82,196.8L82,196.8C82,196.9,82,196.8,82,196.8z"/>
									<path class="st3" d="M78.7,197.8c0.1-0.1,0.2-0.1,0.2-0.1C78.9,197.6,78.8,197.7,78.7,197.8z"/>
									<path class="st3" d="M83.1,198.8c-0.4,0.9-0.1-0.2-0.2,0c0,0.1-0.2,0.7-0.4,0.9c0.4-1.2-0.2,0.1-0.3-0.1
										c-0.2,0.4-0.1,0.4-0.3,0.9c0-0.4-0.1-0.6,0.2-1.2c-0.1-0.1-0.4,0-0.4-0.1c0,0.3-0.3,0.6-0.5,1.2c0.2-0.8,0.4-1.8,0.8-2.8
										c-0.4,0.7-0.5,0.7-0.8,1.3c-0.5,0.3,0.3-0.7,0-0.6l0.1-0.1c0.1-0.2,0.4-0.9,0.7-1.3l0.1,0.2c0.3-0.4,0.1-0.4,0.1-0.6
										c0.3-0.6,0.4-0.3,0.6-0.7c-0.2,0.4-0.1,0.3-0.1,0.5l0.1-0.2c0.2-0.2-0.1,0.4,0,0.4c0.1-0.1,0.1-0.1,0.1-0.1
										c-0.1,0.3-0.3,0.7-0.3,0.7V197c-0.3,0.6-0.3,1.1-0.8,1.7l0.4-0.1c0.3-0.7,0.8-1.7,0.7-1.9l0.1-0.3c0.3-0.3-0.1,0.7-0.4,1.2
										c-0.7,1.6,0.3,0.2,0.1,1c0.2-0.4,0.2-0.7,0.3-1c0-0.1-0.1-0.1-0.2,0.3c-0.1-0.4,0.7-1.3,0.4-1.3c-0.2,0.1-0.2,0.7-0.4,0.7
										l0.5-1.3c0.1,0.1,0.1,0.3,0.1,0.5c0,0.5,0.2,0.6,0.4,0.6c0.1,0,0.3-0.1,0.3-0.1c0.6,0.4,1.2,0.7,1.9,1
										c0.1,0.2,0.2,0.1,0.1,1.5c-0.1,0.3-0.2,0.1-0.2,0.6c0.1-0.5,0-0.7-0.1-0.7c-0.1,0.4,0.1,0.2,0,0.4l0,0c0,0.2-0.1,0.4,0,0.4
										c-0.3,0.7-0.6,0.4-0.4-0.4c-0.2,0.4-0.1,0.7-0.1,1.2c-0.6,0.2-0.9,0.1-1.3,0c0.3-0.8,0.1-0.5,0.2-1.1l-0.1,0.3
										c0.1-0.1,0.2-0.7,0.4-0.9c-0.4,0.5,0.1-1.2,0.1-1.6l-0.1,0.4c-0.1-0.1-0.1-0.1-0.1-0.4c-0.5,0.7,0.1,0.2-0.4,1.2v-0.2
										c-0.1,0.4-0.4,1.1-0.4,1.4c0.1-0.7-0.4,0.1-0.4-0.4c-0.1,0.4-0.1,0.9-0.1,1c-0.1,0-0.1-0.4-0.3,0.1l0.2-0.6
										c-0.1-0.1-0.2,0.5-0.4,0.9C82.2,200.8,83.3,199.3,83.1,198.8z"/>
									<path class="st3" d="M80.1,197.2C80.2,197.2,80.2,197.2,80.1,197.2C80.2,197.3,80.1,197.3,80.1,197.2z"/>
									<path class="st3" d="M79.9,198.6c-0.1,0.1-0.1,0.1-0.1,0.2C79.8,198.7,79.9,198.7,79.9,198.6z"/>
									<path class="st3" d="M79.4,199.3c0.1-0.2,0.1-0.2,0.4-0.5C79.7,199,79.8,199.1,79.4,199.3z"/>
									<path class="st3" d="M73.5,188.8c0.1-0.1,0.4-0.1,0.5-0.1l-0.1,0.1H73.5z"/>
									<path class="st3" d="M74.3,188.9l0.3,0.1l-0.8,0.2C73.7,189,74.3,189,74.3,188.9z"/>
									<path class="st3" d="M74.8,189.1L75,189C74.9,189.1,74.9,189.1,74.8,189.1z"/>
									<path class="st3" d="M74.4,189.3l-0.6,0.1l0.4-0.3L74.4,189.3c0.1-0.1,0.2-0.1,0.4-0.1L74.4,189.3
										C74.4,189.3,74.5,189.2,74.4,189.3z"/>
									<path class="st3" d="M74.4,189.4c-0.1,0-0.1,0-0.1,0C74.3,189.4,74.4,189.4,74.4,189.4z"/>
									<path class="st3" d="M75.6,189.5c-0.2,0-0.5,0.1-0.8,0.2c-0.3-0.1,0.6-0.3,0.3-0.3c-0.4,0.3-0.4,0-0.7,0
										C74.9,189.3,75.3,189.3,75.6,189.5h-0.4C75.2,189.6,75.5,189.4,75.6,189.5z"/>
									<path class="st3" d="M74.9,190.4l0.5-0.2c-0.3,0.1-0.3-0.1-0.9,0.1c0.1-0.1,0.3-0.1,0.4-0.2c-0.3,0-0.5,0.1-0.1-0.1
										c0.4,0.1,0.6,0.1,0.8,0.2c0.1,0,0.1-0.1,0.1-0.1l0.3,0.1C75.3,190.2,75.3,190.4,74.9,190.4z"/>
									<path class="st3" d="M75.4,190.5c0-0.1,0.5-0.3,0.9-0.4l-0.4,0.4C75.8,190.4,75.9,190.2,75.4,190.5z"/>
									<path class="st3" d="M75.4,190.6c0.3-0.1,1-0.1,0.4,0.1C75.9,190.5,75.1,190.8,75.4,190.6z"/>
									<path class="st3" d="M76.2,191.2l-0.4-0.1c-0.7,0.2-0.2,0.1-0.5,0.4c-0.2-0.1,0.1-0.1,0.4-0.4c-0.1-0.1,0.3-0.2,0.4-0.4
										C75.7,191.1,77.5,190.5,76.2,191.2z"/>
									<polygon class="st3" points="75.3,191.1 75.6,190.9 75.4,191.1 									"/>
									<path class="st3" d="M77.2,191.4c0.9-0.2-0.4,0.4,0,0.4c0.1,0,0.1-0.1,0.2-0.1v0.1l0.2-0.1c-0.5,0.2-0.7,0.4-1,0.6
										c-0.6,0.1,0.6-0.3,0-0.1c-0.2,0.1-0.5,0.3-0.7,0.4c0.2-0.1,0.5-0.3,0.7-0.4c0-0.1-0.2,0.1-0.4,0.1c0.2-0.2,1-0.5,0.7-0.6
										c-0.4,0.1-0.7,0.3-0.5,0.1c0.8-0.2-0.1-0.1,0.3-0.4c-0.2-0.1-0.7,0.1-1,0.1c0.6-0.2,1.1-0.5,1.3-0.7l-0.4,0.4l0.7-0.2
										C76.9,191.4,77,191.4,77.2,191.4L77.2,191.4z"/>
									<path class="st3" d="M75.8,192.6C75.7,192.6,75.7,192.6,75.8,192.6C75.6,192.7,75.7,192.6,75.8,192.6z"/>
									<polygon class="st3" points="75.4,191.7 75.3,191.7 75.1,191.8 									"/>
									<path class="st3" d="M75.3,192.9c0,0,0.2-0.1,0.2-0.1L75.3,192.9L75.3,192.9z"/>
									<polygon class="st3" points="75.8,192.9 76.3,192.7 76,192.9 									"/>
									<path class="st3" d="M77.6,195.1c-0.3,0.1,0.1-0.2,0.4-0.4C78.2,194.6,77.7,194.9,77.6,195.1z"/>
									<path class="st3" d="M78.2,196.9c-0.3,0.1,0-0.3-0.1-0.3C78.4,196.4,78.3,196.7,78.2,196.9z"/>
									<path class="st3" d="M77.5,198.7c0.1-0.1,0.1-0.2,0.2-0.2l0.6-0.7C78.6,197.6,77.8,198.4,77.5,198.7z"/>
									<path class="st3" d="M78.1,199.5l0.1-0.4h0.1c0.2-0.3,0.3-0.4,0.4-0.7C78.7,198.7,78.6,199,78.1,199.5z"/>
									<path class="st3" d="M78.8,198.2L78.8,198.2C78.7,198.4,78.7,198.4,78.8,198.2z"/>
									<path class="st3" d="M78.9,198.4C78.9,198.4,78.9,198.4,78.9,198.4C78.8,198.4,78.8,198.4,78.9,198.4
										C78.9,198.2,79,198.2,78.9,198.4z"/>
									<path class="st3" d="M78.5,199.3l0.1,0.2l-0.2,0.1C78.8,199.1,78.1,199.8,78.5,199.3z"/>
									<path class="st3" d="M79.9,199.7l0.4-0.4c0.2,0-0.3,1.1,0.3,0.4c-0.2,0.2-0.2,0.6-0.5,0.7
										C80.3,199.9,80.2,199.6,79.9,199.7z"/>
									<path class="st3" d="M80.9,199.3c0.1-0.1,0.1-0.2,0.3-0.4c0.1,0,0,0.2-0.1,0.4C81.4,198.7,80.8,199.8,80.9,199.3z"/>
									<path class="st3" d="M81.6,199.8c0,0-0.1-0.1,0.1-0.2c0.1,0.1-0.2,0.7-0.4,1C81,200.8,81.4,200,81.6,199.8z"/>
									<path class="st3" d="M84.3,196.4c-0.2,0.4-0.3,0.4-0.2,0.1C84.1,196.7,84.2,196.6,84.3,196.4z"/>
									<polygon class="st3" points="82.6,200.2 82.5,200.2 82.8,199.5 									"/>
									<polygon class="st3" points="83.2,200.8 83.1,201.3 83,201.2 									"/>
									<path class="st3" d="M83.4,200.8l0.1,0.1l-0.1,0.1C83.3,201.1,83.4,200.8,83.4,200.8z"/>
									<path class="st3" d="M83.8,201.1C83.8,201,83.7,201.1,83.8,201.1l-0.1-0.3L83.8,201.1z"/>
									<path class="st3" d="M86.5,198.5c0.1-0.5,0.1-0.1,0.1-0.3C86.6,198.4,86.4,199,86.5,198.5z"/>
								</g>
							</g>
						</g>
					</g>
				</g>
			</g>
		</g>
	</g>
</g>
<path class="st11" d="M60.7,49.8c-0.5,0.6-2.2,2.2-2.9,2.9c-0.9,0.7-2.1,1.2-3,0.3c-3.8-3.7-10.4-9.4-12.8-7.7
	c-2.6,1.7,0.2,10.6,1.6,15c0.6,2.1,2.5,7.5,6.7,13.4c3.2,4.5,4.8,6.8,7,7c5.7,0.7,11.2-9.8,13.1-13.4c3.7-7.2,8.7-20.8,4.5-23.7
	C71.9,41.5,63.8,46.2,60.7,49.8z"/>
<path class="st12" d="M106.4,41.8c-0.2,0.3-1,1-1.3,1.3c-0.4,0.3-0.9,0.5-1.4,0.1c-1.7-1.7-4.7-4.2-5.8-3.5
	c-1.2,0.8,0.1,4.8,0.7,6.8c0.3,0.9,1.1,3.4,3,6.1c1.4,2,2.2,3,3.2,3.2c2.6,0.3,5.1-4.4,5.9-6.1c1.7-3.2,3.9-9.4,2-10.7
	C111.4,38.1,107.8,40.2,106.4,41.8z"/>
<path class="st13" d="M66.8,97.7c-0.2,0.3-1,1-1.3,1.3c-0.4,0.3-0.9,0.5-1.4,0.1c-1.7-1.7-4.7-4.2-5.8-3.5c-1.2,0.8,0.1,4.8,0.7,6.8
	c0.3,0.9,1.1,3.4,3,6.1c1.4,2,2.2,3,3.2,3.2c2.6,0.3,5.1-4.4,5.9-6.1c1.7-3.2,3.9-9.4,2-10.7C71.9,94,68.3,96.1,66.8,97.7z"/>
</svg>
