<?xml version="1.0" encoding="utf-8"?>
<!-- Generator: Adobe Illustrator 27.4.0, SVG Export Plug-In . SVG Version: 6.00 Build 0)  -->
<svg version="1.1" id="Layer_1" xmlns="http://www.w3.org/2000/svg" xmlns:xlink="http://www.w3.org/1999/xlink" x="0px" y="0px"
	 viewBox="0 0 200 244.9" style="enable-background:new 0 0 200 244.9;" xml:space="preserve">
<style type="text/css">
	.st0{fill:#1B1C1E;}
	.st1{fill:#637189;}
	.st2{opacity:0.88;clip-path:url(#SVGID_00000082369734107306704400000017043518724617234073_);}
	.st3{fill:#080809;}
	.st4{opacity:0.88;clip-path:url(#SVGID_00000088837627314489125390000011911307665034330779_);}
	.st5{fill:none;stroke:#1B1C1E;stroke-width:0.5748;stroke-miterlimit:10;}
	.st6{fill:#B8BDC4;}
	.st7{fill:#B4D3CD;}
	.st8{opacity:0.88;clip-path:url(#SVGID_00000073687885636513505310000014076309348496219832_);}
	.st9{opacity:0.88;clip-path:url(#SVGID_00000148623367211040266940000004738132908972164792_);}
	.st10{fill:#FF8080;}
</style>
<g id="Illustration_17_">
	<g>
		<path class="st0" d="M50,217.7c0,0-4.9,1.5,8.4,2s83.9,0.7,91.2,0c7.2-0.7,21.4-0.3,2.6-2c-18.7-1.7-38-0.7-56.9-1.7
			C76.5,215,52.9,216,50,217.7z"/>
		<path class="st1" d="M65.5,171.6c0,0,11.4,35.1,12.6,40.1c0,0-5.8,0.7-5.7,6.1c0,0,7.6,0,8.5,0c0.9,0,2.5-4.5,2.5-4.5
			s-1.1-33.9,0-41.2C84.5,164.9,65.5,165.8,65.5,171.6z"/>
		<g>
			<g>
				<defs>
					<path id="SVGID_1_" d="M83.3,172.1c-0.4,2.6-0.5,8.9-0.5,15.6c-7.4-7.8-14.8-8.3-14.8-8.3l0,0c-1.5-4.7-2.5-7.9-2.5-7.9
						C65.5,165.8,84.5,164.9,83.3,172.1z"/>
				</defs>
				<clipPath id="SVGID_00000107554042717582589240000002059432501759231672_">
					<use xlink:href="#SVGID_1_"  style="overflow:visible;"/>
				</clipPath>
				<g style="opacity:0.88;clip-path:url(#SVGID_00000107554042717582589240000002059432501759231672_);">
					<g>
						<g>
							<g>
								<g>
									<path class="st3" d="M76.2,177c0,0.1,0,0.2,0,0.2C76.2,177.2,76.2,177.1,76.2,177z"/>
									<path class="st3" d="M71,176.2L71,176.2L71,176.2L71,176.2z"/>
									<path class="st3" d="M71,176.2l0.1-0.3C71.2,176,71.1,176.1,71,176.2z"/>
									<path class="st3" d="M76.3,178.9c0.1,0.1,0.1,0.2,0.1,0.3L76.3,178.9z"/>
									<path class="st3" d="M75.6,180c0,0.1-0.1,0.1-0.1,0.1C75.5,180.1,75.6,180.1,75.6,180z"/>
									<path class="st3" d="M80.9,176.8c0-0.1,0-0.1,0-0.1C80.9,176.7,80.9,176.7,80.9,176.8z"/>
									<path class="st3" d="M81.2,177.3C81.3,177.3,81.3,177.3,81.2,177.3L81.2,177.3C81.3,177.4,81.3,177.3,81.2,177.3z"/>
									<path class="st3" d="M81,177.7L81,177.7C81.1,177.7,81.1,177.7,81,177.7z"/>
									<path class="st3" d="M83.4,181.2v0.3C83.4,181.3,83.4,181.2,83.4,181.2z"/>
									<path class="st3" d="M80.9,176.4c0,0.1,0,0.2,0.1,0.3C80.9,176.6,80.8,176.6,80.9,176.4z"/>
									<path class="st3" d="M76.2,176.8c0,0.1,0,0.1,0,0.1S76.2,176.9,76.2,176.8z"/>
									<path class="st3" d="M76.7,179L76.7,179C76.7,178.9,76.7,178.9,76.7,179z"/>
									<path class="st3" d="M69.3,175.4c-0.1-0.1-0.1-0.1-0.1-0.2C69.3,175.2,69.3,175.3,69.3,175.4z"/>
									<path class="st3" d="M79.5,177.3c-0.1,0.9,0.2,0.1,0.1,0.9c-0.1-0.2-0.1-0.3-0.2,0.1c0.1,0.5,0.2,0,0.2,0.7l-0.1-0.3
										c-0.1,0.3-0.1,0.9-0.1,0.9c0-1-0.5,0.3-0.6,0.2l0.1,0.1l-0.3,0.5v0.1c0-0.1,0-0.1,0-0.2c-0.2,0.5-0.3,0.8-0.5,0.7
										c0-0.6-0.6-0.3-0.6-0.7c0.1,0.2,0.1,0.2,0.2,0.1l0.1-0.7c-0.2,0-0.1,0.6-0.2,0.2c0.2-0.9,0.2,0.1,0.3-0.1
										c0-0.2-0.1-0.4-0.1-0.5c0.2,0,0.5-0.3,0.6,0.6c0.1-0.2,0.1-0.6,0.1-0.7c0.1,0.6,0.2-0.5,0.3,0c0.1-0.9-0.3-0.5-0.4-1
										c-0.3,0.6-0.5,0-0.7-0.2c-0.1,0.6,0,1.2-0.2,1.6c-0.3,0.4-0.2-0.3-0.3-0.7c-0.2,0.2-0.2,1-0.5,1l0.1,0.5
										c-0.3,0.9-0.1-0.4-0.2-0.2c0.1-0.2,0.1-0.5,0.2-0.4c0.1-0.3,0-0.5-0.1-0.5h0.1c0-0.5,0.1-0.9-0.1-0.7
										c0,0.5-0.2,0.3-0.3,0.6v0.1c-0.1-0.2-0.2-0.2-0.3-0.2v0.1c-0.1-0.2,0.1-0.9-0.1-0.7c-0.1,0.3,0,1-0.1,0.9
										c-0.1,0.4,0.1,0.5,0.3,0.3c-0.2,0.1-0.3,0.7-0.2,0.8c-0.1,0.5-0.1-0.2-0.2-0.1c0.1-0.2,0.1-0.3,0.1-0.5
										c-0.1,0.7-0.3,0-0.2-0.5l0.1,0.4c0.1-0.5,0-0.9,0.1-1.2c-0.2,0.8-0.3-0.5-0.6,0.2l0.2-0.4c-0.4,0.2-0.5-0.9-0.7-1.1
										c0.1,0.3-0.2,1.2,0.1,0.9c-0.3,0.1-0.3,0.9-0.5,1.3c-0.3,0.3,0.1-0.9,0.1-1.2l0.1,0.2c0.1-1.1-0.7,0.1-0.9-0.7
										c-0.1,0.3,0,0.2,0.1,0.3c-0.3,0.5-0.1-0.2-0.2-0.4c-0.2,0.1-0.5,0.2-0.5,0.9c-0.2,0.1,0.1-0.4,0.1-0.6l-0.1,0.1l0.1-0.8
										c-0.2,0.2-0.5,0.5-0.7,1.1c-0.3-0.2,0.3-1.6,0.2-1.8c-0.2,0.3-0.1,0.5-0.2,0.7L72,177c-0.2,0.7,0.1,0.5-0.1,1.3
										c0.1-0.9-0.2-0.3-0.2-1l0.1-0.1c0.1-0.6-0.3-0.3-0.4-0.5c-0.1,0.3,0.1,0.5,0.2,0.6c-0.3,0.2-0.6-0.2-0.5-1
										c-0.1,0.1-0.5,0.3-0.4,0.7c-0.3,0,0.2-1.1-0.1-1l-0.2,0.6c-0.6,0.7-0.3-0.9-0.9-0.3l0.3-0.7c-0.2,0.3-0.3,0.3-0.5,0.6
										l0.1,0.3c-0.3,0.5,0.1-0.6-0.2-0.3c0.1-0.2,0.4-0.6,0.5-0.9c0.5,0.7,1.4-0.1,1.8,0.8c-0.1,0.1-0.1,0.2-0.2,0.3
										c0.1-0.1,0.2,0.1,0.3-0.3v-0.1c0.1,0.2,0.5-0.6,0.6-0.6c-0.1,0.5,0.4-0.1,0.1,0.7l0.3-0.5c-0.1,0.3-0.2,0.7-0.2,0.9
										c0.1-0.1,0.2-0.3,0.2-0.6c0.5-0.2,1,0.1,1.4,0.5v-0.4c0.2-0.2,0.2,0.8,0.3-0.2c0.1,0.5,0.6-0.1,0.4,0.9
										c0.4-1,0.6-0.3,0.9-0.1c-0.2,0.9,0.2,0.3,0.2,0.7c0.2-0.7-0.1-0.7,0-1.2c0.1,1.1,1-0.6,0.8,1.2c0.1-0.1,0.1-0.1,0.1-0.2
										c0.1,0,0.2-0.3,0.3-0.3c0,0.3-0.2,0.5-0.1,0.6c0.1-0.1,0.2-0.6,0.2-0.7c0.2,0.5,0.5,0.7,0.4,1.4c0.1-0.2,0.2-0.6,0.2-0.7
										c0.3,0.6,0.3-0.1,0.6,0.3c-0.1-0.1,0.1-0.7-0.2-0.5c0.3-1,0.5,0.2,0.9-0.2l0.1,0.7c0.2,0.1,0.2-0.5,0.2-0.7
										c0.3-0.3,0.5,0.1,0.7,0.1c0-0.1,0-0.2,0-0.2h0.3c0,0.2,0.1,0.5,0.1,0.9C79.8,177.3,79.7,177.1,79.5,177.3z"/>
									<path class="st3" d="M79.8,177.7L79.8,177.7L79.8,177.7C79.8,177.7,79.8,177.7,79.8,177.7z"/>
									<path class="st3" d="M76.4,180.1c0.1-0.2,0.1-0.2,0.1-0.3C76.4,180,76.4,180.1,76.4,180.1z"/>
									<path class="st3" d="M82.9,179c-0.1,1-0.2-0.2-0.3,0.1c0.1,0.2,0.1,0.7,0.1,1c-0.1-1.3-0.2,0.3-0.5,0c0,0.4,0.1,0.5,0.1,1
										c-0.2-0.3-0.5-0.5-0.5-1.3c-0.3-0.1-0.5,0.2-0.7,0.1c0.2,0.3,0,0.7,0.1,1.4c-0.2-0.9-0.6-1.9-0.9-2.9
										c-0.1,0.8-0.1,0.9-0.2,1.6c-0.4,0.5-0.1-0.7-0.4-0.5l0.2-0.1c-0.1-0.2-0.1-1-0.1-1.6l0.4,0.1c0.1-0.6-0.2-0.5-0.3-0.6
										c-0.1-0.7,0.2-0.5,0.2-1c0,0.5,0.2,0.3,0.3,0.5l0.1-0.3c0.2-0.3,0.2,0.5,0.4,0.5c0-0.1,0-0.1,0-0.2
										c0.1,0.3,0.1,0.7,0.2,0.9l-0.1-0.1c0.1,0.7,0.4,1.1,0.1,1.9l0.4-0.2c0-0.7,0-2-0.2-2.1V177c0.2-0.4,0.5,0.6,0.3,1.3
										c0.1,1.8,0.6,0.1,0.9,0.9c0.1-0.5-0.1-0.7-0.2-1c-0.1-0.1-0.2-0.1-0.2,0.3c-0.3-0.3,0.1-1.6-0.3-1.4
										c-0.2,0.2,0.2,0.8-0.1,0.9l-0.1-1.4c0.2,0.1,0.3,0.3,0.5,0.5c0.4,0.5,0.7,0.5,1,0.5c0.2-0.1,0.4-0.3,0.4-0.3
										c0.6,0.1,1.2,0.2,1.8,0.2l1.8,0.1c0.4,0.2,0.5,0.1,0.8,1.5c-0.1,0.3-0.3,0.2-0.2,0.6c-0.1-0.5-0.2-0.8-0.5-0.7
										c0,0.5,0.2,0.2,0.2,0.3l-0.1,0.1c0.1,0.2,0.1,0.4,0.2,0.5c-0.2,0.7-0.6,0.6-0.9-0.3c-0.2,0.5,0.2,0.8,0.3,1.1
										c-0.7,0.4-1.1,0.3-1.8,0.5c-0.1-0.9-0.1-0.6-0.2-1.1l-0.1,0.3c0-0.2-0.1-0.7,0.1-1c-0.4,0.7-0.5-1.2-0.7-1.6v0.5
										c-0.2-0.1-0.3-0.1-0.5-0.3c-0.3,0.9,0.3,0.1,0.2,1.3l-0.2-0.2c0.1,0.5,0.1,1.2,0.2,1.6c-0.3-0.7-0.5,0.3-0.9-0.3
										c0.1,0.5,0.3,0.9,0.5,1c-0.1,0.1-0.3-0.3-0.4,0.2v-0.6c-0.2-0.1,0,0.6-0.1,1C82.8,181.4,83.3,179.4,82.9,179z"/>
									<path class="st3" d="M77.6,179c0.1-0.1,0.1,0,0.2,0.1C77.7,179,77.6,179,77.6,179z"/>
									<path class="st3" d="M78.5,180.3c0,0.1,0,0.2,0,0.2C78.5,180.5,78.5,180.4,78.5,180.3z"/>
									<path class="st3" d="M78.5,181.2c0.1-0.3,0-0.3,0-0.7C78.5,180.8,78.7,180.8,78.5,181.2z"/>
									<path class="st3" d="M61.9,174.8c0.1-0.2,0.1-0.5,0.2-0.5c0,0.1,0.1,0.2,0.1,0.3L61.9,174.8z"/>
									<path class="st3" d="M62.7,174.6l0.3-0.1l-0.4,0.8C62.4,175.1,62.9,174.7,62.7,174.6z"/>
									<path class="st3" d="M63.5,174.5l0.1-0.2C63.6,174.4,63.5,174.5,63.5,174.5z"/>
									<path class="st3" d="M63.3,174.8l-0.3,0.6l0.1-0.5L63.3,174.8c0.1-0.2,0.2-0.2,0.2-0.3l-0.2,0.4
										C63.3,174.9,63.3,174.8,63.3,174.8z"/>
									<path class="st3" d="M63.5,175c-0.1,0.1-0.1,0.1-0.1,0.2C63.3,175.1,63.4,175,63.5,175z"/>
									<path class="st3" d="M64.5,174.3c-0.2,0.2-0.3,0.5-0.4,0.7c-0.3,0.1,0.2-0.7-0.1-0.6c-0.1,0.6-0.3,0.2-0.6,0.5
										c0.4-0.5,0.7-0.7,1-0.7l-0.2,0.3C64.3,174.6,64.4,174.4,64.5,174.3z"/>
									<path class="st3" d="M64.9,175.7l0.2-0.6c-0.2,0.2-0.4,0.1-0.7,0.6c-0.1-0.1,0.1-0.3,0.1-0.5c-0.2,0.2-0.4,0.4-0.2,0
										c0.6-0.1,0.5-0.3,0.9-0.3c0.1-0.1,0-0.1-0.1-0.1l0.3-0.2C65.1,175.2,65.3,175.4,64.9,175.7z"/>
									<path class="st3" d="M65.4,175.5c-0.1-0.1,0.1-0.6,0.3-0.9l0.1,0.6C65.8,175.1,65.6,175,65.4,175.5z"/>
									<path class="st3" d="M65.6,175.6c0.2-0.2,0.6-0.7,0.5-0.2C66,175.2,65.6,176.1,65.6,175.6z"/>
									<path class="st3" d="M67,175.7l-0.5,0.2c-0.4,0.7,0.1,0.3-0.1,0.6c-0.3,0-0.1-0.2-0.1-0.7c-0.1,0,0-0.4,0-0.6
										C66.4,175.9,67.4,174.3,67,175.7z"/>
									<polygon class="st3" points="66,176.1 66.2,175.8 66.2,176.1 									"/>
									<path class="st3" d="M68,175.2c0.6-0.7,0.1,0.6,0.5,0.3c0-0.1,0.1-0.1,0.1-0.2l0.1,0.2l0.1-0.2c-0.2,0.5-0.1,0.8-0.2,1.2
										c-0.4,0.5,0.2-0.7-0.2-0.2c-0.1,0.2-0.2,0.6-0.2,0.8c0-0.3,0.1-0.6,0.2-0.9c-0.1-0.1-0.2,0.2-0.3,0.4c0-0.3,0.3-1.1,0.1-1
										c-0.3,0.4-0.2,0.7-0.4,0.5c0.5-0.7-0.3,0-0.1-0.5c-0.2,0.1-0.6,0.5-0.7,0.8c0.3-0.6,0.4-1.2,0.4-1.4v0.6l0.5-0.7
										c0,0.4,0.1,0.4,0.3,0.4L68,175.2z"/>
									<path class="st3" d="M68.2,177.2c0,0.1,0,0.1,0,0.2C68.1,177.4,68.1,177.3,68.2,177.2z"/>
									<polygon class="st3" points="66.8,176.6 66.8,176.7 66.6,176.9 									"/>
									<path class="st3" d="M68,177.8c-0.1,0,0.1-0.2,0.1-0.2l-0.1,0.3V177.8z"/>
									<polygon class="st3" points="68.5,177.4 68.7,177 68.6,177.4 									"/>
									<path class="st3" d="M72.6,178.4c-0.2,0.2-0.1-0.3,0.1-0.7C72.8,177.6,72.5,178.1,72.6,178.4z"/>
									<path class="st3" d="M75,179.7c-0.2,0.3-0.2-0.2-0.4-0.2C74.8,179.2,74.9,179.4,75,179.7z"/>
									<path class="st3" d="M75.8,181.7c0-0.2-0.1-0.3,0.1-0.3v-1C76.2,180.1,75.9,181.3,75.8,181.7z"/>
									<path class="st3" d="M77.1,182l-0.2-0.4H77c0-0.4,0-0.6-0.1-0.9C77.1,180.9,77.2,181.3,77.1,182z"/>
									<path class="st3" d="M76.8,180.5L76.8,180.5C76.8,180.7,76.8,180.8,76.8,180.5z"/>
									<path class="st3" d="M77,180.6c0,0.1,0,0.1,0,0.1c-0.1-0.1-0.1-0.1-0.1-0.1C77,180.5,77,180.4,77,180.6z"/>
									<path class="st3" d="M77.3,181.6l0.3,0.2l-0.2,0.2C77.6,181.3,77.3,182.3,77.3,181.6z"/>
									<path class="st3" d="M79.3,181.3l0.1-0.6c0.2-0.1,0.4,1.1,0.6,0.2c-0.1,0.3,0.1,0.7-0.2,0.8
										C79.8,181.3,79.5,181.2,79.3,181.3z"/>
									<path class="st3" d="M80.2,180.5c0-0.2,0.1-0.3,0.1-0.5c0.1-0.1,0.2,0.2,0.1,0.5C80.4,179.7,80.3,181,80.2,180.5z"/>
									<path class="st3" d="M81.3,180.7c-0.1,0-0.2-0.1-0.1-0.2c0.2,0.1,0.1,0.7,0.2,1.1C81.3,181.9,81.2,180.9,81.3,180.7z"/>
									<path class="st3" d="M83,176.3c-0.1,0.5-0.2,0.5-0.2,0.2C82.8,176.7,82.9,176.6,83,176.3z"/>
									<polygon class="st3" points="82.9,180.5 82.9,180.7 82.8,179.9 									"/>
									<polygon class="st3" points="84.1,181 84.3,181.5 84,181.4 									"/>
									<path class="st3" d="M84.4,180.9l0.2,0.1l-0.1,0.2C84.4,181.2,84.4,180.9,84.4,180.9z"/>
									<path class="st3" d="M84.9,180.9c0-0.1-0.1,0.1-0.1,0.1l-0.2-0.3L84.9,180.9z"/>
									<path class="st3" d="M87.9,177.7c-0.1-0.5,0.1-0.2,0.2-0.3C88.1,177.5,88.1,178.1,87.9,177.7z"/>
								</g>
							</g>
						</g>
					</g>
				</g>
			</g>
		</g>
		<path class="st1" d="M150.4,137.4c0,0,8.5-7.8,11.1-19.9c2.6-12.2-6.2-16.9-13.2-14.3c-7.9,2.9-8.3,12.5-9.3,17.3
			c-0.6,3.1-2.8,1.4-3,0.8c-0.8-2.1,0.2-27.1,19.5-23.6c11.7,2.2,14,12.6,12.4,20.9c-1.6,8.2-6.4,16.9-12.9,23.1
			C150.3,146.1,150.4,137.4,150.4,137.4z"/>
		<g>
			<g>
				<defs>
					<path id="SVGID_00000029033990120385687970000009580601147340765348_" d="M162.9,131.3c-2.2,3.8-4.9,7.4-8,10.3
						c-4.5,4.4-4.5-4.3-4.5-4.3s1.8-1.6,4-4.5C156,133,158.6,132.8,162.9,131.3z"/>
				</defs>
				<clipPath id="SVGID_00000151521399778008421460000013014038108552014525_">
					<use xlink:href="#SVGID_00000029033990120385687970000009580601147340765348_"  style="overflow:visible;"/>
				</clipPath>
				<g style="opacity:0.88;clip-path:url(#SVGID_00000151521399778008421460000013014038108552014525_);">
					<g>
						<g>
							<g>
								<path class="st3" d="M151.2,137.5c0.1,0,0.1-0.1,0.1-0.1C151.3,137.4,151.3,137.4,151.2,137.5z"/>
								<path class="st3" d="M148.5,135.1C148.4,135.1,148.4,135.1,148.5,135.1L148.5,135.1L148.5,135.1z"/>
								<path class="st3" d="M148.4,135.2l-0.1,0.1C148.3,135.2,148.4,135.2,148.4,135.2z"/>
								<path class="st3" d="M152.2,136.8c0.1,0,0.1-0.1,0.2-0.1L152.2,136.8z"/>
								<path class="st3" d="M152.4,136L152.4,136C152.4,135.9,152.4,136,152.4,136z"/>
								<path class="st3" d="M153.2,140C153.2,140,153.2,140,153.2,140C153.2,140.1,153.2,140.1,153.2,140z"/>
								<path class="st3" d="M153.6,140C153.6,140,153.6,140.1,153.6,140L153.6,140C153.7,140,153.6,140,153.6,140z"/>
								<path class="st3" d="M153.7,139.8L153.7,139.8C153.7,139.8,153.7,139.8,153.7,139.8z"/>
								<path class="st3" d="M156.4,139.7l0.2-0.1C156.5,139.7,156.4,139.7,156.4,139.7z"/>
								<path class="st3" d="M153,140.1c0.1,0,0.1-0.1,0.1-0.1C153.1,140.1,153.1,140.1,153,140.1z"/>
								<path class="st3" d="M151.1,137.5L151.1,137.5C151.2,137.5,151.2,137.5,151.1,137.5z"/>
								<path class="st3" d="M152.4,137L152.4,137C152.3,137,152.4,137,152.4,137z"/>
								<path class="st3" d="M147.2,134.6c-0.1,0-0.1,0-0.1,0C147.1,134.6,147.1,134.6,147.2,134.6z"/>
								<path class="st3" d="M152.9,139.1c0.3-0.4,0.1,0.1,0.5-0.3c-0.1,0.1-0.2,0.1-0.1-0.2c0.2-0.2,0.1,0.1,0.4-0.2l-0.2,0.1
									c0.1-0.2,0.4-0.4,0.3-0.4c-0.5,0.3-0.1-0.4-0.2-0.4h0.1l0.1-0.3l0,0l-0.1,0.1c0.2-0.2,0.2-0.5,0.1-0.5
									c-0.3,0.2-0.4-0.2-0.6,0c0.1,0,0.1,0,0.1,0.1l-0.3,0.3c-0.1-0.1,0.2-0.3,0-0.2c-0.3,0.5,0.1,0.1,0.1,0.2
									c-0.1,0.1-0.2,0.1-0.3,0.1c0.1,0.1,0.1,0.4,0.6,0.1c-0.1,0.1-0.2,0.3-0.3,0.3c0.3-0.2-0.2,0.3,0.1,0.2
									c-0.4,0.3-0.3,0.1-0.6,0.2c0.2-0.4-0.2-0.2-0.4-0.3c0.2-0.3,0.6-0.5,0.6-0.7c0.1-0.3-0.3,0.1-0.5,0.1c0-0.2,0.4-0.5,0.3-0.6
									l0.2-0.1c0.3-0.5-0.2,0.1-0.2-0.1c-0.1,0.1-0.2,0.2-0.1,0.3c-0.1,0.2-0.2,0.2-0.3,0.2l0,0c-0.2,0.2-0.4,0.4-0.4,0.2
									c0.3-0.2,0.1-0.2,0.2-0.4l0.1-0.1c-0.1,0-0.2-0.1-0.3-0.1l0.1-0.1c-0.1,0.1-0.4,0.3-0.4,0.2c0.1-0.1,0.5-0.4,0.3-0.4
									c0.2-0.2,0.3-0.1,0.3,0c0-0.1,0.2-0.5,0.3-0.4c0.2-0.3-0.2,0.1-0.1-0.1c-0.1,0.1-0.1,0.2-0.2,0.2c0.2-0.3-0.2-0.2-0.3,0.1
									l0.2-0.1c-0.2,0.3-0.5,0.3-0.5,0.5c0.3-0.5-0.4,0-0.2-0.4l-0.1,0.2c-0.1-0.3-0.6,0.1-0.9,0.1c0.2-0.1,0.5-0.5,0.5-0.3
									c-0.1-0.2,0.3-0.5,0.4-0.7c0-0.3-0.4,0.4-0.5,0.5h0.2c-0.5,0.5-0.3-0.4-0.7-0.2c0.1-0.2,0.1-0.1,0.2-0.1
									c0.1-0.3-0.1,0-0.2,0.1c-0.1-0.1-0.1-0.3,0.2-0.6c-0.1-0.2-0.1,0.2-0.3,0.3l0.1-0.1l-0.3,0.3c0-0.2,0-0.5,0.2-0.8
									c-0.3-0.1-0.6,0.7-0.8,0.8c0.1-0.2,0.2-0.3,0.3-0.4l-0.2-0.1c0.3-0.3,0.3-0.1,0.6-0.6c-0.4,0.4-0.2,0.1-0.6,0.2v0.1
									c-0.3,0.3-0.3-0.1-0.4-0.1c0.2-0.2,0.3-0.1,0.4-0.2c0-0.2-0.3-0.2-0.7,0.1c0-0.1-0.1-0.3,0.1-0.5c-0.2-0.2-0.4,0.6-0.5,0.3
									l0.2-0.3c0.1-0.6-0.6,0.2-0.6-0.3l-0.2,0.4c0.1-0.2,0-0.3,0.1-0.5l0.2-0.1c0.1-0.4-0.3,0.3-0.2,0c-0.1,0.1-0.1,0.5-0.2,0.6
									c0.5,0,0.6,0.7,1.2,0.6c0-0.1,0-0.1,0.1-0.2c0,0.1,0.1,0.1,0,0.3h-0.1c0.2,0-0.1,0.5,0,0.5c0.2-0.2,0.1,0.2,0.3-0.2
									l-0.1,0.3c0.1-0.2,0.2-0.3,0.3-0.4c0.1,0.1-0.1,0.2-0.2,0.3c0.2,0.3,0.5,0.5,0.9,0.5l-0.2,0.2c0,0.2,0.5-0.2,0.1,0.3
									c0.3-0.1,0.2,0.4,0.6-0.1c-0.3,0.6,0.1,0.5,0.3,0.5c0.3-0.5,0.2,0,0.5-0.2c-0.2,0.3-0.4,0.2-0.6,0.5
									c0.6-0.4,0.2,0.7,0.9-0.1c0,0.1-0.1,0.1-0.1,0.1c0.1,0.1-0.1,0.2-0.1,0.3c0.1-0.1,0.1-0.3,0.2-0.2c0.1,0.1-0.2,0.3-0.2,0.4
									c0.3-0.1,0.5,0,0.9-0.3c-0.1,0.1-0.2,0.3-0.3,0.4c0.4-0.1,0.1,0.2,0.5,0.2c-0.1-0.1-0.3,0.3-0.3,0.1
									c-0.3,0.5,0.3,0.2,0.3,0.5l0.3-0.2c0.1,0.1-0.1,0.3-0.3,0.3c0,0.3,0.2,0.2,0.3,0.3c0,0.1-0.1,0.1-0.1,0.1l0.2,0.2
									c0.1-0.1,0.3-0.1,0.5-0.3C153,139.3,152.8,139.3,152.9,139.1z"/>
								<path class="st3" d="M153.2,139.1L153.2,139.1L153.2,139.1L153.2,139.1z"/>
								<path class="st3" d="M152.8,136.4c-0.1,0.1-0.1,0.1-0.1,0.2C152.8,136.5,152.8,136.5,152.8,136.4z"/>
								<path class="st3" d="M155.2,140.2c0.5-0.4-0.2-0.1-0.1-0.2c0.1,0,0.4-0.2,0.5-0.3c-0.7,0.4,0.1-0.2-0.2-0.3
									c0.2-0.2,0.3-0.1,0.5-0.3c-0.2,0.1-0.5-0.1-0.8,0.2c-0.2-0.2-0.1-0.3-0.3-0.4c0.2,0,0.3-0.3,0.7-0.5
									c-0.5,0.2-1.1,0.4-1.8,0.7c0.3-0.3,0.3-0.4,0.7-0.7c0.1-0.4-0.4,0.3-0.5,0v0.1c-0.2,0-0.5,0.3-0.7,0.5l0.2,0.2
									c-0.2,0.2-0.3,0.1-0.4,0.1c-0.3,0.2-0.1,0.3-0.3,0.5c0.2-0.2,0.2,0,0.3-0.1l-0.1,0.1c-0.1,0.2,0.3-0.1,0.4,0.1
									c-0.1,0.1-0.1,0.1-0.1,0.1c0.2-0.1,0.4-0.2,0.5-0.2h-0.1c0.4-0.2,0.7-0.2,1-0.6l0.1,0.3c-0.3,0.3-0.9,0.7-1.1,0.6l-0.2,0.1
									c-0.1,0.3,0.5,0,0.7-0.3c0.9-0.6,0.3,0.3,0.8,0.1c-0.2,0.2-0.4,0.2-0.6,0.3c-0.1,0-0.1-0.1,0.1-0.2
									c-0.3-0.1-0.7,0.7-0.8,0.4c0-0.2,0.5-0.2,0.4-0.4l-0.7,0.5c0.1,0.1,0.3,0.1,0.4,0.1c0.4,0,0.6,0.2,0.6,0.4
									c0.1,0.2,0.1,0.3,0.1,0.3c0.6,0.6,1.1,1.2,1.7,1.9c0.2,0.2,0.2,0.2,1-0.1c0.1-0.1,0-0.2,0.3-0.3c-0.3,0.1-0.5,0.1-0.5,0
									c0.2-0.2,0.2,0.1,0.2,0v-0.1c0.1-0.1,0.2-0.1,0.3-0.1c0.3-0.3,0.1-0.6-0.5-0.4c0.2-0.3,0.5-0.2,0.7-0.2
									c-0.1-0.5-0.3-0.8-0.5-1.2c-0.5,0.3-0.3,0.2-0.6,0.3l0.1-0.2c-0.1,0.1-0.4,0.2-0.5,0.4c0.2-0.5-0.7,0.2-1.1,0.2l0.2-0.2
									c-0.1-0.1-0.2-0.1-0.3-0.1c0.3-0.5,0.2,0.1,0.7-0.3h-0.1c0.2-0.1,0.6-0.4,0.9-0.4c-0.5,0.1-0.1-0.4-0.5-0.4
									c0.3-0.2,0.6-0.1,0.7-0.1c-0.1-0.1-0.3-0.1-0.1-0.3l-0.3,0.2c-0.1-0.1,0.3-0.2,0.5-0.4C156.3,139.3,155.5,140.3,155.2,140.2
									z"/>
								<path class="st3" d="M152.8,137.4c0,0.1,0.1,0.1,0.1,0.1C152.9,137.5,152.8,137.4,152.8,137.4z"/>
								<path class="st3" d="M153.8,137.4c0.1-0.1,0.1-0.1,0.1-0.1C153.9,137.3,153.9,137.3,153.8,137.4z"/>
								<path class="st3" d="M154.3,137c-0.1,0.1-0.2,0.1-0.3,0.2C154,137.3,154.1,137.3,154.3,137z"/>
								<path class="st3" d="M143.7,131c-0.1,0.1-0.2,0.2-0.2,0.3l0.2-0.1V131z"/>
								<path class="st3" d="M143.9,131.5l0.1,0.2l0.3-0.5C144.1,131.2,144,131.5,143.9,131.5z"/>
								<path class="st3" d="M144.1,131.9l-0.1,0.1C144.1,132,144.1,131.9,144.1,131.9z"/>
								<path class="st3" d="M144.3,131.7l0.2-0.3l-0.3,0.2L144.3,131.7c-0.1,0.1-0.1,0.2-0.1,0.2l0.2-0.2
									C144.3,131.7,144.3,131.7,144.3,131.7z"/>
								<path class="st3" d="M144.4,131.7c0-0.1,0-0.1,0-0.1C144.4,131.6,144.4,131.7,144.4,131.7z"/>
								<path class="st3" d="M144.5,132.5c0-0.2,0.2-0.3,0.2-0.5c-0.1-0.2-0.3,0.3-0.3,0.1c0.3-0.2,0-0.2,0.1-0.5
									C144.3,132,144.3,132.3,144.5,132.5l0.1-0.3C144.6,132.3,144.5,132.4,144.5,132.5z"/>
								<path class="st3" d="M145.4,132.2l-0.2,0.3c0.1-0.2-0.1-0.2,0-0.6c-0.1,0-0.2,0.2-0.2,0.2c0-0.2,0.1-0.3-0.1-0.1
									c0.2,0.3,0.1,0.4,0.2,0.6c-0.1,0.1-0.1,0.1-0.1,0l0.1,0.2C145.2,132.5,145.4,132.5,145.4,132.2z"/>
								<path class="st3" d="M145.5,132.5c-0.1,0-0.3,0.3-0.3,0.5l0.3-0.2C145.4,132.9,145.3,132.9,145.5,132.5z"/>
								<path class="st3" d="M145.6,132.6c-0.1,0.2-0.1,0.6,0.1,0.3C145.6,132.9,145.9,132.4,145.6,132.6z"/>
								<path class="st3" d="M146.3,133.3l-0.1-0.3c0.2-0.5,0.2-0.1,0.3-0.2c-0.2-0.2-0.2,0-0.4,0.2c-0.1-0.1-0.2,0.1-0.3,0.2
									C146.2,132.9,145.7,134,146.3,133.3z"/>
								<polygon class="st3" points="146,132.7 145.9,132.8 146.1,132.7 								"/>
								<path class="st3" d="M146.6,134c-0.1,0.6,0.4-0.2,0.4,0.1c-0.1,0-0.1,0.1-0.1,0.1h0.1l-0.1,0.1c0.2-0.3,0.3-0.3,0.5-0.6
									c0.1-0.4-0.2,0.3-0.2-0.1c0.1-0.1,0.2-0.3,0.3-0.4c-0.2,0.1-0.3,0.3-0.4,0.5c-0.1,0,0-0.2,0.1-0.3c-0.2,0.1-0.4,0.6-0.5,0.4
									c0.1-0.3,0.2-0.4,0.1-0.3c-0.2,0.5-0.1-0.2-0.3,0.1c-0.1-0.2,0-0.5,0.1-0.6c-0.2,0.4-0.4,0.6-0.6,0.7l0.3-0.2l-0.1,0.5
									C146.4,133.8,146.5,133.9,146.6,134L146.6,134z"/>
								<path class="st3" d="M147.6,133.3L147.6,133.3L147.6,133.3z"/>
								<polygon class="st3" points="146.6,132.8 146.7,132.8 146.7,132.7 								"/>
								<path class="st3" d="M147.8,133.1c0,0-0.1,0.1-0.1,0.1L147.8,133.1L147.8,133.1z"/>
								<polygon class="st3" points="147.8,133.4 147.8,133.7 147.9,133.5 								"/>
								<path class="st3" d="M150.2,135.1c0-0.2-0.2,0.1-0.3,0.3C150,135.5,150,135.1,150.2,135.1z"/>
								<path class="st3" d="M151.9,135.9c0.1-0.2-0.2-0.1-0.3-0.1C151.6,135.9,151.7,135.9,151.9,135.9z"/>
								<path class="st3" d="M153.2,135.5c-0.1,0.1-0.2,0.1-0.1,0.2l-0.5,0.4C152.7,136.3,153.1,135.6,153.2,135.5z"/>
								<path class="st3" d="M154,136.1l-0.3,0.1l0.1,0.1c-0.2,0.2-0.3,0.2-0.5,0.3C153.5,136.5,153.7,136.3,154,136.1z"/>
								<path class="st3" d="M153.2,136.5L153.2,136.5C153.3,136.4,153.3,136.3,153.2,136.5z"/>
								<path class="st3" d="M153.3,136.5C153.3,136.5,153.3,136.5,153.3,136.5C153.3,136.5,153.3,136.5,153.3,136.5
									C153.2,136.5,153.2,136.6,153.3,136.5z"/>
								<path class="st3" d="M153.9,136.3l0.2,0.1v-0.2C153.9,136.6,154.2,136.1,153.9,136.3z"/>
								<path class="st3" d="M154.7,137.5l-0.2,0.3c0.1,0.2,0.7-0.2,0.4,0.2c0.1-0.2,0.4-0.2,0.3-0.4
									C154.9,137.8,154.7,137.6,154.7,137.5z"/>
								<path class="st3" d="M154.7,138.3c-0.1,0.1-0.1,0.1-0.2,0.2c0,0.1,0.2,0,0.2-0.1C154.4,138.6,155,138.1,154.7,138.3z"/>
								<path class="st3" d="M155.2,138.8c-0.1-0.1-0.1-0.1-0.1,0.1c0.1,0.1,0.4-0.2,0.6-0.3C155.8,138.3,155.3,138.6,155.2,138.8z"
									/>
								<path class="st3" d="M153.9,141.3c0.2-0.2,0.1-0.2,0.1-0.2C154,141.1,154,141.2,153.9,141.3z"/>
								<polygon class="st3" points="155.9,139.7 155.9,139.6 155.5,139.9 								"/>
								<polygon class="st3" points="156.6,140.2 156.9,140.1 156.8,140 								"/>
								<path class="st3" d="M156.7,140.4l0.1,0.1l0.1-0.1C156.9,140.2,156.7,140.4,156.7,140.4z"/>
								<path class="st3" d="M157,140.7C156.9,140.7,157,140.6,157,140.7l-0.2-0.1L157,140.7z"/>
								<path class="st3" d="M156.5,143.5c-0.3,0.1-0.1,0.1-0.1,0.2C156.4,143.7,156.8,143.5,156.5,143.5z"/>
							</g>
						</g>
					</g>
				</g>
			</g>
		</g>
		<path class="st1" d="M115.4,178.7c0,0,3.1,9.7,12.1,17.6l-5.6,14.9c0,0-9.4-0.3-9.1,6.6h10.3c0,0,4.1-3.9,4.4-4.4
			c0.3-0.6,9.5-19.4,9.5-19.4l-6.7-21.3C130.4,172.8,114,175.2,115.4,178.7z"/>
		<path class="st5" d="M115.6,214.9c0,0-1,1.1-0.3,2.9"/>
		<path class="st5" d="M76.4,214.7c0,0-1.1,1.3-0.6,3.1"/>
		<path class="st1" d="M42,112c0,0-7.6-17.2-2.9-17.8c3.8-0.5,14.5,11.9,14.5,11.9S43.3,112.8,42,112z"/>
		<path class="st1" d="M62.9,106.6c0,0,4.7-5.9,10.7-9.7s5.3,0.5,4.1,5.2c-1.5,5.4-4.9,11.4-4.9,11.4s-8.7-4.8-9.9-7.4"/>
		<path class="st1" d="M45.3,130.9c-1.2,19.9,4.4,40.5,20.9,44.5s49.9,3.3,49.9,3.3c5.2,10.5,13.6,15.4,13.6,15.4l-6,17.7
			c-7.6,0.6-6.7,6.1-6.7,6.1h11.1c0,0,30-48.1,30.3-64s-8.9-23.1-35.3-24.6c-26.4-1.5-49.5,2.4-49.5,2.4l-2.1-3.4
			c0,0,4.3-5.2,4-10.2c-0.1-2.1-0.8-4.2-2.1-6.1c-1-1.5-2.5-2.8-4.3-3.9c-1.4-0.8-3-1.4-4.9-1.8c-3.8-0.8-7.6-1-11.1-0.6
			c-0.8,0.1-1.6,0.2-2.3,0.3c-1,0.2-2,0.4-2.9,0.7c-1.2,0.4-2.4,0.9-3.3,1.4c-5.1,2.9-7.6,9.3-5.7,14.6
			C40.9,128.2,45.3,130.9,45.3,130.9z"/>
		<path class="st5" d="M116.2,178.7c5.2,10.5,13.6,15.4,13.6,15.4l-6,17.7"/>
		<path class="st5" d="M53.2,105.7c-0.8,0.1-1.6,0.2-2.3,0.3c-1,0.2-2,0.4-2.9,0.7"/>
		<line class="st5" x1="45.3" y1="130.9" x2="46.4" y2="131.6"/>
		<path class="st6" d="M57.4,129.8c0,0,0.9,0.6,2.4,0.6c1.5-0.1,2-0.8,2-0.8s-0.9-1.8-2.2-2C58.2,127.3,57.4,129.8,57.4,129.8z"/>
		<g>
			<path class="st7" d="M53.5,121c1.2-0.3,1.9-1.6,1.5-2.7c-0.4-1.2-1.2-2.6-2.8-3.2c-1.6-0.5-3.1-0.3-4.1,0.1s-1.7,1.4-1.4,2.5
				c0.3,1,1,2.2,2.6,3C50.7,121.4,52.3,121.3,53.5,121z"/>
		</g>
		<path class="st7" d="M64.8,120.4c-1.4-0.1-2.3-1.7-1.7-2.9c0.6-1.3,1.7-2.6,3.4-3c1.3-0.3,2.4-0.2,3.1,0c1.3,0.3,1.9,1.8,1.3,3
			c-0.5,0.9-1.3,1.8-2.5,2.4C67.1,120.4,65.9,120.5,64.8,120.4z"/>
		<path class="st5" d="M116.2,178.7c0,0-1.2-2.2-1.6-3.5"/>
		<path class="st5" d="M120.1,217.8c0,0-0.1-1.7,1-2.8"/>
		<path class="st5" d="M125.1,214.9c0,0-1.2,1-1.1,2.9"/>
		<ellipse class="st0" cx="51.6" cy="118.1" rx="0.9" ry="2"/>
		<ellipse class="st0" cx="66.4" cy="117.5" rx="0.9" ry="2"/>
		<path class="st6" d="M59.6,126.6v1.1c0,0-0.1,0.6-1.6,1.9c-0.9,0.9-3.8,1.9-4.9-0.2c-1.1-2.1,1.3-5,4.4-5
			C60.7,124.5,59.6,126.6,59.6,126.6z"/>
		<path class="st6" d="M59.6,127.8c0,0,1,1.2,1.7,1.7c0.5,0.3,2,1.6,3.3,1c1.4-0.6,1.8-2.6,1.1-3.9c-0.6-1.3-2.5-2.3-4.3-2
			C59.8,124.7,59.4,125.6,59.6,127.8z"/>
		<path class="st0" d="M59.6,126.6c0,0-2.4-1.1-2.6-2.3s2.1-1.5,3.6-1.2C62.4,123.4,62.8,124.8,59.6,126.6z"/>
		<path class="st1" d="M73.4,169.6c0,0,0.9,3,2.1,7.4c2.1,7.5,5.2,18.8,5.8,23.7c1,7.6,0.8,11.2,0.8,11.2s-7.9-0.3-7.6,6
			c0,0,10.9,0,11.6,0s3.2-7.4,3.2-7.4s2.4-20.6,3.7-32.1c0.5-4,0.7-6.8,0.7-7.4"/>
		<path class="st5" d="M75.5,176.9c2.1,7.5,5.2,18.8,5.8,23.7c1,7.6,0.8,11.2,0.8,11.2s-7.9-0.3-7.6,6"/>
		<path class="st5" d="M76.7,217.4c0,0-0.1-1.7,1.3-2.7"/>
		<path class="st5" d="M81,215.6c0,0-0.6,0.3-0.6,2.2"/>
		<path class="st5" d="M73.4,169.6c0,0,0.9,3,2.1,7.4"/>
		<path class="st5" d="M92.9,178.4c0.5-4,0.7-6.8,0.7-7.4"/>
		<g>
			<g>
				<defs>
					<path id="SVGID_00000118398668044674697650000005685198748393505449_" d="M73.8,131.7l-6,1.1c0.7-1.1,4-4.5,4-4.5L73.8,131.7z"
						/>
				</defs>
				<clipPath id="SVGID_00000042715592782957063270000008626827602070111363_">
					<use xlink:href="#SVGID_00000118398668044674697650000005685198748393505449_"  style="overflow:visible;"/>
				</clipPath>
				<g style="opacity:0.88;clip-path:url(#SVGID_00000042715592782957063270000008626827602070111363_);">
					<g>
						<g>
							<g>
								<path class="st3" d="M70.5,129.9c0.1,0,0.1,0.1,0.1,0.1C70.6,130,70.6,130,70.5,129.9z"/>
								<path class="st3" d="M67.9,132.4L67.9,132.4L67.9,132.4L67.9,132.4z"/>
								<path class="st3" d="M67.8,132.4l-0.1-0.1C67.8,132.3,67.8,132.3,67.8,132.4z"/>
								<path class="st3" d="M71.6,130.6c0.1,0,0.1,0.1,0.2,0.1L71.6,130.6z"/>
								<path class="st3" d="M71.8,131.3L71.8,131.3C71.8,131.4,71.8,131.4,71.8,131.3z"/>
								<path class="st3" d="M72.4,127.3C72.4,127.3,72.4,127.3,72.4,127.3C72.4,127.3,72.4,127.3,72.4,127.3z"/>
								<path class="st3" d="M72.8,127.3C72.8,127.3,72.8,127.3,72.8,127.3L72.8,127.3C72.9,127.3,72.8,127.3,72.8,127.3z"/>
								<path class="st3" d="M72.9,127.5L72.9,127.5C73,127.5,72.9,127.5,72.9,127.5z"/>
								<path class="st3" d="M75.6,127.4l0.2,0.1C75.7,127.5,75.6,127.5,75.6,127.4z"/>
								<path class="st3" d="M72.2,127.2c0.1,0,0.1,0.1,0.1,0.1C72.3,127.3,72.3,127.3,72.2,127.2z"/>
								<path class="st3" d="M70.5,129.8L70.5,129.8C70.5,129.9,70.5,129.9,70.5,129.8z"/>
								<path class="st3" d="M71.7,130.4L71.7,130.4C71.7,130.4,71.7,130.4,71.7,130.4z"/>
								<path class="st3" d="M66.7,133.1c-0.1,0-0.1,0-0.1,0C66.6,132.9,66.6,133,66.7,133.1z"/>
								<path class="st3" d="M72.1,128.2c0.3,0.4,0.1-0.1,0.5,0.3c-0.1,0-0.2-0.1-0.1,0.2c0.2,0.2,0.1-0.1,0.4,0.2l-0.2-0.1
									c0.1,0.2,0.5,0.3,0.3,0.4c-0.5-0.3-0.1,0.4-0.2,0.4H73l0.1,0.3l0,0l-0.1-0.1c0.2,0.2,0.2,0.5,0.1,0.5
									c-0.3-0.2-0.4,0.2-0.6,0.1c0.1,0,0.1,0,0.1-0.1l-0.3-0.3c-0.1,0.1,0.3,0.3,0,0.2c-0.4-0.4,0.1-0.1,0.1-0.2
									c-0.1-0.1-0.2-0.1-0.3-0.1c0.1-0.1,0.1-0.4,0.6-0.1c-0.1-0.1-0.2-0.3-0.3-0.3c0.3,0.1-0.2-0.3,0.1-0.2
									c-0.4-0.3-0.3,0-0.6-0.2c0.2,0.4-0.2,0.3-0.4,0.3c0.3,0.3,0.6,0.4,0.7,0.6c0.1,0.3-0.3,0-0.5-0.1c0,0.2,0.5,0.5,0.3,0.6
									l0.2,0.1c0.3,0.5-0.2-0.1-0.2,0.1c-0.1-0.1-0.2-0.2-0.1-0.3c-0.1-0.2-0.2-0.2-0.3-0.2l0,0c-0.2-0.2-0.4-0.3-0.4-0.2
									c0.3,0.2,0.1,0.2,0.2,0.3l0.1,0.1c-0.1,0-0.2,0.1-0.2,0.1l0.1,0.1c-0.1-0.1-0.4-0.3-0.5-0.2c0.1,0.1,0.5,0.3,0.3,0.4
									c0.2,0.2,0.3,0.1,0.3,0c0,0.1,0.2,0.5,0.3,0.4c0.2,0.2-0.2,0-0.1,0.1c-0.1-0.1-0.1-0.1-0.2-0.2c0.3,0.3-0.2,0.2-0.3-0.1
									l0.2,0.1c-0.2-0.2-0.5-0.3-0.6-0.5c0.3,0.4-0.4,0-0.2,0.4l-0.1-0.2c-0.1,0.3-0.6-0.1-0.9,0c0.2,0.1,0.5,0.5,0.5,0.3
									c-0.1,0.2,0.3,0.5,0.4,0.7c0,0.3-0.4-0.3-0.6-0.5h0.2c-0.5-0.4-0.3,0.4-0.7,0.2c0.1,0.2,0.1,0.1,0.2,0.1
									c0.1,0.3-0.1,0-0.2-0.1c-0.1,0.1-0.1,0.3,0.2,0.6c-0.1,0.2-0.1-0.2-0.3-0.3l0.1,0.1l-0.4-0.3c0,0.2,0,0.5,0.2,0.8
									c-0.2,0.1-0.6-0.7-0.9-0.7c0.1,0.2,0.2,0.2,0.3,0.4l-0.2,0.1c0.3,0.3,0.3,0.1,0.6,0.5c-0.4-0.3-0.2,0-0.6-0.2v-0.1
									c-0.3-0.3-0.3,0.1-0.4,0.1c0.2,0.2,0.3,0.1,0.4,0.1c0,0.2-0.3,0.2-0.7-0.1c0,0.1-0.1,0.3,0.2,0.5c-0.2,0.2-0.5-0.5-0.6-0.3
									l0.2,0.3c0.1,0.6-0.6-0.2-0.6,0.3l-0.2-0.4c0.1,0.2,0,0.3,0.1,0.5l0.2,0.1c0.1,0.3-0.3-0.2-0.2,0.1
									c-0.1-0.1-0.1-0.4-0.2-0.6c0.5,0,0.6-0.7,1.2-0.6c0,0.1,0.1,0.1,0.1,0.2c0-0.1,0.1-0.1,0-0.3H68c0.2,0-0.1-0.5,0-0.5
									c0.2,0.2,0.1-0.2,0.4,0.2l-0.1-0.3c0.1,0.2,0.3,0.3,0.3,0.4c0.1-0.1-0.1-0.2-0.2-0.3c0.2-0.3,0.5-0.5,0.8-0.6l-0.2-0.1
									c0-0.1,0.5,0.2,0.1-0.3c0.3,0.1,0.2-0.4,0.6,0.1c-0.3-0.6,0.1-0.5,0.3-0.5c0.3,0.5,0.2,0,0.5,0.2c-0.2-0.3-0.4-0.2-0.6-0.5
									c0.6,0.3,0.1-0.7,0.9,0c0-0.1-0.1-0.1-0.1-0.1c0.1-0.1-0.1-0.2-0.1-0.3c0.2,0.1,0.1,0.2,0.3,0.2c0.1-0.1-0.2-0.3-0.3-0.4
									c0.3,0.1,0.5,0,0.9,0.3c-0.1-0.1-0.2-0.3-0.3-0.3c0.4,0.1,0.1-0.2,0.5-0.2c-0.1,0.1-0.3-0.3-0.3-0.1
									c-0.3-0.5,0.3-0.2,0.2-0.6l0.3,0.2c0.1-0.1-0.1-0.3-0.3-0.3c-0.1-0.3,0.2-0.2,0.3-0.3c-0.1-0.1-0.1-0.1-0.1-0.1l0.1-0.2
									c0.1,0.1,0.3,0.1,0.5,0.3C72.2,128.1,72.1,128,72.1,128.2z"/>
								<path class="st3" d="M72.4,128.2L72.4,128.2L72.4,128.2L72.4,128.2z"/>
								<path class="st3" d="M72.1,131c-0.1-0.1-0.1-0.1-0.1-0.2C72.1,130.9,72.1,130.9,72.1,131z"/>
								<path class="st3" d="M74.4,127c0.5,0.4-0.2,0.1-0.1,0.2c0.1,0,0.4,0.2,0.5,0.3c-0.7-0.4,0.1,0.2-0.2,0.3
									c0.2,0.2,0.3,0.1,0.5,0.3c-0.2,0-0.5,0.1-0.8-0.2c-0.1,0.2-0.1,0.4-0.2,0.4c0.2,0,0.3,0.3,0.7,0.4c-0.5-0.2-1.2-0.3-1.8-0.6
									c0.3,0.3,0.4,0.4,0.7,0.6c0.1,0.4-0.4-0.2-0.5,0.1v-0.1c-0.2,0-0.5-0.3-0.8-0.5l0.2-0.2c-0.2-0.2-0.3-0.1-0.4-0.1
									c-0.3-0.2-0.1-0.3-0.3-0.5c0.2,0.2,0.2,0,0.3,0.1l-0.1-0.1c-0.1-0.2,0.3,0.1,0.4-0.1c-0.1-0.1-0.1-0.1-0.1-0.1
									c0.2,0.1,0.4,0.2,0.5,0.2h-0.1c0.4,0.2,0.7,0.2,1,0.6l0.1-0.3c-0.4-0.3-1-0.7-1.1-0.6l-0.2-0.1c-0.1-0.2,0.5,0,0.7,0.3
									c1,0.6,0.3-0.3,0.8-0.2c-0.2-0.2-0.4-0.2-0.6-0.3c-0.1,0-0.1,0.1,0.1,0.2c-0.3,0.1-0.7-0.6-0.8-0.3c0.1,0.2,0.5,0.2,0.4,0.3
									l-0.7-0.4c0.1-0.1,0.3-0.1,0.4-0.1c0.4-0.1,0.6-0.2,0.6-0.4s0-0.3,0-0.3c0.6-0.6,1.1-1.3,1.6-2c0.2-0.2,0.2-0.3,1,0
									c0.1,0.1,0,0.2,0.3,0.3c-0.3-0.1-0.5-0.1-0.5,0.1c0.3,0.2,0.2-0.1,0.2,0v0.1c0.2,0.1,0.2,0.1,0.3,0.1
									c0.3,0.3,0.1,0.6-0.5,0.4c0.2,0.3,0.5,0.2,0.7,0.2c-0.1,0.5-0.2,0.8-0.5,1.3c-0.5-0.3-0.3-0.1-0.6-0.3l0.2,0.1
									c-0.1-0.1-0.4-0.2-0.5-0.3c0.2,0.5-0.8-0.1-1.1-0.1l0.2,0.2c-0.1,0.1-0.2,0.1-0.3,0.2c0.3,0.5,0.2-0.1,0.7,0.3h-0.1
									c0.2,0.1,0.6,0.3,0.9,0.4c-0.5-0.1-0.1,0.4-0.5,0.4c0.3,0.2,0.6,0.1,0.7,0.1c0,0.1-0.3,0.1-0.1,0.3l-0.3-0.2
									c-0.1,0.1,0.3,0.2,0.5,0.4C75.5,127.9,74.7,126.9,74.4,127z"/>
								<path class="st3" d="M72.1,129.9c0-0.1,0.1-0.1,0.1-0.1C72.2,129.9,72.2,129.9,72.1,129.9z"/>
								<path class="st3" d="M73.2,129.9c0.1,0.1,0.1,0.1,0.1,0.1C73.2,130,73.2,130,73.2,129.9z"/>
								<path class="st3" d="M73.6,130.2c-0.1-0.1-0.2-0.1-0.3-0.2C73.4,130.1,73.5,130,73.6,130.2z"/>
								<path class="st3" d="M63.4,136.8c-0.1-0.1-0.2-0.2-0.2-0.3l0.2,0.1L63.4,136.8z"/>
								<path class="st3" d="M63.5,136.3l0.1-0.2l0.3,0.5C63.7,136.6,63.7,136.2,63.5,136.3z"/>
								<path class="st3" d="M63.8,135.8l-0.1-0.1C63.7,135.8,63.7,135.8,63.8,135.8z"/>
								<path class="st3" d="M63.9,136.1l0.2,0.3l-0.3-0.2L63.9,136.1c-0.1-0.1-0.1-0.1-0.1-0.2L63.9,136.1
									C63.9,136.1,63.9,136,63.9,136.1z"/>
								<path class="st3" d="M64,136c0,0.1,0,0.1,0.1,0.1C64,136.1,64,136.1,64,136z"/>
								<path class="st3" d="M64.1,135.2c0,0.1,0.2,0.3,0.2,0.5c-0.1,0.2-0.3-0.3-0.3-0.1c0.3,0.2,0,0.2,0.1,0.5
									c-0.1-0.3-0.1-0.6-0.1-0.7l0.1,0.2C64.1,135.5,64,135.3,64.1,135.2z"/>
								<path class="st3" d="M64.9,135.5l-0.2-0.3c0.1,0.2-0.1,0.2,0.1,0.6c-0.1,0-0.2-0.2-0.2-0.2c0.1,0.2,0.1,0.3-0.1,0.1
									c0.2-0.3,0.1-0.4,0.2-0.6c-0.1-0.1-0.1-0.1-0.1,0l0.1-0.2C64.8,135.2,65,135.1,64.9,135.5z"/>
								<path class="st3" d="M65.1,135.1c-0.1,0.1-0.3-0.2-0.3-0.5l0.3,0.2C64.9,134.8,64.9,134.8,65.1,135.1z"/>
								<path class="st3" d="M65.2,135c-0.1-0.2-0.2-0.6,0.1-0.3C65.2,134.7,65.5,135.2,65.2,135z"/>
								<path class="st3" d="M65.8,134.3l-0.1,0.3c0.2,0.5,0.2,0.1,0.3,0.2c-0.1,0.2-0.2,0-0.4-0.2c-0.1,0.1-0.2-0.1-0.3-0.2
									C65.8,134.7,65.2,133.7,65.8,134.3z"/>
								<polygon class="st3" points="65.6,135 65.5,134.8 65.7,134.9 								"/>
								<path class="st3" d="M66,133.6c-0.2-0.6,0.4,0.2,0.4-0.1c-0.1,0-0.1-0.1-0.1-0.1h0.1l-0.1-0.1c0.2,0.3,0.3,0.3,0.5,0.5
									c0.1,0.4-0.3-0.3-0.2,0.1c0.1,0.1,0.2,0.3,0.3,0.4c-0.2-0.1-0.3-0.3-0.4-0.4c-0.1,0,0,0.2,0.1,0.3c-0.2-0.1-0.4-0.6-0.5-0.3
									c0.1,0.3,0.3,0.4,0.1,0.3c-0.2-0.5-0.1,0.2-0.3-0.1c-0.1,0.2,0,0.5,0.1,0.6c-0.2-0.3-0.5-0.6-0.6-0.7l0.3,0.2l-0.2-0.5
									C66,133.8,66,133.8,66,133.6L66,133.6z"/>
								<path class="st3" d="M67.1,134.3L67.1,134.3C67.2,134.3,67.1,134.3,67.1,134.3z"/>
								<polygon class="st3" points="66.2,134.8 66.3,134.8 66.3,135 								"/>
								<path class="st3" d="M67.4,134.5l-0.1-0.1L67.4,134.5L67.4,134.5z"/>
								<polygon class="st3" points="67.4,134.2 67.2,133.9 67.4,134.1 								"/>
								<path class="st3" d="M69.6,132.4c0,0.2-0.2-0.1-0.3-0.3C69.4,132,69.5,132.3,69.6,132.4z"/>
								<path class="st3" d="M71.3,131.5c0.1,0.2-0.2,0.1-0.3,0.1C71,131.5,71.2,131.5,71.3,131.5z"/>
								<path class="st3" d="M72.6,131.9c-0.1-0.1-0.2-0.1-0.1-0.2l-0.5-0.3C72,131.1,72.5,131.7,72.6,131.9z"/>
								<path class="st3" d="M73.4,131.3l-0.3-0.1l0.1-0.1c-0.2-0.1-0.3-0.2-0.5-0.3C72.9,130.9,73.1,130.9,73.4,131.3z"/>
								<path class="st3" d="M72.5,130.9L72.5,130.9C72.6,130.9,72.7,131,72.5,130.9z"/>
								<path class="st3" d="M72.6,130.8C72.6,130.8,72.7,130.8,72.6,130.8C72.7,130.8,72.6,130.8,72.6,130.8
									C72.6,130.8,72.6,130.8,72.6,130.8z"/>
								<path class="st3" d="M73.3,131l0.2-0.1v0.2C73.3,130.8,73.6,131.2,73.3,131z"/>
								<path class="st3" d="M74,129.8l-0.2-0.3c0.1-0.2,0.7,0.2,0.4-0.3c0.1,0.2,0.4,0.2,0.3,0.4C74.2,129.5,74,129.6,74,129.8z"/>
								<path class="st3" d="M74,129c-0.1-0.1-0.1-0.1-0.2-0.2c0-0.1,0.2,0,0.3,0.1C73.7,128.6,74.3,129.2,74,129z"/>
								<path class="st3" d="M74.5,128.5c-0.1,0.1-0.1,0.1-0.1-0.1c0.1-0.1,0.4,0.2,0.6,0.3C75.1,128.9,74.6,128.6,74.5,128.5z"/>
								<path class="st3" d="M73,126c0.2,0.2,0.1,0.2,0.1,0.2C73.2,126.2,73.2,126.1,73,126z"/>
								<polygon class="st3" points="75.1,127.5 75.2,127.5 74.8,127.3 								"/>
								<polygon class="st3" points="75.8,127 76.2,127 76,127.1 								"/>
								<path class="st3" d="M75.9,126.8l0.1-0.1l0.1,0.1C76,126.9,75.9,126.7,75.9,126.8z"/>
								<path class="st3" d="M76.2,126.5C76.1,126.5,76.2,126.5,76.2,126.5l-0.2,0.1L76.2,126.5z"/>
								<path class="st3" d="M75.5,123.6c-0.3-0.1-0.1-0.1-0.1-0.2C75.5,123.5,75.8,123.8,75.5,123.6z"/>
							</g>
						</g>
					</g>
				</g>
			</g>
		</g>
		<g>
			<g>
				<defs>
					<path id="SVGID_00000160899225697897567110000002631684424519747517_" d="M106,178.7c-3.8-0.1-8.3-0.1-13.1-0.3
						c0.3-3.3,0.6-5.9,0.7-7C95.9,172.9,101.8,176.7,106,178.7z"/>
				</defs>
				<clipPath id="SVGID_00000044891887242083212850000001047125961743596198_">
					<use xlink:href="#SVGID_00000160899225697897567110000002631684424519747517_"  style="overflow:visible;"/>
				</clipPath>
				<g style="opacity:0.88;clip-path:url(#SVGID_00000044891887242083212850000001047125961743596198_);">
					<g>
						<g>
							<g>
								<path class="st3" d="M93.3,175.5c0.1,0,0.1,0,0.2,0C93.5,175.5,93.5,175.5,93.3,175.5z"/>
								<path class="st3" d="M93.1,171.8C93.1,171.7,93.1,171.7,93.1,171.8L93.1,171.8L93.1,171.8z"/>
								<path class="st3" d="M93,171.8h-0.2C92.9,171.8,92.9,171.8,93,171.8z"/>
								<path class="st3" d="M94.5,175.6c0.1,0,0.1,0.1,0.2,0.1L94.5,175.6z"/>
								<path class="st3" d="M95.2,175.1C95.2,175.1,95.2,175.1,95.2,175.1C95.2,175.1,95.2,175.1,95.2,175.1z"/>
								<path class="st3" d="M93.6,178.9L93.6,178.9C93.6,178.9,93.6,178.9,93.6,178.9z"/>
								<path class="st3" d="M94,179L94,179L94,179C94.1,179.1,94,179.1,94,179z"/>
								<path class="st3" d="M94.2,178.9L94.2,178.9L94.2,178.9z"/>
								<path class="st3" d="M96.6,180l0.2-0.1C96.7,180,96.6,180,96.6,180z"/>
								<path class="st3" d="M93.4,178.9c0.1,0,0.1,0,0.2,0C93.5,178.9,93.5,178.8,93.4,178.9z"/>
								<path class="st3" d="M93.3,175.5C93.3,175.5,93.3,175.5,93.3,175.5C93.3,175.5,93.3,175.5,93.3,175.5z"/>
								<path class="st3" d="M94.5,175.8L94.5,175.8L94.5,175.8z"/>
								<path class="st3" d="M92.8,170.4c0-0.1-0.1-0.1-0.1-0.1C92.6,170.4,92.6,170.4,92.8,170.4z"/>
								<path class="st3" d="M93.8,177.9c0.5-0.2,0.1,0.1,0.5,0c-0.1-0.1-0.2-0.1,0.1-0.2c0.3,0,0,0.2,0.5,0.1l-0.2-0.1
									c0.2-0.1,0.6-0.1,0.5-0.2c-0.6,0.1,0.2-0.3,0.1-0.4h0.1l0.2-0.2c0,0,0,0,0.1,0c-0.1,0-0.1,0-0.1,0c0.3-0.1,0.5-0.3,0.3-0.4
									c-0.3,0-0.2-0.3-0.5-0.3c0.1,0.1,0.1,0.1,0.1,0.2l-0.4,0.1c0-0.1,0.3-0.1,0.1-0.2c-0.5,0.1,0.1,0.2,0,0.2
									c-0.1,0-0.2,0-0.3-0.1c0,0.2-0.1,0.3,0.4,0.3c-0.1,0.1-0.3,0.1-0.4,0.1c0.3,0.1-0.3,0.2,0,0.2c-0.5,0.1-0.3-0.2-0.6-0.2
									c0.3-0.2-0.1-0.3-0.2-0.5c0.3-0.1,0.7-0.1,0.9-0.2c0.2-0.2-0.2-0.1-0.5-0.2c0.1-0.1,0.6-0.1,0.6-0.3l0.3,0.1
									c0.5-0.2-0.2-0.1-0.1-0.2c-0.1,0.1-0.3,0.1-0.2,0.2c-0.2,0.1-0.3,0-0.3-0.1l0,0c-0.3,0-0.5,0.1-0.4-0.1
									c0.3,0,0.2-0.1,0.3-0.2h0.1c-0.1-0.1-0.1-0.2-0.2-0.2h0.1c-0.1-0.1-0.5,0-0.5-0.1c0.2,0,0.6,0,0.5-0.1
									c0.2-0.1,0.3,0.1,0.2,0.2c0.1-0.1,0.5-0.2,0.5-0.1c0.3-0.1-0.2-0.1,0-0.2c-0.1,0.1-0.2,0.1-0.3,0.1c0.4-0.1,0-0.2-0.3-0.2
									l0.2,0.1c-0.3,0.1-0.6,0-0.7,0.1c0.5-0.2-0.3-0.2,0.1-0.4l-0.2,0.1c0.1-0.3-0.5-0.3-0.7-0.6c0.2,0.1,0.7-0.1,0.6,0.1
									c0.1-0.2,0.5-0.2,0.8-0.3c0.2-0.2-0.5,0-0.7,0l0.1,0.1c-0.7-0.1,0.1-0.5-0.4-0.6c0.2-0.1,0.1,0.1,0.2,0.1
									c0.3-0.2-0.1-0.1-0.2-0.1c0.1-0.1,0.2-0.3,0.6-0.3c0.1-0.1-0.2,0.1-0.4,0l0.1-0.1l-0.5-0.1c0.1-0.1,0.3-0.3,0.7-0.4
									c-0.1-0.2-0.9,0.1-1.1-0.1c0.2-0.1,0.3-0.1,0.5-0.1l-0.1-0.2c0.5,0,0.2,0.2,0.8,0.1c-0.6-0.1-0.2-0.2-0.6-0.3h-0.1
									c-0.3,0-0.2-0.2-0.2-0.3c0.2,0,0.3,0.1,0.3,0.2c0.2-0.2-0.1-0.4-0.6-0.5c0.1-0.1,0.2-0.2,0.5-0.2c0.1-0.2-0.7,0-0.6-0.2
									l0.3-0.1c0.5-0.3-0.5-0.3-0.1-0.6l-0.5,0.1c0.2-0.1,0.2-0.2,0.4-0.2l0.2,0.1c0.3-0.2-0.3-0.1-0.1-0.2
									c-0.1,0-0.4,0.2-0.6,0.2c0.3,0.4-0.2,1,0.3,1.4c0.1,0,0.1-0.1,0.2-0.1c-0.1,0.1,0.1,0.1-0.2,0.2h-0.1
									c0.1,0.1-0.4,0.3-0.4,0.3c0.3,0-0.1,0.3,0.4,0.1l-0.3,0.1c0.2,0,0.5-0.1,0.5,0c0,0.1-0.2,0.1-0.3,0.1c-0.1,0.3,0,0.7,0.2,1
									l-0.2-0.1c-0.1,0.1,0.5,0.2-0.2,0.2c0.3,0.1-0.1,0.5,0.5,0.3c-0.6,0.2-0.2,0.5-0.1,0.6c0.5-0.1,0.2,0.2,0.5,0.2
									c-0.4,0.1-0.5-0.1-0.7-0.1c0.7,0.1-0.3,0.7,0.7,0.6c-0.1,0.1-0.1,0.1-0.1,0.1c0,0.1-0.2,0.1-0.2,0.2c0.2,0,0.2-0.1,0.3-0.1
									c0,0.1-0.3,0.1-0.5,0.2c0.3,0.1,0.4,0.3,0.9,0.3c-0.1,0.1-0.3,0.2-0.4,0.1c0.4,0.2,0,0.2,0.2,0.5c-0.1-0.1-0.5,0.1-0.3-0.1
									c-0.6,0.2,0.2,0.3-0.1,0.6H94c0.1,0.1-0.3,0.2-0.4,0.1c-0.2,0.3,0.1,0.3,0.1,0.5c-0.1,0-0.1,0.1-0.1,0l0.1,0.2
									c0.1,0,0.3,0.1,0.6-0.1C93.8,178.1,93.7,178,93.8,177.9z"/>
								<path class="st3" d="M94,178L94,178L94,178C94.1,178,94.1,178,94,178z"/>
								<path class="st3" d="M95.2,175.6c-0.1,0.1-0.1,0.1-0.2,0.1C95.2,175.7,95.2,175.7,95.2,175.6z"/>
								<path class="st3" d="M95.2,180c0.6-0.2-0.1-0.1,0-0.2c0.1,0.1,0.5-0.1,0.6-0.1c-0.8,0.1,0.1-0.2-0.1-0.3
									c0.2-0.1,0.3,0,0.6-0.1c-0.2-0.1-0.3-0.2-0.8-0.1c-0.1-0.2,0.1-0.4-0.1-0.5c0.2,0.1,0.4-0.1,0.8-0.1c-0.5,0-1.2-0.2-1.8-0.3
									c0.5-0.1,0.5-0.2,0.9-0.2c0.2-0.3-0.5,0.1-0.3-0.2l-0.1,0.1c-0.2-0.1-0.6,0-0.9,0.1l0.1,0.2c-0.3,0.1-0.3-0.1-0.4-0.1
									c-0.4,0-0.2,0.2-0.5,0.2c0.3,0,0.2,0.1,0.3,0.2l-0.2,0.1c-0.2,0.2,0.3,0.1,0.3,0.2c-0.1,0-0.1,0.1-0.1,0.1
									c0.2,0,0.5,0,0.5,0.1l-0.1-0.1c0.4,0,0.7,0.2,1.1-0.1l-0.1,0.3c-0.5,0.1-1.1,0.2-1.2,0.1h-0.2c-0.2,0.2,0.4,0.2,0.8,0.1
									c1.1-0.2,0.2,0.4,0.6,0.5c-0.3,0.1-0.4,0-0.6,0c-0.1-0.1-0.1-0.1,0.2-0.2c-0.2-0.2-0.9,0.3-0.9-0.1c0.1-0.2,0.5,0.1,0.5-0.2
									l-0.9,0.1c0.1,0.1,0.2,0.2,0.3,0.3c0.7,0.5,0.3,1,0.3,1c0.3,0.9,0.6,1.7,1,2.5c0.2,0.2,0.2,0.3,1,0.2c0.1-0.1,0-0.2,0.3-0.3
									c-0.3,0.1-0.5,0-0.5-0.1c0.3-0.1,0.2,0.1,0.2,0v-0.1c0.2-0.1,0.2-0.1,0.3,0c0.4-0.3,0.2-0.5-0.4-0.5
									c0.2-0.2,0.5-0.1,0.7-0.1c0.1-0.5-0.1-0.8-0.2-1.2c-0.5,0.1-0.3,0.1-0.7,0.1l0.2-0.1c-0.1,0.1-0.5,0.1-0.5,0.2
									c0.3-0.3-0.7-0.1-1-0.2l0.3-0.1c-0.1-0.1-0.1-0.2-0.3-0.3c0.5-0.3,0.1,0.2,0.7-0.1l-0.1-0.1c0.3-0.1,0.7-0.1,0.9-0.1
									c-0.5-0.1,0.1-0.3-0.3-0.5c0.3-0.1,0.6,0.1,0.6,0.2c0-0.1-0.2-0.2,0-0.2l-0.4,0.1c-0.1-0.1,0.3-0.1,0.6-0.2
									C96.6,179.6,95.6,180.2,95.2,180z"/>
								<path class="st3" d="M94.7,176.4c0,0.1,0,0.1,0.1,0.1C94.7,176.5,94.7,176.5,94.7,176.4z"/>
								<path class="st3" d="M95.5,177c0.1,0,0.1,0,0.1,0C95.6,176.9,95.6,176.9,95.5,177z"/>
								<path class="st3" d="M96,176.9c-0.2,0.1-0.2,0-0.4,0.1C95.8,177,95.8,177.1,96,176.9z"/>
								<path class="st3" d="M94.1,165.8c-0.1,0-0.2-0.1-0.3-0.1l0.2,0.1L94.1,165.8z"/>
								<path class="st3" d="M93.7,166.1l-0.1,0.2l0.5,0.1C94.1,166.2,93.7,166.2,93.7,166.1z"/>
								<path class="st3" d="M93.5,166.5h-0.1C93.4,166.5,93.5,166.5,93.5,166.5z"/>
								<path class="st3" d="M93.7,166.5h0.4l-0.3-0.1L93.7,166.5c-0.1-0.1-0.1,0-0.2,0L93.7,166.5
									C93.7,166.5,93.6,166.5,93.7,166.5z"/>
								<path class="st3" d="M93.7,166.6c0.1,0,0.1,0,0.1,0C93.8,166.6,93.7,166.6,93.7,166.6z"/>
								<path class="st3" d="M93.1,167c0.1-0.1,0.3,0,0.5,0c0.1-0.2-0.4-0.1-0.3-0.2c0.3,0.2,0.2-0.1,0.4-0.2
									c-0.3,0.1-0.6,0.2-0.7,0.3h0.2C93.3,167,93.2,167,93.1,167z"/>
								<path class="st3" d="M93.7,167.7l-0.3-0.1c0.2-0.1,0.2-0.2,0.5-0.2c-0.1-0.1-0.2-0.1-0.3-0.1c0.2-0.1,0.3-0.1,0.1-0.2
									c-0.2,0.3-0.3,0.2-0.4,0.5c-0.1,0-0.1,0-0.1-0.1l-0.2,0.2C93.4,167.7,93.5,167.8,93.7,167.7z"/>
								<path class="st3" d="M93.5,168c-0.1-0.1-0.4-0.1-0.6-0.1l0.3,0.2C93.2,168,93.1,168,93.5,168z"/>
								<path class="st3" d="M93.5,168.1c-0.2,0.1-0.6,0.2-0.2,0.2C93.2,168.2,93.7,168.2,93.5,168.1z"/>
								<path class="st3" d="M93.3,169l0.2-0.2c0.5-0.1,0.2,0.1,0.4,0.1c0.1-0.2-0.1-0.1-0.4-0.2c0-0.1-0.2-0.1-0.3-0.2
									C93.5,168.7,92.4,168.9,93.3,169z"/>
								<polygon class="st3" points="93.7,168.5 93.5,168.5 93.6,168.5 								"/>
								<path class="st3" d="M92.8,169.6c-0.5,0.2,0.3,0.2,0.1,0.4c-0.1,0-0.1,0-0.2,0l0.1,0.1h-0.1c0.3-0.1,0.5,0.1,0.7,0.1
									c0.3-0.2-0.4,0-0.1-0.2c0.2,0,0.4,0,0.5,0c-0.2-0.1-0.3-0.1-0.6-0.1c-0.1-0.1,0.1-0.1,0.3-0.1c-0.2-0.1-0.7,0-0.6-0.2
									c0.3-0.1,0.5,0,0.3-0.2c-0.5,0.2,0.1-0.2-0.3-0.2c0.1-0.1,0.4-0.3,0.6-0.3c-0.4,0.1-0.7,0-0.9-0.1l0.3,0.2l-0.5,0.1
									C92.9,169.4,92.9,169.4,92.8,169.6L92.8,169.6z"/>
								<path class="st3" d="M94,170c0.1,0,0.1,0,0.1,0.1C94,170,94,170,94,170z"/>
								<polygon class="st3" points="93.8,169 93.9,169 94,169 								"/>
								<path class="st3" d="M94.3,170.1c0-0.1-0.2,0-0.2,0H94.3L94.3,170.1z"/>
								<polygon class="st3" points="94,170.2 93.7,170.4 94,170.4 								"/>
								<path class="st3" d="M94.2,173.1c0.2-0.1-0.2-0.1-0.4,0C93.7,173.2,94.1,173,94.2,173.1z"/>
								<path class="st3" d="M94.9,174.7c0.2-0.1-0.1-0.2-0.2-0.3C94.7,174.6,94.8,174.7,94.9,174.7z"/>
								<path class="st3" d="M96.2,175.2c-0.1,0-0.2,0-0.2,0.1h-0.6C95.2,175.4,95.9,175.2,96.2,175.2z"/>
								<path class="st3" d="M96.4,176l-0.2-0.1v0.1c-0.2,0-0.3,0-0.5,0C95.8,176.1,96,176.1,96.4,176z"/>
								<path class="st3" d="M95.5,175.9C95.5,175.9,95.5,175.9,95.5,175.9C95.6,175.9,95.7,175.9,95.5,175.9z"/>
								<path class="st3" d="M95.6,176L95.6,176C95.6,176,95.6,175.9,95.6,176C95.5,175.9,95.5,176,95.6,176z"/>
								<path class="st3" d="M96.2,176.2l0.1,0.2l0.1-0.1C96,176.3,96.6,176.1,96.2,176.2z"/>
								<path class="st3" d="M96.2,177.4l-0.3,0.1c-0.1,0.2,0.7,0.2,0.2,0.4c0.2-0.1,0.4,0,0.5-0.2
									C96.2,177.8,96.1,177.5,96.2,177.4z"/>
								<path class="st3" d="M95.8,178.1c-0.1,0-0.2,0.1-0.2,0.1c0,0.1,0.1,0.1,0.3,0C95.4,178.3,96,178.1,95.8,178.1z"/>
								<path class="st3" d="M96,178.8c0-0.1-0.1-0.1-0.1,0c0.1,0.1,0.4,0,0.7,0C96.7,178.6,96.1,178.6,96,178.8z"/>
								<path class="st3" d="M93.7,180.4c0.3-0.1,0.2-0.2,0.1-0.2C93.9,180.3,93.9,180.4,93.7,180.4z"/>
								<polygon class="st3" points="96.2,179.8 96.2,179.8 95.8,179.8 								"/>
								<polygon class="st3" points="96.6,180.5 96.9,180.5 96.8,180.4 								"/>
								<path class="st3" d="M96.6,180.7l0.1,0.1l0.1-0.1C96.8,180.7,96.6,180.7,96.6,180.7z"/>
								<path class="st3" d="M96.7,181.1C96.7,181.1,96.7,181,96.7,181.1l-0.2-0.1L96.7,181.1z"/>
								<path class="st3" d="M95.5,183.6c-0.3,0.1-0.1,0.1-0.1,0.2C95.5,183.8,95.8,183.6,95.5,183.6z"/>
							</g>
						</g>
					</g>
				</g>
			</g>
		</g>
		<path class="st5" d="M73.6,112.1c-0.5-0.6-1-1.3-1.6-1.8c-0.8-0.7-1.7-1.4-2.8-2.1"/>
		<path class="st5" d="M123.9,211.8c-7.6,0.6-6.7,6.1-6.7,6.1"/>
	</g>
</g>
<g>
	<path class="st10" d="M93,56.8c-0.1-0.2-0.2-0.3-0.4-0.4c-0.2-0.1-0.3-0.1-0.5-0.1c-0.3,0-0.6,0.1-0.8,0.2
		c-0.2,0.1-0.4,0.3-0.6,0.6v3c0.2,0.2,0.4,0.3,0.6,0.4c0.2,0.1,0.4,0.1,0.7,0.1c0.2,0,0.4,0,0.6-0.1c0.2-0.1,0.3-0.2,0.5-0.4
		c0.1-0.2,0.2-0.4,0.3-0.7c0.1-0.3,0.1-0.6,0.1-1c0-0.4,0-0.7-0.1-1C93.2,57.2,93.1,57,93,56.8z"/>
	<path class="st10" d="M89.6,40.8c0.1-0.4,0.2-0.9,0.2-1.5c0-0.6-0.1-1.1-0.2-1.5c-0.1-0.4-0.4-0.8-0.6-1.1c-0.3-0.3-0.6-0.5-1-0.7
		c-0.4-0.2-0.8-0.2-1.3-0.2c-0.5,0-0.9,0.1-1.3,0.2c-0.4,0.2-0.7,0.4-1,0.7c-0.3,0.3-0.5,0.7-0.6,1.1c-0.1,0.4-0.2,0.9-0.2,1.5
		c0,0.6,0.1,1.1,0.2,1.5s0.4,0.8,0.6,1.1c0.3,0.3,0.6,0.5,1,0.7c0.4,0.2,0.8,0.2,1.3,0.2c0.5,0,0.9-0.1,1.3-0.2
		c0.4-0.2,0.7-0.4,1-0.7C89.2,41.6,89.5,41.3,89.6,40.8z"/>
	<path class="st10" d="M79.6,56.7c-0.1-0.1-0.3-0.2-0.4-0.3c-0.2-0.1-0.4-0.1-0.6-0.1c-0.4,0-0.8,0.1-1,0.4
		c-0.3,0.3-0.4,0.6-0.5,1.1H80c0-0.2,0-0.4-0.1-0.6C79.8,56.9,79.7,56.8,79.6,56.7z"/>
	<path class="st10" d="M120.9,31.8C106.2,12,78.8,13.1,64,17.4c-6.7,2-21.2,6.2-26.8,19.5c-4.9,11.8-1.7,27.8,7.9,35.7
		c15.7,13,40.2-2.8,50.9,10c7.1,8.5,1,21.2,5.8,23.1c5.4,2.1,18.1-11.9,23.5-27.4C126.9,73.7,134.9,50.5,120.9,31.8z M72.3,34H79
		v1.7h-4.6v2.7H78v1.7h-3.5v2.8H79v1.7h-6.8V34z M61.5,60.4c0.2,0.9,0.5,1.7,0.9,2.5c0.1,0.1,0.1,0.2,0.1,0.3c0,0.1,0,0.1,0,0.2
		c0,0.1-0.1,0.1-0.1,0.1c0,0-0.1,0.1-0.1,0.1l-0.8,0.5c-0.3-0.5-0.6-1-0.8-1.5c-0.2-0.5-0.4-1-0.6-1.6c-0.1-0.5-0.3-1.1-0.3-1.6
		c-0.1-0.5-0.1-1.1-0.1-1.7c0-0.6,0-1.1,0.1-1.7c0.1-0.5,0.2-1.1,0.3-1.6c0.1-0.5,0.3-1.1,0.6-1.6c0.2-0.5,0.5-1,0.8-1.5l0.8,0.5
		c0.1,0,0.1,0.1,0.1,0.1c0,0,0.1,0.1,0.1,0.1c0,0.1,0,0.1,0,0.2c0,0.1,0,0.2-0.1,0.3c-0.4,0.8-0.7,1.6-0.9,2.5
		c-0.2,0.9-0.3,1.8-0.3,2.7C61.2,58.7,61.3,59.6,61.5,60.4z M63,43.4h-0.3c-0.2,0-0.3,0-0.5-0.1c-0.1-0.1-0.2-0.2-0.3-0.4l-3.1-5.8
		c0,0.2,0,0.3,0,0.5c0,0.2,0,0.3,0,0.4v6.5H57V34h1.7c0.1,0,0.2,0,0.2,0c0.1,0,0.1,0,0.2,0c0.1,0,0.1,0.1,0.2,0.1
		c0,0,0.1,0.1,0.1,0.2l3,5.7c0.1,0.2,0.2,0.3,0.3,0.5c0.1,0.2,0.2,0.4,0.2,0.6c0.1-0.2,0.2-0.4,0.2-0.6c0.1-0.2,0.2-0.4,0.3-0.5
		l3-5.6c0-0.1,0.1-0.1,0.1-0.2c0,0,0.1-0.1,0.2-0.1c0.1,0,0.1,0,0.2,0c0.1,0,0.2,0,0.3,0h1.7v10.6h-1.9v-6.5c0-0.1,0-0.3,0-0.4
		c0-0.2,0-0.3,0-0.5l-3,5.8C63.6,43.3,63.4,43.4,63,43.4z M72.8,62H71v-4.4c0-0.4-0.1-0.7-0.3-0.9c-0.2-0.2-0.4-0.3-0.8-0.3
		c-0.3,0-0.5,0.1-0.7,0.2c-0.2,0.1-0.4,0.3-0.7,0.5v5h-1.9V51.9h1.9v3.8c0.1-0.1,0.3-0.2,0.4-0.3c0.1-0.1,0.3-0.2,0.5-0.2
		c0.2-0.1,0.3-0.1,0.5-0.2c0.2,0,0.4-0.1,0.6-0.1c0.4,0,0.7,0.1,1,0.2c0.3,0.1,0.5,0.3,0.7,0.5c0.2,0.2,0.4,0.5,0.5,0.8
		c0.1,0.3,0.2,0.7,0.2,1.1V62z M81.6,58.4c0,0.1,0,0.2-0.1,0.2c0,0.1-0.1,0.1-0.1,0.1c-0.1,0-0.1,0-0.2,0H77
		c0.1,0.7,0.2,1.1,0.6,1.4c0.3,0.3,0.7,0.5,1.2,0.5c0.3,0,0.5,0,0.7-0.1c0.2-0.1,0.4-0.1,0.5-0.2c0.1-0.1,0.3-0.1,0.4-0.2
		c0.1-0.1,0.2-0.1,0.3-0.1c0.1,0,0.3,0.1,0.3,0.2l0.5,0.7c-0.2,0.2-0.4,0.4-0.7,0.6c-0.2,0.2-0.5,0.3-0.7,0.4
		c-0.3,0.1-0.5,0.1-0.8,0.2c-0.3,0-0.5,0.1-0.8,0.1c-0.5,0-0.9-0.1-1.4-0.2c-0.4-0.2-0.8-0.4-1.1-0.7c-0.3-0.3-0.6-0.7-0.7-1.2
		c-0.2-0.5-0.3-1-0.3-1.6c0-0.5,0.1-0.9,0.2-1.3c0.2-0.4,0.4-0.8,0.7-1.1c0.3-0.3,0.6-0.6,1.1-0.7c0.4-0.2,0.9-0.3,1.4-0.3
		c0.4,0,0.9,0.1,1.2,0.2c0.4,0.1,0.7,0.3,1,0.6c0.3,0.3,0.5,0.6,0.6,1c0.2,0.4,0.2,0.8,0.2,1.3C81.6,58.2,81.6,58.3,81.6,58.4z
		 M85.9,62h-1.9V51.9h1.9V62z M84.4,44.3c-0.7-0.3-1.2-0.7-1.7-1.1c-0.5-0.5-0.8-1.1-1.1-1.7c-0.3-0.7-0.4-1.4-0.4-2.2
		c0-0.8,0.1-1.5,0.4-2.2c0.3-0.7,0.6-1.2,1.1-1.7c0.5-0.5,1.1-0.9,1.7-1.1c0.7-0.3,1.4-0.4,2.2-0.4c0.8,0,1.6,0.1,2.2,0.4
		c0.7,0.3,1.2,0.7,1.7,1.1c0.5,0.5,0.8,1.1,1.1,1.7c0.3,0.7,0.4,1.4,0.4,2.1c0,0.8-0.1,1.5-0.4,2.2c-0.3,0.7-0.6,1.2-1.1,1.7
		c-0.5,0.5-1,0.9-1.7,1.1c-0.7,0.3-1.4,0.4-2.2,0.4C85.8,44.7,85.1,44.6,84.4,44.3z M95,59.9c-0.1,0.4-0.3,0.8-0.6,1.1
		c-0.3,0.3-0.6,0.6-0.9,0.8c-0.4,0.2-0.8,0.3-1.2,0.3c-0.4,0-0.7-0.1-1-0.2c-0.3-0.1-0.5-0.3-0.7-0.5v2.8h-1.9V55h1.1
		c0.2,0,0.4,0.1,0.5,0.3l0.1,0.6c0.1-0.2,0.3-0.3,0.4-0.4c0.2-0.1,0.3-0.2,0.5-0.3c0.2-0.1,0.4-0.2,0.6-0.2c0.2-0.1,0.4-0.1,0.7-0.1
		c0.4,0,0.7,0.1,1,0.2c0.3,0.2,0.6,0.4,0.8,0.7c0.2,0.3,0.4,0.7,0.5,1.1c0.1,0.4,0.2,0.9,0.2,1.5C95.2,59,95.2,59.4,95,59.9z
		 M99.7,61.4c-0.1,0.1-0.1,0.2-0.2,0.3c-0.1,0.1-0.2,0.2-0.3,0.2c-0.1,0.1-0.3,0.1-0.4,0.1c-0.2,0-0.3,0-0.4-0.1
		c-0.1-0.1-0.2-0.1-0.3-0.2c-0.1-0.1-0.2-0.2-0.2-0.3c-0.1-0.1-0.1-0.3-0.1-0.4c0-0.1,0-0.3,0.1-0.4c0.1-0.1,0.1-0.2,0.2-0.3
		c0.1-0.1,0.2-0.2,0.3-0.2c0.1-0.1,0.3-0.1,0.4-0.1c0.2,0,0.3,0,0.4,0.1c0.1,0.1,0.2,0.1,0.3,0.2c0.1,0.1,0.2,0.2,0.2,0.3
		c0.1,0.1,0.1,0.3,0.1,0.4C99.8,61.1,99.8,61.3,99.7,61.4z M97.9,56v-3.9h1.7V56c0,0.4,0,0.8-0.1,1.2c0,0.4-0.1,0.8-0.2,1.2h-1.3
		c-0.1-0.4-0.1-0.8-0.2-1.2C97.9,56.9,97.9,56.4,97.9,56z M106.3,59.4c-0.1,0.5-0.2,1.1-0.3,1.6c-0.1,0.5-0.3,1.1-0.6,1.6
		c-0.2,0.5-0.5,1-0.8,1.5l-0.8-0.5c0,0-0.1-0.1-0.1-0.1c0,0-0.1-0.1-0.1-0.1c0-0.1,0-0.1,0-0.2c0-0.1,0-0.2,0.1-0.3
		c0.4-0.8,0.7-1.6,0.9-2.5c0.2-0.9,0.3-1.8,0.3-2.7c0-0.9-0.1-1.8-0.3-2.7c-0.2-0.9-0.5-1.7-0.9-2.5c-0.1-0.1-0.1-0.2-0.1-0.3
		c0-0.1,0-0.1,0-0.2c0-0.1,0.1-0.1,0.1-0.1c0,0,0.1-0.1,0.1-0.1l0.8-0.5c0.3,0.5,0.6,1,0.8,1.5c0.2,0.5,0.4,1,0.6,1.6
		c0.1,0.5,0.3,1.1,0.3,1.6c0.1,0.5,0.1,1.1,0.1,1.7C106.4,58.3,106.3,58.9,106.3,59.4z M105.6,44.6h-2l-2.2-7c0-0.1-0.1-0.2-0.1-0.3
		c0-0.1-0.1-0.2-0.1-0.4c0,0.1-0.1,0.3-0.1,0.4c0,0.1-0.1,0.2-0.1,0.3l-2.2,7h-2L93.6,34h1.8c0.2,0,0.4,0,0.5,0.1
		c0.1,0.1,0.2,0.2,0.3,0.4l1.6,6c0,0.2,0.1,0.3,0.1,0.5c0,0.2,0.1,0.4,0.1,0.6c0-0.2,0.1-0.4,0.1-0.6c0-0.2,0.1-0.4,0.2-0.5l1.9-6
		c0-0.1,0.1-0.2,0.3-0.3c0.1-0.1,0.3-0.2,0.5-0.2h0.6c0.2,0,0.3,0,0.5,0.1c0.1,0.1,0.2,0.2,0.3,0.3l1.9,6c0.1,0.2,0.1,0.3,0.2,0.5
		c0,0.2,0.1,0.4,0.1,0.6c0-0.2,0.1-0.4,0.1-0.6c0-0.2,0.1-0.4,0.1-0.5l1.6-6c0-0.1,0.1-0.2,0.2-0.3c0.1-0.1,0.3-0.1,0.5-0.1h1.7
		L105.6,44.6z"/>
</g>
</svg>
