<?xml version="1.0" encoding="utf-8"?>
<!-- Generator: Adobe Illustrator 27.4.0, SVG Export Plug-In . SVG Version: 6.00 Build 0)  -->
<svg version="1.1" id="Layer_1" xmlns="http://www.w3.org/2000/svg" xmlns:xlink="http://www.w3.org/1999/xlink" x="0px" y="0px"
	 viewBox="0 0 200 244.9" style="enable-background:new 0 0 200 244.9;" xml:space="preserve">
<style type="text/css">
	.st0{fill:#1B1C1E;}
	.st1{fill:#B37D4F;}
	.st2{opacity:0.88;clip-path:url(#SVGID_00000049942801699316343060000015067899276902339479_);}
	.st3{fill:#322015;}
	.st4{fill:none;stroke:#1B1C1E;stroke-width:0.6665;stroke-linecap:round;stroke-linejoin:round;stroke-miterlimit:10;}
	.st5{fill:#343434;}
	.st6{fill:#BC6464;}
	.st7{opacity:0.88;clip-path:url(#SVGID_00000068653069504313032910000017025567910776863108_);}
	.st8{fill:#1B1C1E;stroke:#1B1C1E;stroke-width:0.6073;stroke-linecap:round;stroke-linejoin:round;stroke-miterlimit:10;}
	.st9{fill:#FFF0DD;}
	.st10{opacity:0.88;clip-path:url(#SVGID_00000047026845856195236510000009411675720836835507_);}
	.st11{opacity:0.88;clip-path:url(#SVGID_00000123428354253923798950000009695256339849178024_);}
	.st12{fill:none;stroke:#1B1C1E;stroke-width:0.3242;stroke-linecap:round;stroke-linejoin:round;stroke-miterlimit:10;}
	.st13{fill:#5F6C72;}
	.st14{fill:#1B1C1E;stroke:#1B1C1E;stroke-width:0.3943;stroke-linecap:round;stroke-linejoin:round;stroke-miterlimit:10;}
	.st15{opacity:0.88;clip-path:url(#SVGID_00000170241198536375192160000013381363667804212875_);}
	.st16{fill:#8C7265;}
	.st17{opacity:0.88;clip-path:url(#SVGID_00000127763127758527792610000001038716770347198644_);}
	.st18{fill:none;stroke:#1B1C1E;stroke-width:0.2427;stroke-linecap:round;stroke-linejoin:round;stroke-miterlimit:10;}
	.st19{fill:#1B1C1E;stroke:#1B1C1E;stroke-width:0.2631;stroke-linecap:round;stroke-linejoin:round;stroke-miterlimit:10;}
	.st20{opacity:0.88;clip-path:url(#SVGID_00000103971147123442223080000004809698073362043536_);}
	.st21{fill:none;stroke:#1B1C1E;stroke-width:0.2631;stroke-linecap:round;stroke-linejoin:round;stroke-miterlimit:10;}
	.st22{fill:#637189;}
	.st23{fill:#A7BC79;}
</style>
<g id="Illustration_2_">
	<g>
		<path class="st0" d="M28.7,222c0,0-6.2,1.4,10.8,1.8s107.1,0.6,116.4,0c9.3-0.6,27.3-0.3,3.3-1.8s-48.5-0.6-72.7-1.5
			C62.4,219.5,32.3,220.4,28.7,222z"/>
		<g>
			<path class="st1" d="M140.3,176.3c0,0-0.3,26.5,10.5,40.5c0,0,7.8-0.1,7.2,5.3c0,0-9.4,0-10.7,0s-8.1-8.2-11.8-13.9
				c0,0-1.5,2.2-1.6-1.5c0,0-1,1.6-1.8,0.7c-0.8-0.9,0-5.9,0-5.9s-0.9,1.7-1.7,1c-0.8-0.7-0.3-4.3-0.3-4.3s-2,2.3-1.7-1.1
				S134.9,177.6,140.3,176.3z"/>
			<g>
				<g>
					<defs>
						<path id="SVGID_1_" d="M140.3,176.3c0,0-0.3,26.5,10.5,40.5c0,0,7.8-0.1,7.2,5.3c0,0-9.4,0-10.7,0s-8.1-8.2-11.8-13.9
							c0,0-1.5,2.2-1.6-1.5c0,0-1,1.6-1.8,0.7c-0.8-0.9,0-5.9,0-5.9s-0.9,1.7-1.7,1c-0.8-0.7-0.3-4.3-0.3-4.3s-2,2.3-1.7-1.1
							S134.9,177.6,140.3,176.3z"/>
					</defs>
					<clipPath id="SVGID_00000146483353767933617820000016181276185078458016_">
						<use xlink:href="#SVGID_1_"  style="overflow:visible;"/>
					</clipPath>
					<g style="opacity:0.88;clip-path:url(#SVGID_00000146483353767933617820000016181276185078458016_);">
						<g>
							<g>
								<g>
									<path class="st3" d="M138.9,180.8c0,0.1,0.1,0.1,0.1,0.1S139,180.8,138.9,180.8z"/>
									<path class="st3" d="M141.2,178.3C141.2,178.3,141.2,178.3,141.2,178.3L141.2,178.3L141.2,178.3z"/>
									<path class="st3" d="M141.1,178.3l-0.1-0.1C141.1,178.2,141.1,178.3,141.1,178.3z"/>
									<path class="st3" d="M139.5,181.7c0,0.1,0.1,0.1,0.1,0.2L139.5,181.7z"/>
									<path class="st3" d="M140.2,181.9L140.2,181.9L140.2,181.9z"/>
									<path class="st3" d="M136.5,182.5C136.5,182.5,136.5,182.4,136.5,182.5C136.5,182.4,136.5,182.5,136.5,182.5z"/>
									<path class="st3" d="M136.5,182.9C136.5,182.9,136.4,182.9,136.5,182.9L136.5,182.9C136.5,182.9,136.5,182.9,136.5,182.9z"
										/>
									<path class="st3" d="M136.7,183L136.7,183L136.7,183z"/>
									<path class="st3" d="M136.6,185.5l0.1,0.2C136.7,185.5,136.6,185.5,136.6,185.5z"/>
									<path class="st3" d="M136.4,182.3c0,0.1,0.1,0.1,0.1,0.1C136.4,182.4,136.5,182.4,136.4,182.3z"/>
									<path class="st3" d="M138.9,180.7L138.9,180.7C138.9,180.7,138.9,180.7,138.9,180.7z"/>
									<path class="st3" d="M139.3,181.8L139.3,181.8L139.3,181.8z"/>
									<path class="st3" d="M141.8,177.2c0-0.1,0-0.1,0-0.1C141.7,177.1,141.7,177.2,141.8,177.2z"/>
									<path class="st3" d="M137.3,182.2c0.4,0.3-0.1,0.1,0.3,0.4c0-0.1-0.1-0.2,0.2-0.1c0.2,0.2-0.1,0.1,0.2,0.4l-0.1-0.2
										c0.2,0.1,0.3,0.4,0.4,0.3c-0.3-0.5,0.4-0.1,0.4-0.2v0.1l0.3,0.1l0,0l-0.1-0.1c0.2,0.2,0.4,0.2,0.5,0.1
										c-0.2-0.3,0.2-0.4,0.1-0.6c0,0.1,0,0.1-0.1,0.1l-0.3-0.3c0.1-0.1,0.3,0.3,0.2,0c-0.4-0.4-0.1,0.1-0.2,0.1
										c-0.1-0.1-0.1-0.2-0.1-0.3c-0.1,0.1-0.4,0.1-0.1,0.5c-0.1-0.1-0.3-0.2-0.3-0.3c0.1,0.3-0.3-0.2-0.2,0.1
										c-0.3-0.4,0-0.3-0.2-0.6c0.4,0.2,0.3-0.2,0.3-0.4c0.3,0.3,0.4,0.5,0.6,0.6c0.3,0.1,0-0.3-0.1-0.4c0.2,0,0.4,0.4,0.6,0.3
										l0.1,0.2c0.4,0.3-0.1-0.2,0.1-0.2c-0.1-0.1-0.2-0.2-0.3-0.1c-0.2-0.1-0.2-0.2-0.2-0.3l0,0c-0.2-0.2-0.3-0.4-0.2-0.4
										c0.2,0.3,0.2,0.1,0.3,0.2l0.1,0.1c0-0.1,0.1-0.2,0.1-0.2l0.1,0.1c-0.1-0.1-0.3-0.4-0.2-0.4c0.1,0.1,0.3,0.5,0.4,0.3
										c0.2,0.2,0.1,0.3,0,0.3c0.1,0,0.4,0.2,0.4,0.3c0.2,0.2,0-0.2,0.1-0.1c-0.1-0.1-0.1-0.1-0.2-0.2c0.3,0.3,0.2-0.2-0.1-0.3
										l0.1,0.2c-0.2-0.2-0.3-0.4-0.5-0.5c0.4,0.3,0-0.4,0.4-0.2l-0.2-0.1c0.3-0.1-0.1-0.6,0-0.8c0.1,0.2,0.5,0.5,0.3,0.5
										c0.2-0.1,0.4,0.3,0.7,0.4c0.3,0-0.3-0.4-0.4-0.5v0.2c-0.4-0.5,0.4-0.3,0.2-0.6c0.2,0.1,0.1,0.1,0.1,0.2
										c0.3,0.1,0-0.1-0.1-0.2c0.1-0.1,0.3-0.1,0.6,0.2c0.2-0.1-0.2-0.1-0.3-0.3l0.1,0.1l-0.3-0.4c0.2,0,0.4,0,0.7,0.2
										c0.1-0.2-0.6-0.6-0.7-0.8c0.2,0.1,0.2,0.2,0.4,0.3l0.1-0.2c0.3,0.3,0.1,0.3,0.5,0.5c-0.3-0.4,0-0.2-0.2-0.5h-0.1
										c-0.3-0.3,0.1-0.3,0.1-0.4c0.2,0.2,0.1,0.3,0.1,0.4c0.2,0,0.2-0.3-0.1-0.6c0.1,0,0.3-0.1,0.4,0.2c0.2-0.2-0.5-0.4-0.3-0.5
										l0.3,0.2c0.5,0.1-0.2-0.6,0.3-0.5l-0.4-0.2c0.2,0.1,0.3,0,0.4,0.1l0.1,0.2c0.3,0.1-0.2-0.3,0.1-0.2
										c-0.1-0.1-0.4-0.1-0.5-0.2c0,0.5-0.7,0.5-0.6,1.1c0.1,0,0.1,0.1,0.2,0.1c-0.1,0-0.1,0.1-0.3,0v-0.1c0,0.2-0.5-0.1-0.5,0
										c0.2,0.2-0.2,0.1,0.2,0.4l-0.3-0.1c0.2,0.1,0.3,0.3,0.4,0.3c-0.1,0.1-0.2-0.1-0.3-0.2c-0.3,0.2-0.5,0.4-0.5,0.7l-0.1-0.2
										c-0.1,0,0.2,0.4-0.3,0.1c0.1,0.3-0.4,0.2,0.1,0.6c-0.5-0.3-0.4,0.1-0.5,0.3c0.4,0.3,0,0.2,0.2,0.4
										c-0.3-0.2-0.2-0.4-0.4-0.6c0.3,0.5-0.7,0.1,0,0.8c-0.1,0-0.1-0.1-0.1-0.1c-0.1,0.1-0.2-0.1-0.3-0.1
										c0.1,0.2,0.2,0.1,0.2,0.3c-0.1,0.1-0.3-0.2-0.4-0.3c0.1,0.3,0,0.5,0.3,0.8c-0.1-0.1-0.3-0.2-0.3-0.3
										c0.1,0.4-0.2,0.1-0.2,0.4c0.1-0.1-0.3-0.3-0.1-0.3c-0.5-0.3-0.2,0.3-0.5,0.2l0.2,0.3c-0.1,0.1-0.3-0.1-0.3-0.3
										c-0.3-0.1-0.2,0.2-0.3,0.3c-0.1-0.1-0.1-0.1-0.1-0.1l-0.2,0.1c0.1,0.1,0.1,0.3,0.3,0.4
										C137.2,182.3,137.2,182.2,137.3,182.2z"/>
									<path class="st3" d="M137.3,182.5L137.3,182.5L137.3,182.5C137.4,182.5,137.3,182.5,137.3,182.5z"/>
									<path class="st3" d="M139.9,182.2c-0.1-0.1-0.1-0.1-0.2-0.1C139.8,182.2,139.8,182.2,139.9,182.2z"/>
									<path class="st3" d="M136.2,184.2c0.4,0.4,0.1-0.2,0.2-0.1c0,0.1,0.2,0.4,0.3,0.5c-0.4-0.6,0.2,0.1,0.3-0.2
										c0.2,0.2,0.1,0.3,0.3,0.5c0-0.2,0.1-0.4-0.2-0.7c0.2-0.1,0.4-0.1,0.4-0.2c0,0.2,0.3,0.3,0.4,0.7c-0.2-0.5-0.3-1.1-0.5-1.6
										c0.3,0.3,0.4,0.4,0.6,0.7c0.4,0.1-0.2-0.4,0.1-0.4h-0.1c0-0.2-0.3-0.5-0.5-0.7l-0.2,0.2c-0.2-0.2-0.1-0.3-0.1-0.4
										c-0.2-0.3-0.3-0.1-0.4-0.3c0.2,0.2,0,0.2,0.1,0.3l-0.1-0.1c-0.2-0.1,0.1,0.3-0.1,0.4c-0.1-0.1-0.1-0.1-0.1-0.1
										c0.1,0.2,0.2,0.4,0.2,0.4v-0.1c0.2,0.4,0.2,0.7,0.5,0.9l-0.3,0.1c-0.3-0.4-0.6-0.9-0.5-1l-0.1-0.2c-0.2-0.1,0,0.4,0.3,0.7
										c0.6,0.9-0.3,0.3-0.2,0.7c-0.2-0.2-0.2-0.4-0.3-0.5c0-0.1,0.1-0.1,0.2,0.1c0.1-0.3-0.6-0.7-0.3-0.7
										c0.2,0.1,0.2,0.5,0.3,0.4l-0.4-0.7c-0.1,0.1-0.1,0.3-0.1,0.4c-0.1,0.4-0.2,0.5-0.4,0.6c-0.2,0.1-0.3,0-0.3,0
										c-0.6,0.5-1.2,1-1.8,1.4c-0.2,0.2-0.3,0.2,0,1c0.1,0.1,0.2,0,0.3,0.3c-0.1-0.3-0.1-0.5,0.1-0.5c0.2,0.3-0.1,0.2,0,0.2h0.1
										c0.1,0.2,0.1,0.2,0.1,0.3c0.3,0.3,0.6,0.1,0.4-0.4c0.3,0.2,0.2,0.4,0.2,0.6c0.5-0.1,0.7-0.2,1.2-0.4
										c-0.3-0.4-0.1-0.3-0.3-0.6l0.1,0.2c-0.1-0.1-0.2-0.4-0.3-0.4c0.4,0.2-0.1-0.7-0.1-1l0.2,0.2c0.1-0.1,0.1-0.2,0.2-0.3
										c0.5,0.3-0.1,0.2,0.3,0.6v-0.1c0.1,0.2,0.3,0.6,0.4,0.8c-0.1-0.5,0.4-0.1,0.4-0.5c0.2,0.3,0.1,0.6,0.1,0.6
										c0.1,0,0.1-0.3,0.3-0.1l-0.2-0.3c0.1-0.1,0.2,0.3,0.4,0.4C137,185.3,136.1,184.6,136.2,184.2z"/>
									<path class="st3" d="M138.9,182.2c-0.1,0-0.1,0.1-0.1,0.1C138.9,182.3,138.9,182.2,138.9,182.2z"/>
									<path class="st3" d="M138.9,183.2c0.1,0.1,0.1,0.1,0.1,0.1C139,183.2,138.9,183.2,138.9,183.2z"/>
									<path class="st3" d="M139.2,183.6c-0.1-0.1-0.1-0.2-0.2-0.3C139,183.4,138.9,183.5,139.2,183.6z"/>
									<path class="st3" d="M145.2,174.2c-0.1-0.1-0.2-0.2-0.3-0.2l0.1,0.2L145.2,174.2z"/>
									<path class="st3" d="M144.7,174.3l-0.2,0.1l0.4,0.3C145,174.5,144.7,174.4,144.7,174.3z"/>
									<path class="st3" d="M144.4,174.5l-0.1-0.1C144.3,174.5,144.3,174.5,144.4,174.5z"/>
									<path class="st3" d="M144.5,174.6l0.3,0.2l-0.2-0.3L144.5,174.6c-0.1-0.1-0.1-0.1-0.2-0.1L144.5,174.6
										C144.5,174.7,144.5,174.6,144.5,174.6z"/>
									<path class="st3" d="M144.5,174.7c0.1,0,0.1,0,0.1,0.1C144.6,174.8,144.5,174.8,144.5,174.7z"/>
									<path class="st3" d="M143.8,174.8c0.1,0,0.3,0.2,0.4,0.2c0.2-0.1-0.3-0.3-0.1-0.3c0.2,0.3,0.2,0,0.4,0.1
										c-0.3-0.1-0.5-0.1-0.7-0.1l0.2,0.1C144,174.9,143.9,174.8,143.8,174.8z"/>
									<path class="st3" d="M144,175.6l-0.3-0.2c0.2,0.1,0.2-0.1,0.5,0.1c0-0.1-0.2-0.2-0.2-0.2c0.2,0.1,0.3,0.1,0.1-0.1
										c-0.3,0.2-0.4,0.1-0.5,0.2c-0.1-0.1-0.1-0.1,0-0.1l-0.2,0.1C143.8,175.5,143.7,175.6,144,175.6z"/>
									<path class="st3" d="M143.7,175.7c0.1-0.1-0.2-0.3-0.4-0.3l0.2,0.3C143.4,175.6,143.4,175.5,143.7,175.7z"/>
									<path class="st3" d="M143.6,175.8c-0.2-0.1-0.5-0.2-0.3,0.1C143.3,175.8,143.8,176,143.6,175.8z"/>
									<path class="st3" d="M143,176.4l0.3-0.1c0.4,0.2,0.1,0.2,0.2,0.3c0.2-0.1,0-0.2-0.2-0.4c0.1-0.1-0.1-0.2-0.2-0.3
										C143.3,176.3,142.3,175.8,143,176.4z"/>
									<polygon class="st3" points="143.6,176.2 143.4,176.1 143.5,176.3 									"/>
									<path class="st3" d="M142.3,176.6c-0.5-0.2,0.2,0.4-0.1,0.4c0-0.1-0.1-0.1-0.1-0.1v0.1l-0.1-0.1c0.3,0.2,0.3,0.3,0.5,0.5
										c0.4,0.1-0.3-0.3,0.1-0.2c0.1,0.1,0.3,0.2,0.4,0.3c-0.1-0.2-0.3-0.3-0.4-0.4c0-0.1,0.2,0,0.3,0.1c-0.1-0.2-0.5-0.4-0.3-0.5
										c0.3,0.1,0.4,0.3,0.3,0.1c-0.5-0.2,0.2-0.1-0.1-0.3c0.2-0.1,0.4,0,0.6,0.1c-0.3-0.2-0.6-0.4-0.6-0.5l0.2,0.3l-0.4-0.2
										C142.5,176.5,142.4,176.6,142.3,176.6L142.3,176.6z"/>
									<path class="st3" d="M142.9,177.6L142.9,177.6C143,177.7,142.9,177.6,142.9,177.6z"/>
									<polygon class="st3" points="143.3,176.7 143.4,176.8 143.6,176.9 									"/>
									<path class="st3" d="M143.1,177.8l-0.1-0.1L143.1,177.8L143.1,177.8z"/>
									<polygon class="st3" points="142.8,177.8 142.6,177.7 142.7,177.8 									"/>
									<path class="st3" d="M141.1,179.9c0.2,0-0.1-0.2-0.3-0.3C140.8,179.7,141.1,179.8,141.1,179.9z"/>
									<path class="st3" d="M140.4,181.5c0.2,0.1,0.1-0.2,0.1-0.3C140.3,181.2,140.3,181.3,140.4,181.5z"/>
									<path class="st3" d="M140.7,182.7c-0.1-0.1-0.1-0.2-0.2-0.1l-0.3-0.4C140,182.1,140.5,182.6,140.7,182.7z"/>
									<path class="st3" d="M140.1,183.4l-0.1-0.3l-0.1,0.1c-0.1-0.2-0.2-0.3-0.3-0.4C139.8,182.9,139.8,183.1,140.1,183.4z"/>
									<path class="st3" d="M139.8,182.6L139.8,182.6C139.8,182.7,139.9,182.8,139.8,182.6z"/>
									<path class="st3" d="M139.7,182.7C139.7,182.7,139.7,182.8,139.7,182.7C139.8,182.7,139.8,182.7,139.7,182.7
										C139.7,182.7,139.6,182.6,139.7,182.7z"/>
									<path class="st3" d="M139.9,183.3l-0.1,0.2h0.2C139.6,183.2,140.1,183.6,139.9,183.3z"/>
									<path class="st3" d="M138.7,183.9l-0.3-0.2c-0.2,0.1,0.2,0.7-0.3,0.4c0.2,0.1,0.2,0.4,0.4,0.3
										C138.5,184.1,138.6,183.9,138.7,183.9z"/>
									<path class="st3" d="M138,183.9c-0.1-0.1-0.1-0.1-0.2-0.2c-0.1,0,0,0.2,0.1,0.3C137.7,183.7,138.2,184.2,138,183.9z"/>
									<path class="st3" d="M137.5,184.4c0.1-0.1,0.1-0.1-0.1-0.1c-0.1,0.1,0.2,0.4,0.3,0.6C138,184.9,137.7,184.5,137.5,184.4z"
										/>
									<path class="st3" d="M135.3,183.1c0.2,0.2,0.2,0.1,0.2,0.1C135.5,183.2,135.4,183.1,135.3,183.1z"/>
									<polygon class="st3" points="136.7,185 136.7,185 136.5,184.6 									"/>
									<polygon class="st3" points="136.2,185.6 136.3,185.9 136.3,185.8 									"/>
									<path class="st3" d="M136,185.7l-0.1,0.1l0.1,0.1C136.1,185.8,135.9,185.7,136,185.7z"/>
									<path class="st3" d="M135.7,185.9C135.7,185.9,135.8,185.9,135.7,185.9l0.1-0.2L135.7,185.9z"/>
									<path class="st3" d="M133.1,185.4c-0.1-0.3-0.1-0.1-0.2-0.1C133,185.3,133.2,185.6,133.1,185.4z"/>
								</g>
							</g>
						</g>
					</g>
				</g>
			</g>
			<path class="st4" d="M155.7,222.1c0,0,0.1-2-1.3-2.8"/>
			<path class="st1" d="M77.8,207.1c0,0-2.7,6.3-12.4,3.2s-12.6-4.1-19.1-2.7s-9.7,7.2-11.4,9.4c-1.7,2.2-2.9,3.7-3.9,4.3
				c-1,0.6,2,0.6,3.2,0.3c0,0-1.5,0.8-0.6,1.2c0.8,0.4,5.4-0.4,5.4-0.4s-1,0.6-0.3,1s4.1-0.9,14.9-0.6c10.8,0.3,20.4-2,26.3-9.3
				C85.9,206,80.1,204.5,77.8,207.1z"/>
			<path class="st5" d="M81.5,206.2c-1.3,2.7-4.6,8.2-10,10.5c-7.2,2.9-14.3,1.7-19.3-0.7c-5-2.4-6.1-2-6.7-2.1
				c-0.5-0.2,0.9-0.9,0.9-0.9s-4.1,0.5-3.1-0.6c1.1-1.1-0.2-1-1.2-0.8c-2.5,0.4-4.9,2.2-5,2.3c1.9-2.5,4.8-5.3,9.1-6.2
				c6.6-1.4,9.4-0.4,19.1,2.7c9.8,3.1,12.4-3.2,12.4-3.2C78.8,206,80.5,205.6,81.5,206.2z"/>
			<path class="st6" d="M154.7,112c0,0,1.3,0.6,4,0c2.7-0.6,4.5-1.3,5.2-0.2c0,0-5.7,3.9-9.1,5c-3.5,1.1-4.9,0.9-4.9,0
				C149.9,115.9,152.5,111.7,154.7,112z"/>
			<path class="st1" d="M133.7,102.3c0,0,3.5-1.7,7.7-1.7c4.2,0.1,6.3,1.7,6.3,1.7s12.2-4.5,13.6-4.9c1.5-0.4,2.2,4.5,1,7.6
				c-1.3,3.1-4.8,5.4-7,6.7c-2.2,1.2-4.2,3.3-4,4.5c0.2,1.2,11.9-4.2,12.4-4.4c0.5-0.2,0.8,2.9-2.6,4.9c-3.5,2.1-7.7,4.4-8.5,5.3
				c-0.8,1-2.1,3.5-2.2,3.9c-0.1,0.3,1.7,4.8,0.4,5c-1,0.2-1.2-0.4-1.2-0.4s0.4,2.5,0,2.6c-0.4,0.1-1.1-0.6-1.1-0.6
				s-0.2,4.8,0.4,7.1c0.5,2.3-0.1,2.4-1.1,2c0,0,1.7,6.8,2.2,14.9c0.4,8.1,0.1,8.7-0.8,8.5c0,0-0.1,4.8-1.3,5.7
				c-0.6,0.5-1.1,0-1.1,0s-0.3,5.5-1.7,6.3c-1,0.6-1.4-1.3-1.4-1.3s-3.9,6.4-9.9,8.8c-6.1,2.3-9.2,12.7-9.2,12.7s-4.8,4.8-5.4,5.5
				c-0.7,0.7-1.8,5-3.1,2.9c0,0-1.1,4.8-2.6,3.1c0,0-2.2,3.7-2.2,6.7c0,0,5.3-0.2,8.4,0.4c3.1,0.6,6.4,3.1,5.8,6.4
				c0,0-34.6,0-37.5,0s-10.4-9.4-12.6-23.3c-2.1-12.6,3.1-26.8,13.2-36.6s23.7-21.6,26.5-24.3c2.9-2.7,4.8-7.7,5.7-10.8
				c0.9-3.1,5.7-17,5.7-17s-4.5-11.8-5.2-13C120.7,96.3,127.5,93.3,133.7,102.3z"/>
			<g>
				<g>
					<defs>
						<path id="SVGID_00000044180095380499812260000007320477016000372899_" d="M133.7,102.3c0,0,3.5-1.7,7.7-1.7
							c4.2,0.1,6.3,1.7,6.3,1.7s12.2-4.5,13.6-4.9c1.5-0.4,2.2,4.5,1,7.6c-1.3,3.1-4.8,5.4-7,6.7c-2.2,1.2-4.2,3.3-4,4.5
							c0.2,1.2,11.9-4.2,12.4-4.4c0.5-0.2,0.8,2.9-2.6,4.9c-3.5,2.1-7.7,4.4-8.5,5.3c-0.8,1-2.1,3.5-2.2,3.9c-0.1,0.3,1.7,4.8,0.4,5
							c-1,0.2-1.2-0.4-1.2-0.4s0.4,2.5,0,2.6c-0.4,0.1-1.1-0.6-1.1-0.6s-0.2,4.8,0.4,7.1c0.5,2.3-0.1,2.4-1.1,2
							c0,0,1.7,6.8,2.2,14.9c0.4,8.1,0.1,8.7-0.8,8.5c0,0-0.1,4.8-1.3,5.7c-0.6,0.5-1.1,0-1.1,0s-0.3,5.5-1.7,6.3
							c-1,0.6-1.4-1.3-1.4-1.3s-3.9,6.4-9.9,8.8c-6.1,2.3-9.2,12.7-9.2,12.7s-4.8,4.8-5.4,5.5c-0.7,0.7-1.8,5-3.1,2.9
							c0,0-1.1,4.8-2.6,3.1c0,0-2.2,3.7-2.2,6.7c0,0,5.3-0.2,8.4,0.4c3.1,0.6,6.4,3.1,5.8,6.4c0,0-34.6,0-37.5,0
							s-10.4-9.4-12.6-23.3c-2.1-12.6,3.1-26.8,13.2-36.6s23.7-21.6,26.5-24.3c2.9-2.7,4.8-7.7,5.7-10.8c0.9-3.1,5.7-17,5.7-17
							s-4.5-11.8-5.2-13C120.7,96.3,127.5,93.3,133.7,102.3z"/>
					</defs>
					<clipPath id="SVGID_00000023982099589927278490000001210314224556768173_">
						<use xlink:href="#SVGID_00000044180095380499812260000007320477016000372899_"  style="overflow:visible;"/>
					</clipPath>
					<g style="opacity:0.88;clip-path:url(#SVGID_00000023982099589927278490000001210314224556768173_);">
						<g>
							<g>
								<g>
									<path class="st3" d="M122.7,198.8c-0.1,0-0.1-0.1-0.2-0.1C122.6,198.8,122.6,198.8,122.7,198.8z"/>
									<path class="st3" d="M121.9,202.8L121.9,202.8L121.9,202.8L121.9,202.8z"/>
									<path class="st3" d="M122,202.8l0.2,0.1C122.1,202.8,122,202.8,122,202.8z"/>
									<path class="st3" d="M121.5,198.4c-0.1-0.1-0.1-0.1-0.2-0.1L121.5,198.4z"/>
									<path class="st3" d="M120.7,198.7c-0.1,0-0.1,0-0.1,0C120.7,198.7,120.7,198.7,120.7,198.7z"/>
									<path class="st3" d="M123.4,195.2L123.4,195.2C123.5,195.3,123.5,195.2,123.4,195.2z"/>
									<path class="st3" d="M123.1,195L123.1,195L123.1,195C123,194.9,123.1,194.9,123.1,195z"/>
									<path class="st3" d="M122.9,195.1L122.9,195.1C122.9,195,122.9,195,122.9,195.1z"/>
									<path class="st3" d="M120.8,193.1h-0.2C120.7,193.1,120.7,193.1,120.8,193.1z"/>
									<path class="st3" d="M123.7,195.4c-0.1,0-0.1-0.1-0.2-0.1C123.6,195.3,123.6,195.4,123.7,195.4z"/>
									<path class="st3" d="M122.8,198.9c-0.1,0-0.1,0-0.1,0C122.7,198.9,122.8,198.9,122.8,198.9z"/>
									<path class="st3" d="M121.6,198.2L121.6,198.2L121.6,198.2z"/>
									<path class="st3" d="M121.8,204.3c0,0.1,0,0.1,0.1,0.1C121.9,204.3,121.9,204.3,121.8,204.3z"/>
									<path class="st3" d="M123,196.3c-0.6,0,0-0.2-0.5-0.2c0.1,0.1,0.2,0.2-0.1,0.2c-0.3-0.1,0.1-0.2-0.4-0.2l0.2,0.1
										c-0.2,0.1-0.6-0.1-0.6,0c0.6,0.2-0.3,0.3-0.2,0.4l-0.1-0.1l-0.3,0.2c0,0,0,0-0.1,0c0.1,0,0.1,0,0.1,0
										c-0.3,0.1-0.5,0.2-0.5,0.3c0.4,0.1,0.1,0.4,0.4,0.5c-0.1-0.1-0.1-0.1,0-0.2l0.4,0.1c0,0.1-0.4,0-0.2,0.1
										c0.6,0,0-0.2,0.1-0.3c0.2,0.1,0.3,0.1,0.3,0.2c0.1-0.2,0.3-0.3-0.3-0.5c0.1-0.1,0.4,0,0.4,0.1c-0.3-0.2,0.4-0.1,0.1-0.2
										c0.5,0.1,0.3,0.3,0.6,0.4c-0.4,0.2-0.1,0.4,0,0.6c-0.4,0-0.7-0.2-1-0.1c-0.3,0.2,0.2,0.2,0.4,0.3c-0.2,0.1-0.7-0.1-0.7,0.2
										l-0.3-0.2c-0.6,0.1,0.2,0.1,0.1,0.2c0.2,0,0.3,0,0.3-0.1c0.2,0,0.3,0.1,0.3,0.1l0,0c0.3,0.1,0.6,0.1,0.4,0.2
										c-0.3-0.1-0.3,0.1-0.4,0.1l-0.1-0.1c0.1,0.1,0.1,0.2,0.1,0.3h-0.1c0.2,0.1,0.5,0.2,0.5,0.2c-0.2,0-0.6-0.2-0.5-0.1
										c-0.3-0.1-0.3-0.2-0.2-0.3c-0.1,0.1-0.5,0.1-0.5,0c-0.3,0,0.1,0.1,0,0.2c0.1,0,0.2,0,0.3,0.1c-0.4-0.1-0.1,0.3,0.3,0.3
										l-0.2-0.2c0.4,0,0.6,0.2,0.8,0.2c-0.6,0,0.3,0.4-0.2,0.4h0.3c-0.2,0.2,0.4,0.5,0.5,0.8c-0.2-0.1-0.8-0.2-0.5-0.3
										c-0.2,0.2-0.6,0-0.9,0.1c-0.3,0.2,0.5,0.2,0.7,0.2l-0.1-0.2c0.7,0.2-0.2,0.5,0.2,0.8c-0.2,0-0.1-0.1-0.2-0.1
										c-0.4,0.1,0.1,0.1,0.2,0.2c-0.1,0.1-0.3,0.3-0.7,0.1c-0.1,0.1,0.3,0,0.4,0.1h-0.1l0.5,0.2c-0.2,0.1-0.4,0.2-0.8,0.2
										c0.1,0.3,1,0.2,1.1,0.4c-0.3,0.1-0.3-0.1-0.5-0.1l0.1,0.2c-0.5-0.1-0.2-0.2-0.8-0.3c0.6,0.2,0.2,0.2,0.5,0.4h0.1
										c0.4,0.1,0.1,0.3,0.2,0.4c-0.2-0.1-0.3-0.2-0.3-0.3c-0.2,0.1-0.1,0.4,0.4,0.6c-0.1,0.1-0.3,0.2-0.5,0.1
										c-0.1,0.3,0.7,0.2,0.5,0.4l-0.4-0.1c-0.6,0.2,0.4,0.5-0.1,0.7l0.5,0.1c-0.2,0-0.3,0.1-0.5,0.1l-0.2-0.2
										c-0.4,0.1,0.4,0.2,0.1,0.3c0.2,0,0.5-0.1,0.6,0c-0.2-0.5,0.5-1,0.1-1.5c-0.1,0-0.1,0.1-0.2,0c0.1-0.1,0-0.2,0.3-0.1h0.1
										c-0.1-0.2,0.5-0.2,0.5-0.3c-0.3-0.1,0.2-0.3-0.4-0.3l0.4-0.1c-0.2-0.1-0.5-0.1-0.6-0.1c0.1-0.1,0.3-0.1,0.4,0
										c0.3-0.3,0.2-0.7,0.1-1.1l0.3,0.1c0.2-0.1-0.4-0.4,0.2-0.2c-0.3-0.2,0.2-0.5-0.5-0.5c0.7-0.1,0.3-0.4,0.3-0.6
										c-0.6,0-0.2-0.2-0.4-0.3c0.5,0,0.4,0.3,0.7,0.3c-0.7-0.3,0.6-0.6-0.6-0.8c0.1,0,0.1,0,0.2,0c0-0.1,0.2-0.1,0.3-0.2
										c-0.2-0.1-0.3,0.1-0.4-0.1c0.1-0.1,0.4,0,0.5-0.1c-0.3-0.2-0.3-0.5-0.8-0.5c0.1-0.1,0.4-0.1,0.5,0
										c-0.4-0.3,0.1-0.3-0.1-0.5c0,0.1,0.5,0.1,0.3,0.2c0.7-0.1-0.1-0.4,0.3-0.6l-0.4-0.1c-0.1-0.2,0.3-0.1,0.5,0
										c0.3-0.2,0-0.4,0.1-0.5c0.1,0,0.2,0,0.1,0.1l0.1-0.3c-0.1-0.1-0.3-0.2-0.6-0.2C123,196.1,123.1,196.1,123,196.3z"/>
									<path class="st3" d="M122.8,196L122.8,196L122.8,196C122.7,196,122.7,196,122.8,196z"/>
									<path class="st3" d="M120.8,198.2c0.1,0,0.2-0.1,0.2-0.1C120.9,198.2,120.8,198.2,120.8,198.2z"/>
									<path class="st3" d="M122.1,193.6c-0.6,0,0.1,0.2-0.1,0.3c-0.1-0.1-0.5-0.1-0.6-0.1c0.8,0.2-0.2,0.2,0,0.4
										c-0.3,0-0.3-0.1-0.6-0.2c0.2,0.2,0.3,0.3,0.8,0.4c0,0.2-0.2,0.4-0.1,0.5c-0.2-0.2-0.5-0.1-0.8-0.2c0.5,0.2,1.2,0.6,1.8,0.8
										c-0.5,0-0.6,0-1-0.1c-0.4,0.3,0.5,0.1,0.3,0.4l0.1-0.1c0.2,0.1,0.6,0.2,1,0.2l-0.1-0.3c0.4,0,0.3,0.2,0.4,0.3
										c0.4,0.1,0.3-0.2,0.6-0.1c-0.3-0.1-0.2-0.2-0.3-0.3h0.2c0.2-0.1-0.3-0.2-0.3-0.4c0.1,0,0.1,0,0.1,0
										c-0.2-0.1-0.5-0.1-0.5-0.2v0.1c-0.4-0.1-0.7-0.4-1.2-0.3l0.2-0.3c0.5,0.1,1.2,0.2,1.3,0.3l0.2,0.1c0.3-0.1-0.4-0.4-0.8-0.3
										c-1.2-0.2,0-0.5-0.5-0.7c0.3,0,0.4,0.1,0.7,0.2c0.1,0.1,0.1,0.1-0.2,0.1c0.2,0.3,1,0,0.9,0.3c-0.2,0.2-0.5-0.2-0.6,0
										l0.9,0.2c0-0.2-0.2-0.3-0.3-0.4c-0.6-0.7-0.1-1.1-0.1-1.1c-0.1-1-0.2-1.9-0.2-2.9c-0.1-0.3-0.1-0.4-1-0.5
										c-0.2,0.1-0.1,0.3-0.4,0.2c0.3,0.1,0.5,0.2,0.5,0.3c-0.3,0-0.2-0.2-0.2-0.1v0.1c-0.2,0-0.3-0.1-0.3-0.1
										c-0.5,0.2-0.4,0.5,0.2,0.6c-0.3,0.2-0.5-0.1-0.7-0.2c-0.3,0.5-0.2,0.8-0.3,1.3c0.6,0,0.4,0.1,0.7,0.2l-0.2,0.1
										c0.1,0,0.5,0.1,0.6-0.1c-0.5,0.3,0.7,0.4,1,0.6h-0.3c0.1,0.2,0.1,0.2,0.2,0.4c-0.6,0.3-0.1-0.2-0.8-0.2l0.1,0.1
										c-0.3-0.1-0.8-0.1-1-0.2c0.5,0.3-0.2,0.4,0.2,0.6c-0.3-0.1-0.6-0.3-0.6-0.4c-0.1,0.1,0.2,0.3-0.1,0.3l0.4,0.1
										c0.1,0.2-0.4-0.1-0.6,0C120.6,193.6,121.9,193.3,122.1,193.6z"/>
									<path class="st3" d="M121.7,197.5c0.1-0.1,0-0.1,0-0.1C121.6,197.4,121.6,197.5,121.7,197.5z"/>
									<path class="st3" d="M120.9,196.7c-0.1,0-0.1,0-0.2,0C120.8,196.7,120.9,196.7,120.9,196.7z"/>
									<path class="st3" d="M120.3,196.6c0.2,0,0.2,0.1,0.4,0.1C120.7,196.6,120.7,196.5,120.3,196.6z"/>
									<path class="st3" d="M119.1,208.7c0.1,0.1,0.2,0.2,0.3,0.2l-0.1-0.2H119.1z"/>
									<path class="st3" d="M119.6,208.5l0.2-0.1l-0.5-0.2C119.2,208.4,119.6,208.4,119.6,208.5z"/>
									<path class="st3" d="M119.9,208.1l0.1,0.1C120,208.2,120,208.1,119.9,208.1z"/>
									<path class="st3" d="M119.7,208.1l-0.4-0.1l0.3,0.2L119.7,208.1c0.2,0.1,0.2,0.1,0.3,0.1L119.7,208.1
										C119.7,208,119.8,208.1,119.7,208.1z"/>
									<path class="st3" d="M119.7,207.9c-0.1,0-0.1,0-0.1,0C119.7,207.9,119.7,207.9,119.7,207.9z"/>
									<path class="st3" d="M120.5,207.7c-0.2,0-0.4-0.1-0.5-0.2c-0.2,0.1,0.4,0.2,0.2,0.3c-0.3-0.3-0.3,0.1-0.5,0.1
										c0.4,0.1,0.6,0,0.8-0.1l-0.3-0.1C120.2,207.7,120.4,207.8,120.5,207.7z"/>
									<path class="st3" d="M120,206.9l0.4,0.2c-0.2,0-0.2,0.2-0.6,0.1c0.1,0.1,0.2,0.1,0.3,0.2c-0.2,0-0.4,0.1-0.1,0.2
										c0.3-0.2,0.4-0.2,0.5-0.4c0.1,0,0.1,0.1,0.1,0.1l0.2-0.1C120.3,207,120.3,206.8,120,206.9z"/>
									<path class="st3" d="M120.3,206.7c0,0.1,0.4,0.3,0.6,0.2l-0.3-0.3C120.7,206.7,120.7,206.8,120.3,206.7z"/>
									<path class="st3" d="M120.4,206.5c0.2,0,0.6-0.1,0.3-0.2C120.7,206.5,120.1,206.4,120.4,206.5z"/>
									<path class="st3" d="M120.9,205.7l-0.3,0.2c-0.5,0-0.2-0.2-0.4-0.3c-0.2,0.2,0.1,0.2,0.3,0.4c-0.1,0.1,0.2,0.2,0.3,0.3
										C120.6,205.9,121.8,206,120.9,205.7z"/>
									<polygon class="st3" points="120.3,206.1 120.5,206.1 120.3,206 									"/>
									<path class="st3" d="M121.5,205.2c0.6-0.1-0.3-0.3,0-0.5c0.1,0,0.1,0,0.2,0.1l-0.1-0.2h0.2c-0.4-0.1-0.5-0.2-0.7-0.3
										c-0.4,0.1,0.4,0.1,0,0.2c-0.2-0.1-0.4-0.1-0.5-0.2c0.2,0.1,0.4,0.2,0.6,0.2c0.1,0.1-0.2,0.1-0.3,0.1
										c0.2,0.1,0.7,0.2,0.6,0.4c-0.3,0.1-0.5-0.1-0.4,0.1c0.6,0-0.1,0.2,0.2,0.3c-0.1,0.1-0.5,0.2-0.7,0.1
										c0.4,0.1,0.8,0.2,0.9,0.3l-0.3-0.3h0.5C121.3,205.3,121.4,205.2,121.5,205.2L121.5,205.2z"/>
									<path class="st3" d="M120.5,204.4c-0.1,0-0.1-0.1-0.1-0.1C120.3,204.3,120.4,204.3,120.5,204.4z"/>
									<polygon class="st3" points="120.3,205.5 120.2,205.4 120.1,205.4 									"/>
									<path class="st3" d="M120.1,204.2c0,0.1,0.2,0.1,0.2,0.1L120.1,204.2L120.1,204.2z"/>
									<polygon class="st3" points="120.5,204.1 120.8,204.1 120.6,204 									"/>
									<path class="st3" d="M121.1,201.2c-0.2,0.1,0.2,0.1,0.4,0.2C121.6,201.2,121.2,201.3,121.1,201.2z"/>
									<path class="st3" d="M120.8,199.2c-0.3,0.1,0.1,0.2,0.1,0.3C121.1,199.4,121,199.3,120.8,199.2z"/>
									<path class="st3" d="M119.7,198.3c0.1,0.1,0.2,0.1,0.2,0l0.6,0.2C120.8,198.4,120,198.3,119.7,198.3z"/>
									<path class="st3" d="M119.7,197.4l0.2,0.2v-0.1c0.3,0.1,0.4,0.1,0.6,0.2C120.3,197.5,120.1,197.4,119.7,197.4z"/>
									<path class="st3" d="M120.6,197.8C120.6,197.8,120.6,197.7,120.6,197.8C120.5,197.7,120.4,197.7,120.6,197.8z"/>
									<path class="st3" d="M120.6,197.7C120.5,197.7,120.5,197.7,120.6,197.7c0,0.1,0,0.1,0,0.1
										C120.6,197.7,120.7,197.7,120.6,197.7z"/>
									<path class="st3" d="M120,197.3l-0.1-0.3l-0.1,0.1C120.2,197.2,119.6,197.3,120,197.3z"/>
									<path class="st3" d="M120.4,196h0.4c0.1-0.2-0.7-0.4-0.1-0.5c-0.2,0.1-0.4-0.2-0.5,0.1C120.5,195.6,120.5,195.9,120.4,196z
										"/>
									<path class="st3" d="M121,195.4c0.1,0.1,0.2,0,0.3,0c0.1-0.1-0.1-0.1-0.3-0.1C121.5,195.4,120.7,195.4,121,195.4z"/>
									<path class="st3" d="M121,194.7c0,0.1,0.1,0.1,0.2,0.1c0-0.2-0.4-0.1-0.7-0.2C120.2,194.6,120.8,194.7,121,194.7z"/>
									<path class="st3" d="M123.8,193.7c-0.3,0-0.3,0.1-0.2,0.2C123.6,193.8,123.7,193.7,123.8,193.7z"/>
									<polygon class="st3" points="121.1,193.5 121.1,193.6 121.6,193.6 									"/>
									<polygon class="st3" points="120.9,192.7 120.6,192.5 120.7,192.7 									"/>
									<path class="st3" d="M121,192.5v-0.2l-0.1,0.1C120.8,192.4,121,192.4,121,192.5z"/>
									<path class="st3" d="M121,192.1C121,192.1,121,192.1,121,192.1l0.2,0.2L121,192.1z"/>
									<path class="st3" d="M123,189.8c0.3,0.1,0.1-0.1,0.2-0.2C123.1,189.6,122.7,189.7,123,189.8z"/>
								</g>
							</g>
						</g>
					</g>
				</g>
			</g>
			<path class="st5" d="M161,116.7c-3.4,2.1-7.7,4.4-8.5,5.3c-0.8,0.9-2.1,3.5-2.2,3.9c-3.3-7.9-5.2-11.7-5-15.5
				c0.2-3.4,1.4-4.7,3.3-6.3c1.6-1.4,1.1-2.2,0.9-2.4c3.5-1.3,10.6-3.9,11.7-4.2c1.5-0.4,2.2,4.5,1,7.6c-1.2,3.1-4.8,5.4-7,6.7
				c-2.2,1.2-4.2,3.3-4,4.5c0.3,1.2,11.9-4.2,12.4-4.4C164.1,111.5,164.5,114.5,161,116.7z"/>
			<path class="st5" d="M131.7,109.9c-0.9,3.1-4.9,7.2-3.9,19.6c1.1,12.4,1.2,13.5-0.4,13c0,0-1.7,9.9-3.8,8c0,0-1,3.6-6,7.6
				c-5,4-16.4,13.3-16,19.7c-2.8-0.6-6.2-0.3-10.3,1.1c0,0-3.5,0.6-7.5,5.6c-2,2.5-1.7,6.7-2.6,5.2c0,0-1-0.5-2.3,7.5
				c-0.5,3.3-1,1.8-1,1.8s-1.4,4.2,0.1,10c-1.2-3-2.2-6.4-2.8-10.2c-2.1-12.6,3.1-26.8,13.2-36.6c10-9.8,23.7-21.6,26.5-24.3
				c2.9-2.7,4.8-7.7,5.7-10.8c0.9-3.1,5.7-17,5.7-17s-4.5-11.8-5.2-13c-0.1-0.1,0-0.1,0-0.2c0.5,0.4,2.8,2.1,6.3,4.7
				C131.5,104.7,132.6,106.8,131.7,109.9z"/>
			<path class="st4" d="M114.5,222.1c0.6-3.3-2.7-5.8-5.8-6.4c-3.1-0.6-8.4-0.4-8.4-0.4h-4.4"/>
			<path class="st4" d="M91.3,179c20.6-7.1,24.7,15,17.2,27c-3.7,5.9-7.3,8.4-9.4,9.3"/>
			<path class="st1" d="M135,176.3c0,0,0,1.7,0.1,4.5c0.1,0.9,0.1,1.9,0.2,3c0.7,8.9,3,23.8,10.2,33.1c0,0,7.8-0.1,7.2,5.3
				c0,0-9.4,0-10.7,0c-1.4,0-8.1-8.2-11.8-13.9c0,0-1.5,2.2-1.6-1.5c0,0-1,1.6-1.8,0.7c-0.8-0.9,0-5.9,0-5.9s-0.9,1.7-1.7,1
				c-0.8-0.7-0.3-4.3-0.3-4.3s-2,2.3-1.7-1.1c0.1-0.7-3.1-5.9-2.6-7.6C122.4,183.6,130.7,177.3,135,176.3z"/>
			<path class="st4" d="M135.3,183.7c0.7,8.9,3,23.8,10.2,33.1c0,0,7.8-0.1,7.2,5.3"/>
			<path class="st4" d="M135,176.3c0,0,0,1.7,0.1,4.5c0.1,0.9,0.1,1.9,0.2,3"/>
			<path class="st4" d="M150.4,222.1c0,0,0.1-2-1.3-2.8"/>
			<path class="st4" d="M122.9,222.1c0,0,0-2.1-1.8-3.2"/>
			<path class="st4" d="M119.6,222.1c0,0-0.2-1.9-1.7-2.7"/>
			<path class="st4" d="M111.6,222.1c0,0,0-2.1-1.8-3.2"/>
			<path class="st4" d="M108.2,222.1c0,0-0.2-1.9-1.7-2.7"/>
			<path class="st4" d="M135.3,120.2c0,0-0.2,5.4,0.8,6.2c1,0.8,1.8-1.3,1.9-1.1c0.1,0.2,1.2,2.4,2.1,2.4c0.7,0,0.6-1.1,0.6-1.1
				c0.3,0.2,2,1.6,2.9,0.4"/>
			<path class="st8" d="M159.3,97.8c-0.2,0.1-0.4,0.4-0.3,0.6c0.1,0.6,0.4,1.6,1.3,2.3c1.4,1,2.8,0,2.9-0.4c0.1-0.4-0.2-3.3-1.4-3.3
				C161,97.1,159.8,97.6,159.3,97.8z"/>
			<path class="st8" d="M142,104.9c0,0,2.7-1.7,3.4-2.1c0.5-0.3,1.2,1.6,0.3,2.5c-0.8,0.7-2,0.1-2.5-0.5
				C143.2,104.8,142.5,104.9,142,104.9z"/>
		</g>
	</g>
</g>
<g id="Illustration_7_">
	<g>
		<path class="st0" d="M85.5,144.6c0.6-0.3-61.3-0.9-64.9,0c-2.6,0.7,6.8,1.3,17.9,1.3c11.8,0,25.5-0.7,29.3-0.3
			C75.3,146.3,83.4,145.7,85.5,144.6z"/>
		<g>
			<path class="st9" d="M43.1,121c0,0-0.5,18.9-0.5,19.5c0,0.6-1.2,4.5-1.2,4.5h-2.9c0,0,1.7-12.9,1-15.5c-0.7-2.6-1.2-9.2-0.1-9.4
				C40.6,120,42.4,118.6,43.1,121z"/>
			<g>
				<g>
					<defs>
						<path id="SVGID_00000132772102687603397080000018319907043163475646_" d="M43.1,121c0,0-0.5,18.9-0.5,19.5
							c0,0.6-1.2,4.5-1.2,4.5h-2.9c0,0,1.7-12.9,1-15.5c-0.7-2.6-1.2-9.2-0.1-9.4C40.6,120,42.4,118.6,43.1,121z"/>
					</defs>
					<clipPath id="SVGID_00000065051900186478453350000004851318302199649938_">
						<use xlink:href="#SVGID_00000132772102687603397080000018319907043163475646_"  style="overflow:visible;"/>
					</clipPath>
					<g style="opacity:0.88;clip-path:url(#SVGID_00000065051900186478453350000004851318302199649938_);">
						<g>
							<g>
								<g>
									<path class="st3" d="M40.6,124.1C40.6,124.1,40.6,124.1,40.6,124.1C40.6,124.1,40.6,124.1,40.6,124.1z"/>
									<path class="st3" d="M43.2,122.4C43.2,122.3,43.2,122.3,43.2,122.4L43.2,122.4L43.2,122.4z"/>
									<path class="st3" d="M43.2,122.3v-0.1C43.1,122.2,43.2,122.3,43.2,122.3z"/>
									<path class="st3" d="M41.2,124.7c0,0,0.1,0.1,0.1,0.1L41.2,124.7z"/>
									<path class="st3" d="M41.8,124.7C41.8,124.7,41.8,124.7,41.8,124.7C41.8,124.7,41.8,124.7,41.8,124.7z"/>
									<path class="st3" d="M39.6,126.7C39.5,126.7,39.5,126.7,39.6,126.7C39.5,126.7,39.5,126.7,39.6,126.7z"/>
									<path class="st3" d="M39.7,126.9C39.7,127,39.7,127,39.7,126.9L39.7,126.9C39.8,127,39.8,127,39.7,126.9z"/>
									<path class="st3" d="M39.9,126.8L39.9,126.8C39.9,126.9,39.9,126.9,39.9,126.8z"/>
									<path class="st3" d="M41.4,128.1h0.1C41.5,128.1,41.5,128.1,41.4,128.1z"/>
									<path class="st3" d="M39.4,126.6c0,0,0.1,0,0.1,0.1C39.5,126.7,39.5,126.6,39.4,126.6z"/>
									<path class="st3" d="M40.5,124C40.6,124.1,40.6,124.1,40.5,124C40.6,124,40.5,124,40.5,124z"/>
									<path class="st3" d="M41.1,124.8L41.1,124.8C41.1,124.8,41.1,124.8,41.1,124.8z"/>
									<path class="st3" d="M44.3,122.1C44.3,122.1,44.3,122.1,44.3,122.1C44.3,122,44.2,122,44.3,122.1z"/>
									<path class="st3" d="M39.9,126c0.4,0,0,0.1,0.4,0.2c-0.1-0.1-0.1-0.1,0.1-0.1c0.2,0.1,0,0.1,0.3,0.2l-0.1-0.1
										c0.2,0,0.4,0.1,0.4,0c-0.4-0.1,0.2-0.2,0.2-0.3l0,0l0.2-0.1h0c0,0-0.1,0-0.1,0c0.2,0,0.4,0,0.4-0.1
										c-0.1-0.1-0.1-0.1-0.1-0.2c0-0.1,0-0.1-0.1-0.2c0.1,0.1,0.1,0.1,0,0.1l-0.3-0.1c0-0.1,0.3,0.1,0.1-0.1
										c-0.4-0.1-0.1,0.1-0.1,0.2c-0.1-0.1-0.2-0.1-0.2-0.1c-0.1,0.1-0.2,0.2,0.2,0.4c-0.1,0-0.3-0.1-0.3-0.1
										c0.2,0.1-0.2,0-0.1,0.1c-0.4-0.1-0.2-0.2-0.3-0.4c0.3-0.1,0.1-0.3,0.1-0.4c0.3,0.1,0.5,0.2,0.6,0.2
										c0.2-0.1-0.1-0.2-0.2-0.3c0.1-0.1,0.4,0.2,0.5,0.1l0.1,0.1c0.4,0.1-0.1-0.1,0-0.1c-0.1,0-0.2-0.1-0.2,0
										c-0.1-0.1-0.2-0.1-0.2-0.2h0c-0.2-0.1-0.4-0.2-0.2-0.2c0.2,0.2,0.2,0,0.3,0l0,0.1c-0.1-0.1,0-0.1,0-0.2l0.1,0
										c-0.1-0.1-0.3-0.2-0.2-0.3c0.1,0.1,0.3,0.3,0.3,0.2c0.2,0.1,0.1,0.2,0,0.2c0.1,0,0.3,0.1,0.3,0.2c0.2,0.1-0.1-0.1,0.1-0.1
										c-0.1,0-0.1-0.1-0.2-0.1c0.3,0.2,0.1-0.1-0.1-0.2l0.1,0.2c-0.2-0.1-0.3-0.3-0.4-0.3c0.3,0.2,0-0.3,0.3-0.2l-0.2-0.1
										c0.2-0.1-0.1-0.5,0.1-0.7c0,0.1,0.3,0.4,0.2,0.4c0.2-0.1,0.3,0.2,0.5,0.3c0.2,0-0.2-0.3-0.3-0.4v0.1
										c-0.1-0.2-0.1-0.3,0.1-0.3c0.1,0,0.2,0,0.2-0.2c0.1,0.1,0,0.1,0,0.1c0.2,0.2,0-0.1,0-0.2c0.1,0,0.2,0,0.4,0.3
										c0.1,0-0.1-0.2-0.1-0.3l0.1,0.1c0-0.1-0.1-0.2-0.1-0.3c0.1,0.1,0.3,0.1,0.5,0.4c0.1-0.1-0.3-0.6-0.2-0.8
										c0.1,0.1,0.1,0.2,0.1,0.3l0.1-0.1c0.1,0.3-0.1,0.2,0.1,0.6c-0.1-0.4,0.1-0.2,0.1-0.4l0,0c0-0.3,0.2-0.2,0.2-0.2
										c0,0.2-0.1,0.2-0.1,0.3c0.1,0.1,0.3-0.1,0.3-0.4c0.1,0,0.2,0.2,0.2,0.3c0.2,0,0-0.5,0.2-0.4l0.1,0.3
										c0.2,0.3,0.3-0.4,0.5-0.1l0-0.3c0.1,0.1,0.1,0.2,0.2,0.3l-0.1,0.1c0.1,0.3,0.1-0.3,0.2-0.1c0-0.1-0.1-0.3-0.1-0.4
										c-0.2,0.1-0.4,0.1-0.5,0.1c-0.2,0-0.4,0-0.5,0.2c0,0,0.1,0.1,0.1,0.1c-0.1-0.1-0.1,0-0.2-0.1v0c-0.1,0.1-0.3-0.3-0.3-0.2
										c0,0.2-0.2,0-0.1,0.3l-0.2-0.2c0,0.1,0.1,0.3,0.1,0.4c-0.1,0-0.1-0.1-0.1-0.3c-0.3,0-0.6,0.2-0.8,0.5l-0.1-0.2
										c-0.1,0,0,0.4-0.3,0c0,0.1-0.1,0.2-0.2,0.2c-0.1,0.1-0.1,0.1,0.1,0.3c-0.2-0.1-0.3-0.1-0.4,0c-0.1,0.1-0.1,0.2-0.1,0.3
										c0.3,0.2,0,0.2,0.1,0.3c-0.3-0.2-0.2-0.3-0.3-0.4c0.1,0.2,0,0.3-0.1,0.4c-0.1,0.1-0.2,0.2,0.2,0.4c-0.1,0-0.1,0-0.1,0
										c0,0-0.2,0-0.2,0c0.1,0.1,0.2,0,0.2,0.1c-0.1,0.1-0.2-0.1-0.3-0.1c0.1,0.2,0.1,0.4,0.4,0.6c-0.1,0-0.3,0-0.3-0.1
										c0.2,0.3-0.1,0.2,0,0.4c0-0.1-0.3-0.1-0.2-0.2c-0.2,0-0.2,0.1-0.2,0.2c0,0.1,0.1,0.2-0.1,0.3l0.3,0.1c0,0.1-0.3,0.1-0.3,0
										c-0.2,0.1-0.1,0.3-0.1,0.4c0,0-0.1,0-0.1,0l0,0.2c0.1,0,0.2,0.1,0.4,0.1C39.9,126.1,39.8,126.1,39.9,126z"/>
									<path class="st3" d="M40,126.2L40,126.2L40,126.2C40,126.2,40,126.2,40,126.2z"/>
									<path class="st3" d="M41.6,125c-0.1,0-0.1,0-0.1,0C41.5,125,41.6,125,41.6,125z"/>
									<path class="st3" d="M40.5,127.9c0.4,0-0.1-0.1,0.1-0.2c0.1,0.1,0.3,0.1,0.5,0c-0.6-0.1,0.1-0.1,0-0.3
										c0.2,0,0.2,0.1,0.4,0.1c-0.2-0.1-0.2-0.2-0.5-0.2c0-0.2,0.1-0.3,0.1-0.3c0.1,0.1,0.3,0,0.6,0.1c-0.4-0.1-0.8-0.4-1.2-0.6
										c0.4,0,0.4,0,0.7,0.1c0.3-0.2-0.3-0.1-0.2-0.2l-0.1,0.1c-0.1-0.1-0.4-0.1-0.6-0.2l0,0.2c-0.2,0-0.2-0.2-0.2-0.2
										c-0.3-0.1-0.2,0.1-0.4,0.1c0.2,0.1,0.1,0.1,0.2,0.2h-0.1c-0.1,0.1,0.2,0.2,0.2,0.3c0,0-0.1,0-0.1,0
										c0.2,0.1,0.3,0.1,0.4,0.2v-0.1c0.3,0.1,0.5,0.3,0.8,0.2c0,0.1-0.1,0.1-0.1,0.2c-0.3,0-0.8-0.1-0.9-0.2l-0.1,0
										c-0.2,0.1,0.3,0.3,0.5,0.2c0.8,0.1,0,0.3,0.4,0.5c-0.2,0-0.3-0.1-0.5-0.1c0-0.1,0-0.1,0.2-0.1c-0.1-0.2-0.7,0.1-0.6-0.2
										c0.1-0.1,0.4,0.2,0.4,0l-0.6-0.1c0,0.1,0.1,0.2,0.2,0.3c0.2,0.2,0.2,0.4,0.2,0.6c0,0.1-0.1,0.2-0.1,0.2l0.1,0.5
										c0,0.2,0.1,0.3,0.1,0.5l0.1,0.5l0.1,0.5c0.1,0.2,0.1,0.3,0.7,0.2c0.1-0.1,0.1-0.2,0.3-0.2c-0.2,0-0.4,0-0.4-0.2
										c0.2-0.1,0.1,0.1,0.2,0.1v0c0.1,0,0.2,0,0.2,0c0.3-0.2,0.2-0.4-0.2-0.4c0.2-0.1,0.4,0,0.5,0c0.1-0.4,0.1-0.6,0-0.9
										c-0.4,0-0.3,0-0.5,0l0.1-0.1c-0.1,0-0.3,0-0.4,0.1c0.3-0.2-0.5-0.2-0.7-0.3h0.2c-0.1-0.1-0.1-0.2-0.2-0.2
										c0.4-0.2,0.1,0.2,0.6,0.1l-0.1-0.1c0.2,0,0.5,0,0.7,0.1c-0.3-0.2,0.1-0.3-0.2-0.4c0.2,0,0.4,0.2,0.4,0.2
										c0-0.1-0.2-0.2,0.1-0.2h-0.3c-0.1-0.1,0.3,0,0.4-0.1C41.5,127.8,40.7,128.1,40.5,127.9z"/>
									<path class="st3" d="M40.9,125.2C40.9,125.3,40.9,125.3,40.9,125.2C40.9,125.3,40.9,125.3,40.9,125.2z"/>
									<path class="st3" d="M41.3,125.8c0,0,0.1,0,0.1,0C41.4,125.9,41.4,125.8,41.3,125.8z"/>
									<path class="st3" d="M41.7,126c-0.1,0-0.1-0.1-0.3-0.1C41.5,125.9,41.5,126,41.7,126z"/>
									<path class="st3" d="M48.1,122.8c0-0.1,0-0.3-0.1-0.3c0,0.1,0,0.2-0.1,0.3C48,122.8,48,122.8,48.1,122.8z"/>
									<path class="st3" d="M47.6,122.9c-0.1,0-0.1,0-0.2,0c0,0.1,0.1,0.3,0.1,0.4c0.1,0,0.1-0.1,0.1-0.2
										C47.5,123,47.5,122.9,47.6,122.9z"/>
									<path class="st3" d="M47.1,122.8v-0.1C47.1,122.8,47.1,122.8,47.1,122.8z"/>
									<path class="st3" d="M47.2,123c0,0.1,0,0.2,0,0.3c0.1-0.1,0.1-0.2,0.1-0.3C47.3,123,47.3,123,47.2,123c0.1-0.1,0-0.1,0-0.2
										C47.1,122.9,47.1,122.9,47.2,123C47.1,123,47.1,122.9,47.2,123z"/>
									<path class="st3" d="M47,123C47,123,47.1,123.1,47,123C47.1,123.1,47,123,47,123z"/>
									<path class="st3" d="M46.7,122.6c0,0.1,0,0.3,0,0.4c0.1,0.1,0.1-0.3,0.2-0.2c-0.1,0.2,0.1,0.2,0.2,0.3
										C46.9,122.8,46.9,122.6,46.7,122.6l0.1,0.2C46.7,122.7,46.7,122.6,46.7,122.6z"/>
									<path class="st3" d="M46.2,123l0.1-0.3c0,0.1,0.2,0.1,0.2,0.4c0.1-0.1,0.1-0.2,0.1-0.2c0.1,0.1,0.1,0.2,0.1,0.1
										c-0.2-0.2-0.2-0.2-0.3-0.3c0-0.1,0-0.1,0.1-0.1l-0.1-0.1C46.2,122.8,46.1,122.8,46.2,123z"/>
									<path class="st3" d="M46,122.8c0.1,0,0.1-0.3,0.1-0.4l-0.2,0.2C46,122.6,46.1,122.6,46,122.8z"/>
									<path class="st3" d="M45.9,122.8c0-0.1-0.1-0.4-0.2-0.2C45.9,122.6,45.8,123,45.9,122.8z"/>
									<path class="st3" d="M45.3,122.6l0.2,0.2c0,0.3-0.1,0.1-0.1,0.3c0.1,0.1,0.1-0.1,0.2-0.3c0.1,0,0.1-0.2,0.2-0.3
										C45.5,122.8,45.4,121.9,45.3,122.6z"/>
									<polygon class="st3" points="45.6,122.9 45.7,122.8 45.6,122.9 									"/>
									<path class="st3" d="M44.9,122.2c-0.1-0.4-0.2,0.2-0.3,0.1c0,0,0-0.1,0-0.1l-0.1,0.1v-0.1c0,0.2-0.1,0.3-0.1,0.5
										c0.1,0.3,0-0.3,0.1,0c0,0.1,0,0.3,0,0.4c0.1-0.1,0.1-0.3,0.1-0.4c0.1,0,0.1,0.1,0.1,0.2c0.1-0.2,0.1-0.5,0.2-0.4
										c0.1,0.2,0,0.3,0.1,0.2c-0.1-0.4,0.1,0.1,0.2-0.2c0.1,0.1,0.2,0.3,0.2,0.4c0-0.3,0.1-0.6,0.1-0.6l-0.2,0.3l-0.1-0.4
										C45,122.3,45,122.3,44.9,122.2L44.9,122.2z"/>
									<path class="st3" d="M44.5,123C44.5,123,44.5,123,44.5,123C44.5,123.1,44.5,123,44.5,123z"/>
									<polygon class="st3" points="45.2,123 45.2,123 45.2,123.1 									"/>
									<path class="st3" d="M44.4,123.2c0,0,0-0.1,0-0.1V123.2L44.4,123.2z"/>
									<polygon class="st3" points="44.3,123 44.3,122.8 44.3,123 									"/>
									<path class="st3" d="M42.4,123.4c0.1,0.1,0-0.1-0.1-0.3C42.2,123.1,42.5,123.3,42.4,123.4z"/>
									<path class="st3" d="M41.8,124.4c0.2,0,0-0.1,0.1-0.2C41.7,124.2,41.7,124.3,41.8,124.4z"/>
									<path class="st3" d="M42.3,125.2c-0.1-0.1-0.1-0.1-0.1-0.1c-0.1-0.1-0.2-0.2-0.4-0.2C41.7,124.9,42.2,125.1,42.3,125.2z"/>
									<path class="st3" d="M42.2,125.6l-0.1-0.1l0,0c-0.2-0.1-0.2-0.1-0.4-0.2C41.8,125.4,41.9,125.5,42.2,125.6z"/>
									<path class="st3" d="M41.7,125.3C41.7,125.3,41.7,125.3,41.7,125.3C41.7,125.3,41.8,125.3,41.7,125.3z"/>
									<path class="st3" d="M41.7,125.3C41.7,125.3,41.7,125.4,41.7,125.3C41.7,125.3,41.7,125.3,41.7,125.3
										C41.6,125.3,41.6,125.3,41.7,125.3z"/>
									<path class="st3" d="M42,125.6c0,0.1,0,0.1,0,0.2l0.1,0C41.8,125.6,42.3,125.7,42,125.6z"/>
									<path class="st3" d="M41.6,126.3l-0.3,0c-0.1,0.1,0.5,0.3,0.1,0.3c0.2,0,0.3,0.1,0.4,0C41.6,126.5,41.6,126.4,41.6,126.3z"
										/>
									<path class="st3" d="M41.2,126.6c-0.1,0-0.1,0-0.2,0C41,126.7,41.1,126.7,41.2,126.6C40.9,126.7,41.4,126.7,41.2,126.6z"/>
									<path class="st3" d="M41.2,127.1c0,0,0-0.1-0.1,0c0,0.1,0.3,0.1,0.5,0.1C41.7,127.2,41.3,127.1,41.2,127.1z"/>
									<path class="st3" d="M39.3,127.9c0.2,0,0.2-0.1,0.1-0.1C39.5,127.8,39.4,127.9,39.3,127.9z"/>
									<polygon class="st3" points="41.2,127.9 41.2,127.9 40.8,127.8 									"/>
									<polygon class="st3" points="41.4,128.4 41.6,128.5 41.5,128.4 									"/>
									<path class="st3" d="M41.3,128.5l0,0.1l0.1-0.1C41.5,128.5,41.3,128.6,41.3,128.5z"/>
									<path class="st3" d="M41.4,128.8C41.4,128.8,41.4,128.8,41.4,128.8l-0.1-0.1L41.4,128.8z"/>
									<path class="st3" d="M40.2,130.5c-0.2,0-0.1,0.1-0.1,0.1C40.2,130.7,40.5,130.6,40.2,130.5z"/>
								</g>
							</g>
						</g>
					</g>
				</g>
			</g>
			<path class="st9" d="M55.8,120.5c0,0,4.3,4.6,14.5,10.5l6.1,10.8c0,0-1.7,1-2,3.1h4c0,0,0.1-6.2-0.5-7.4
				c-0.6-1.2-5.8-9.5-5.8-9.5s-10.4-8.1-10.8-8.6S54.3,118.4,55.8,120.5z"/>
			<g>
				<g>
					<defs>
						<path id="SVGID_00000059989928679954008600000017176179978838824324_" d="M55.8,120.5c0,0,4.3,4.6,14.5,10.5l6.1,10.8
							c0,0-1.7,1-2,3.1h4c0,0,0.1-6.2-0.5-7.4c-0.6-1.2-5.8-9.5-5.8-9.5s-10.4-8.1-10.8-8.6S54.3,118.4,55.8,120.5z"/>
					</defs>
					<clipPath id="SVGID_00000129182593775807815070000003870697783680521134_">
						<use xlink:href="#SVGID_00000059989928679954008600000017176179978838824324_"  style="overflow:visible;"/>
					</clipPath>
					<g style="opacity:0.88;clip-path:url(#SVGID_00000129182593775807815070000003870697783680521134_);">
						<g>
							<g>
								<g>
									<path class="st3" d="M60.9,120.9C60.9,120.9,60.9,120.9,60.9,120.9C60.9,120.9,60.9,120.9,60.9,120.9z"/>
									<path class="st3" d="M58.1,120.2L58.1,120.2L58.1,120.2L58.1,120.2z"/>
									<path class="st3" d="M58.1,120.2l0-0.1C58.1,120.2,58.1,120.2,58.1,120.2z"/>
									<path class="st3" d="M60.8,121.6c0,0,0,0.1,0,0.1V121.6z"/>
									<path class="st3" d="M60.3,121.8C60.3,121.8,60.3,121.8,60.3,121.8C60.3,121.8,60.3,121.8,60.3,121.8z"/>
									<path class="st3" d="M63.1,122.3C63.1,122.3,63.1,122.2,63.1,122.3L63.1,122.3z"/>
									<path class="st3" d="M63.1,122.5C63.1,122.5,63.1,122.6,63.1,122.5L63.1,122.5C63.1,122.6,63.1,122.6,63.1,122.5z"/>
									<path class="st3" d="M63,122.6L63,122.6C63,122.6,63,122.6,63,122.6z"/>
									<path class="st3" d="M62.9,124.3L62.9,124.3C62.9,124.3,62.9,124.3,62.9,124.3z"/>
									<path class="st3" d="M63.1,122.2C63.1,122.2,63.1,122.2,63.1,122.2C63.1,122.2,63.1,122.2,63.1,122.2z"/>
									<path class="st3" d="M60.9,120.8C60.9,120.9,60.9,120.9,60.9,120.8C60.9,120.9,60.9,120.8,60.9,120.8z"/>
									<path class="st3" d="M60.9,121.6L60.9,121.6C60.9,121.6,60.9,121.6,60.9,121.6z"/>
									<path class="st3" d="M57,120.2C57,120.2,57,120.1,57,120.2C57,120.1,57,120.1,57,120.2z"/>
									<path class="st3" d="M62.4,121.9c-0.2,0.2,0.1,0.1-0.1,0.3c0-0.1,0-0.2-0.1-0.1c-0.1,0.2,0.1,0.1-0.1,0.3v-0.1
										c-0.1,0.1-0.2,0.2-0.2,0.2c0.2-0.3-0.3-0.1-0.3-0.1v0.1l-0.2,0.1c0,0,0,0,0,0c0,0,0,0,0-0.1c-0.1,0.1-0.3,0.2-0.3,0.1
										c0.1-0.2-0.2-0.2-0.1-0.4c0,0.1,0,0.1,0.1,0.1l0.1-0.2c-0.1-0.1-0.1,0.2-0.1,0c0.2-0.2,0.1,0.1,0.2,0.1
										c0-0.1,0.1-0.1,0-0.2c0.1,0.1,0.3,0.1,0.1,0.3c0.1,0,0.1-0.1,0.1-0.2c-0.1,0.2,0.2-0.1,0.1,0.1c0.2-0.2-0.1-0.2,0-0.4
										c-0.2,0.1-0.2-0.2-0.3-0.3c-0.1,0.2-0.2,0.4-0.3,0.4c-0.2,0.1,0-0.2,0-0.3c-0.1,0-0.2,0.3-0.3,0.2v0.2
										c-0.2,0.2,0-0.1-0.1-0.1c0.1-0.1,0.1-0.1,0.2-0.1c0.1-0.1,0.1-0.2,0-0.2h0c0.1-0.1,0.1-0.3,0-0.3c-0.1,0.2-0.1,0.1-0.2,0.1
										v0.1c0-0.1-0.1-0.1-0.1-0.1l0,0.1c0-0.1,0.1-0.3,0-0.3c0,0.1-0.1,0.3-0.1,0.3c-0.1,0.1,0,0.2,0.1,0.2
										c-0.1,0-0.2,0.2-0.2,0.2c-0.1,0.1,0-0.1-0.1-0.1c0-0.1,0.1-0.1,0.1-0.2c-0.1,0.2-0.2-0.1-0.1-0.2v0.2
										c0.1-0.2,0.1-0.3,0.1-0.4c-0.2,0.2-0.1-0.2-0.3,0l0.1-0.1c-0.2,0-0.2-0.4-0.3-0.5c0,0.1-0.1,0.4,0.1,0.3
										c-0.2,0-0.2,0.3-0.3,0.4c-0.2,0.1,0.1-0.3,0.1-0.4l0.1,0.1c0-0.4-0.3,0-0.4-0.3c-0.1,0.1,0,0.1,0,0.1
										c-0.1,0.2-0.1-0.1-0.1-0.2c-0.1,0-0.2,0.1-0.2,0.3c-0.1,0,0.1-0.1,0-0.2l0,0.1l0-0.3c-0.1,0.1-0.2,0.2-0.3,0.4
										c-0.2-0.1,0.1-0.5-0.1-0.6c-0.1,0.1,0,0.2,0,0.3l-0.1-0.1c0,0.3,0.1,0.2,0.1,0.4c-0.1-0.3-0.1-0.1-0.2-0.3v0
										c0-0.2-0.2-0.1-0.3-0.1c0,0.1,0.1,0.2,0.2,0.2c-0.1,0.1-0.3,0-0.4-0.3c-0.1,0.1-0.2,0.2-0.1,0.3c-0.2,0-0.1-0.4-0.2-0.3
										v0.2c-0.2,0.3-0.3-0.3-0.5,0l0-0.3c0,0.1-0.1,0.2-0.1,0.3l0.1,0.1c-0.1,0.2-0.1-0.2-0.2-0.1c0-0.1,0.1-0.2,0.1-0.3
										c0.2,0.1,0.3,0,0.5,0c0.2,0,0.4-0.1,0.5,0.1c0,0,0,0.1,0,0.1c0.1-0.1,0.1,0,0.1-0.1v0c0.1,0.1,0.2-0.2,0.3-0.2
										c0,0.2,0.2-0.1,0.1,0.2l0.1-0.2c0,0.1,0,0.3,0,0.3c0.1,0,0.1-0.1,0.1-0.2c0.1,0,0.3,0,0.4,0c0.1,0.1,0.3,0.1,0.4,0.2l0-0.2
										c0.1-0.1,0.2,0.3,0.2-0.1c0.1,0.2,0.4,0,0.3,0.4c0.2-0.3,0.3,0,0.5,0.1c-0.2,0.3,0.1,0.1,0.1,0.3c0.1-0.2,0-0.3,0-0.4
										c0,0.2,0.2,0.2,0.3,0.2c0.1,0,0.2,0.1,0.1,0.4c0,0,0.1,0,0.1-0.1c0,0,0.1-0.1,0.2-0.1c0,0.1-0.1,0.1-0.1,0.2
										c0.1,0,0.1-0.2,0.2-0.2c0.1,0.2,0.2,0.3,0.1,0.6c0.1,0,0.2-0.1,0.2-0.2c0.1,0.3,0.2,0.1,0.3,0.3c-0.1-0.1,0.1-0.2,0-0.2
										c0.3-0.2,0.2,0.2,0.4,0.2l-0.1,0.2c0.1,0.1,0.2-0.1,0.2-0.2c0.2,0,0.2,0.2,0.3,0.3c0,0,0.1-0.1,0-0.1
										c0.1,0,0.1,0.1,0.1,0.1C62.6,121.8,62.6,121.9,62.4,121.9C62.5,122,62.6,121.9,62.4,121.9z"/>
									<path class="st3" d="M62.4,122.1L62.4,122.1L62.4,122.1C62.4,122.1,62.4,122.1,62.4,122.1z"/>
									<path class="st3" d="M60.7,121.9C60.7,121.9,60.8,121.9,60.7,121.9C60.7,121.9,60.7,121.9,60.7,121.9z"/>
									<path class="st3" d="M63.3,123.6c-0.3,0.2,0-0.1-0.2-0.1c0,0.1-0.2,0.2-0.2,0.3c0.3-0.4-0.1,0-0.2-0.2
										c-0.1,0.1-0.1,0.2-0.2,0.3c0-0.1,0-0.3,0.2-0.4c-0.1-0.1-0.2-0.1-0.3-0.2c0,0.2-0.2,0.2-0.3,0.4c0.1-0.3,0.2-0.7,0.3-1
										c-0.2,0.2-0.2,0.2-0.4,0.4c-0.3,0,0.1-0.2-0.1-0.3l0.1,0c0-0.1,0.2-0.3,0.3-0.4l0.1,0.2c0.1-0.1,0-0.2,0-0.3
										c0.1-0.2,0.2,0,0.3-0.2c-0.1,0.1,0,0.2,0,0.2l0.1-0.1c0.2,0,0,0.2,0.1,0.3c0,0,0.1,0,0.1-0.1c-0.1,0.1-0.1,0.2-0.1,0.3l0,0
										c-0.1,0.2-0.1,0.4-0.4,0.5l0.2,0.1c0.2-0.2,0.4-0.5,0.4-0.6l0.1-0.1c0.2,0,0,0.3-0.2,0.4c-0.4,0.5,0.2,0.3,0.1,0.5
										c0.1-0.1,0.1-0.2,0.2-0.3c0-0.1,0-0.1-0.2,0c-0.1-0.2,0.4-0.3,0.2-0.5c-0.1,0-0.1,0.3-0.2,0.2l0.3-0.4
										c0.1,0.1,0.1,0.2,0.1,0.3c0.1,0.5,0.5,0.6,0.5,0.6c0.4,0.5,0.7,1,1.1,1.4c0.1,0.2,0.1,0.2-0.1,0.6
										c-0.1,0.1-0.2-0.1-0.2,0.1c0.1-0.2,0.1-0.3,0-0.3c-0.1,0.1,0,0.1,0,0.1h0c-0.1,0.1-0.1,0.1-0.1,0.2
										c-0.3,0.1-0.4-0.1-0.2-0.4c-0.2,0.1-0.1,0.2-0.2,0.4c-0.4-0.2-0.5-0.4-0.7-0.6c0.2-0.2,0.1-0.2,0.2-0.3l-0.1,0.1
										c0.1,0,0.2-0.2,0.3-0.2c-0.3,0,0.2-0.4,0.2-0.6l-0.1,0.1c-0.1-0.1-0.1-0.1-0.1-0.3c-0.3,0.1,0.1,0.2-0.3,0.4l0-0.1
										c-0.1,0.1-0.3,0.3-0.3,0.4c0.1-0.3-0.2-0.1-0.2-0.4c-0.1,0.1-0.1,0.3-0.1,0.4c-0.1,0,0-0.2-0.2-0.1l0.2-0.2
										c-0.1-0.1-0.2,0.1-0.3,0.2C62.7,124.1,63.3,123.8,63.3,123.6z"/>
									<path class="st3" d="M61.3,121.9C61.3,121.9,61.4,121.9,61.3,121.9C61.3,121.9,61.3,121.9,61.3,121.9z"/>
									<path class="st3" d="M61.4,122.5C61.4,122.5,61.4,122.5,61.4,122.5C61.4,122.5,61.4,122.5,61.4,122.5z"/>
									<path class="st3" d="M61.3,122.7c0.1-0.1,0.1-0.1,0.1-0.2C61.4,122.6,61.4,122.7,61.3,122.7z"/>
									<path class="st3" d="M54.1,121.8c0-0.1-0.1-0.1-0.1-0.2l0.1,0.1L54.1,121.8z"/>
									<path class="st3" d="M54.2,121.6l0.1-0.1l0.2,0.3C54.3,121.7,54.3,121.5,54.2,121.6z"/>
									<path class="st3" d="M54.4,121.3L54.4,121.3C54.4,121.3,54.4,121.3,54.4,121.3z"/>
									<path class="st3" d="M54.5,121.4l0.1,0.2L54.5,121.4L54.5,121.4c-0.1-0.1,0-0.1,0-0.1L54.5,121.4
										C54.5,121.4,54.5,121.4,54.5,121.4z"/>
									<path class="st3" d="M54.6,121.4C54.6,121.4,54.6,121.5,54.6,121.4C54.6,121.4,54.6,121.4,54.6,121.4z"/>
									<path class="st3" d="M54.7,121c0,0.1,0.1,0.2,0.1,0.3c-0.1,0.1-0.2-0.2-0.2-0.1c0.2,0.1,0,0.1,0,0.3
										C54.6,121.2,54.6,121.1,54.7,121l0,0.2C54.7,121.1,54.7,121,54.7,121z"/>
									<path class="st3" d="M55.3,121.2l-0.1-0.2c0,0.1-0.1,0.1-0.1,0.3c-0.1,0-0.1-0.1-0.1-0.2c0,0.1,0,0.2-0.1,0.1
										c0.2-0.2,0.1-0.2,0.2-0.3c0-0.1,0,0-0.1,0l0.1-0.1C55.2,121,55.3,121,55.3,121.2z"/>
									<path class="st3" d="M55.4,121c-0.1,0-0.2-0.2-0.2-0.3l0.2,0.1C55.4,120.8,55.3,120.8,55.4,121z"/>
									<path class="st3" d="M55.5,121c0-0.1,0-0.3,0.1-0.2C55.5,120.8,55.6,121.1,55.5,121z"/>
									<path class="st3" d="M56.1,120.7l-0.2,0.2c0,0.3,0.1,0.1,0.2,0.2c-0.1,0.1-0.1,0-0.2-0.2c0,0-0.1-0.1-0.2-0.2
										C55.9,120.8,55.8,120.2,56.1,120.7z"/>
									<polygon class="st3" points="55.8,121 55.8,120.9 55.8,120.9 									"/>
									<path class="st3" d="M56.4,120.3c0.1-0.3,0.2,0.2,0.3,0c0,0,0-0.1,0-0.1l0.1,0v-0.1c0,0.2,0.1,0.3,0.2,0.4
										c-0.1,0.2-0.1-0.2-0.1,0c0,0.1,0.1,0.2,0.1,0.3c-0.1-0.1-0.1-0.2-0.1-0.3c-0.1,0,0,0.1,0,0.2c-0.1-0.1-0.1-0.4-0.2-0.3
										c-0.1,0.2,0.1,0.3-0.1,0.2c0-0.3-0.1,0.1-0.2-0.1c-0.1,0.1-0.1,0.3-0.1,0.4c0-0.2-0.1-0.4-0.2-0.5l0.2,0.2l0-0.3
										C56.3,120.4,56.4,120.4,56.4,120.3L56.4,120.3z"/>
									<path class="st3" d="M56.9,120.9C56.9,120.9,56.9,120.9,56.9,120.9C56.9,120.9,56.9,120.9,56.9,120.9z"/>
									<polygon class="st3" points="56.2,121 56.2,121 56.2,121.1 									"/>
									<path class="st3" d="M57,121.1C57,121.1,57,121,57,121.1L57,121.1L57,121.1z"/>
									<polygon class="st3" points="57.1,120.9 57.1,120.7 57.1,120.9 									"/>
									<path class="st3" d="M59.1,120.9c-0.1,0.1,0-0.1,0-0.2C59.2,120.7,59,120.9,59.1,120.9z"/>
									<path class="st3" d="M60.1,121.6c-0.1,0.1-0.1-0.1-0.2-0.1C60.1,121.4,60.1,121.4,60.1,121.6z"/>
									<path class="st3" d="M60.3,122.3c0-0.1,0-0.1,0.1-0.1l0.1-0.3C60.6,121.9,60.3,122.2,60.3,122.3z"/>
									<path class="st3" d="M60.7,122.7v-0.2l0.1,0c0.1-0.1,0.1-0.2,0.1-0.3C60.9,122.3,60.8,122.5,60.7,122.7z"/>
									<path class="st3" d="M60.8,122.1C60.8,122.1,60.8,122.2,60.8,122.1C60.8,122.2,60.8,122.2,60.8,122.1z"/>
									<path class="st3" d="M60.9,122.2C60.9,122.2,60.9,122.2,60.9,122.2C60.9,122.2,60.9,122.2,60.9,122.2
										C60.9,122.2,60.9,122.1,60.9,122.2z"/>
									<path class="st3" d="M60.8,122.6c0,0.1,0.1,0.1,0.1,0.1l-0.1,0C61,122.6,60.7,122.8,60.8,122.6z"/>
									<path class="st3" d="M61.6,123l0.2-0.1c0.1,0.1-0.1,0.4,0.2,0.3c-0.1,0.1-0.1,0.2-0.2,0.2C61.8,123.1,61.7,123,61.6,123z"
										/>
									<path class="st3" d="M62.1,123c0-0.1,0.1-0.1,0.1-0.1C62.2,122.9,62.2,123,62.1,123C62.3,122.9,62,123.2,62.1,123z"/>
									<path class="st3" d="M62.4,123.4C62.4,123.4,62.4,123.3,62.4,123.4c0.1,0-0.1,0.1-0.2,0.3
										C62.1,123.7,62.3,123.4,62.4,123.4z"/>
									<path class="st3" d="M64,123c-0.1,0.1-0.2,0-0.1,0C63.8,123,63.9,123,64,123z"/>
									<polygon class="st3" points="62.9,123.9 62.9,123.9 63.1,123.8 									"/>
									<polygon class="st3" points="63.2,124.5 63.1,124.6 63.1,124.5 									"/>
									<path class="st3" d="M63.3,124.5L63.3,124.5l0,0.1C63.2,124.6,63.3,124.6,63.3,124.5z"/>
									<path class="st3" d="M63.5,124.8C63.5,124.7,63.4,124.8,63.5,124.8l0-0.1L63.5,124.8z"/>
									<path class="st3" d="M65.3,125.1c0.1-0.2,0.1,0,0.1,0C65.4,125.1,65.2,125.2,65.3,125.1z"/>
								</g>
							</g>
						</g>
					</g>
				</g>
			</g>
			<path class="st9" d="M28,92.2c0,0-0.2-4.6,0.4-4.6c0.6,0,2.9,4.7,3.7,6c0.9,1.3,3.1,4.2,5,6.4c1.8,2.2,5.3,6.4,10.4,7.2
				c5.1,0.8,15.9,1.2,20.1,2.6c4.2,1.5,8.1,5.2,9.5,9.1c1.5,3.8,3.4,9,7.2,11.4c0,0-5.5,1.3-9.6-3.2c0,0,0.3,1.8,0.4,2.2
				c0.1,0.4,2.4,3.7,2.5,4c0.2,0.3,2,7.7,2,8.1c0.1,0.4-0.5,3.6-0.5,3.6s-3.2,0-3.4,0c-0.2,0,0.5-2.4,1.8-3.1c0,0-2.4-6.2-2.7-6.5
				s-4.2-4.1-4.5-4.3c-0.3-0.2-7.1-3.6-10.1-10.5c0,0-2-0.6-6.6,0.4c-4.7,1-11.2,2.1-12.6,2.1c0,0,0.6,16.6,0.5,17.2
				c-0.1,0.5-2,4.8-2,4.8s-3.4,0-3.8,0s0.4-2.2,2.7-4.1c0,0-2.1-10.2-2.4-11.5c-0.3-1.3-2.6-7.1-2.6-7.1s-5.6-1.3-8.3-6.7
				c-2.6-5.4-0.4-9.5-1.2-13.2c0,0-5.8-2.2-7-2.9c-1.2-0.6-3.9-2.2-2.4-4.9c0,0,5.9,0.6,6.3,0.6c0.4-0.1,1.5-1.6,2.9-2.1
				C25,92.6,28,92.2,28,92.2z"/>
			<path class="st12" d="M75.7,145c-0.2,0,0.5-2.4,1.8-3.1c0,0-2.4-6.2-2.7-6.5c-0.3-0.4-4.2-4.1-4.5-4.3
				c-0.3-0.2-7.1-3.6-10.1-10.5"/>
			<path class="st12" d="M41,123c0,0,0.6,16.6,0.5,17.2s-2,4.8-2,4.8"/>
			<path class="st13" d="M74.2,122.3c0.2,2,0.5,4.8,0.5,4.8s0.1,0.4,0.2,0.9c-5,0.9-7.8-4.2-9.2-6.4c-1.4-2.1-3.6-6.5-8.8-5.9
				c-5.2,0.6-9.2,5.1-15.8,3.7c-6.6-1.4-9-6.5-9-6.5c-0.1,0.8,0.1,2.2,0.1,2.2c-6.9-5.3-5.2-12.3-4.9-13.8c0.3-1.6,0.5-3.5-0.2-3.9
				c-0.7-0.3-1.3-0.4-1.6-1c-0.3-0.6,0.3-2.3-0.6-2.8c-0.8-0.5-1.7-0.2-1.7-0.2c0.2-0.1,0.4-0.3,0.6-0.3c1.3-0.5,4.3-0.9,4.3-0.9
				s-0.2-4.6,0.4-4.6c0.6,0,2.9,4.7,3.7,6c0.9,1.3,3.1,4.2,5,6.4c1.8,2.2,5.3,6.4,10.4,7.2c5.1,0.8,15.9,1.2,20.1,2.6
				c4.2,1.5,8.1,5.2,9.5,9.1c1.2,3.2,2.8,7.4,5.5,10.1C77.3,128.3,75,124.1,74.2,122.3z"/>
			<path class="st12" d="M36.8,145c0,0,0.2-0.7,0.5-1.1"/>
			<path class="st12" d="M76.6,145c0,0,0.2-0.7,0.5-1.1"/>
			<line class="st12" x1="41" y1="123" x2="40.9" y2="120.4"/>
			<path class="st14" d="M14,95.4c-0.1,0.5,0.2,0.9,0.7,1c0.1,0,0.2,0.1,0.3,0c0.8-0.1,1.1-1.2,1-1.7c0-0.2-1.5-0.3-1.6-0.3
				C14.3,94.5,14.1,94.9,14,95.4z"/>
			<path class="st12" d="M14.9,98.1c0,0,0.6,0.5,2.2,1c1.6,0.5,2.4,0.6,2.7,0.7s0.6,0.5,0.6,0.5"/>
			<path class="st12" d="M74.7,127.1c0,0-0.5-4.6-0.6-6.1"/>
			<path class="st12" d="M60.2,120.5c0,0-0.6-1.3-0.7-2.8"/>
			<ellipse transform="matrix(0.433 -0.9014 0.9014 0.433 -73.1795 75.0764)" class="st0" cx="23.1" cy="95.7" rx="0.5" ry="0.4"/>
			<g>
				<g>
					<defs>
						<path id="SVGID_00000115495005170288424210000004452914566432322706_" d="M24.1,105c0.1-0.9,0-1.7-0.2-2.6
							c0,0,1.6,0.6,2.7,0.7C27.6,103.3,25.4,104.9,24.1,105z"/>
					</defs>
					<clipPath id="SVGID_00000123413032774182164850000017266174990631753894_">
						<use xlink:href="#SVGID_00000115495005170288424210000004452914566432322706_"  style="overflow:visible;"/>
					</clipPath>
					<g style="opacity:0.88;clip-path:url(#SVGID_00000123413032774182164850000017266174990631753894_);">
						<g>
							<g>
								<g>
									<path class="st3" d="M25.6,102.8L25.6,102.8C25.6,102.8,25.6,102.8,25.6,102.8z"/>
									<path class="st3" d="M26.8,103.1L26.8,103.1L26.8,103.1L26.8,103.1z"/>
									<path class="st3" d="M26.8,103.1L26.8,103.1C26.8,103.1,26.8,103.1,26.8,103.1z"/>
									<path class="st3" d="M25.5,103.1C25.4,103.1,25.4,103.1,25.5,103.1L25.5,103.1z"/>
									<path class="st3" d="M25.6,103.2C25.5,103.3,25.6,103.3,25.6,103.2C25.6,103.3,25.6,103.2,25.6,103.2z"/>
									<path class="st3" d="M24.6,102.5L24.6,102.5C24.6,102.5,24.6,102.5,24.6,102.5z"/>
									<path class="st3" d="M24.5,102.5C24.5,102.5,24.5,102.5,24.5,102.5L24.5,102.5C24.5,102.5,24.5,102.5,24.5,102.5z"/>
									<path class="st3" d="M24.5,102.6L24.5,102.6C24.5,102.6,24.5,102.6,24.5,102.6z"/>
									<path class="st3" d="M23.8,102.9L23.8,102.9C23.8,103,23.8,103,23.8,102.9z"/>
									<path class="st3" d="M24.6,102.4L24.6,102.4C24.6,102.4,24.6,102.4,24.6,102.4z"/>
									<path class="st3" d="M25.6,102.8C25.6,102.8,25.6,102.8,25.6,102.8C25.6,102.8,25.6,102.8,25.6,102.8z"/>
									<path class="st3" d="M25.4,103L25.4,103C25.4,103,25.4,103,25.4,103z"/>
									<path class="st3" d="M27.3,103.2L27.3,103.2C27.3,103.1,27.3,103.1,27.3,103.2z"/>
									<path class="st3" d="M24.8,102.6c0,0.1-0.1,0-0.1,0.1c0,0,0.1,0,0.1,0c0,0.1-0.1,0-0.1,0.1l0.1,0c0,0.1,0,0.1,0,0.1
										c0.1-0.1,0.1,0.1,0.1,0.1h0l0,0.1l0,0v0c0,0.1,0,0.1,0.1,0.1c0-0.1,0.1,0,0.2-0.1c0,0,0,0-0.1,0l0-0.1c0,0,0,0.1,0,0.1
										c0-0.1-0.1,0-0.1,0c0,0,0-0.1,0.1-0.1c-0.1,0-0.1-0.1-0.2,0.1c0,0,0-0.1,0-0.1c-0.1,0.1,0-0.1-0.1,0c0-0.1,0.1-0.1,0.1-0.1
										c0,0.1,0.1,0,0.2,0c0,0.1-0.1,0.2-0.1,0.2c0.1,0.1,0.1,0,0.1-0.1c0,0.1,0,0.2,0,0.2l-0.1,0.1c0,0.1,0.1-0.1,0.1,0
										c0,0,0-0.1,0-0.1c0-0.1,0-0.1,0.1-0.1l0,0c0-0.1,0.1-0.1,0.1-0.1c-0.1,0.1,0,0.1,0,0.1l0,0c0,0,0.1,0,0.1,0v0
										c0,0,0.1-0.1,0.1-0.1c0,0-0.1,0.1,0,0.1c0,0.1-0.1,0.1-0.1,0c0,0,0,0.1,0,0.1c0,0.1,0.1,0,0.1,0c0,0,0-0.1,0-0.1
										c0,0.1,0.1,0,0.1-0.1l-0.1,0.1c0-0.1,0.1-0.1,0.1-0.2c0,0.1,0.1-0.1,0.1,0.1v-0.1c0.1,0.1,0.2-0.1,0.2-0.1
										c0,0-0.1,0.2-0.1,0.1c0.1,0.1,0,0.1,0,0.2c0.1,0.1,0.1-0.1,0.1-0.2l-0.1,0c0.1-0.2,0.1,0.1,0.2,0c0,0.1,0,0,0,0
										c0,0.1,0,0,0.1,0c0,0,0.1,0.1,0,0.2c0,0,0-0.1,0-0.1v0l0.1-0.1c0,0,0.1,0.1,0.1,0.2c0.1,0,0.1-0.2,0.1-0.2
										c0,0.1,0,0.1,0,0.1h0.1c0,0.1-0.1,0.1-0.1,0.2c0.1-0.1,0.1,0,0.1-0.1l0,0c0.1-0.1,0.1,0,0.1,0c0,0.1-0.1,0.1-0.1,0.1
										c0,0.1,0.1,0,0.2-0.1c0,0,0.1,0.1,0,0.1c0.1,0,0.1-0.2,0.1-0.1l0,0.1c0.1,0.1,0.2-0.1,0.2,0l0-0.1c0,0.1,0,0.1,0,0.1
										l-0.1,0c0,0.1,0.1-0.1,0.1,0c0,0,0-0.1,0-0.1c-0.2,0.1-0.3-0.1-0.4-0.1c0,0,0,0,0,0.1c0,0-0.1,0,0-0.1l0,0
										c-0.1,0-0.1-0.1-0.1-0.1c0,0.1-0.1-0.1-0.1,0.1v-0.1c0,0.1,0,0.1-0.1,0.1c0,0,0-0.1,0-0.1c-0.1-0.1-0.2-0.1-0.3-0.1l0-0.1
										c0,0-0.1,0.1-0.1-0.1c-0.1,0.1-0.1-0.1-0.2,0.1c0-0.2-0.1-0.1-0.2-0.1c0,0.1-0.1,0-0.1,0.1c0-0.1,0.1-0.1,0.1-0.2
										c-0.1,0.1-0.2-0.2-0.3,0.1v0c0,0,0-0.1,0-0.1c0,0.1,0,0.1,0,0.1c0,0,0-0.1,0-0.1c-0.1,0.1-0.2,0.1-0.2,0.2c0,0,0-0.1,0-0.1
										c-0.1,0.1-0.1,0-0.2,0c0,0,0-0.1,0.1-0.1c0-0.2-0.1,0-0.2-0.1l-0.1,0.1c-0.1,0,0-0.1,0-0.1c-0.1-0.1-0.1,0-0.2,0
										c0,0,0,0,0,0l-0.1,0c0,0-0.1,0.1-0.1,0.1C24.8,102.6,24.8,102.6,24.8,102.6z"/>
									<polygon class="st3" points="24.8,102.7 24.8,102.7 24.8,102.7 									"/>
									<path class="st3" d="M25.4,103.2C25.4,103.2,25.4,103.2,25.4,103.2C25.4,103.2,25.4,103.2,25.4,103.2z"/>
									<path class="st3" d="M24,102.7C24,102.8,24.1,102.6,24,102.7c0.1,0.1,0,0.1,0,0.2c0.1-0.2,0.1,0.1,0.1,0
										c0,0.1-0.1,0.1-0.1,0.1c0.1,0,0.1-0.1,0.2-0.2c0.1,0,0.1,0.1,0.2,0.1c-0.1,0,0,0.1-0.1,0.2c0.1-0.1,0.2-0.2,0.3-0.4
										c0,0.1,0,0.1-0.1,0.2c0.1,0.1,0.1-0.1,0.1-0.1l0,0c0.1,0,0.1-0.1,0.1-0.2h-0.1c0-0.1,0.1-0.1,0.1-0.1c0.1-0.1,0-0.1,0-0.2
										c0,0.1-0.1,0-0.1,0.1v-0.1c0-0.1-0.1,0.1-0.1,0v0c0,0.1-0.1,0.1-0.1,0.1h0c-0.1,0.1-0.2,0.1-0.1,0.3l-0.1-0.1
										c0-0.1,0.1-0.3,0.1-0.3l0-0.1c0-0.1-0.1,0.1-0.1,0.2c-0.1,0.3-0.1,0-0.2,0.1c0-0.1,0.1-0.1,0.1-0.1c0,0,0,0,0,0.1
										c0.1,0,0-0.2,0.1-0.2c0.1,0.1-0.1,0.1,0,0.1l0.1-0.2c-0.1,0-0.1,0-0.1,0c-0.2,0.1-0.3-0.1-0.3-0.1c-0.3,0-0.6-0.1-0.9-0.1
										c-0.1,0-0.1,0-0.2,0.2c0,0.1,0.1,0,0.1,0.1c0-0.1,0.1-0.1,0.1-0.1c0,0.1-0.1,0-0.1,0.1l0,0c0,0,0,0.1-0.1,0.1
										c0,0.1,0.1,0.1,0.2,0c0,0.1-0.1,0.1-0.1,0.2c0.1,0.1,0.2,0.1,0.4,0.1c0-0.1,0-0.1,0.1-0.2v0.1c0,0,0-0.1,0-0.1
										c0.1,0.1,0.1-0.2,0.2-0.2l-0.1,0.1c0.1,0,0.1,0,0.1,0c0.1,0.1-0.1,0-0.1,0.2l0,0c0,0.1-0.1,0.2-0.1,0.2
										c0.1-0.1,0.1,0.1,0.2,0c0,0.1-0.1,0.1-0.1,0.1c0,0,0.1,0,0.1,0l0-0.1c0.1,0,0,0.1,0,0.2C24,103,23.9,102.7,24,102.7z"/>
									<path class="st3" d="M25.2,103L25.2,103C25.2,103,25.2,103,25.2,103z"/>
									<path class="st3" d="M24.9,103.1L24.9,103.1C24.9,103.1,24.9,103.1,24.9,103.1z"/>
									<path class="st3" d="M24.9,103.2C24.9,103.2,24.9,103.2,24.9,103.2C24.9,103.2,24.9,103.1,24.9,103.2z"/>
									<path class="st3" d="M28.7,103.7C28.7,103.7,28.8,103.6,28.7,103.7L28.7,103.7L28.7,103.7z"/>
									<path class="st3" d="M28.6,103.6L28.6,103.6l-0.1,0.1C28.6,103.7,28.6,103.6,28.6,103.6z"/>
									<path class="st3" d="M28.5,103.5L28.5,103.5C28.5,103.5,28.5,103.5,28.5,103.5z"/>
									<path class="st3" d="M28.5,103.6l0,0.1L28.5,103.6L28.5,103.6C28.5,103.6,28.5,103.6,28.5,103.6L28.5,103.6L28.5,103.6z"/>
									<path class="st3" d="M28.4,103.6L28.4,103.6C28.4,103.6,28.4,103.6,28.4,103.6z"/>
									<path class="st3" d="M28.3,103.4c0,0,0,0.1,0,0.1C28.3,103.6,28.3,103.5,28.3,103.4c0,0.2,0.1,0.1,0.1,0.2
										C28.4,103.5,28.4,103.5,28.3,103.4L28.3,103.4C28.3,103.5,28.3,103.5,28.3,103.4z"/>
									<path class="st3" d="M28.1,103.6L28.1,103.6c0.1,0,0.1,0,0.1,0.1c0,0,0-0.1,0.1-0.1c0,0.1,0,0.1,0.1,0
										c-0.1-0.1-0.1-0.1-0.1-0.1c0,0,0,0,0,0l-0.1-0.1C28.1,103.5,28,103.5,28.1,103.6z"/>
									<path class="st3" d="M28,103.5c0.1,0,0.1-0.1,0.1-0.1L28,103.5C28,103.4,28,103.4,28,103.5z"/>
									<path class="st3" d="M28,103.5C28,103.4,27.9,103.3,28,103.5C27.9,103.4,27.9,103.5,28,103.5z"/>
									<path class="st3" d="M27.7,103.4L27.7,103.4c0.1,0.2,0,0.1,0,0.1c0.1,0,0.1,0,0.1-0.1c0,0,0.1-0.1,0.1-0.1
										C27.7,103.5,27.8,103.2,27.7,103.4z"/>
									<polygon class="st3" points="27.8,103.5 27.8,103.5 27.8,103.5 									"/>
									<path class="st3" d="M27.5,103.2c0-0.1-0.1,0.1-0.1,0c0,0,0,0,0,0h-0.1v0c0,0.1-0.1,0.1-0.1,0.2c0,0.1,0-0.1,0.1,0
										c0,0,0,0.1-0.1,0.1c0,0,0.1-0.1,0.1-0.1c0,0,0,0.1,0,0.1C27.4,103.3,27.4,103.2,27.5,103.2c0,0.1-0.1,0.1,0,0.1
										C27.5,103.2,27.5,103.4,27.5,103.2c0.1,0.1,0.1,0.2,0.1,0.2c0-0.1,0.1-0.2,0.1-0.2l-0.1,0.1v-0.1
										C27.6,103.3,27.5,103.3,27.5,103.2L27.5,103.2z"/>
									<path class="st3" d="M27.3,103.5L27.3,103.5C27.3,103.5,27.3,103.5,27.3,103.5z"/>
									<polygon class="st3" points="27.6,103.5 27.6,103.5 27.6,103.6 									"/>
									<path class="st3" d="M27.2,103.5C27.2,103.5,27.3,103.5,27.2,103.5L27.2,103.5L27.2,103.5z"/>
									<polygon class="st3" points="27.2,103.5 27.2,103.4 27.2,103.4 									"/>
									<path class="st3" d="M26.3,103.2C26.3,103.3,26.3,103.2,26.3,103.2C26.3,103.1,26.3,103.2,26.3,103.2z"/>
									<path class="st3" d="M25.7,103.2c0,0.1,0.1,0,0.1,0C25.8,103.2,25.7,103.2,25.7,103.2z"/>
									<path class="st3" d="M25.4,103.4C25.4,103.4,25.4,103.4,25.4,103.4l0.1-0.2C25.4,103.2,25.4,103.4,25.4,103.4z"/>
									<path class="st3" d="M25.1,103.4L25.1,103.4L25.1,103.4c0.1-0.1,0.1-0.1,0.1-0.2C25.2,103.3,25.1,103.3,25.1,103.4z"/>
									<path class="st3" d="M25.3,103.2L25.3,103.2C25.2,103.2,25.2,103.3,25.3,103.2z"/>
									<path class="st3" d="M25.2,103.2C25.2,103.2,25.2,103.2,25.2,103.2C25.2,103.2,25.2,103.2,25.2,103.2L25.2,103.2z"/>
									<path class="st3" d="M25.1,103.3L25.1,103.3L25.1,103.3C25.1,103.3,25.1,103.4,25.1,103.3z"/>
									<path class="st3" d="M24.7,103.2L24.7,103.2c-0.1-0.1-0.2,0.1-0.2-0.1c0,0.1-0.1,0.1,0,0.1
										C24.6,103.1,24.7,103.1,24.7,103.2z"/>
									<path class="st3" d="M24.5,103C24.6,103,24.5,103,24.5,103C24.5,102.9,24.5,103,24.5,103C24.5,102.9,24.5,103.1,24.5,103z"
										/>
									<path class="st3" d="M24.3,103C24.3,103,24.3,103,24.3,103c0,0,0,0.1-0.1,0.1C24.3,103.1,24.3,103,24.3,103z"/>
									<path class="st3" d="M24.1,102.3C24.1,102.4,24.1,102.4,24.1,102.3C24.1,102.4,24.1,102.3,24.1,102.3z"/>
									<polygon class="st3" points="24,102.9 24,102.9 24,102.8 									"/>
									<polygon class="st3" points="23.7,102.9 23.7,103 23.7,103 									"/>
									<path class="st3" d="M23.7,102.9L23.7,102.9L23.7,102.9C23.6,102.9,23.6,102.9,23.7,102.9z"/>
									<path class="st3" d="M23.5,102.9C23.5,102.8,23.5,102.9,23.5,102.9L23.5,102.9L23.5,102.9z"/>
									<path class="st3" d="M22.9,102.3C22.9,102.2,22.9,102.2,22.9,102.3C22.9,102.2,22.9,102.3,22.9,102.3z"/>
								</g>
							</g>
						</g>
					</g>
				</g>
			</g>
			<line class="st12" x1="33.4" y1="122.4" x2="32.9" y2="121.1"/>
		</g>
	</g>
</g>
<g id="Illustration_15_">
	<g>
		<path class="st0" d="M49,58c0,0-1.4,0.5,2.5,0.7c3.9,0.2,24.6,0.2,26.8,0c2.1-0.2,6.3-0.1,0.8-0.7c-5.5-0.6-11.2-0.2-16.7-0.6
			C56.8,57.1,49.8,57.4,49,58z"/>
		<g>
			<path class="st16" d="M74.9,39l2.8,17c0,0-4.6-0.9-4.8-1.8c-0.2-0.9-1.8-11.8-1.8-11.8L74.9,39z"/>
			<g>
				<g>
					<defs>
						<path id="SVGID_00000005231570767685779600000002141413617008437670_" d="M74.9,39l2.8,17c0,0-4.6-0.9-4.8-1.8
							c-0.2-0.9-1.8-11.8-1.8-11.8L74.9,39z"/>
					</defs>
					<clipPath id="SVGID_00000014616857054540819310000006688700721564781203_">
						<use xlink:href="#SVGID_00000005231570767685779600000002141413617008437670_"  style="overflow:visible;"/>
					</clipPath>
					<g style="opacity:0.88;clip-path:url(#SVGID_00000014616857054540819310000006688700721564781203_);">
						<g>
							<g>
								<g>
									<path class="st3" d="M74,42.3C74.1,42.3,74.1,42.3,74,42.3C74.1,42.3,74.1,42.3,74,42.3z"/>
									<path class="st3" d="M73.7,43.6C73.7,43.6,73.7,43.6,73.7,43.6L73.7,43.6L73.7,43.6z"/>
									<path class="st3" d="M73.7,43.6L73.7,43.6C73.6,43.6,73.6,43.6,73.7,43.6z"/>
									<path class="st3" d="M74.6,42.3C74.6,42.3,74.6,42.3,74.6,42.3L74.6,42.3z"/>
									<path class="st3" d="M74.8,42.6C74.8,42.6,74.8,42.6,74.8,42.6C74.8,42.6,74.8,42.6,74.8,42.6z"/>
									<path class="st3" d="M74.3,41C74.3,41,74.3,41,74.3,41C74.3,41,74.3,41,74.3,41z"/>
									<path class="st3" d="M74.4,40.9L74.4,40.9L74.4,40.9C74.5,40.9,74.5,40.9,74.4,40.9z"/>
									<path class="st3" d="M74.5,41L74.5,41C74.5,41,74.5,41,74.5,41z"/>
									<path class="st3" d="M75.6,40.7L75.6,40.7C75.6,40.7,75.6,40.7,75.6,40.7z"/>
									<path class="st3" d="M74.2,41C74.2,41,74.2,41,74.2,41C74.2,41,74.2,41,74.2,41z"/>
									<path class="st3" d="M74,42.2C74,42.2,74,42.2,74,42.2C74,42.3,74,42.3,74,42.2z"/>
									<path class="st3" d="M74.6,42.2L74.6,42.2L74.6,42.2z"/>
									<path class="st3" d="M73.4,44.1C73.4,44.1,73.4,44.1,73.4,44.1C73.4,44.1,73.4,44.1,73.4,44.1z"/>
									<path class="st3" d="M74.3,41.4c0.2,0.1,0,0,0.2,0c-0.1,0-0.1,0,0,0.1c0.1,0,0-0.1,0.2,0l-0.1,0c0.1,0.1,0.2,0.1,0.2,0.1
										c-0.3-0.1,0.1,0.1,0,0.2h0l0.1,0.1c0,0,0,0,0,0c0,0,0,0,0,0c0.1,0.1,0.2,0.1,0.1,0.2c-0.1,0-0.1,0.1-0.2,0.1
										c0,0,0.1,0,0-0.1L74.8,42c0,0,0.2,0.1,0,0.1c-0.2-0.1,0-0.1,0-0.1c-0.1,0-0.1,0-0.1,0c0-0.1,0-0.2,0.2-0.1
										c0,0-0.1-0.1-0.2-0.1c0.2,0-0.1-0.1,0-0.1c-0.2-0.1-0.1,0.1-0.3,0c0.1,0.1,0,0.1-0.1,0.2c0.2,0.1,0.3,0.1,0.4,0.1
										c0.1,0.1-0.1,0-0.2,0c0,0.1,0.3,0.1,0.2,0.2h0.1c0.2,0.1-0.1,0-0.1,0.1c-0.1,0-0.1-0.1-0.1-0.1c-0.1,0-0.1,0-0.1,0v0
										c-0.1,0-0.2-0.1-0.2,0c0.1,0,0.1,0.1,0.1,0.1h0c-0.1,0,0,0.1-0.1,0.1l0,0c-0.1,0-0.2,0-0.2,0c0.1,0,0.3,0,0.2,0.1
										c0.1,0,0.1,0,0.1-0.1c0,0,0.2,0.1,0.2,0.1c0.1,0.1-0.1,0,0,0.1c0,0-0.1,0-0.1,0c0.2,0.1,0,0.1-0.1,0h0.1
										c-0.1-0.1-0.2,0-0.3-0.1c0.2,0.1-0.1,0.1,0,0.2l-0.1-0.1c0,0.1-0.2,0.1-0.3,0.2c0.1,0,0.3,0.1,0.3,0c0,0.1,0.2,0.1,0.3,0.2
										c0.1,0.1-0.2,0-0.3-0.1l0.1,0c-0.3,0,0,0.2-0.2,0.2c0.1,0,0,0,0.1,0c0.1,0.1,0,0-0.1,0c0,0.1,0,0.1,0.2,0.2
										c0,0.1-0.1,0-0.2,0l0,0l-0.2,0c0,0.1,0.1,0.1,0.3,0.2c-0.1,0.1-0.4-0.1-0.5-0.1c0.1,0.1,0.1,0,0.2,0.1l0,0.1
										c0.2,0.1,0.1,0,0.3,0.1c-0.2,0-0.1,0-0.3,0l0,0c-0.2,0-0.1,0.1-0.1,0.1c0.1,0,0.1,0,0.2,0c0.1,0.1-0.1,0.2-0.3,0.1
										c0,0,0.1,0.1,0.2,0.1c0,0.1-0.3-0.1-0.3,0l0.1,0.1c0.2,0.2-0.3,0.1-0.1,0.2L73.5,44c0.1,0,0.1,0.1,0.2,0.1l0.1,0
										c0.1,0.1-0.2,0-0.1,0.1c-0.1,0-0.2-0.1-0.2-0.1c0.2-0.1,0-0.4,0.2-0.5c0,0,0,0,0.1,0c0,0,0-0.1-0.1-0.1h0
										c0.1,0-0.1-0.2-0.1-0.2c0.1,0,0-0.1,0.2,0l-0.1-0.1c0.1,0,0.2,0.1,0.2,0.1c0,0-0.1-0.1-0.2-0.1c0-0.1,0-0.3,0.2-0.4h-0.1
										c0,0,0.2,0,0-0.1c0.1,0,0-0.2,0.3-0.1c-0.2-0.1-0.1-0.2,0-0.3c0.2,0.1,0.1,0,0.2,0c-0.2-0.1-0.2,0-0.3,0
										c0.3,0-0.1-0.3,0.3-0.2c0,0,0,0-0.1,0c0,0-0.1-0.1-0.1-0.1c0.1,0,0.1,0.1,0.1,0c0,0-0.1-0.1-0.2-0.1c0.1,0,0.2-0.1,0.4,0
										c0,0-0.1-0.1-0.2-0.1c0.2,0,0-0.1,0.1-0.2c0,0-0.2-0.1-0.1,0c-0.2-0.1,0.1-0.1,0-0.3l0.2,0c0,0-0.1-0.1-0.2-0.1
										C74.1,41.4,74.2,41.4,74.3,41.4c-0.1,0-0.1,0-0.1,0L74.3,41.4c-0.1-0.1,0-0.1,0.1-0.1C74.3,41.3,74.3,41.3,74.3,41.4z"/>
									<path class="st3" d="M74.4,41.3L74.4,41.3L74.4,41.3C74.5,41.3,74.4,41.3,74.4,41.3z"/>
									<path class="st3" d="M74.9,42.4C74.8,42.3,74.8,42.3,74.9,42.4C74.8,42.3,74.8,42.3,74.9,42.4z"/>
									<path class="st3" d="M75,40.7C75.2,40.7,75,40.7,75,40.7c0.1,0.1,0.2,0.1,0.3,0.2c-0.3-0.1,0,0.1-0.1,0.1
										c0.1,0,0.1,0,0.3,0c-0.1,0-0.2,0.1-0.3,0c0,0.1,0,0.2,0,0.2c0.1,0,0.2,0.1,0.3,0.1c-0.2,0-0.5,0-0.8,0
										c0.2,0.1,0.2,0.1,0.4,0.1c0.1,0.1-0.2,0-0.2,0.1l0-0.1c-0.1,0-0.3,0-0.4-0.1l0.1-0.1c-0.1,0-0.1,0-0.2,0
										c-0.2,0-0.1-0.1-0.2-0.1c0.1,0,0.1,0,0.1,0l-0.1,0c-0.1-0.1,0.1,0,0.1-0.1c0,0,0,0,0,0c0.1,0,0.2,0,0.2,0l0,0
										c0.2,0,0.3,0,0.5,0.1l0-0.1c-0.2-0.1-0.5-0.1-0.5-0.1l-0.1,0c-0.1-0.1,0.2-0.1,0.3,0c0.5,0.1,0.1-0.2,0.3-0.2
										c-0.1-0.1-0.2,0-0.3,0c0,0,0,0,0.1,0.1c-0.1,0.1-0.4-0.2-0.4,0c0,0.1,0.2,0,0.2,0.1l-0.4-0.1c0,0,0.1-0.1,0.2-0.1
										c0.3-0.1,0.2-0.4,0.2-0.4c0.2-0.3,0.3-0.6,0.5-0.9c0.1-0.1,0.1-0.1,0.4,0c0.1,0,0,0.1,0.1,0.1c-0.1,0-0.2,0-0.2,0
										c0.1,0.1,0.1,0,0.1,0v0c0.1,0,0.1,0,0.1,0c0.2,0.1,0.1,0.2-0.2,0.2c0.1,0.1,0.2,0,0.3,0.1c0,0.2,0,0.3-0.1,0.5
										c-0.2-0.1-0.1,0-0.3-0.1l0.1,0c0,0-0.2-0.1-0.2-0.1c0.1,0.2-0.3,0-0.4,0l0.1,0c0,0-0.1,0.1-0.1,0.1
										c0.2,0.2,0.1-0.1,0.3,0.1H75c0.1,0,0.3,0.1,0.4,0.1c-0.2,0,0,0.2-0.1,0.2c0.1,0,0.3,0,0.3,0c0,0-0.1,0.1,0,0.1l-0.2-0.1
										c0,0,0.2,0,0.2,0.1C75.6,40.9,75.1,40.6,75,40.7z"/>
									<path class="st3" d="M74.6,42C74.6,42,74.6,42,74.6,42C74.6,42,74.6,42,74.6,42z"/>
									<path class="st3" d="M75,41.8C75,41.8,75.1,41.9,75,41.8C75.1,41.9,75,41.9,75,41.8z"/>
									<path class="st3" d="M75.2,41.9c-0.1,0-0.1,0-0.2,0C75.1,41.9,75.1,41.8,75.2,41.9z"/>
									<path class="st3" d="M73.3,46c0,0-0.1,0-0.1-0.1L73.3,46L73.3,46z"/>
									<path class="st3" d="M73.3,45.8L73.3,45.8l0.2,0C73.4,45.9,73.3,45.8,73.3,45.8z"/>
									<path class="st3" d="M73.2,45.6L73.2,45.6C73.2,45.6,73.2,45.6,73.2,45.6z"/>
									<path class="st3" d="M73.3,45.7l0.2,0.1L73.3,45.7L73.3,45.7C73.3,45.7,73.3,45.7,73.3,45.7L73.3,45.7
										C73.3,45.7,73.3,45.7,73.3,45.7z"/>
									<path class="st3" d="M73.4,45.6C73.4,45.7,73.4,45.7,73.4,45.6C73.4,45.7,73.4,45.7,73.4,45.6z"/>
									<path class="st3" d="M73.2,45.4c0,0,0.1,0.1,0.2,0.1c0,0.1-0.2,0-0.1,0c0.2,0,0.1,0.1,0.1,0.1
										C73.2,45.5,73.2,45.5,73.2,45.4L73.2,45.4C73.3,45.4,73.2,45.4,73.2,45.4z"/>
									<path class="st3" d="M73.5,45.3l-0.2,0c0.1,0,0,0.1,0.2,0.2c0,0-0.1,0-0.1,0c0.1,0.1,0.1,0.1,0,0.1c0-0.1-0.1-0.1-0.1-0.2
										c0,0,0,0,0,0l0-0.1C73.4,45.2,73.5,45.1,73.5,45.3z"/>
									<path class="st3" d="M73.5,45.1c0,0-0.2,0-0.3-0.1L73.5,45.1C73.4,45,73.3,45.1,73.5,45.1z"/>
									<path class="st3" d="M73.5,45.1c-0.1-0.1-0.2-0.2,0-0.1C73.4,45,73.6,45.1,73.5,45.1z"/>
									<path class="st3" d="M73.5,44.7l0.1,0.1c0.2,0.1,0.1,0,0.2,0c0,0.1,0,0-0.2,0c0,0-0.1,0-0.2,0
										C73.6,44.8,73.1,44.6,73.5,44.7z"/>
									<polygon class="st3" points="73.6,44.9 73.5,44.9 73.6,44.9 									"/>
									<path class="st3" d="M73.4,44.4c-0.2-0.2,0.2,0,0.1-0.1c0,0,0,0-0.1,0l0,0l0,0c0.1,0.1,0.2,0,0.3,0.1c0.1,0.1-0.2,0,0,0.1
										c0.1,0,0.2,0.1,0.2,0.1c-0.1,0-0.2,0-0.2,0c0,0,0.1,0.1,0.1,0.1c-0.1,0-0.3-0.1-0.3,0c0.1,0.1,0.2,0.1,0.1,0.1
										c-0.2-0.1,0,0.1-0.1,0c0,0.1,0.1,0.2,0.2,0.2c-0.2-0.1-0.3-0.1-0.4-0.1h0.2L73.4,44.4C73.4,44.5,73.4,44.5,73.4,44.4
										L73.4,44.4z"/>
									<path class="st3" d="M73.9,44.4C73.9,44.4,73.9,44.4,73.9,44.4C73.9,44.4,73.9,44.4,73.9,44.4z"/>
									<polygon class="st3" points="73.7,44.8 73.8,44.8 73.8,44.8 									"/>
									<path class="st3" d="M74.1,44.4C74.1,44.4,74,44.4,74.1,44.4L74.1,44.4L74.1,44.4z"/>
									<polygon class="st3" points="74,44.3 73.9,44.3 74,44.3 									"/>
									<path class="st3" d="M74.3,43.3c0.1,0.1-0.1,0-0.2,0C74.1,43.2,74.2,43.3,74.3,43.3z"/>
									<path class="st3" d="M74.7,42.7C74.7,42.8,74.6,42.7,74.7,42.7C74.5,42.7,74.6,42.7,74.7,42.7z"/>
									<path class="st3" d="M75.2,42.6C75.2,42.6,75.1,42.6,75.2,42.6l-0.3-0.1C74.8,42.4,75.1,42.5,75.2,42.6z"/>
									<path class="st3" d="M75.4,42.3l-0.1,0v0c-0.1,0-0.2,0-0.2,0C75.1,42.2,75.2,42.2,75.4,42.3z"/>
									<path class="st3" d="M75,42.3C75,42.3,75,42.3,75,42.3C75,42.3,75.1,42.3,75,42.3z"/>
									<path class="st3" d="M75,42.2C75,42.2,75,42.2,75,42.2C75,42.2,75,42.2,75,42.2C75,42.2,75,42.2,75,42.2z"/>
									<path class="st3" d="M75.3,42.2L75.3,42.2L75.3,42.2C75.2,42.1,75.4,42.2,75.3,42.2z"/>
									<path class="st3" d="M75.3,41.7l-0.1-0.1c0-0.1,0.3,0,0.1-0.1c0.1,0.1,0.2,0,0.2,0.1C75.3,41.6,75.3,41.7,75.3,41.7z"/>
									<path class="st3" d="M75.2,41.4c0,0-0.1,0-0.1-0.1C75.1,41.3,75.1,41.3,75.2,41.4C75,41.3,75.3,41.4,75.2,41.4z"/>
									<path class="st3" d="M75.3,41.2C75.3,41.2,75.2,41.2,75.3,41.2c0,0,0.1,0,0.2,0C75.6,41.3,75.3,41.2,75.3,41.2z"/>
									<path class="st3" d="M74.4,40.4C74.5,40.5,74.5,40.5,74.4,40.4C74.4,40.5,74.4,40.4,74.4,40.4z"/>
									<polygon class="st3" points="75.4,40.8 75.4,40.8 75.2,40.7 									"/>
									<polygon class="st3" points="75.6,40.5 75.7,40.5 75.7,40.6 									"/>
									<path class="st3" d="M75.6,40.4L75.6,40.4L75.6,40.4C75.7,40.5,75.6,40.4,75.6,40.4z"/>
									<path class="st3" d="M75.6,40.3C75.6,40.3,75.6,40.3,75.6,40.3L75.6,40.3L75.6,40.3z"/>
									<path class="st3" d="M75.2,39.2C75.1,39.2,75.1,39.2,75.2,39.2C75.2,39.2,75.3,39.3,75.2,39.2z"/>
								</g>
							</g>
						</g>
					</g>
				</g>
			</g>
			<path class="st16" d="M68.4,11.3c0,0,2.2-0.2,3.9,0c1.7,0.2,2.6,2.2,2.6,2.2s6.2,0.4,6.3,0.5c0.1,0.1,0.8,3.6-2.3,5.2
				c-2.5,1.3-5.1,1.3-5.1,1.3s-0.4,1.3-0.5,2.3c-0.1,1,0.4,1.9,1.1,3.3c0.7,1.4,2.2,4.3,1.9,7.9c-0.1,1-0.6,3.2-1.3,5.9
				c-0.2,0.8-0.5,1.8-0.8,2.7c-0.2,0.6-0.4,1.3-0.6,1.9c-1.9,6.6-4.1,13.6-4.1,13.6s-8.2,0-11.5,0s-5.9-1.5-4.8-8.3
				c1.1-6.5,4.2-10.7,12.3-30C65.7,19.7,66.3,11.8,68.4,11.3z"/>
			<path class="st18" d="M75.1,39.8c-0.2,0.8-0.5,1.8-0.8,2.7c-0.2,0.6-0.4,1.3-0.6,1.9"/>
			<path class="st18" d="M55,48.9c0,0-0.3,3.1,2.8,4.2c3,1.1,6.7,1.1,6.7,4.9"/>
			<path class="st16" d="M70.4,30c0,0,1.2,0.7,1.9,5.1s3.1,19.8,3.1,19.8s4.7-0.3,4.4,3.2H66.7L66,37.6C66,37.6,68.2,29.4,70.4,30z"
				/>
			<path class="st18" d="M70.4,30c0,0,1.2,0.7,1.9,5.1s3.1,19.8,3.1,19.8s4.7-0.3,4.4,3.2"/>
			<path class="st0" d="M68.3,11.2c0,0,0.6,0.4,0.4,1.4c-0.2,1-1.3,3.4-1.4,4.5s0.8,4.4,0,4.9c-0.5,0.3-1.6,0.2-3.4-1.8
				c-1.8-2-2.4-2.9-1.5-4.5C63.4,14,66.7,10,68.3,11.2z"/>
			<path class="st18" d="M80.2,18.2c0,0-0.8,0.8-2.5,0.8c-1.8,0.1-4,0.1-4.6,0.7"/>
			<path class="st19" d="M79.7,13.7c0,0-0.2,1.2,0.4,1.7s1.3,0.1,1.3,0.2c0,0,0.2-0.8,0-1.6c0-0.1-0.1-0.1-0.1-0.1
				C80.9,13.8,79.8,13.7,79.7,13.7z"/>
			<path class="st0" d="M72.9,13.8c0,0.3-0.2,0.6-0.5,0.6S72,14.2,72,13.8s0.2-0.3,0.5-0.3C72.7,13.5,72.9,13.5,72.9,13.8z"/>
			<path class="st16" d="M67.4,58h4.9c0,0,0.7-3.2-4.6-3.1c0,0,2.8-4.2,2.2-8.5c-0.6-4.5-5.6-6.8-10.1-3.2"/>
			<path class="st18" d="M70.8,58c0,0,0.1-1.1-0.4-1.6"/>
			<path class="st18" d="M69.1,58c0,0,0-1.1-0.6-1.5"/>
			<path class="st18" d="M78.4,58c0,0,0.1-1.1-0.4-1.6"/>
			<path class="st18" d="M77,58c0,0,0-1.1-0.6-1.5"/>
			<path class="st18" d="M72.3,58c0,0,0.7-3.2-4.6-3.1c0,0,2.8-4.2,2.2-8.5c-0.6-4.5-5.6-6.8-10.1-3.2"/>
			<g>
				<g>
					<defs>
						<path id="SVGID_00000070087520603561690240000011917974861857441684_" d="M73.9,20.5c0,0-1.5,0-3.2,0c0,0,2.1,2.4,3.2,2.5
							c0.4,0-0.5,0.1-0.5-0.3C73.6,21.8,73.9,20.5,73.9,20.5z"/>
					</defs>
					<clipPath id="SVGID_00000160156186881602996520000018105364657507836836_">
						<use xlink:href="#SVGID_00000070087520603561690240000011917974861857441684_"  style="overflow:visible;"/>
					</clipPath>
					<g style="opacity:0.88;clip-path:url(#SVGID_00000160156186881602996520000018105364657507836836_);">
						<g>
							<g>
								<g>
									<path class="st3" d="M72.5,20.5C72.5,20.5,72.5,20.5,72.5,20.5C72.5,20.5,72.5,20.5,72.5,20.5z"/>
									<path class="st3" d="M71.5,20.4L71.5,20.4L71.5,20.4L71.5,20.4z"/>
									<path class="st3" d="M71.5,20.4L71.5,20.4C71.5,20.4,71.5,20.4,71.5,20.4z"/>
									<path class="st3" d="M72.6,20.9C72.6,20.9,72.6,20.9,72.6,20.9L72.6,20.9z"/>
									<path class="st3" d="M72.4,21.1C72.4,21.1,72.4,21.1,72.4,21.1C72.4,21.1,72.4,21.1,72.4,21.1z"/>
									<path class="st3" d="M73.5,20.4L73.5,20.4C73.5,20.4,73.5,20.4,73.5,20.4z"/>
									<path class="st3" d="M73.5,20.5C73.5,20.5,73.5,20.5,73.5,20.5L73.5,20.5C73.5,20.6,73.5,20.5,73.5,20.5z"/>
									<path class="st3" d="M73.5,20.6L73.5,20.6L73.5,20.6z"/>
									<path class="st3" d="M74,21.3L74,21.3C74,21.3,74,21.3,74,21.3z"/>
									<path class="st3" d="M73.4,20.4C73.4,20.4,73.4,20.4,73.4,20.4C73.5,20.4,73.4,20.4,73.4,20.4z"/>
									<path class="st3" d="M72.5,20.5C72.5,20.5,72.5,20.5,72.5,20.5C72.5,20.5,72.5,20.5,72.5,20.5z"/>
									<path class="st3" d="M72.6,20.9L72.6,20.9L72.6,20.9z"/>
									<path class="st3" d="M71.1,20.3L71.1,20.3C71.1,20.3,71.2,20.3,71.1,20.3z"/>
									<path class="st3" d="M73.2,20.5c0,0.2,0,0,0,0.2c0,0,0-0.1,0,0c0,0.1,0,0,0,0.1l0-0.1c0,0.1,0,0.2,0,0.2
										c0-0.2-0.1,0.1-0.1,0v0L73,21.1c0,0,0,0,0,0c0,0,0,0,0,0c0,0.1-0.1,0.2-0.1,0.1c0-0.1-0.1-0.1-0.1-0.1c0,0,0,0,0,0l0-0.1
										c0,0,0,0.1,0,0c0-0.2,0,0,0.1,0c0,0,0-0.1,0-0.1c0,0,0.1-0.1,0.1,0.1c0,0,0-0.1,0-0.1c0,0.1,0-0.1,0.1,0
										c0-0.2-0.1-0.1-0.1-0.2c-0.1,0.1-0.1,0-0.1,0c0,0.1,0,0.2,0,0.3c-0.1,0.1,0-0.1-0.1-0.1c0,0,0,0.2-0.1,0.2l0,0.1
										c-0.1,0.2,0-0.1-0.1,0c0,0,0-0.1,0-0.1c0-0.1,0-0.1,0-0.1l0,0c0-0.1,0-0.2,0-0.1c0,0.1,0,0.1-0.1,0.1v0c0,0,0,0-0.1,0v0
										c0,0,0-0.2,0-0.1c0,0.1,0,0.2,0,0.2c0,0.1,0,0.1,0.1,0.1c0,0-0.1,0.1,0,0.2c0,0.1,0,0-0.1,0c0,0,0-0.1,0-0.1
										c0,0.1-0.1,0-0.1-0.1l0,0.1c0-0.1,0-0.2,0-0.2c0,0.2-0.1-0.1-0.1,0l0-0.1c-0.1,0-0.1-0.2-0.2-0.2c0,0.1,0,0.2,0,0.2
										c-0.1,0-0.1,0.2-0.1,0.3c-0.1,0.1,0-0.2,0-0.2l0,0c0-0.2-0.1,0-0.2-0.1c0,0.1,0,0,0,0.1c-0.1,0.1,0,0,0-0.1
										c0,0-0.1,0.1-0.1,0.2c0,0,0-0.1,0-0.1l0,0v-0.2c0,0-0.1,0.1-0.1,0.2c-0.1,0,0-0.3,0-0.3c0,0.1,0,0.1,0,0.2l0,0
										c0,0.2,0,0.1,0,0.3c0-0.2,0-0.1-0.1-0.2v0c0-0.1-0.1-0.1-0.1-0.1c0,0.1,0,0.1,0,0.1c0,0.1-0.1,0-0.1-0.2
										c0,0-0.1,0.1-0.1,0.1c-0.1,0,0-0.2,0-0.2l0,0.1c-0.1,0.1-0.1-0.2-0.2,0l0-0.1c0,0.1-0.1,0.1-0.1,0.1l0,0.1
										c-0.1,0.1,0-0.1-0.1,0c0,0,0.1-0.1,0.1-0.2c0.1,0.1,0.3-0.1,0.4,0.1c0,0,0,0,0,0.1c0,0,0,0,0.1-0.1v0c0,0,0.1-0.1,0.1-0.1
										c0,0.1,0.1,0,0,0.1l0-0.1c0,0.1,0,0.1,0,0.2c0,0,0-0.1,0-0.1c0.1,0,0.2,0,0.3,0.1v-0.1c0,0,0.1,0.2,0.1,0
										c0,0.1,0.1,0,0.1,0.2c0.1-0.2,0.1-0.1,0.2,0c0,0.2,0,0.1,0,0.1c0-0.1,0-0.1,0-0.2c0,0.2,0.2-0.1,0.2,0.2c0,0,0,0,0,0
										c0,0,0-0.1,0.1-0.1c0,0.1,0,0.1,0,0.1c0,0,0-0.1,0-0.2c0,0.1,0.1,0.1,0.1,0.3c0,0,0-0.1,0-0.1c0.1,0.1,0.1,0,0.1,0.1
										c0,0,0-0.2,0-0.1c0.1-0.2,0.1,0,0.2,0v0.1c0,0,0-0.1,0-0.1C73.1,20.4,73.2,20.5,73.2,20.5c0-0.1,0-0.1,0-0.1h0.1
										C73.3,20.5,73.3,20.5,73.2,20.5C73.2,20.5,73.2,20.5,73.2,20.5z"/>
									<path class="st3" d="M73.2,20.6L73.2,20.6L73.2,20.6C73.2,20.6,73.2,20.6,73.2,20.6z"/>
									<path class="st3" d="M72.6,21.1C72.6,21,72.6,21,72.6,21.1C72.6,21,72.6,21.1,72.6,21.1z"/>
									<path class="st3" d="M73.8,20.9C73.8,21,73.8,20.8,73.8,20.9c-0.1,0.1-0.1,0.2-0.1,0.2c0-0.3,0,0.1-0.1,0
										c0,0.1,0,0.1,0,0.2c0-0.1-0.1-0.1-0.1-0.2c-0.1,0-0.1,0-0.1,0c0,0.1,0,0.1,0,0.3c0-0.2-0.1-0.4-0.2-0.6c0,0.2,0,0.2,0,0.3
										c-0.1,0.1,0-0.1-0.1-0.1l0,0c0,0,0-0.2,0-0.3l0.1,0c0-0.1,0-0.1-0.1-0.1c0-0.1,0-0.1,0-0.2c0,0.1,0,0.1,0.1,0.1v-0.1
										c0-0.1,0,0.1,0.1,0.1c0,0,0,0,0,0c0,0.1,0,0.1,0,0.2h0c0,0.1,0.1,0.2,0,0.4l0.1,0c0-0.2,0-0.4-0.1-0.4v-0.1
										c0-0.1,0.1,0.1,0.1,0.2C73.6,21,73.7,20.7,73.8,20.9c-0.1-0.1-0.1-0.1-0.1-0.2c0,0,0,0,0,0.1c-0.1-0.1,0-0.3-0.1-0.3
										c0,0,0,0.2,0,0.2l0-0.3c0,0,0.1,0.1,0.1,0.1c0.2,0.2,0.3,0,0.3,0c0.1,0,0.2,0,0.3,0c0.1,0,0.2,0,0.3,0c0.1,0,0.1,0,0.2,0.3
										c0,0.1-0.1,0,0,0.1c0-0.1-0.1-0.1-0.1-0.1c0,0.1,0,0,0,0.1l0,0c0,0,0,0.1,0,0.1c0,0.2-0.1,0.1-0.2,0c0,0.1,0,0.2,0.1,0.2
										c-0.1,0.1-0.2,0.1-0.4,0.1c0-0.2,0-0.1,0-0.2V21c0,0,0-0.2,0-0.2c-0.1,0.1-0.1-0.2-0.2-0.3v0.1c0,0-0.1,0-0.1-0.1
										c-0.1,0.2,0.1,0,0,0.2l0,0c0,0.1,0,0.2,0.1,0.3C74,21,74,21.2,73.9,21c0,0.1,0.1,0.2,0.1,0.2c0,0-0.1-0.1-0.1,0v-0.1
										c0,0,0,0.1,0,0.2C73.8,21.3,73.9,20.9,73.8,20.9z"/>
									<path class="st3" d="M72.8,20.9C72.8,20.9,72.8,20.9,72.8,20.9C72.8,20.9,72.8,20.9,72.8,20.9z"/>
									<path class="st3" d="M73,21.1C73,21.1,73,21.1,73,21.1C73,21.1,73,21.1,73,21.1z"/>
									<path class="st3" d="M73,21.3c0-0.1,0-0.1,0-0.1C73,21.2,73,21.2,73,21.3z"/>
									<path class="st3" d="M69.7,20.4C69.7,20.3,69.7,20.3,69.7,20.4L69.7,20.4L69.7,20.4z"/>
									<path class="st3" d="M69.9,20.3L69.9,20.3v0.1C69.8,20.4,69.9,20.3,69.9,20.3z"/>
									<path class="st3" d="M70,20.3L70,20.3C70,20.3,70,20.3,70,20.3z"/>
									<path class="st3" d="M70,20.4l0,0.1L70,20.4L70,20.4C70,20.3,70,20.3,70,20.4L70,20.4C70,20.4,70,20.3,70,20.4z"/>
									<path class="st3" d="M70,20.4C70,20.4,70,20.4,70,20.4C70,20.4,70,20.4,70,20.4z"/>
									<path class="st3" d="M70.2,20.2c0,0,0,0.1-0.1,0.2C70.1,20.4,70.2,20.2,70.2,20.2c-0.1,0.2-0.1,0.1-0.2,0.2
										C70.1,20.3,70.1,20.2,70.2,20.2L70.2,20.2C70.2,20.3,70.2,20.2,70.2,20.2z"/>
									<path class="st3" d="M70.3,20.5l0-0.1C70.3,20.4,70.3,20.4,70.3,20.5C70.2,20.5,70.2,20.4,70.3,20.5c-0.1,0-0.2,0-0.1-0.1
										c0.1,0,0.1-0.1,0.2-0.1c0,0,0,0,0,0l0.1,0C70.4,20.4,70.4,20.4,70.3,20.5z"/>
									<path class="st3" d="M70.4,20.4c0,0,0-0.1,0-0.2L70.4,20.4C70.5,20.3,70.5,20.3,70.4,20.4z"/>
									<path class="st3" d="M70.5,20.4C70.5,20.4,70.6,20.3,70.5,20.4C70.5,20.3,70.5,20.5,70.5,20.4z"/>
									<path class="st3" d="M70.7,20.4L70.7,20.4c-0.1,0.2-0.1,0.1-0.1,0.2C70.6,20.6,70.6,20.5,70.7,20.4c-0.1,0-0.1,0-0.1-0.1
										C70.6,20.5,70.8,20.1,70.7,20.4z"/>
									<polygon class="st3" points="70.5,20.5 70.6,20.4 70.6,20.5 									"/>
									<path class="st3" d="M70.9,20.3C71,20.1,71,20.4,70.9,20.3C71,20.3,71,20.3,70.9,20.3l0.1,0l0,0c0,0.1,0,0.2,0,0.2
										c-0.1,0.1,0-0.1-0.1,0c0,0,0,0.1,0,0.2c0-0.1,0-0.1,0-0.2c0,0,0,0,0,0.1C70.9,20.5,71,20.4,70.9,20.3c0,0.2,0,0.2,0,0.2
										C71,20.3,70.8,20.5,70.9,20.3c-0.1,0.1-0.2,0.2-0.2,0.3c0-0.1,0-0.2,0-0.3l0,0.1L70.9,20.3C70.9,20.3,70.9,20.3,70.9,20.3
										L70.9,20.3z"/>
									<path class="st3" d="M71,20.6C71,20.7,71,20.7,71,20.6C71,20.7,71,20.7,71,20.6z"/>
									<polygon class="st3" points="70.7,20.6 70.7,20.6 70.7,20.6 									"/>
									<path class="st3" d="M71,20.8C71,20.8,71,20.7,71,20.8L71,20.8L71,20.8z"/>
									<polygon class="st3" points="71,20.7 71.1,20.6 71.1,20.7 									"/>
									<path class="st3" d="M71.9,20.8c0,0,0-0.1,0-0.1C71.9,20.6,71.8,20.7,71.9,20.8z"/>
									<path class="st3" d="M72.3,21C72.3,21.1,72.3,21,72.3,21C72.3,20.9,72.3,21,72.3,21z"/>
									<path class="st3" d="M72.5,21.4C72.5,21.3,72.5,21.3,72.5,21.4v-0.3C72.5,21.1,72.5,21.3,72.5,21.4z"/>
									<path class="st3" d="M72.7,21.4L72.7,21.4L72.7,21.4c0-0.2,0-0.2,0-0.3C72.7,21.2,72.8,21.3,72.7,21.4z"/>
									<path class="st3" d="M72.7,21.2C72.7,21.2,72.7,21.2,72.7,21.2C72.7,21.2,72.7,21.2,72.7,21.2z"/>
									<path class="st3" d="M72.7,21.2L72.7,21.2C72.7,21.2,72.7,21.2,72.7,21.2C72.7,21.1,72.7,21.1,72.7,21.2z"/>
									<path class="st3" d="M72.8,21.4L72.8,21.4L72.8,21.4C72.8,21.3,72.8,21.5,72.8,21.4z"/>
									<path class="st3" d="M73.2,21.3l0-0.1c0,0,0.1,0.2,0.1,0c0,0.1,0,0.1,0,0.2C73.3,21.3,73.2,21.3,73.2,21.3z"/>
									<path class="st3" d="M73.3,21.1C73.3,21.1,73.3,21.1,73.3,21.1C73.4,21,73.4,21.1,73.3,21.1C73.4,21,73.4,21.2,73.3,21.1z"
										/>
									<path class="st3" d="M73.6,21.2C73.5,21.2,73.5,21.1,73.6,21.2c0,0,0,0.1,0,0.2C73.5,21.4,73.5,21.2,73.6,21.2z"/>
									<path class="st3" d="M73.9,20.4C73.9,20.5,73.8,20.4,73.9,20.4C73.8,20.4,73.8,20.4,73.9,20.4z"/>
									<polygon class="st3" points="73.9,21.1 73.8,21.2 73.8,21 									"/>
									<polygon class="st3" points="74.1,21.2 74.1,21.3 74.1,21.3 									"/>
									<path class="st3" d="M74.1,21.2L74.1,21.2L74.1,21.2C74.1,21.3,74.1,21.2,74.1,21.2z"/>
									<path class="st3" d="M74.3,21.2C74.3,21.2,74.3,21.2,74.3,21.2L74.3,21.2L74.3,21.2z"/>
									<path class="st3" d="M74.8,20.5C74.7,20.5,74.8,20.5,74.8,20.5C74.8,20.5,74.8,20.6,74.8,20.5z"/>
								</g>
							</g>
						</g>
					</g>
				</g>
			</g>
			<line class="st21" x1="67.7" y1="55" x2="66.5" y2="55"/>
		</g>
	</g>
</g>
<g>
	<path class="st22" d="M160.1,53.4c-0.1-0.1-0.2-0.2-0.3-0.3c-0.1-0.1-0.3-0.1-0.4-0.1c-0.3,0-0.5,0.1-0.7,0.2
		c-0.2,0.1-0.4,0.3-0.5,0.5v2.6c0.1,0.2,0.3,0.3,0.5,0.4c0.2,0.1,0.4,0.1,0.6,0.1c0.2,0,0.4,0,0.5-0.1c0.2-0.1,0.3-0.2,0.4-0.3
		c0.1-0.2,0.2-0.3,0.3-0.6c0.1-0.2,0.1-0.5,0.1-0.9c0-0.3,0-0.6-0.1-0.8C160.2,53.7,160.2,53.5,160.1,53.4z"/>
	<path class="st22" d="M151.4,35.9c-0.3-0.3-0.6-0.5-1-0.7c-0.4-0.2-0.8-0.2-1.3-0.2c-0.5,0-0.9,0.1-1.3,0.2c-0.4,0.2-0.7,0.4-1,0.7
		c-0.3,0.3-0.5,0.7-0.6,1.1c-0.1,0.4-0.2,0.9-0.2,1.5c0,0.6,0.1,1.1,0.2,1.5c0.1,0.4,0.4,0.8,0.6,1.1c0.3,0.3,0.6,0.5,1,0.7
		c0.4,0.2,0.8,0.2,1.3,0.2c0.5,0,0.9-0.1,1.3-0.2c0.4-0.2,0.7-0.4,1-0.7c0.3-0.3,0.5-0.7,0.6-1.1c0.1-0.4,0.2-0.9,0.2-1.5
		c0-0.6-0.1-1.1-0.2-1.5C151.9,36.6,151.7,36.2,151.4,35.9z"/>
	<path class="st22" d="M164.7,35.9c-0.3-0.3-0.6-0.5-1-0.7c-0.4-0.2-0.8-0.2-1.3-0.2c-0.5,0-0.9,0.1-1.3,0.2c-0.4,0.2-0.7,0.4-1,0.7
		c-0.3,0.3-0.5,0.7-0.6,1.1c-0.1,0.4-0.2,0.9-0.2,1.5c0,0.6,0.1,1.1,0.2,1.5c0.1,0.4,0.4,0.8,0.6,1.1c0.3,0.3,0.6,0.5,1,0.7
		c0.4,0.2,0.8,0.2,1.3,0.2c0.5,0,0.9-0.1,1.3-0.2c0.4-0.2,0.7-0.4,1-0.7c0.3-0.3,0.5-0.7,0.6-1.1c0.1-0.4,0.2-0.9,0.2-1.5
		c0-0.6-0.1-1.1-0.2-1.5C165.1,36.6,164.9,36.2,164.7,35.9z"/>
	<path class="st22" d="M185.6,31.7c-12.4-16.6-35.5-15.7-47.9-12.1c-5.7,1.6-17.9,5.2-22.6,16.4c-4.1,9.9-1.4,23.4,6.6,30.1
		c13.3,11,33.9-2.4,42.9,8.4c6,7.2,0.8,17.8,4.9,19.4c4.6,1.8,15.3-10,19.8-23.1C190.6,67.1,197.4,47.5,185.6,31.7z M133.6,56.4
		c0.2,0.7,0.4,1.5,0.8,2.1c0,0.1,0.1,0.2,0.1,0.2c0,0.1,0,0.1,0,0.2c0,0,0,0.1-0.1,0.1c0,0-0.1,0.1-0.1,0.1l-0.7,0.4
		c-0.3-0.4-0.5-0.9-0.7-1.3c-0.2-0.4-0.4-0.9-0.5-1.3c-0.1-0.4-0.2-0.9-0.3-1.4c-0.1-0.5-0.1-0.9-0.1-1.4c0-0.5,0-0.9,0.1-1.4
		c0.1-0.5,0.2-0.9,0.3-1.4c0.1-0.4,0.3-0.9,0.5-1.3c0.2-0.4,0.4-0.9,0.7-1.3l0.7,0.4c0,0,0.1,0.1,0.1,0.1c0,0,0.1,0.1,0.1,0.1
		c0,0,0,0.1,0,0.2c0,0.1,0,0.1-0.1,0.2c-0.3,0.7-0.6,1.4-0.8,2.1c-0.2,0.7-0.3,1.5-0.3,2.3C133.3,54.9,133.4,55.7,133.6,56.4z
		 M136.7,43.8l-2.2-7c0-0.1-0.1-0.2-0.1-0.3c0-0.1-0.1-0.2-0.1-0.4c0,0.1-0.1,0.3-0.1,0.4c0,0.1-0.1,0.2-0.1,0.3l-2.2,7h-2
		l-3.3-10.7h1.9c0.2,0,0.4,0,0.5,0.1c0.1,0.1,0.2,0.2,0.3,0.4l1.7,6c0,0.2,0.1,0.3,0.1,0.5c0,0.2,0.1,0.4,0.1,0.6
		c0-0.2,0.1-0.4,0.1-0.6c0-0.2,0.1-0.4,0.2-0.5l1.9-6c0-0.1,0.1-0.2,0.3-0.3c0.1-0.1,0.3-0.2,0.5-0.2h0.6c0.2,0,0.3,0,0.5,0.1
		c0.1,0.1,0.2,0.2,0.3,0.3l1.9,6c0.1,0.2,0.1,0.3,0.2,0.5c0,0.2,0.1,0.4,0.1,0.6c0-0.2,0.1-0.4,0.1-0.6c0-0.2,0.1-0.4,0.1-0.5l1.7-6
		c0-0.1,0.1-0.2,0.2-0.3c0.1-0.1,0.3-0.1,0.5-0.1h1.7l-3.3,10.7H136.7z M143.1,57.7h-1.6V54c0-0.3-0.1-0.6-0.2-0.8
		c-0.2-0.2-0.4-0.3-0.7-0.3c-0.2,0-0.4,0-0.6,0.1c-0.2,0.1-0.4,0.2-0.6,0.4v4.2h-1.6v-8.5h1.6v3.2c0.1-0.1,0.2-0.2,0.3-0.3
		c0.1-0.1,0.2-0.2,0.4-0.2c0.1-0.1,0.3-0.1,0.4-0.1c0.2,0,0.3,0,0.5,0c0.3,0,0.6,0.1,0.8,0.2c0.2,0.1,0.5,0.3,0.6,0.5
		c0.2,0.2,0.3,0.4,0.4,0.7c0.1,0.3,0.1,0.6,0.1,0.9V57.7z M150.5,54.7c0,0.1,0,0.1-0.1,0.2c0,0-0.1,0.1-0.1,0.1c0,0-0.1,0-0.2,0
		h-3.5c0,0.5,0.2,1,0.5,1.2c0.3,0.3,0.6,0.4,1,0.4c0.2,0,0.4,0,0.6-0.1c0.2-0.1,0.3-0.1,0.4-0.2c0.1-0.1,0.2-0.1,0.3-0.2
		c0.1-0.1,0.2-0.1,0.3-0.1c0.1,0,0.2,0,0.3,0.1l0.5,0.6c-0.2,0.2-0.4,0.4-0.6,0.5c-0.2,0.1-0.4,0.2-0.6,0.3
		c-0.2,0.1-0.4,0.1-0.7,0.2c-0.2,0-0.4,0-0.6,0c-0.4,0-0.8-0.1-1.1-0.2c-0.4-0.1-0.7-0.3-0.9-0.6c-0.3-0.3-0.5-0.6-0.6-1
		c-0.2-0.4-0.2-0.8-0.2-1.4c0-0.4,0.1-0.8,0.2-1.1c0.1-0.4,0.3-0.7,0.6-0.9c0.2-0.3,0.5-0.5,0.9-0.6c0.4-0.2,0.7-0.2,1.2-0.2
		c0.4,0,0.7,0.1,1,0.2c0.3,0.1,0.6,0.3,0.8,0.5c0.2,0.2,0.4,0.5,0.5,0.8c0.1,0.3,0.2,0.7,0.2,1.1C150.5,54.6,150.5,54.7,150.5,54.7z
		 M154.2,57.7h-1.6v-8.5h1.6V57.7z M154.1,40.7c-0.3,0.7-0.6,1.2-1.1,1.7c-0.5,0.5-1.1,0.9-1.7,1.1c-0.7,0.3-1.4,0.4-2.2,0.4
		c-0.8,0-1.6-0.1-2.2-0.4c-0.7-0.3-1.2-0.7-1.7-1.1c-0.5-0.5-0.9-1.1-1.1-1.7c-0.3-0.7-0.4-1.4-0.4-2.2c0-0.8,0.1-1.5,0.4-2.2
		c0.3-0.7,0.6-1.2,1.1-1.7c0.5-0.5,1.1-0.9,1.7-1.1c0.7-0.3,1.4-0.4,2.2-0.4c0.8,0,1.6,0.1,2.2,0.4c0.7,0.3,1.2,0.7,1.7,1.1
		c0.5,0.5,0.8,1.1,1.1,1.7s0.4,1.4,0.4,2.2C154.5,39.3,154.4,40,154.1,40.7z M161.8,56c-0.1,0.4-0.3,0.7-0.5,1
		c-0.2,0.3-0.5,0.5-0.8,0.6c-0.3,0.2-0.7,0.2-1,0.2c-0.3,0-0.6,0-0.8-0.1c-0.2-0.1-0.4-0.2-0.6-0.4v2.3h-1.6v-7.7h1
		c0.2,0,0.3,0.1,0.4,0.3l0.1,0.5c0.1-0.1,0.2-0.2,0.4-0.4c0.1-0.1,0.3-0.2,0.4-0.3c0.2-0.1,0.3-0.1,0.5-0.2c0.2,0,0.4-0.1,0.6-0.1
		c0.3,0,0.6,0.1,0.9,0.2c0.3,0.1,0.5,0.3,0.7,0.6c0.2,0.3,0.3,0.6,0.4,0.9c0.1,0.4,0.2,0.8,0.2,1.3C162,55.2,161.9,55.6,161.8,56z
		 M165.8,57.3c0,0.1-0.1,0.2-0.2,0.3c-0.1,0.1-0.2,0.1-0.3,0.2c-0.1,0-0.2,0.1-0.4,0.1c-0.1,0-0.3,0-0.4-0.1c-0.1,0-0.2-0.1-0.3-0.2
		c-0.1-0.1-0.1-0.2-0.2-0.3c0-0.1-0.1-0.2-0.1-0.4c0-0.1,0-0.2,0.1-0.4c0-0.1,0.1-0.2,0.2-0.3c0.1-0.1,0.2-0.1,0.3-0.2
		c0.1,0,0.2-0.1,0.4-0.1c0.1,0,0.2,0,0.4,0.1c0.1,0,0.2,0.1,0.3,0.2c0.1,0.1,0.1,0.2,0.2,0.3c0,0.1,0.1,0.2,0.1,0.4
		C165.9,57,165.8,57.2,165.8,57.3z M164.2,52.7v-3.2h1.5v3.2c0,0.3,0,0.7-0.1,1c0,0.3-0.1,0.7-0.2,1.1h-1.1
		c-0.1-0.4-0.1-0.7-0.2-1.1C164.2,53.4,164.2,53.1,164.2,52.7z M167.4,40.7c-0.3,0.7-0.6,1.2-1.1,1.7c-0.5,0.5-1.1,0.9-1.7,1.1
		c-0.7,0.3-1.4,0.4-2.2,0.4c-0.8,0-1.6-0.1-2.2-0.4c-0.7-0.3-1.2-0.7-1.7-1.1c-0.5-0.5-0.9-1.1-1.1-1.7c-0.3-0.7-0.4-1.4-0.4-2.2
		c0-0.8,0.1-1.5,0.4-2.2c0.3-0.7,0.6-1.2,1.1-1.7c0.5-0.5,1.1-0.9,1.7-1.1c0.7-0.3,1.4-0.4,2.2-0.4c0.8,0,1.6,0.1,2.2,0.4
		c0.7,0.3,1.2,0.7,1.7,1.1c0.5,0.5,0.8,1.1,1.1,1.7s0.4,1.4,0.4,2.2C167.8,39.3,167.6,40,167.4,40.7z M171.3,55.6
		c-0.1,0.5-0.2,0.9-0.3,1.4c-0.1,0.4-0.3,0.9-0.5,1.3c-0.2,0.4-0.4,0.9-0.7,1.3l-0.7-0.4c0,0-0.1-0.1-0.1-0.1c0,0-0.1-0.1-0.1-0.1
		c0,0,0-0.1,0-0.2c0-0.1,0-0.1,0.1-0.2c0.3-0.7,0.6-1.4,0.8-2.1c0.2-0.7,0.3-1.5,0.3-2.3c0-0.8-0.1-1.5-0.3-2.3
		c-0.2-0.7-0.4-1.4-0.8-2.1c0-0.1-0.1-0.2-0.1-0.2c0-0.1,0-0.1,0-0.2c0,0,0-0.1,0.1-0.1c0,0,0.1-0.1,0.1-0.1l0.7-0.4
		c0.3,0.4,0.5,0.9,0.7,1.3c0.2,0.4,0.4,0.9,0.5,1.3c0.1,0.4,0.2,0.9,0.3,1.4c0.1,0.5,0.1,0.9,0.1,1.4
		C171.4,54.7,171.3,55.1,171.3,55.6z M177.5,34.9h-4.6v2.9h3.8v1.7h-3.8v4.3h-2.2V33.2h6.8V34.9z"/>
	<path class="st22" d="M148.9,53.3c-0.1-0.1-0.2-0.2-0.4-0.3c-0.1-0.1-0.3-0.1-0.5-0.1c-0.4,0-0.7,0.1-0.9,0.3
		c-0.2,0.2-0.4,0.5-0.4,0.9h2.4c0-0.2,0-0.3-0.1-0.5C149,53.5,148.9,53.4,148.9,53.3z"/>
</g>
<path class="st23" d="M4,79.7c1.1,3.2,3.7,6,4.8,5.6c1-0.4-0.3-3,1.2-4.7c2.2-2.6,7.2,0.6,10.4-2c2-1.6,2.6-4.9,1.6-7.3
	c-1.1-2.7-4.1-3.6-5.5-4c-3-0.9-8.6-1.1-11.6,2.9C2.1,74,3.7,78.8,4,79.7z"/>
</svg>
